<svg width="116" height="103" viewBox="0 0 116 103" fill="none" xmlns="http://www.w3.org/2000/svg">
<path fill-rule="evenodd" clip-rule="evenodd" d="M57.7275 103C57.2434 103 56.7973 102.793 56.4818 102.412C56.2154 102.097 56.0521 101.673 55.9977 101.21C55.3612 101.091 54.4801 100.628 53.2126 99.9428C52.5272 99.5675 51.5481 99.0398 51.0313 98.8712C50.7048 100.552 50.0087 101.406 48.9534 101.406C48.3822 101.406 47.762 101.14 47.0494 100.59C46.2443 99.97 45.7385 99.9047 45.1021 99.8286C44.2753 99.7198 43.345 99.6056 41.8274 98.4361C39.6733 96.8041 38.7105 96.3309 37.5464 96.3309C37.2689 96.3309 36.9589 96.3581 36.6054 96.4179C36.2244 96.4778 35.871 96.505 35.5555 96.505C33.9182 96.505 33.3415 95.6618 32.9226 95.0471C32.5366 94.4869 32.2862 94.117 31.2854 94.117C29.2183 94.117 29.1802 92.9202 29.1585 92.2729C29.1427 91.7398 29.1426 91.6691 28.3696 91.6691L28.0978 91.767C27.9454 91.8432 27.744 91.9465 27.4884 91.9465C26.8738 91.9465 26.493 91.4298 26.0742 90.5921L25.7205 89.8849L26.4983 89.7217C27.657 89.4769 28.4458 88.835 28.8973 87.7526C29.1803 87.0726 29.5336 85.6148 29.9035 84.0754C30.5182 81.5459 31.2146 78.6792 32.0088 77.3846C32.8138 76.0845 33.1456 73.4898 33.4721 70.9767C33.6082 69.9159 33.7496 68.8171 33.929 67.789C34.1631 66.4454 34.6796 65.76 35.4683 65.76C35.5934 65.76 35.7948 65.76 36.0884 65.9069L35.9199 65.7437C35.0713 64.9332 34.1901 64.0955 35.2128 61.9577C35.6697 61.0003 36.0341 60.4945 36.268 60.1898L36.2081 60.1354C36.0612 59.9993 35.8655 59.8253 35.6261 59.586C34.8265 58.7809 34.9787 57.7365 35.3269 56.877L35.1145 56.8987C34.4726 56.8987 34.1244 56.4309 33.7926 55.9794C33.4555 55.5334 32.9984 54.9187 32.0465 54.304C30.7627 53.4718 29.7836 53.178 29.0003 52.9441C28.1408 52.6885 27.4009 52.4709 26.8189 51.6984C26.5307 51.3122 26.2696 50.9695 26.0302 50.6649C24.6486 48.8807 23.887 47.9016 25.1817 46.6015C25.3557 46.4274 25.3992 46.3893 25.0021 45.9378C24.7901 45.7039 24.5015 45.3776 24.6593 44.9533C24.7028 44.8282 24.7955 44.6758 24.9858 44.5671C23.6204 44.4855 22.5651 43.8816 22.3639 43.0439C22.2387 42.5109 22.4835 42.0159 23.0167 41.6786C22.6087 41.3468 21.5697 40.8899 21.0203 40.8899L20.9603 40.8954L20.77 40.9116C20.052 40.9116 19.7366 40.2751 19.5081 39.8073C19.2251 39.2307 19.0784 39.0403 18.79 39.0403L18.6487 39.0514C17.6642 39.2092 17.2072 39.6987 16.8427 40.0904C16.5707 40.3895 16.2825 40.6942 15.8419 40.6942C15.1837 40.6942 14.7648 40.0686 14.0141 38.5673C13.8455 38.2354 13.2254 38.0668 12.5672 37.8927C11.6697 37.648 10.6524 37.376 9.94527 36.5383C9.55368 36.0759 9.27618 36.0161 9.07491 36.0161C8.78675 36.0161 8.44393 36.1575 8.04686 36.3207C7.51376 36.5492 6.90444 36.7994 6.17556 36.7994C5.773 36.7994 5.36509 36.7178 4.96802 36.5546C3.38507 35.929 3.22728 35.0043 3.12394 34.395C3.05328 33.9762 3.04223 33.9163 2.70508 33.813C1.68788 33.5084 1.69872 32.8339 1.73137 32.6326C1.82926 31.9635 2.63975 31.4739 3.49377 31.2346C3.26521 31.0279 3.14007 30.794 3.20007 30.4894V30.4783C2.58539 30.3097 1.78045 30.1465 1.38334 30.1465L1.10025 30.1793C0.703143 30.1793 0.349562 29.929 0.159179 29.5211C-0.12898 28.8901 -0.0745305 27.7858 0.730304 26.8502C1.33954 26.1485 2.01411 26.056 2.53631 26.056C2.81934 26.056 3.11296 26.0888 3.42848 26.1213C3.80387 26.1592 4.18992 26.2029 4.63602 26.2029C4.79904 26.2029 4.97316 26.1974 5.15281 26.1812C5.53373 26.154 5.91986 26.1322 6.29518 26.1159C7.39946 26.0614 8.77559 25.9963 8.90614 25.5502C9.34678 23.9944 10.8101 23.8639 12.3549 23.7224C12.7901 23.6845 13.1655 23.6028 13.4973 23.532C13.851 23.4505 14.1826 23.3743 14.5035 23.3743C15.2162 23.3743 15.7438 23.7333 16.1681 24.5058C16.5052 25.1041 16.6359 25.697 16.7284 26.1213L16.756 26.2301C17.4795 25.7405 18.6219 25.2564 19.4976 25.2564C20.3299 25.2564 20.6508 25.6861 20.7759 25.9908C20.9717 25.9635 21.2275 25.8929 21.4559 25.833C21.8856 25.7134 22.3262 25.5882 22.7342 25.5882C23.4413 25.5882 23.7406 25.9799 23.8603 26.2138C24.0071 26.5021 24.7632 26.8448 26.4169 26.8448C26.7106 26.8448 27.0098 26.8337 27.3253 26.812C27.0151 26.3388 26.7215 25.5935 27.2329 24.6634C27.7225 23.7604 27.7062 23.4177 27.6844 22.9444C27.6687 22.6126 27.6529 22.1992 27.7824 21.6008C28.0433 20.4368 27.8313 19.7296 27.2003 18.1467C26.8794 17.347 26.7977 16.6344 26.727 16.0578C26.6619 15.503 26.618 15.095 26.4005 14.8339C26.0089 14.3334 26.1013 13.9418 26.1937 13.7514C26.4712 13.1802 27.2381 13.1802 27.4883 13.1802C27.9181 13.1802 28.4566 13.251 28.9951 13.387C29.1092 13.4142 29.2399 13.4304 29.3923 13.4304C29.6153 13.4304 29.8601 13.4032 30.0994 13.3705C30.3386 13.3433 30.589 13.3161 30.8229 13.3161C31.7912 13.3161 32.3187 13.8764 32.3187 14.9045C32.3187 15.5681 32.6831 15.9543 33.1021 16.4004C33.5318 16.8628 34.0214 17.3795 33.9018 18.1683C33.8145 18.7558 34.4892 19.8328 34.8264 19.9579L34.9244 19.8383C35.4629 19.191 35.9253 18.6362 36.8446 18.6362C37.16 18.6362 37.5082 18.7015 37.9434 18.8483L38.0902 18.87C38.4439 18.87 38.9389 18.5056 39.4665 18.1193C40.2607 17.5427 41.2507 16.8193 42.4855 16.8193L42.7085 16.8303L43.334 16.8738C43.1055 16.6671 42.9369 16.4332 42.9043 16.1394C42.8443 15.6118 43.2253 15.2582 43.568 14.9536C43.7638 14.7741 43.9868 14.5674 44.1663 14.3171C44.7266 13.5284 45.3467 13.3815 45.9451 13.2401C46.3748 13.1367 46.8263 13.0279 47.4247 12.6689C48.9913 11.7333 49.4427 11.6789 51.6023 11.4015L51.9611 11.358C52.3038 11.3146 52.6574 11.2818 53.0164 11.2438C55.5785 10.9991 57.2594 10.7053 57.2594 8.99182C57.2594 7.36536 57.6185 6.82682 58.2004 6.52765L58.1886 6.46232C58.0524 5.40704 58.6292 4.68899 59.0535 4.1559C59.2276 3.93832 59.3905 3.7316 59.445 3.58473C59.4648 3.514 59.4609 3.28557 59.4569 3.13326C59.4293 2.36626 59.3807 0.767005 61.8341 0.614687C62.9111 0.549358 63.4496 0.41886 63.9718 0.299175C64.6191 0.146845 65.2285 0 66.621 0H67.0289L67.1868 0.375323C67.6927 1.57749 68.3672 1.71891 69.2212 1.89842C69.9012 2.03986 70.6681 2.20304 71.2556 2.95371C71.6581 3.47047 72.0988 3.54119 72.6536 3.62822C73.2737 3.72612 74.0354 3.8458 74.6337 4.64544C75.1777 5.36891 75.3299 5.39613 76.1786 5.54843C76.4995 5.60831 76.8803 5.67889 77.3644 5.79865C78.6754 6.13047 80.106 7.08241 79.4968 9.74785C79.4099 10.1558 79.4423 10.4876 79.5892 10.6726C79.747 10.8684 80.0461 10.9065 80.2636 10.9065C80.4215 10.9065 80.59 10.8903 80.7749 10.8521C81.9444 10.6182 82.0097 10.3408 82.3035 9.02436C82.5048 8.09419 83.114 7.44143 83.7776 7.44143C84.0768 7.44143 84.3434 7.57194 84.5338 7.81131C84.8547 8.20297 84.9198 8.8557 84.7295 9.74237C84.6533 10.0851 84.5662 10.4169 84.4848 10.7324C84.2456 11.6571 84.0442 12.4513 84.2997 12.8811C84.4465 13.1313 84.8001 13.3325 85.3495 13.4631C86.976 13.8711 87.471 14.9046 87.8246 15.6607C88.1183 16.2645 88.2761 16.5637 88.7493 16.6943L88.9724 16.7377C89 16.629 89.0118 16.4277 89.0213 16.3026C89.0529 15.7912 89.1137 14.9426 89.9515 14.7033C90.3269 14.5945 90.626 14.5455 90.8817 14.5455C91.6323 14.5455 91.9097 14.9971 92.0729 15.269C92.2308 15.5302 92.3666 15.7532 93.3403 15.7532C93.6668 15.7532 93.9823 15.7476 94.287 15.7421C94.5751 15.7421 94.8581 15.7366 95.1301 15.7366C96.0385 15.7366 97.0121 15.7745 97.9804 16.0575C98.8616 16.3186 99.6069 16.6994 100.325 17.2597C101.076 17.8471 101.587 18.4292 102.038 18.9351C102.909 19.9142 103.436 20.5071 105.014 20.5071C106.635 20.5071 107.565 20.8063 108.457 21.0946C109.137 21.3122 109.779 21.5189 110.736 21.5788C112.537 21.6984 114.066 22.5525 114.452 23.6567C114.604 24.0919 114.718 24.9622 113.728 25.8652C112.211 27.236 111.155 30.527 111.155 32.6213C111.155 33.5786 110.959 34.3891 110.785 35.1072C110.546 36.0972 110.361 36.8751 110.666 37.7944C110.829 38.284 110.894 38.7953 110.856 39.2087C110.758 39.9757 110.214 40.4435 109.436 40.4435C109.028 40.4435 108.544 40.3184 108 40.079C107.961 40.0628 107.881 40.0356 107.744 40.0356C107.01 40.0356 105.928 40.6394 105.438 41.08C105.879 41.129 106.548 41.2704 106.7 41.8524C106.907 42.6031 106.102 43.1634 104.878 44.0119L104.448 44.3111C103.98 44.6429 103.42 44.9421 102.876 45.2358C101.63 45.8995 100.347 46.5903 100.08 47.6402C99.9438 48.195 99.7155 48.8587 99.4435 49.6256C98.8016 51.4806 97.9966 53.7816 98.0999 55.7453C98.1157 56.0336 98.1488 56.2131 98.1816 56.3219C98.5187 56.0608 99.1879 55.1632 99.5524 54.4343C100.009 53.5259 101.908 52.8187 103.241 52.8187C104.579 52.8187 105.003 53.4987 105.139 53.9012C105.302 54.3854 105.487 54.5812 105.748 54.8532C106.102 55.2231 106.542 55.6854 106.831 56.855C107.114 57.9647 107.342 58.5848 107.772 58.6609L108.381 58.7643L108.267 59.3735C107.897 61.3046 108.169 61.8159 108.43 62.3109C108.631 62.6917 108.86 63.1215 108.86 63.9102C108.86 64.1332 108.86 64.2039 109.523 64.2964C109.909 64.3509 110.432 64.4215 110.638 64.9111C110.84 65.3844 110.568 65.8576 110.274 66.2601C109.6 67.1794 108.92 67.6853 108.376 68.0987C107.875 68.4741 107.511 68.7515 107.266 69.2193C107.38 69.3825 107.864 69.6762 108.163 69.8558C109.104 70.4215 110.535 71.281 110.056 72.8258C109.844 73.5058 109.605 73.9301 109.409 74.2673C109.045 74.9092 108.876 75.2029 109.437 77.0742C109.769 78.1621 109.856 78.9998 109.921 79.6145C110.04 80.7133 110.041 80.7133 111.052 80.7786L111.662 80.8165C113.217 80.9035 114.566 80.9851 115.089 81.8772C115.382 82.3886 115.333 83.0195 114.936 83.8138C114.441 84.7874 114.512 85.3097 114.512 85.3097L114.583 85.7938L114.136 85.9896C112.853 86.5009 112.282 86.6261 111.498 86.7947C111.188 86.86 110.835 86.9361 110.389 87.0504C109.687 87.2244 109.611 87.491 109.491 87.9261C109.377 88.3396 109.208 88.9597 108.419 89.1881C108.077 89.286 108.011 89.3894 107.707 89.9878C107.462 90.4719 107.125 91.1355 106.428 92.044C105.254 93.5725 104.323 94.2198 103.328 94.2198C102.942 94.2198 102.561 94.1219 102.175 93.9207C101.936 94.16 101.593 94.2905 101.19 94.2905C99.8954 94.2905 97.8448 92.8001 97.5347 91.8644C97.3551 91.3313 95.7667 90.4338 93.9227 90.2815C92.6226 90.1782 92.3615 89.3785 92.2256 88.9433C92.1115 88.5952 92.1059 88.5898 91.7468 88.5898L91.5511 88.5953C90.5991 88.6715 90.0769 89.0141 89.3534 89.482C88.7387 89.8899 88.037 90.3469 86.9437 90.7113C86.0026 91.0268 85.3389 91.1683 84.7895 91.1683C84.2619 91.1683 83.8975 91.0432 83.5058 90.9071C83.3317 90.8473 83.1414 90.7821 82.9074 90.7222H82.9035C82.4357 90.7222 81.5762 91.5816 80.7385 92.4139C79.8899 93.2625 78.9217 94.2199 77.7412 95.0739C76.2834 96.1292 76.1583 96.4773 76.0386 96.8146C75.8862 97.2498 75.7121 97.6305 75.0159 98.2615C74.4502 98.7729 74.472 98.898 74.521 99.1754C74.5971 99.5616 74.7006 100.149 74.0913 101.079L73.7593 101.591L73.2425 101.253C72.8998 101.03 72.6495 100.807 72.4428 100.628C72.2687 100.475 72.084 100.318 72.0077 100.318C71.9098 100.318 71.6267 100.41 70.8381 101.041C70.1092 101.618 69.3313 101.688 68.8091 101.688C68.5533 101.688 68.2924 101.667 68.0367 101.651C67.8081 101.634 67.5744 101.618 67.3459 101.618C66.7258 101.618 66.3232 101.754 65.9534 102.091C65.6214 102.385 65.2299 102.532 64.7893 102.532C64.0821 102.537 63.3695 102.145 62.6841 101.77C62.0639 101.427 61.4166 101.079 60.8999 101.079C60.6768 101.079 60.3722 101.134 60.0349 101.558C59.0776 102.749 58.2507 103 57.7285 103" fill="#979797"/>
<path fill-rule="evenodd" clip-rule="evenodd" d="M113.908 85.4244C112.173 86.1153 111.83 86.0609 110.236 86.458C108.392 86.9149 109.317 88.2966 108.251 88.6012C107.179 88.9058 107.484 89.6728 105.945 91.6692C104.416 93.6601 103.334 94.117 101.957 93.0454C101.642 94.7426 98.4161 92.5885 98.1115 91.6692C97.8067 90.7444 95.805 89.8251 93.9718 89.6728C92.1277 89.5259 93.4932 87.8342 91.5023 87.9865C89.5059 88.1388 89.049 89.3627 86.7534 90.1297C84.447 90.9076 84.2838 90.4452 83.0599 90.1297C81.8359 89.8251 80.1442 92.5885 77.3809 94.5794C74.6176 96.5757 76.1351 96.4234 74.6066 97.8105C73.078 99.1759 74.6066 99.1759 73.5786 100.743C72.2295 99.8559 72.3764 99.0236 70.4562 100.563C68.9168 101.787 67.089 100.242 65.5441 101.635C63.9993 103.016 61.3937 98.8821 59.5551 101.178C57.711 103.484 56.3239 102.097 56.6285 100.411C56.4055 101.651 50.6776 97.2067 50.4872 98.4198C50.1825 100.411 49.4102 101.635 47.4192 100.106C45.4229 98.5666 44.7974 99.9538 42.1972 97.952C39.5807 95.9665 38.5091 95.4878 36.5073 95.8087C32.6723 96.4234 34.2063 93.5078 31.2852 93.5078C28.3696 93.5078 31.1328 91.0599 28.3695 91.0599C27.6079 91.0599 27.4774 92.0336 26.6234 90.3201C27.8636 90.059 28.8863 89.3627 29.4629 87.9865C30.2244 86.1424 31.296 79.7073 32.5309 77.7055C33.7547 75.7201 33.918 71.4227 34.5272 67.8978C35.1419 64.3675 37.2906 67.7455 38.5254 70.1988C38.21 64.3675 34.0704 65.7546 35.7621 62.2243C37.0567 59.4936 37.6006 60.6849 36.0612 59.1509C34.5272 57.6169 37.9706 54.5598 36.2191 55.7783C34.2119 57.1545 34.9899 55.4682 32.3788 53.7874C29.6644 52.0304 28.2284 52.5526 27.3091 51.3286C25.3182 48.685 24.5456 48.1084 25.6173 47.0367C26.6889 45.9651 24.5456 45.1927 25.4649 45.0458C26.3896 44.8935 27.309 43.9688 25.3126 43.9688C23.3108 43.9688 22.2392 42.7449 23.4631 42.1302C24.6979 41.5209 21.7822 40.1338 20.8574 40.297C19.9382 40.4384 20.1339 38.1973 18.551 38.4475C15.6354 38.9099 16.4078 41.9779 14.5583 38.2952C13.9763 37.1257 11.5719 37.5119 10.4133 36.1411C8.71608 34.1556 7.49222 36.919 5.19665 35.9888C2.88482 35.075 4.42421 33.6933 2.88481 33.2255C1.34536 32.7686 3.3526 31.5446 4.88115 31.6969C6.41511 31.8493 2.73246 30.6253 4.11957 30.473C5.49579 30.3207 1.81321 29.4014 1.19312 29.5537C0.578429 29.706 0.273809 28.3189 1.19312 27.2527C2.11783 26.1757 3.18944 26.9427 5.19665 26.7904C7.18759 26.638 9.18392 26.7904 9.49399 25.7188C9.79873 24.6471 10.7179 24.484 12.4096 24.3316C14.1013 24.1902 14.8684 23.4178 15.6354 24.7995C16.4078 26.1757 15.9456 27.5574 17.017 26.7904C18.0886 26.0234 20.0905 25.4141 20.2428 26.3334C20.3952 27.2527 22.8538 25.5664 23.3107 26.4858C23.7731 27.4051 25.7694 27.5574 27.6135 27.4051C29.463 27.2528 26.8519 26.6381 27.7714 24.9518C28.6853 23.26 28.0761 23.1077 28.3806 21.7315C28.6853 20.3553 28.3806 19.4632 27.7714 17.9237C27.1567 16.3952 27.4995 15.2094 26.8739 14.4478C26.2647 13.6754 27.6137 13.6754 28.8485 13.98C30.0724 14.2955 31.7098 13.213 31.7098 14.9047C31.7098 16.591 33.4558 17.0044 33.2981 18.076C33.1402 19.1477 34.5274 21.2746 35.2944 20.3553C36.0669 19.4251 36.3661 18.9682 37.7533 19.4251C39.1404 19.8875 40.5165 17.2873 42.6706 17.4396C44.8193 17.5919 46.0542 17.7442 44.3624 16.8249C42.6707 15.9002 43.9 15.7533 44.6671 14.6708C45.4287 13.5992 46.1957 14.116 47.7351 13.1967C49.2745 12.2774 49.5791 12.2774 52.0379 11.9619C54.4966 11.6573 57.8746 11.766 57.8746 8.99181C57.8746 6.23934 58.9462 7.61558 58.7993 6.39165C58.6363 5.15685 59.7785 4.49865 60.0232 3.78062C60.268 3.06803 59.4032 1.3763 61.8673 1.22398C64.3261 1.07169 64.1629 0.614746 66.6216 0.614746C67.7041 3.16594 69.6896 1.94203 70.7721 3.32914C71.8437 4.70537 73.22 3.78062 74.1502 5.00998C75.0694 6.23934 75.374 5.92928 77.218 6.39165C79.0621 6.85947 79.2144 8.23571 78.9043 9.61194C78.6051 10.9882 79.3721 11.766 80.9006 11.4505C82.4401 11.1405 82.5924 10.5312 82.897 9.155C83.2073 7.76789 84.5888 7.46327 84.1319 9.61194C83.6641 11.766 82.7447 13.4469 85.2034 14.0616C87.6621 14.6708 86.8952 16.8249 88.5869 17.2873C90.2732 17.7442 89.1254 15.5738 90.1155 15.2964C92.2696 14.6708 90.7301 16.3626 93.3412 16.3626C95.071 16.3626 96.4473 16.2484 97.8072 16.6454C98.5089 16.8522 99.2106 17.1676 99.9504 17.7442C102.099 19.4251 102.251 21.1168 105.015 21.1168C107.784 21.1168 108.393 22.0361 110.699 22.1939C113 22.3407 115.002 23.8748 113.316 25.4142C111.624 26.9427 110.547 30.473 110.547 32.6217C110.547 34.7649 109.475 36.1412 110.084 37.9907C110.237 38.4476 110.275 38.8719 110.248 39.1493C110.139 39.987 109.285 39.9761 108.251 39.5192C106.864 38.91 103.171 41.521 105.173 41.6733C107.169 41.8256 105.63 42.7341 104.101 43.8111C102.562 44.8936 99.9506 45.6497 99.4883 47.4937C99.0313 49.3378 97.3396 52.8681 97.4919 55.7784C97.6443 58.694 99.6405 55.6261 100.103 54.7067C100.56 53.7875 104.101 52.705 104.558 54.0921C105.015 55.4683 105.782 55.1637 106.239 57.0023C106.538 58.1881 106.837 59.1183 107.664 59.2597C107.017 62.6813 108.251 62.2244 108.251 63.9107C108.251 65.6024 111.015 64.2153 109.78 65.8961C108.545 67.5879 107.321 67.7456 106.712 68.9695C106.092 70.1989 110.085 70.6613 109.475 72.6467C108.85 74.6485 107.936 74.1862 108.85 77.2487C109.78 80.3167 108.709 81.236 111.015 81.3883C113.316 81.5406 115.432 81.4536 114.387 83.5424C113.767 84.7663 113.909 85.4245 113.909 85.4245" fill="white"/>
<path fill-rule="evenodd" clip-rule="evenodd" d="M38.352 69.856C37.1009 67.4462 35.1153 64.5306 34.5278 67.8977C33.9186 71.4226 33.7554 75.7199 32.5315 77.7054C31.2967 79.7072 30.2251 86.1423 29.4635 87.9864C28.8869 89.3626 27.8643 90.0589 26.624 90.32C27.478 92.0335 27.6086 91.0598 28.3702 91.0598C31.1335 91.0598 28.3702 93.5076 31.2859 93.5076C34.207 93.5076 32.673 96.4233 36.5079 95.8086C37.1988 95.6999 37.7809 95.6836 38.352 95.7924V69.8561" fill="#002E5C"/>
<path fill-rule="evenodd" clip-rule="evenodd" d="M37.7532 19.4248C36.3661 18.9679 36.0669 19.4248 35.2944 20.355C34.5274 21.2743 33.1404 19.1474 33.2981 18.0758C33.456 17.0042 31.7098 16.5908 31.7098 14.9045C31.7098 13.2127 30.0724 14.2952 28.8485 13.9797C27.6137 13.6751 26.2647 13.6751 26.8739 14.4475C27.4995 15.2091 27.1565 16.3949 27.7714 17.9235C28.3806 19.4629 28.6853 20.355 28.3807 21.7312C28.076 23.1075 28.6854 23.2598 27.7714 24.9515C26.8521 26.6378 29.4631 27.2525 27.6135 27.4048C25.7694 27.5571 23.7731 27.4048 23.3107 26.4855C22.8538 25.5662 20.3951 27.2525 20.2428 26.3332C20.0905 25.4139 18.0886 26.0231 17.017 26.7901C15.9454 27.5571 16.4078 26.1754 15.6354 24.7992C14.8684 23.4175 14.1013 24.1899 12.4096 24.3314C10.7179 24.4837 9.79861 24.6469 9.49399 25.7185C9.18373 26.7901 7.18759 26.6378 5.19665 26.7901C3.18944 26.9424 2.11783 26.1754 1.19312 27.2525C0.273809 28.3186 0.578429 29.7058 1.19312 29.5534C1.81321 29.4012 5.49579 30.3204 4.11957 30.4728C2.73246 30.6251 6.41511 31.849 4.88115 31.6967C3.3526 31.5444 1.34536 32.7683 2.88481 33.2252C4.42421 33.693 2.88482 35.0747 5.19665 35.9886C7.49221 36.9187 8.71608 34.1554 10.4133 36.1409C11.5719 37.5117 13.9763 37.1254 14.5583 38.295C16.4078 41.9776 15.6354 38.9097 18.551 38.4473C20.1339 38.197 19.9382 40.4382 20.8574 40.2967C21.7822 40.1336 24.6979 41.5207 23.4631 42.1299C22.2392 42.7446 23.3108 43.9685 25.3126 43.9685C27.309 43.9685 26.3895 44.8933 25.4649 45.0456C24.5456 45.1924 26.6888 45.9649 25.6173 47.0365C24.5456 48.1081 25.3181 48.6847 27.3091 51.3284C28.2284 52.5523 29.6644 52.0301 32.3788 53.7871C34.9899 55.468 34.2119 57.1542 36.2191 55.778C37.9707 54.5595 34.5275 57.6166 36.0613 59.1506C37.6008 60.6846 37.0568 59.4933 35.7621 62.224C34.2226 65.428 37.5028 64.5794 38.3514 68.7733V19.4466C38.15 19.49 37.9488 19.49 37.753 19.4249" fill="#002E5C"/>
<path fill-rule="evenodd" clip-rule="evenodd" d="M111.014 81.3882C108.708 81.2359 109.78 80.3166 108.849 77.2486C107.935 74.1861 108.849 74.6485 109.475 72.6467C110.084 70.6612 106.091 70.1988 106.712 68.9695C107.321 67.7456 108.545 67.5878 109.779 65.8961C111.014 64.2152 108.251 65.6023 108.251 63.9106C108.251 62.2243 107.016 62.6812 107.663 59.2597C106.837 59.1183 106.537 58.1881 106.238 57.0022C105.781 55.1636 105.014 55.4683 104.557 54.092C104.1 52.7049 100.559 53.7874 100.102 54.7067C99.6399 55.626 97.6436 58.694 97.4913 55.7783C97.3389 52.8681 99.0307 49.3378 99.4877 47.4937C99.95 45.6497 102.561 44.8936 104.1 43.8111C105.629 42.734 107.169 41.8256 105.172 41.6733C103.17 41.521 106.864 38.9099 108.251 39.5192C109.285 39.9761 110.139 39.987 110.247 39.1493C110.275 38.8718 110.235 38.4475 110.084 37.9906C109.475 36.1411 110.546 34.7649 110.546 32.6217C110.546 30.473 111.623 26.9427 113.315 25.4141C115.001 23.8747 113 22.3407 110.699 22.1938C108.392 22.0361 107.783 21.1168 105.014 21.1168C102.251 21.1168 102.099 19.4251 99.9499 17.7442C99.2101 17.1676 98.5083 16.8521 97.8066 16.6454C96.4467 16.2483 95.0705 16.3625 93.3407 16.3625C90.7297 16.3625 92.269 14.6708 90.1149 15.2963C89.1248 15.5738 90.2729 17.7442 88.5864 17.2873C86.8947 16.8249 87.6616 14.6708 85.2029 14.0615C82.7442 13.4469 83.6635 11.766 84.1313 9.6119C84.5882 7.46323 83.2066 7.76785 82.8965 9.15496C82.5918 10.5312 82.4396 11.1404 80.9002 11.4505C79.3716 11.766 78.6046 10.9881 78.9038 9.6119C79.2141 8.23567 79.0617 6.85943 77.2176 6.39162C76.9511 6.32088 76.7171 6.27202 76.5049 6.23389V95.2539C76.739 95.0581 77.0216 94.8405 77.3807 94.5794C80.144 92.5885 81.8358 89.8251 83.0597 90.1298C84.2837 90.4452 84.4468 90.9076 86.7532 90.1298C89.0487 89.3628 89.5057 88.1388 91.502 87.9865C93.4929 87.8342 92.1276 89.526 93.9717 89.6728C95.8049 89.8251 97.8066 90.7444 98.1112 91.6692C98.416 92.5885 101.642 94.7426 101.957 93.0454C103.333 94.117 104.416 93.6601 105.944 91.6692C107.484 89.6728 107.179 88.9059 108.251 88.6012C109.317 88.2966 108.392 86.9149 110.236 86.458C111.83 86.0609 112.173 86.1153 113.908 85.4245C113.908 85.4245 113.767 84.7663 114.387 83.5423C115.431 81.4535 113.315 81.5405 111.014 81.3882" fill="#CC2835"/>
<path d="M65.5331 62.6106C62.8404 60.5055 59.6908 59.7603 57.6401 59.7603C55.5839 59.7603 52.4344 60.5055 49.7472 62.6106C47.7563 64.1664 45.4445 66.9515 44.8135 71.684H47.4897C48.6865 64.1501 55.0399 62.4039 57.6401 62.4039C60.2402 62.4039 66.5883 64.1501 67.785 71.684H70.4614C69.8304 66.9515 67.5186 64.1664 65.5331 62.6106Z" fill="#D1D1CC"/>
<path d="M49.8613 62.986C52.5105 60.8645 55.6164 60.1029 57.64 60.1029C59.6581 60.1029 62.7642 60.8645 65.4133 62.986C67.3063 64.5036 69.4985 67.1854 70.2057 71.684H70.4614C69.8304 66.9515 67.5186 64.1664 65.5331 62.6106C62.8404 60.5055 59.6908 59.7603 57.6401 59.7603C55.5839 59.7603 52.4344 60.5055 49.7472 62.6106C47.7563 64.1664 45.4445 66.9515 44.8135 71.684H45.0692C45.7764 67.1854 47.9686 64.5036 49.8616 62.986" fill="#828575"/>
<path d="M47.2887 74.3056V72.6465H24.9971V74.3056H47.2887Z" fill="#828575"/>
<path d="M70.6355 103H67.9863V74.3057H70.6355V103Z" fill="#D1D1CC"/>
<path d="M70.6361 103H69.7168V74.3057H70.6361V103Z" fill="#AEB0A6"/>
<path d="M90.2784 103H70.6357V74.3057H90.2784V103Z" fill="#D1D1CC"/>
<path d="M44.6455 103H47.2891V74.3057H44.6455V103Z" fill="#D1D1CC"/>
<path d="M44.6455 103H45.5594V74.3057H44.6455V103Z" fill="#AEB0A6"/>
<path d="M24.9971 103H44.6451V74.3057H24.9971V103Z" fill="#D1D1CC"/>
<path d="M24.9971 71.8306H44.6451V58.6611H24.9971V71.8306Z" fill="#D1D1CC"/>
<path d="M30.584 103H39.0862V92.311H30.584V103Z" fill="#AEB0A6"/>
<path d="M30.1973 92.855H39.4719V92.583H30.1973V92.855Z" fill="#828575"/>
<path d="M30.1973 93.1324H39.4719V92.855H30.1973V93.1324Z" fill="#AEB0A6"/>
<path d="M30.1973 93.4043H39.4719V93.1323H30.1973V93.4043Z" fill="#828575"/>
<path d="M29.8926 94.4215H39.7764V93.4043H29.8926V94.4215Z" fill="#AEB0A6"/>
<path d="M30.584 94.7591H39.0862V94.4219H30.584V94.7591Z" fill="#828575"/>
<path d="M30.584 100.563H39.0862V100.226H30.584V100.563Z" fill="#828575"/>
<path d="M26.0578 73.68V73.272H25.6499V73.68H26.0578ZM26.3298 73.952V73H25.3833V73.952H26.3298ZM26.6018 74.2185H25.1113V72.728H26.6018V74.2185Z" fill="#AEB0A6"/>
<path d="M28.0969 73.68V73.272H27.689V73.68H28.0969ZM28.3689 73.952V73H27.4224V73.952H28.3689ZM28.6409 74.2185H27.1504V72.728H28.6409V74.2185Z" fill="#AEB0A6"/>
<path d="M30.1434 73.68V73.272H29.7354V73.68H30.1434ZM30.4099 73.952V73H29.4634V73.952H30.4099ZM30.6819 74.2185H29.1914V72.728H30.6819V74.2185Z" fill="#AEB0A6"/>
<path d="M32.1825 73.68V73.272H31.7746V73.68H32.1825ZM32.449 73.952V73H31.5025V73.952H32.449ZM32.721 74.2185H31.2305V72.728H32.721V74.2185Z" fill="#AEB0A6"/>
<path d="M34.2225 73.68V73.272H33.8146V73.68H34.2225ZM34.4946 73.952V73H33.5426V73.952H34.4946ZM34.761 74.2185H33.2705V72.728H34.761V74.2185Z" fill="#AEB0A6"/>
<path d="M36.263 73.68V73.272H35.855V73.68H36.263ZM36.535 73.952V73H35.583V73.952H36.535ZM36.8015 74.2185H35.3164V72.728H36.8015V74.2185Z" fill="#AEB0A6"/>
<path d="M38.302 73.68V73.272H37.8941V73.68H38.302ZM38.574 73.952V73H37.6221V73.952H38.574ZM38.846 74.2185H37.3555V72.728H38.846V74.2185Z" fill="#AEB0A6"/>
<path d="M40.342 73.68V73.272H39.934V73.68H40.342ZM40.6139 73.952V73H39.662V73.952H40.6139ZM40.8859 74.2185H39.3955V72.728H40.8859V74.2185Z" fill="#AEB0A6"/>
<path d="M42.3822 73.68V73.272H41.9741V73.68H42.3822ZM42.6542 73.952V73H41.7077V73.952H42.6542ZM42.9261 74.2185H41.4355V72.728H42.9261V74.2185Z" fill="#AEB0A6"/>
<path d="M44.4276 73.68V73.272H44.0142V73.68H44.4276ZM44.694 73.952V73H43.7475V73.952H44.694ZM44.966 74.2185H43.4756V72.728H44.966V74.2185Z" fill="#AEB0A6"/>
<path d="M46.4677 73.68V73.272H46.0596V73.68H46.4677ZM46.7341 73.952V73H45.7876V73.952H46.7341ZM47.006 74.2185H45.5156V72.728H47.006V74.2185Z" fill="#AEB0A6"/>
<path d="M90.2946 74.3056V72.6465H68.0029V74.3056H90.2946Z" fill="#828575"/>
<path d="M69.0637 73.68V73.272H68.6557V73.68H69.0637ZM69.3357 73.952V73H68.3892V73.952H69.3357ZM69.6076 74.2185H68.1172V72.728H69.6076V74.2185Z" fill="#AEB0A6"/>
<path d="M71.1093 73.68V73.272H70.7014V73.68H71.1093ZM71.3757 73.952V73H70.4292V73.952H71.3757ZM71.6477 74.2185H70.1572V72.728H71.6477V74.2185Z" fill="#AEB0A6"/>
<path d="M73.1493 73.68V73.272H72.7413V73.68H73.1493ZM73.4158 73.952V73H72.4693V73.952H73.4158ZM73.6877 74.2185H72.1973V72.728H73.6877V74.2185Z" fill="#AEB0A6"/>
<path d="M75.1888 73.68V73.272H74.7809V73.68H75.1888ZM75.4608 73.952V73H74.5089V73.952H75.4608ZM75.7273 74.2185H74.2422V72.728H75.7273V74.2185Z" fill="#AEB0A6"/>
<path d="M77.2287 73.68V73.272H76.8208V73.68H77.2287ZM77.5007 73.952V73H76.5488V73.952H77.5007ZM77.7672 74.2185H76.2822V72.728H77.7672V74.2185Z" fill="#AEB0A6"/>
<path d="M79.2688 73.68V73.272H78.8607V73.68H79.2688ZM79.5408 73.952V73H78.5942V73.952H79.5408ZM79.8127 74.2185H78.3223V72.728H79.8127V74.2185Z" fill="#AEB0A6"/>
<path d="M81.3088 73.68V73.272H80.9008V73.68H81.3088ZM81.5808 73.952V73H80.6343V73.952H81.5808ZM81.8527 74.2185H80.3623V72.728H81.8527V74.2185Z" fill="#AEB0A6"/>
<path d="M83.3534 73.68V73.272H82.94V73.68H83.3534ZM83.6199 73.952V73H82.6733V73.952H83.6199ZM83.8918 74.2185H82.4014V72.728H83.8918V74.2185Z" fill="#AEB0A6"/>
<path d="M85.3934 73.68V73.272H84.9854V73.68H85.3934ZM85.6599 73.952V73H84.7134V73.952H85.6599ZM85.9318 74.2185H84.4414V72.728H85.9318V74.2185Z" fill="#AEB0A6"/>
<path d="M87.4335 73.68V73.272H87.0256V73.68H87.4335ZM87.7055 73.952V73H86.7536V73.952H87.7055ZM87.972 74.2185H86.4814V72.728H87.972V74.2185Z" fill="#AEB0A6"/>
<path d="M89.4735 73.68V73.272H89.0655V73.68H89.4735ZM89.7454 73.952V73H88.7935V73.952H89.7454ZM90.0119 74.2185H88.5215V72.728H90.0119V74.2185Z" fill="#AEB0A6"/>
<path d="M24.9971 94.7591H30.5836V94.4219H24.9971V94.7591Z" fill="#AEB0A6"/>
<path d="M24.9971 95.0961H30.5836V94.7588H24.9971V95.0961Z" fill="#828575"/>
<path d="M44.6725 94.7591H39.0859V94.4219H44.6725V94.7591Z" fill="#AEB0A6"/>
<path d="M44.6725 95.0961H39.0859V94.7588H44.6725V95.0961Z" fill="#828575"/>
<path d="M24.9971 100.9H30.5836V100.563H24.9971V100.9Z" fill="#AEB0A6"/>
<path d="M24.9971 101.238H30.5836V100.9H24.9971V101.238Z" fill="#828575"/>
<path d="M44.6725 100.9H39.0859V100.563H44.6725V100.9Z" fill="#AEB0A6"/>
<path d="M44.6725 101.238H39.0859V100.9H44.6725V101.238Z" fill="#828575"/>
<path d="M90.2784 71.8306H70.6357V58.6611H90.2784V71.8306Z" fill="#D1D1CC"/>
<path d="M89.2225 58.6613H26.0518V57.1001H89.2225V58.6613Z" fill="#AEB0A6"/>
<path d="M89.2225 57.0999H26.0518V53.1235H89.2225V57.0999Z" fill="#AEB0A6"/>
<path d="M90.9316 53.1239H24.3447V49.1475H90.9316V53.1239Z" fill="#D1D1CC"/>
<path d="M90.9316 52.4435H24.3447V52.0845H90.9316V52.4435Z" fill="#828575"/>
<path d="M89.5602 49.1473H25.7148V42.4565H89.5602V49.1473Z" fill="#D1D1CC"/>
<path d="M89.5602 42.4563H25.7148V41.896H89.5602V42.4563Z" fill="#828575"/>
<path d="M89.5602 41.896H25.7148V40.6177H89.5602V41.896Z" fill="#AEB0A6"/>
<path d="M89.5602 40.8733H25.7148V40.6177H89.5602V40.8733Z" fill="#828575"/>
<path d="M89.5552 40.6181H25.7153L24.9375 39.7695H90.3385L89.5552 40.6181" fill="#D1D1CC"/>
<path d="M89.1575 39.3452H26.1172L25.7256 39.7695H89.5491L89.1576 39.3452" fill="#AEB0A6"/>
<path d="M89.5602 49.1473H25.7148V48.9297H89.5602V49.1473Z" fill="#828575"/>
<path d="M90.9316 51.1381H24.3447V50.7573H90.9316V51.1381Z" fill="#828575"/>
<path d="M90.9316 50.7574H24.3447V50.0938H90.9316V50.7574Z" fill="#AEB0A6"/>
<path d="M26.4111 56.7412V53.4883H88.8639V56.7412H26.4111Z" fill="#828575"/>
<path d="M89.2225 57.9596H26.0518V57.7964H89.2225V57.9596Z" fill="#828575"/>
<path d="M84.6916 103H76.1895V92.311H84.6916V103Z" fill="#AEB0A6"/>
<path d="M85.0783 92.583H75.8037V92.311H85.0783V92.583Z" fill="#AEB0A6"/>
<path d="M85.0783 92.855H75.8037V92.583H85.0783V92.855Z" fill="#828575"/>
<path d="M85.0783 93.1324H75.8037V92.855H85.0783V93.1324Z" fill="#AEB0A6"/>
<path d="M85.0783 93.4043H75.8037V93.1323H85.0783V93.4043Z" fill="#828575"/>
<path d="M85.3829 94.4215H75.499V93.4043H85.3829V94.4215Z" fill="#AEB0A6"/>
<path d="M84.6916 94.7591H76.1895V94.4219H84.6916V94.7591Z" fill="#828575"/>
<path d="M84.6916 100.563H76.1895V100.226H84.6916V100.563Z" fill="#828575"/>
<path d="M77.626 78.1188C76.7502 77.9666 75.5262 79.4897 76.5489 82.5467C75.5861 82.7807 75.053 83.602 75.7057 84.5322L75.8036 92.3109H84.915C84.915 92.3109 84.9912 90.6083 84.9912 90.3037C84.9912 90.0045 85.8181 90.0372 85.8181 89.5312C85.8181 89.0254 85.8942 87.66 85.704 87.1976C85.5137 86.7353 84.5182 86.4578 84.6052 86.0336C84.6921 85.6147 85.9324 86.2566 85.9324 85.9357C85.9324 85.6147 85.0784 84.8423 84.9478 84.7117C84.8227 84.5812 85.6333 84.6739 85.6333 84.1515C85.6333 83.6292 85.0567 82.438 85.3451 82.3618C85.6333 82.2856 85.4212 81.9919 84.9479 81.5241C84.4801 81.0509 85.3451 80.7027 85.3451 80.5178C85.3451 77.2594 81.8474 75.4915 80.4548 75.8614C79.4322 76.1388 78.861 78.331 77.6262 78.1189" fill="#828575"/>
<path d="M82.7063 86.4142C82.6356 86.4142 82.4505 86.4031 82.2221 86.387V85.2501C82.1025 85.1305 81.7325 85.1196 81.4986 85.2501C81.3301 85.3534 81.2484 85.979 81.216 86.3108C80.9819 86.3978 80.8351 86.4958 80.8351 86.4958C80.8351 86.4958 80.8193 88.6444 80.8193 88.8022C80.8193 88.9654 80.085 90.0261 80.085 90.1676C80.085 90.3036 80.4003 92.3108 80.4003 92.3108H80.7374L80.5578 90.4286L81.7165 89.1014C81.7165 89.1014 82.1735 90.1947 82.3856 90.4069C82.5924 90.619 83.3484 92.3108 83.3484 92.3108H83.7673C83.7673 92.3108 82.5651 89.0415 82.5651 88.7423C82.5651 88.4432 82.5651 87.4042 82.5651 87.4042C82.5651 87.4042 84.6267 89.542 84.692 89.085C84.7039 88.9817 82.9241 86.4142 82.7065 86.4142" fill="#AEB0A6"/>
<path d="M80.2422 79.2994C80.2422 79.2994 80.3073 77.9939 80.6665 77.6294C81.0308 77.2704 82.2004 77.3629 83.136 77.7817C84.0662 78.206 85.7036 79.6367 85.7036 79.6367C85.7036 79.6367 85.1106 80.0664 84.8332 80.1371C84.5557 80.2133 84.2457 80.0501 84.2457 80.0501C84.2457 80.0501 83.7888 80.5287 83.3645 80.3982C82.9457 80.2731 82.3092 80.148 82.3092 80.148C82.3092 80.148 82.1513 80.4689 81.6619 80.4091C81.1723 80.3492 80.2422 79.2994 80.2422 79.2994" fill="#AEB0A6"/>
<path d="M82.3474 82.8842C82.2385 82.7755 81.5369 82.1553 81.2649 81.7637C80.9929 81.372 80.7373 79.8544 80.7373 79.8544C80.7373 79.8544 81.2268 78.8643 81.3302 78.5978C81.4336 78.3258 81.4932 77.1291 81.4932 77.1291C81.4932 77.1291 81.7652 77.1291 81.8793 76.8027C81.9934 76.4709 81.7652 76.237 81.4604 76.3186C81.1557 76.4002 80.949 76.4546 80.949 76.6939C80.949 76.9333 81.2049 77.042 81.2049 77.042C81.2049 77.042 81.1125 77.7764 80.9818 78.2605C80.8456 78.7392 80.242 79.2995 80.242 79.2995C80.242 79.2995 80.2816 78.6086 80.0246 78.353C79.8616 78.1898 79.2848 78.1952 79.127 78.6576C79.0019 79.0003 79.3122 79.6041 79.3122 79.6041C78.5615 79.7128 77.5551 79.8706 77.4735 79.9468C77.3484 80.0773 78.6158 80.8988 78.7844 80.8008C78.953 80.7029 78.3711 80.3058 78.3711 80.3058L79.1435 80.2296L79.8452 82.1879C79.8452 82.2913 78.4309 83.6349 78.7083 83.9123C78.9858 84.1952 81.6729 84.021 81.6729 83.7818C81.6729 83.5424 79.9758 83.5697 79.9051 83.4989L80.6775 82.7537C80.6775 82.7537 81.6458 83.2759 81.9613 83.4935C82.3257 83.7383 84.6049 84.3366 84.6049 84.0918C84.6049 83.8525 82.4509 82.9876 82.3475 82.8842" fill="#D1D1CC"/>
<path d="M77.9739 86.8334C77.9739 86.8334 78.1914 85.7944 77.9739 85.6748C77.7508 85.5552 76.5649 86.8552 76.4779 86.9368C76.3911 87.0238 76.5758 87.3012 76.7389 87.138C76.8968 86.9803 77.4678 86.3058 77.4678 86.3058C77.4678 86.3058 77.3316 86.692 77.2069 87.1C77.0383 87.1761 76.4236 87.459 76.2658 87.5515C76.0807 87.6548 75.9555 88.4272 76.2658 88.4272C76.4509 88.4272 76.7336 88.3022 76.9349 88.2042C76.8097 89.2378 76.728 91.7346 76.728 91.7346H76.9567L77.5604 88.2423L78.5504 88.6503C78.5504 88.6503 77.5114 89.5424 77.4679 89.798C77.419 90.0483 76.8587 92.3112 76.8587 92.3112H77.3156L78.1371 90.1244L79.4861 88.7319L79.769 87.5678L77.974 86.8334" fill="#AEB0A6"/>
<path d="M80.9003 88.1005L80.8186 86.0443C80.8186 86.0443 80.8581 85.2012 80.7097 85.1413C80.6663 85.1251 80.5245 85.1141 80.3453 85.1086C80.3058 84.8638 80.204 84.2219 80.1551 84.1022C80.0951 83.9499 79.622 83.9772 79.3554 84.0478C79.0835 84.1185 79.1269 85.0922 79.1269 85.0922L77.8213 84.4394L77.397 82.3669C77.283 82.2473 77.0816 84.2599 77.2502 84.5809C77.4187 84.9018 78.6972 85.8266 78.7407 85.8755C78.7897 85.919 79.0017 87.861 78.9527 88.0623C78.9038 88.2581 78.6424 89.667 78.6424 89.9063C78.6424 90.1456 79.3659 92.2834 79.3659 92.2834H79.7357L79.3821 89.9281L79.9858 88.4974L82.2488 92.2834H82.6512L80.8998 88.1003" fill="#D1D1CC"/>
<path d="M84.3544 85.8977C84.3347 85.8649 84.4144 84.9403 84.3268 84.6846C84.2873 84.5704 83.7283 84.4399 83.5543 84.6085C83.4129 84.7553 83.315 85.3809 83.2878 85.593L82.6949 85.7181C82.4118 85.7997 82.2217 86.3872 82.2217 86.3872L82.7058 86.4144L82.7658 87.9919L82.6134 92.2838H82.9833L83.3749 89.2539L84.0766 92.311H84.4465L84.3051 87.1868C84.3051 87.1868 85.0015 89.1669 85.3333 89.0417C85.4584 88.9983 84.686 86.3491 84.3541 85.8976" fill="#D1D1CC"/>
<path d="M36.0777 76.9875C36.8773 76.5251 36.9207 76.7536 37.6116 77.3138C38.3079 77.8687 39.1892 78.6629 39.1892 79.0382C39.1892 79.4136 38.9499 80.1207 38.9499 80.1207C38.9499 80.1207 38.3189 81.6547 38.6452 81.9865C38.9771 82.3183 39.3414 83.3138 39.3414 84.3691C39.3414 85.4244 38.7812 87.9701 39.2274 88.4216C39.6734 88.8677 39.0861 92.311 39.0861 92.311H30.5839C30.5839 92.311 30.4533 88.1442 30.3881 87.0454C30.3281 85.9629 29.4742 85.1252 29.9148 84.875C30.3554 84.6193 30.1707 84.244 29.98 83.156C29.7842 82.0681 30.3825 81.3827 30.9265 81.0727C31.465 80.7626 30.8665 80.2295 31.1657 79.4462C31.4649 78.6629 32.4875 78.3909 32.4875 78.3909C32.4875 78.3909 31.677 77.4063 32.2484 77.4063C32.8195 77.4063 32.814 77.0201 33.3471 76.8787C33.8856 76.7318 35.0442 77.1017 35.0442 77.1017C35.0442 77.1017 34.9246 76.3782 35.3051 76.4272C35.8491 76.5034 36.0776 76.9875 36.0776 76.9875" fill="#828575"/>
<path d="M33.2382 85.6856C33.1987 85.3864 32.8574 85.1307 32.6073 84.9839C32.6073 84.9839 32.738 84.3909 32.6073 84.1516C32.4711 83.9068 31.6336 83.8687 31.4976 84.0917C31.3563 84.3093 31.5409 84.7989 31.6554 84.9131L31.9874 85.3592C31.7316 85.7291 31.4217 86.1697 31.3564 86.186L30.0618 85.3864C30.0018 85.4462 31.1878 86.6266 31.3564 86.6266C31.525 86.6266 31.895 86.4036 31.895 86.4036C31.895 86.4036 32.1452 88.8079 32.3355 89.0037C32.5369 89.1996 32.662 89.0636 32.662 89.0636L32.9123 91.2885H33.1353C33.1353 91.2885 33.3038 86.1534 33.2387 85.6856" fill="#AEB0A6"/>
<path d="M38.6018 86.485L38.5149 84.641L38.3953 84.6082C38.3953 84.6082 38.7272 84.0806 38.5042 83.7868C38.2867 83.4931 37.8569 83.5039 37.6992 83.6618C37.5413 83.8195 37.6502 84.6083 37.6502 84.6083H37.4762C37.2804 84.6083 36.6873 84.1241 36.5187 83.9555C36.3502 83.7869 36.3719 83.2266 36.2522 82.9818C36.1326 82.7316 35.741 82.6445 35.741 82.6445C35.741 82.6445 35.235 82.6445 34.9468 82.6445C34.6637 82.6445 34.8651 82.9437 34.9468 82.9437H35.6703L35.9801 83.1395C35.9801 83.1395 36.078 83.9609 36.1214 84.1676C36.1648 84.3798 37.1114 85.1577 37.1114 85.1577C37.1114 85.1577 37.2255 86.0334 37.2255 86.2945C37.2255 86.5557 36.9425 87.3553 36.8667 87.9971C36.8067 88.4922 37.0842 92.2836 37.0842 92.2836H37.3673L37.8623 88.5085L38.3627 91.8103H38.6947C38.6947 91.8103 38.9287 88.5302 38.9287 87.7959C38.9287 87.0942 38.6023 86.5774 38.6023 86.4849" fill="#D1D1CC"/>
<path d="M32.9279 87.285C32.9279 87.285 31.7419 87.5243 31.3503 88.0955C30.9587 88.6666 31.1436 91.6693 30.9912 91.8217C30.8388 91.9739 30.6592 92.1045 30.6592 92.2024C30.6592 92.2623 30.7081 92.284 30.9856 92.284H32.1878L32.3998 91.022L32.9274 91.5986L32.3182 92.2133H32.6664C32.6664 92.2133 33.6509 91.9141 33.7489 91.6911C33.8629 91.43 32.7969 90.1789 32.7261 90.1081L33.8304 90.8806L34.5321 90.9948C34.6411 90.9294 34.9728 90.3039 34.6845 90.0156C34.3964 89.7273 34.146 89.7055 33.874 89.8633C33.6021 90.0211 33.602 90.3366 33.602 90.3366L32.748 89.2486L32.8786 88.1117C32.8786 88.1117 33.1344 88.2042 33.4716 88.1117C33.8087 88.0193 34.0156 87.9921 33.9122 87.5895C33.8088 87.187 33.3683 86.8443 32.9277 87.2849" fill="#D1D1CC"/>
<path d="M36.6868 85.3046C36.6868 85.0925 36.431 84.3527 36.0177 84.3527H35.6641C35.6641 84.3527 35.8003 83.7163 35.8003 83.4932C35.8003 83.2974 35.55 83.1777 35.3324 83.1777C35.1149 83.1777 34.8592 83.2973 34.8592 83.4932C34.8592 83.7163 35.0005 84.3527 35.0005 84.3527C34.8644 84.3527 34.6361 84.3527 34.5599 84.3527C34.353 84.3527 34.1845 84.5757 34.141 84.6845C33.8746 85.1523 33.4611 86.1423 33.3578 86.2022C33.2164 86.2838 32.1175 87.0508 32.1175 87.1813C32.1175 87.3118 32.0859 87.4587 32.3406 87.3118C32.5963 87.165 33.4557 86.8658 33.6352 86.6917C33.7437 86.5775 33.9506 86.2674 34.0921 86.0444C33.9997 87.3662 33.8746 89.7161 33.8746 89.7161L34.8048 89.5421L34.9081 92.2837H35.327L35.5718 89.4496L36.2028 92.2837H36.6216L36.2679 89.2157L36.6868 89.1015C36.6868 89.1015 36.6868 85.5113 36.6868 85.3046" fill="#D1D1CC"/>
<path d="M30.5618 84.233C30.9753 83.9936 34.1846 82.6119 34.6633 82.3182C35.3106 81.9157 36.0777 80.5394 36.0777 80.5394C36.0777 80.5394 36.0619 81.8559 36.2517 81.932C36.4369 82.0136 37.8293 81.1161 37.9217 81.0181C38.0196 80.9257 37.791 80.806 37.5846 80.9257C37.3726 81.0453 36.6871 81.2412 36.6871 81.2412C36.6871 81.2412 36.7688 80.3491 36.5292 80.1097C36.29 79.8704 36.1213 79.8976 36.1213 79.6963C36.1213 79.495 36.3714 79.5059 36.4476 79.1632C36.5293 78.8259 35.8874 78.3853 35.5067 78.6029C35.1257 78.826 35.4087 79.6582 35.4087 79.6582C35.4087 79.6582 35.2837 79.185 34.8975 79.2394C34.5059 79.2884 33.9128 79.6963 33.7932 79.5766L32.8195 78.7226C32.7326 78.777 33.5539 80.0281 33.7823 80.0771C34.0109 80.1261 34.7723 79.8268 34.7723 79.8268C34.7723 79.8268 34.3425 80.757 34.1249 80.8821C33.9074 81.0072 33.3145 80.7135 32.8086 81.0072C32.3027 81.2955 30.0779 82.3617 30.2193 82.5031C30.3555 82.6392 31.0679 82.6173 31.0679 82.8132C31.0679 83.0144 30.6544 82.8894 30.7035 83.1776C30.7524 83.4659 31.0951 83.4986 31.0951 83.591L30.5621 84.2329" fill="#D1D1CC"/>
<path d="M70.6362 58.6611H44.6455V71.8306H44.7924C45.4016 67.0056 47.7407 64.1824 49.7479 62.6103C52.4351 60.5052 55.5846 59.76 57.6408 59.76C59.6915 59.76 62.8411 60.5052 65.5338 62.6103C67.5356 64.1824 69.8747 67.0056 70.4839 71.8306H70.6362V58.6611" fill="#AEB0A6"/>
<path d="M45.0039 59.0205H70.2711V69.073C69.2539 65.6787 67.3391 63.5681 65.7507 62.3278C62.9928 60.1683 59.7508 59.3958 57.6402 59.3958C55.5242 59.3958 52.2821 60.1683 49.5242 62.3278C47.9358 63.5681 46.0211 65.6787 45.0039 69.073V59.0205" fill="#828575"/>
<path d="M53.9581 59.3576C53.2347 59.3197 51.5375 59.6187 51.0642 59.6187C50.591 59.6187 50.1885 59.3576 49.7207 59.3522C48.9808 59.3411 48.5621 60.1246 48.2139 60.1246C47.8657 60.1246 47.4197 59.5752 46.6364 59.412C46.2503 59.3304 45.1188 59.8308 45.2058 60.2878C45.2926 60.7393 46.533 61.5117 46.5928 61.6586C46.6528 61.8109 45.8639 61.6858 45.7008 61.7456C45.184 61.9414 45.184 62.3712 45.184 62.703C45.184 63.0348 45.5321 63.3721 45.4832 63.5951C45.407 63.9269 45.1133 63.9215 45.1243 64.5144C45.1362 65.0801 45.1204 67.3974 45.3584 67.1907C45.5921 66.9894 46.3702 65.3739 46.528 64.8027C46.6859 64.2315 46.3267 63.0457 46.9577 62.8227C47.5887 62.5942 48.4971 62.3984 48.7908 61.9306C49.09 61.4682 49.1445 61.0276 50.352 61.0276C51.5596 61.0276 52.2722 60.4891 52.5605 60.2388C52.8487 59.9886 54.4373 59.7221 54.6439 59.5426C54.8559 59.363 54.2902 59.3685 53.9585 59.3576" fill="#AEB0A6"/>
<path d="M48.2842 60.2498C48.4583 60.2119 48.0884 59.4773 48.4311 59.3033C48.7303 59.1564 48.8879 59.2598 49.013 59.3903C49.1165 59.4936 49.2689 60.005 49.0782 60.0594C48.8935 60.1084 48.8173 60.1464 48.8173 60.2008C48.8173 60.2552 49.1982 60.1846 49.3884 60.1846C49.5787 60.1846 50.7973 60.3042 50.9116 60.2771L51.9941 59.6787C52.103 59.6459 53.207 59.3958 53.207 59.5482C53.207 59.7005 53.2466 59.8963 53.1676 59.9181L52.1449 59.8691C52.0797 59.8853 51.3018 60.598 51.0353 60.6687C50.7688 60.7395 49.4578 60.696 49.4578 60.696C49.4578 60.696 49.213 61.8872 48.8811 62.3551C48.544 62.8174 48.0488 62.8936 48.0488 62.8936L46.4279 64.9933C46.3027 64.9716 46.3462 64.5472 46.5258 64.2045C46.7054 63.8673 47.2167 63.2798 47.2167 63.2798C47.2167 63.2798 47.0587 63.0187 47.2403 62.6814C47.4199 62.3442 47.904 61.822 47.9692 61.7567L48.1433 60.9516L47.2239 61.0115L47.8549 61.7513C47.7949 61.8112 46.854 61.3216 46.7942 61.0768C46.7342 60.832 47.2947 60.4512 48.2847 60.2499" fill="#D1D1CC"/>
<path d="M61.3179 59.3576C62.0413 59.3197 63.7385 59.6187 64.2118 59.6187C64.685 59.6187 65.0875 59.3576 65.5553 59.3522C66.2952 59.3411 66.7141 60.1246 67.0622 60.1246C67.4104 60.1246 67.8618 59.5752 68.6451 59.412C69.0261 59.3304 70.1574 59.8308 70.0704 60.2878C69.9835 60.7393 68.743 61.5117 68.6832 61.6586C68.6232 61.8109 69.4121 61.6858 69.5754 61.7456C70.0921 61.9414 70.092 62.3712 70.092 62.703C70.092 63.0348 69.7439 63.3721 69.7984 63.5951C69.869 63.9269 70.1627 63.9215 70.152 64.5144C70.1402 65.0801 70.156 67.3974 69.918 67.1907C69.6839 66.9894 68.9063 65.3739 68.7485 64.8027C68.5906 64.2315 68.9498 63.0457 68.3188 62.8227C67.6932 62.5942 66.7793 62.3984 66.4856 61.9306C66.1864 61.4682 66.132 61.0276 64.9245 61.0276C63.7169 61.0276 63.0042 60.4891 62.7159 60.2388C62.4277 59.9886 60.8447 59.7221 60.6325 59.5426C60.4257 59.363 60.9862 59.3685 61.3179 59.3576" fill="#AEB0A6"/>
<path d="M66.9969 60.2498C66.8173 60.2119 67.1871 59.4773 66.8445 59.3033C66.5508 59.1564 66.3931 59.2598 66.2625 59.3903C66.1591 59.4936 66.0067 60.005 66.1974 60.0594C66.3825 60.1084 66.4583 60.1464 66.4583 60.2008C66.4583 60.2552 66.0773 60.1846 65.8871 60.1846C65.6968 60.1846 64.4783 60.3042 64.364 60.2771L63.2815 59.6787C63.1726 59.6459 62.0684 59.3958 62.0684 59.5482C62.0684 59.7005 62.029 59.8963 62.108 59.9181L63.1306 59.8691C63.1957 59.8853 63.9738 60.598 64.2403 60.6687C64.5068 60.7395 65.8178 60.696 65.8178 60.696C65.8178 60.696 66.0626 61.8872 66.3999 62.3551C66.7319 62.8174 67.2266 62.8936 67.2266 62.8936L68.8531 64.9933C68.9728 64.9716 68.9293 64.5472 68.7497 64.2045C68.5701 63.8673 68.0589 63.2798 68.0589 63.2798C68.0589 63.2798 68.2168 63.0187 68.0392 62.6814C67.8596 62.3442 67.3755 61.822 67.3157 61.7567L67.136 60.9516L68.0553 61.0115L67.4243 61.7513C67.4843 61.8112 68.4253 61.3216 68.4851 61.0768C68.5451 60.832 67.9847 60.4512 67.0002 60.2499" fill="#D1D1CC"/>
<path d="M27.4883 68.1206V60.603H42.1536V68.1206H27.4883Z" fill="#AEB0A6"/>
<path d="M27.9668 67.6422V61.082H41.6693V67.6422H27.9668Z" fill="#828575"/>
<path d="M28.207 67.4028V61.3213H41.4308V67.4028H28.207Z" fill="#AEB0A6"/>
<path d="M40.8267 66.7992H28.8105V61.9253H40.8267V66.7992Z" fill="#828575"/>
<path d="M29.4629 66.7829C29.4629 66.7829 30.4421 65.9615 30.6597 65.9615C30.8772 65.9615 30.801 65.5698 31.0351 65.5698C31.2692 65.5698 31.7531 65.8527 31.6879 65.9179L31.4486 66.1029C31.4486 66.1029 31.6227 66.114 31.6227 66.239C31.6227 66.3695 31.2746 66.5708 31.2746 66.5708H31.6934L31.8023 66.2498C31.9057 66.1465 31.8623 65.8364 32.0905 65.8745C32.319 65.9073 32.6834 66.0377 32.6834 66.1792C32.6834 66.3152 32.6558 66.4838 32.7975 66.4838C32.9388 66.4838 32.8409 66.0704 33.0423 66.0704C33.2491 66.0704 33.2274 66.3641 33.3143 66.4511C33.4066 66.5436 33.4448 66.2988 33.7276 66.3532C34.0106 66.4131 34.3968 66.7014 34.3968 66.7014L34.4729 66.7992L29.4629 66.7831" fill="#AEB0A6"/>
<path d="M29.0493 63.3827C29.2179 63.2848 29.4845 63.535 29.403 63.622C29.3158 63.7091 29.6532 63.6437 29.6532 63.9756C29.6532 64.302 29.8652 65.5096 29.7132 65.3573C29.5608 65.205 29.3107 64.2422 29.3107 64.2422C29.3107 64.2422 29.4848 66.5322 29.4631 66.7825H29.1042C29.0498 66.3473 29.2128 65.4062 29.0498 65.3682C28.8919 65.3303 28.8105 65.1179 28.8105 65.1179V63.845L29.0498 63.3827" fill="#D1D1CC"/>
<path d="M33.5647 65.3954C33.3962 65.2322 32.9337 64.9874 32.9936 64.8243C33.0536 64.6665 33.3961 63.9757 33.3961 63.9757C33.3961 63.9757 33.5646 64.6393 33.8258 64.5686C34.0867 64.5033 34.0433 63.5949 34.0433 63.4045C34.0433 63.2141 33.7113 62.9204 33.3579 62.9748C33.0042 63.0292 32.6617 63.6602 32.5257 63.7962C32.4981 63.8234 32.395 63.8341 32.2481 63.8289L32.2757 63.5407C32.2757 63.2469 32.08 62.79 32.1451 62.7737C32.4116 62.7029 32.2647 62.2678 32.1727 62.208C32.0042 62.0992 31.8135 62.2135 31.743 62.2841L31.6558 62.616C31.6558 62.616 31.5034 62.6758 31.4166 62.839C31.3566 62.9477 31.3297 63.4373 31.3242 63.7691C30.9053 63.7364 30.5028 63.7147 30.3831 63.7853C30.3831 63.7853 30.0567 63.9268 29.948 64.4381C29.839 64.944 30.1655 65.2268 30.1655 65.4064C30.1655 65.5858 29.8335 65.6783 29.7684 65.8306C29.7032 65.9775 29.6543 66.7826 29.6543 66.7826H29.9969C29.9969 66.7826 30.0676 66.2332 30.0676 66.0972C30.0676 65.9721 30.6007 65.624 30.8074 65.4172C31.0142 65.2105 30.8073 65.0691 30.8563 65.0691L31.7811 64.9549C31.7811 64.9549 31.939 65.3683 32.1945 65.3683C32.4503 65.3683 32.9723 65.4988 33.1301 65.4988C33.2931 65.4988 33.8535 66.4725 34.0439 66.3637C34.2342 66.2495 33.7286 65.5641 33.5653 65.3955" fill="#D1D1CC"/>
<path d="M34.7284 66.7828C34.7284 66.7828 34.5654 66.6141 34.6468 66.3802C34.7285 66.1517 35.0166 66.1518 35.0166 66.1518C35.0166 66.1518 35.5061 65.6132 35.8597 65.5208C36.2079 65.4229 36.5343 65.4229 36.5343 65.4229V66.2823C36.5343 66.2823 36.11 66.2823 35.9522 66.2823C35.7892 66.2823 35.9917 66.4292 35.9917 66.5489C35.9917 66.674 35.8338 66.7828 35.5837 66.7828C35.3279 66.7828 34.7298 66.7828 34.7298 66.7828" fill="#AEB0A6"/>
<path d="M36.2676 66.5326C36.2676 66.5326 36.5124 64.966 36.5996 64.7974C36.692 64.6287 36.8333 64.2588 36.8333 64.15C36.8333 64.0358 36.3655 64.1717 36.2077 64.3241C36.0553 64.4818 35.9575 64.9551 35.8162 64.9551C35.68 64.9551 35.9357 64.1718 36.0609 64.0467C36.186 63.9216 36.4961 63.7203 36.7082 63.6333L37.2141 63.5734C37.2141 63.5734 37.1984 63.1056 37.3231 63.0621C37.7583 62.9098 37.7256 63.4537 37.7256 63.4537C37.7256 63.4537 37.7375 63.6006 37.7963 64.0031C37.8563 64.4057 37.486 64.9333 37.486 65.0693C37.486 65.2054 37.5255 66.4401 37.5255 66.4401L37.357 66.7828H36.4812L36.2688 66.5326" fill="#D1D1CC"/>
<path d="M39.0202 66.021C39.0202 65.9612 39.2271 65.2704 39.2867 64.9059C39.3467 64.5469 39.0798 63.5405 39.0798 63.5405L38.9275 63.0347L38.5848 63.0726L38.5086 63.5132C38.4771 63.5404 38.4771 63.6601 38.481 63.8069C38.3776 63.9374 38.1383 64.2149 38.0839 64.2149L37.627 64.177L37.6507 64.3892L38.1837 64.4708C38.2437 64.4546 38.4013 64.2804 38.5157 64.1499C38.5315 64.3022 38.5473 64.4382 38.5473 64.5143C38.5473 64.721 38.3894 64.8896 38.3894 64.8896C38.3894 64.8896 38.1174 65.2487 37.9759 65.5533C37.8236 65.8905 37.6984 66.7826 37.6984 66.7826H37.9976L38.2969 65.7382L38.8734 65.1072C38.8734 65.1072 38.6666 65.7818 38.6287 65.9613C38.5853 66.1408 38.9607 66.7826 38.9607 66.7826H39.2978L39.0202 66.0211" fill="#D1D1CC"/>
<path d="M39.3683 64.1063C39.4501 64.4273 39.5697 64.857 39.5097 65.0692C39.4497 65.2867 39.2266 66.7827 39.2266 66.7827H40.0208L40.2817 65.7709L40.521 65.9069C40.6027 65.8635 40.7712 65.5044 40.6406 64.8897C40.5099 64.275 40.412 63.644 40.1619 63.644C39.9116 63.644 39.3676 64.1064 39.3676 64.1064" fill="#AEB0A6"/>
<path d="M34.6739 63.6442C34.5922 63.4049 34.5923 63.1927 34.6898 63.1655C34.7877 63.1383 35.0268 63.122 35.0596 63.2688C35.0991 63.4211 35.032 63.6932 35.032 63.6932C35.032 63.6932 35.146 63.6497 35.2767 63.8454C35.4018 64.0467 35.3963 64.6995 35.2649 65.0748C35.1997 65.2598 35.0091 65.2109 34.9329 65.4447C34.8622 65.6786 35.009 66.7992 35.009 66.7992H34.8512C34.8512 66.7992 34.4703 65.869 34.4703 65.6949C34.4703 65.5263 34.552 65.3794 34.552 65.3794L34.1931 65.6079L33.959 66.7992H33.725C33.725 66.7992 33.7132 65.6895 33.8229 65.4773C33.9319 65.2598 34.5735 64.8735 34.5735 64.8735L34.4595 64.3622L34.5357 64.0794L34.405 63.704L34.6715 63.6441" fill="#D1D1CC"/>
<path d="M73.1221 68.1861V60.6631H87.7873V68.1861H73.1221Z" fill="#D1D1CC"/>
<path d="M73.6055 67.7018V61.147H87.308V67.7018H73.6055Z" fill="#828575"/>
<path d="M73.8457 67.4628V61.3867H87.0695V67.4628H73.8457Z" fill="#AEB0A6"/>
<path d="M86.4654 66.8588H74.4492V61.9849H86.4654V66.8588Z" fill="#828575"/>
<path d="M75.667 66.8587L75.7704 64.1933L75.4222 64.4599H75.0469L75.6561 63.682L75.8464 63.1054C75.9443 63.0401 76.0366 62.828 76.0966 62.6104C76.1617 62.3982 76.4883 62.2568 76.5264 62.3982C76.5659 62.5397 76.3524 63.0456 76.3524 63.0456C76.3524 63.0456 76.6298 62.9368 76.6894 63.1271C76.7494 63.3175 76.5588 65.1507 76.5588 65.1942L76.5469 65.3465L76.4925 66.8588H76.3456L76.1008 65.4499L75.8451 66.8588H75.6655" fill="#AEB0A6"/>
<path d="M76.5701 63.2413C76.5701 63.2413 76.4015 65.0582 76.5542 65.2866C76.7011 65.5206 77.2233 66.8587 77.2233 66.8587H77.4029L77.4574 63.8071C77.4574 63.7255 77.4771 63.6384 77.5442 63.8015C77.6094 63.9593 77.5483 65.1451 77.5759 65.2594C77.6075 65.3736 77.712 65.4117 77.7337 65.1995C77.7534 64.9873 77.7989 63.7634 77.7377 63.5948C77.5964 63.1759 77.2155 63.1379 77.2155 63.1379C77.2155 63.1379 77.2115 62.8115 77.2115 62.6809C77.2115 62.5559 76.9124 62.2838 76.8255 62.4579C76.7387 62.6265 76.5697 63.2412 76.5697 63.2412" fill="#D1D1CC"/>
<path d="M74.6779 66.859V65.4555L74.7016 64.3187C74.7778 64.2425 74.3862 63.8345 74.4568 63.5571C74.5275 63.2797 74.7833 63.2416 74.7833 63.1328V62.5127C74.8377 62.4528 74.9574 62.2842 75.0825 62.5127C75.2132 62.7466 75.2132 63.1872 75.2132 63.1872C75.2132 63.1872 75.4523 63.0948 75.5123 63.2797C75.5723 63.4646 75.7137 65.5154 75.6158 65.5698L75.5558 66.859H75.3817L75.2238 65.8146L74.9629 65.8636L74.914 66.8591H74.6799" fill="#D1D1CC"/>
<path d="M78.8766 63.2417C79.1596 63.1655 79.7306 63.2634 79.4912 63.5027C79.252 63.7421 79.3333 63.9814 79.4912 64.1446C79.6543 64.3024 80.329 64.471 80.4323 64.471C80.5357 64.471 80.3723 64.8953 80.0134 64.7212C79.6598 64.5417 78.9799 64.1174 78.9799 64.1174L78.9958 65.6351H77.7718C77.7718 65.6351 77.7229 64.6831 77.957 64.2589C78.1911 63.8291 78.5498 63.3287 78.8763 63.2417" fill="#AEB0A6"/>
<path d="M80.46 62.8391C80.46 62.5943 80.6068 62.2571 80.8409 62.4856C81.0694 62.714 81.1673 63.0404 81.1673 63.0404C81.1673 63.0404 81.4337 62.9479 81.6297 63.1438C81.8255 63.3396 82.0213 65.6351 82.0213 65.6351H80.8463L80.7539 63.7095C80.7539 63.7095 80.4602 63.0458 80.4602 62.8391" fill="#AEB0A6"/>
<path d="M77.5929 66.8587V65.6348H82.2274V66.8587H81.9228V66.021H78.0062V66.8587H77.5928" fill="#D1D1CC"/>
<path d="M77.6094 65.5258C77.6094 65.5258 81.5967 65.5258 81.7925 65.5258C81.9938 65.5258 82.2984 65.5637 82.3364 65.3517C82.3759 65.1451 81.7653 65.0036 81.7653 65.0036C81.7653 65.0036 81.797 64.7207 81.216 64.7207C80.6339 64.7207 79.943 65.0471 79.6329 65.1341C79.3175 65.2157 79.5296 65.1013 79.0183 65.1613C78.5396 65.2158 77.6094 65.2647 77.6094 65.5258" fill="#D1D1CC"/>
<path d="M83.8319 63.4153C83.7719 63.176 83.424 63.1379 83.424 63.0291C83.424 63.0291 83.5602 62.5613 83.3963 62.3981C83.1188 62.1153 82.8306 62.4036 82.8088 62.4797L82.9229 62.991C82.9229 62.991 82.7544 63.0889 82.6838 63.3011C82.6187 63.5132 82.7272 64.1388 82.7272 64.1388C82.7272 64.1388 82.4824 64.3183 82.4062 64.6066C82.3301 64.8895 82.4181 65.7761 82.4935 65.8523L82.6731 65.8685L82.499 66.8585H82.6786L82.9668 65.8304L83.0536 65.8466L83.1516 66.8584H83.4073C83.4073 66.8584 83.3875 65.1177 83.3875 64.8457C83.3875 64.5737 83.3331 64.454 83.3331 64.454C83.3331 64.454 83.6051 64.4868 83.7411 64.3561C83.8773 64.2201 83.8934 63.6599 83.8334 63.4151" fill="#D1D1CC"/>
<path d="M85.4211 62.9098C85.742 62.9098 86.1119 63.2579 85.742 63.3178C85.3721 63.3777 85.0239 63.4048 85.0239 63.4048L85.1108 63.8454L85.5514 63.4157C85.6059 63.3829 85.7471 63.3778 85.6765 63.5081C85.6058 63.6442 85.3828 64.1718 85.2305 64.2098C85.0781 64.2477 84.6593 63.8563 84.6593 63.8563C84.6593 63.8563 84.5069 64.1718 84.4691 64.3241C84.4256 64.4818 84.4691 65.374 84.4691 65.5752C84.4691 65.7819 83.7293 66.859 83.7293 66.859H83.5117L83.9632 65.82H83.5117C83.5117 65.82 83.5118 64.781 83.588 64.5689C83.6642 64.3622 83.8272 64.2099 83.8272 64.2099C83.8272 64.2099 84.034 63.4592 84.4582 63.1709C84.8771 62.8771 85.421 62.9098 85.421 62.9098" fill="#AEB0A6"/>
<path d="M85.5727 63.149C85.5727 62.839 85.6326 62.7084 85.7412 62.6758C85.8501 62.6486 86.0349 62.605 86.0349 62.7465C86.0349 62.8826 86.0349 63.2905 86.0349 63.2905C86.0349 63.2905 86.2907 63.3395 86.323 63.5461C86.3507 63.7583 86.323 64.3295 86.323 64.4111L86.0945 64.4872C86.0945 64.4872 86.3447 64.6722 86.3175 64.8082C86.2899 64.9443 86.357 66.8589 86.357 66.8589H86.1502L85.9872 65.5806H85.8076L85.4265 66.8589H85.2146L85.4215 65.5806H85.1061C85.1061 65.5806 85.041 64.8082 85.1061 64.6396C85.1768 64.4709 85.367 64.3241 85.367 64.3241C85.367 64.3241 85.307 63.6278 85.427 63.47C85.5521 63.3123 85.5739 63.1491 85.5739 63.1491" fill="#D1D1CC"/>
<path d="M90.2783 72.6464H67.7254L67.3662 71.6836H90.6426L90.2782 72.6464" fill="#AEB0A6"/>
<path d="M67.8075 72.5266L67.541 71.8086H90.4692L90.1972 72.5266H67.8076" fill="#D1D1CC"/>
<path d="M24.9975 72.6464H47.5504L47.9096 71.6836H24.6387L24.9979 72.6464" fill="#AEB0A6"/>
<path d="M47.4676 72.5266L47.7396 71.8086H24.8115L25.0779 72.5266H47.4676" fill="#D1D1CC"/>
<path d="M90.2789 94.7591H84.6924V94.4219H90.2789V94.7591Z" fill="#AEB0A6"/>
<path d="M90.2789 95.0961H84.6924V94.7588H90.2789V95.0961Z" fill="#828575"/>
<path d="M70.6035 94.7591H76.1901V94.4219H70.6035V94.7591Z" fill="#AEB0A6"/>
<path d="M70.6035 95.0961H76.1901V94.7588H70.6035V95.0961Z" fill="#828575"/>
<path d="M90.2789 100.9H84.6924V100.563H90.2789V100.9Z" fill="#AEB0A6"/>
<path d="M90.2789 101.238H84.6924V100.9H90.2789V101.238Z" fill="#828575"/>
<path d="M70.6035 100.9H76.1901V100.563H70.6035V100.9Z" fill="#AEB0A6"/>
<path d="M70.6035 101.238H76.1901V100.9H70.6035V101.238Z" fill="#828575"/>
<path d="M26.6613 50.094H25.7148V49.1475H26.6613V50.094Z" fill="#AEB0A6"/>
<path d="M31.9055 50.094H30.959V49.1475H31.9055V50.094Z" fill="#AEB0A6"/>
<path d="M37.1438 50.094H36.1973V49.1475H37.1438V50.094Z" fill="#AEB0A6"/>
<path d="M42.3879 50.094H41.4414V49.1475H42.3879V50.094Z" fill="#AEB0A6"/>
<path d="M47.6256 50.094H46.6846V49.1475H47.6256V50.094Z" fill="#AEB0A6"/>
<path d="M52.8693 50.094H51.9229V49.1475H52.8693V50.094Z" fill="#AEB0A6"/>
<path d="M58.114 50.094H57.1621V49.1475H58.114V50.094Z" fill="#AEB0A6"/>
<path d="M63.3518 50.094H62.4053V49.1475H63.3518V50.094Z" fill="#AEB0A6"/>
<path d="M68.5959 50.094H67.6494V49.1475H68.5959V50.094Z" fill="#AEB0A6"/>
<path d="M73.8342 50.094H72.8877V49.1475H73.8342V50.094Z" fill="#AEB0A6"/>
<path d="M79.0783 50.094H78.1318V49.1475H79.0783V50.094Z" fill="#AEB0A6"/>
<path d="M84.3166 50.094H83.3701V49.1475H84.3166V50.094Z" fill="#AEB0A6"/>
<path d="M89.5608 50.094H88.6143V49.1475H89.5608V50.094Z" fill="#AEB0A6"/>
<path d="M89.5603 48.9297H86.6719V42.4565H89.5603V48.9297Z" fill="#828575"/>
<path d="M86.8789 48.7122V42.9517H89.354V48.7122H86.8789Z" fill="#D1D1CC"/>
<path d="M87.3135 47.3521V43.3594H88.9182V47.3521H87.3135Z" fill="#AEB0A6"/>
<path d="M87.7871 47.3521V43.3594H88.4453V47.3521H87.7871Z" fill="#D1D1CC"/>
<path d="M82.7878 48.9297H79.8994V42.4565H82.7878V48.9297Z" fill="#828575"/>
<path d="M80.1064 48.7122V42.9517H82.5814V48.7122H80.1064Z" fill="#D1D1CC"/>
<path d="M80.541 47.3521V43.3594H82.1403V47.3521H80.541Z" fill="#AEB0A6"/>
<path d="M81.0146 47.3521V43.3594H81.6727V47.3521H81.0146Z" fill="#D1D1CC"/>
<path d="M76.0155 48.9297H73.127V42.4565H76.0155V48.9297Z" fill="#828575"/>
<path d="M73.334 48.7122V42.9517H75.8091V48.7122H73.334Z" fill="#D1D1CC"/>
<path d="M73.7686 47.3521V43.3594H75.3678V47.3521H73.7686Z" fill="#AEB0A6"/>
<path d="M74.2422 47.3521V43.3594H74.9004V47.3521H74.2422Z" fill="#D1D1CC"/>
<path d="M69.2429 48.9297H66.3545V42.4565H69.2429V48.9297Z" fill="#828575"/>
<path d="M66.5557 48.7122V42.9517H69.0362V48.7122H66.5557Z" fill="#D1D1CC"/>
<path d="M66.9971 47.3521V43.3594H68.5964V47.3521H66.9971Z" fill="#AEB0A6"/>
<path d="M67.4697 47.3521V43.3594H68.1225V47.3521H67.4697Z" fill="#D1D1CC"/>
<path d="M62.4705 48.9297H59.582V42.4565H62.4705V48.9297Z" fill="#828575"/>
<path d="M59.7891 48.7122V42.9517H62.264V48.7122H59.7891Z" fill="#D1D1CC"/>
<path d="M60.2246 47.3521V43.3594H61.8239V47.3521H60.2246Z" fill="#AEB0A6"/>
<path d="M60.6973 47.3521V43.3594H61.3499V47.3521H60.6973Z" fill="#D1D1CC"/>
<path d="M55.6932 48.9297H52.8047V42.4565H55.6932V48.9297Z" fill="#828575"/>
<path d="M53.0117 48.7122V42.9517H55.4922V48.7122H53.0117Z" fill="#D1D1CC"/>
<path d="M53.4521 47.3521V43.3594H55.0513V47.3521H53.4521Z" fill="#AEB0A6"/>
<path d="M53.9248 47.3521V43.3594H54.5776V47.3521H53.9248Z" fill="#D1D1CC"/>
<path d="M48.9211 48.9297H46.0381V42.4565H48.9211V48.9297Z" fill="#828575"/>
<path d="M46.2393 48.7122V42.9517H48.7198V48.7122H46.2393Z" fill="#D1D1CC"/>
<path d="M46.6797 47.3521V43.3594H48.279V47.3521H46.6797Z" fill="#AEB0A6"/>
<path d="M47.1533 47.3521V43.3594H47.8061V47.3521H47.1533Z" fill="#D1D1CC"/>
<path d="M42.1482 48.9297H39.2598V42.4565H42.1482V48.9297Z" fill="#828575"/>
<path d="M39.4668 48.7122V42.9517H41.9417V48.7122H39.4668Z" fill="#D1D1CC"/>
<path d="M39.9072 47.3521V43.3594H41.5065V47.3521H39.9072Z" fill="#AEB0A6"/>
<path d="M40.3799 47.3521V43.3594H41.0326V47.3521H40.3799Z" fill="#D1D1CC"/>
<path d="M35.3758 48.9297H32.4873V42.4565H35.3758V48.9297Z" fill="#828575"/>
<path d="M32.6943 48.7122V42.9517H35.1694V48.7122H32.6943Z" fill="#D1D1CC"/>
<path d="M33.1348 47.3521V43.3594H34.7339V47.3521H33.1348Z" fill="#AEB0A6"/>
<path d="M33.6025 47.3521V43.3594H34.2608V47.3521H33.6025Z" fill="#D1D1CC"/>
<path d="M28.6034 48.9297H25.7148V42.4565H28.6034V48.9297Z" fill="#828575"/>
<path d="M25.9219 48.7122V42.9517H28.3969V48.7122H25.9219Z" fill="#D1D1CC"/>
<path d="M26.3623 47.3521V43.3594H27.9615V47.3521H26.3623Z" fill="#AEB0A6"/>
<path d="M26.8359 47.3521V43.3594H27.4887V47.3521H26.8359Z" fill="#D1D1CC"/>
<path d="M89.3538 47.5696H25.9219V47.3521H89.3538V47.5696Z" fill="#AEB0A6"/>
<path d="M57.6407 59.0205H55.3779L55.9436 61.5663H59.3326L59.9037 59.0205H57.6407Z" fill="#AEB0A6"/>
<path d="M56.096 61.3755L55.6064 59.2051H59.6698L59.1857 61.3755H56.096Z" fill="#D1D1CC"/>
<path d="M59.3162 62.4145H55.96V61.5659H59.3162V62.4145Z" fill="#AEB0A6"/>
<path d="M56.0791 62.2948V61.6855H59.196V62.2948H56.0791Z" fill="#D1D1CC"/>
<path d="M58.837 61.5663H58.5488V59.0205H58.837V61.5663Z" fill="#AEB0A6"/>
<path d="M56.4385 61.5663H56.7266V59.0205H56.4385V61.5663Z" fill="#AEB0A6"/>
<path d="M88.1191 38.2026C87.6241 38.2026 87.5479 38.6106 87.5479 38.8227V39.345H88.6848V38.8227C88.6848 38.6106 88.5924 38.2026 88.1191 38.2026Z" fill="#AEB0A6"/>
<path d="M87.667 39.2252V38.8227C87.667 38.6378 87.727 38.3223 88.1131 38.3223C88.5319 38.3223 88.5646 38.703 88.5646 38.8227V39.2252H87.667Z" fill="#828575"/>
<path d="M81.3411 38.2026C80.8515 38.2026 80.7754 38.6106 80.7754 38.8227V39.345H81.9122V38.8227C81.9122 38.6106 81.8199 38.2026 81.3411 38.2026Z" fill="#AEB0A6"/>
<path d="M80.8955 39.2252V38.8227C80.8955 38.6378 80.9555 38.3223 81.3416 38.3223C81.7604 38.3223 81.7931 38.703 81.7931 38.8227V39.2252H80.8955Z" fill="#828575"/>
<path d="M74.5688 38.2026C74.0792 38.2026 74.0029 38.6106 74.0029 38.8227V39.345H75.1399V38.8227C75.1399 38.6106 75.0475 38.2026 74.5688 38.2026" fill="#AEB0A6"/>
<path d="M74.1221 39.2252V38.8227C74.1221 38.6378 74.1822 38.3223 74.5683 38.3223C74.9816 38.3223 75.0197 38.703 75.0197 38.8227V39.2252H74.1221Z" fill="#828575"/>
<path d="M67.7962 38.2026C67.3066 38.2026 67.2305 38.6106 67.2305 38.8227V39.345H68.3673V38.8227C68.3673 38.6106 68.275 38.2026 67.7962 38.2026" fill="#AEB0A6"/>
<path d="M67.3506 39.2252V38.8227C67.3506 38.6378 67.4106 38.3223 67.7967 38.3223C68.2155 38.3223 68.2427 38.703 68.2427 38.8227V39.2252H67.3506Z" fill="#828575"/>
<path d="M61.0237 38.2026C60.5287 38.2026 60.458 38.6106 60.458 38.8227V39.345H61.5948V38.8227C61.5948 38.6106 61.5025 38.2026 61.0237 38.2026" fill="#AEB0A6"/>
<path d="M60.5781 39.2252V38.8227C60.5781 38.6378 60.6326 38.3223 61.0242 38.3223C61.4376 38.3223 61.4757 38.703 61.4757 38.8227V39.2252H60.5781Z" fill="#828575"/>
<path d="M54.2512 38.2026C53.7617 38.2026 53.6855 38.6106 53.6855 38.8227V39.345H54.8171V38.8227C54.8171 38.6106 54.7298 38.2026 54.2512 38.2026" fill="#AEB0A6"/>
<path d="M53.8057 39.2252V38.8227C53.8057 38.6378 53.86 38.3223 54.2516 38.3223C54.665 38.3223 54.6977 38.703 54.6977 38.8227V39.2252H53.8057Z" fill="#828575"/>
<path d="M47.4788 38.2026C46.9838 38.2026 46.9131 38.6106 46.9131 38.8227V39.345H48.0445V38.8227C48.0445 38.6106 47.9577 38.2026 47.4788 38.2026Z" fill="#AEB0A6"/>
<path d="M47.0332 39.2252V38.8227C47.0332 38.6378 47.0877 38.3223 47.4793 38.3223C47.8927 38.3223 47.9252 38.703 47.9252 38.8227V39.2252H47.0332Z" fill="#828575"/>
<path d="M40.7069 38.2026C40.2118 38.2026 40.1357 38.6106 40.1357 38.8227V39.345H41.2726V38.8227C41.2726 38.6106 41.1857 38.2026 40.7069 38.2026Z" fill="#AEB0A6"/>
<path d="M40.2607 39.2252V38.8227C40.2607 38.6378 40.3152 38.3223 40.7068 38.3223C41.1202 38.3223 41.1529 38.703 41.1529 38.8227V39.2252H40.2607Z" fill="#828575"/>
<path d="M33.9344 38.2026C33.4394 38.2026 33.3633 38.6106 33.3633 38.8227V39.345H34.5002V38.8227C34.5002 38.6106 34.4133 38.2026 33.9344 38.2026Z" fill="#AEB0A6"/>
<path d="M33.4834 39.2252V38.8227C33.4834 38.6378 33.5434 38.3223 33.9349 38.3223C34.3483 38.3223 34.381 38.703 34.381 38.8227V39.2252H33.4834Z" fill="#828575"/>
<path d="M27.1621 38.2026C26.6671 38.2026 26.5908 38.6106 26.5908 38.8227V39.345H27.7278V38.8227C27.7278 38.6106 27.6354 38.2026 27.1621 38.2026" fill="#AEB0A6"/>
<path d="M26.71 39.2252V38.8227C26.71 38.6378 26.77 38.3223 27.1615 38.3223C27.5749 38.3223 27.6074 38.703 27.6074 38.8227V39.2252H26.71Z" fill="#828575"/>
<path d="M87.5476 39.3451H81.9121V38.7739H87.5476V39.3451Z" fill="#D1D1CC"/>
<path d="M82.0322 39.2254V38.8936H87.4283V39.2254H82.0322Z" fill="#AEB0A6"/>
<path d="M80.7751 39.3451H75.1396V38.7739H80.7751V39.3451Z" fill="#D1D1CC"/>
<path d="M75.2598 39.2254V38.8936H80.6559V39.2254H75.2598Z" fill="#AEB0A6"/>
<path d="M74.0027 39.3451H68.3672V38.7739H74.0027V39.3451Z" fill="#D1D1CC"/>
<path d="M68.4873 39.2254V38.8936H73.8834V39.2254H68.4873Z" fill="#AEB0A6"/>
<path d="M67.2303 39.3451H61.5947V38.7739H67.2303V39.3451Z" fill="#D1D1CC"/>
<path d="M61.7148 39.2254V38.8936H67.1109V39.2254H61.7148Z" fill="#AEB0A6"/>
<path d="M60.4583 39.3451H54.8174V38.7739H60.4583V39.3451Z" fill="#D1D1CC"/>
<path d="M54.9424 39.2254V38.8936H60.3386V39.2254H54.9424Z" fill="#AEB0A6"/>
<path d="M53.6858 39.3451H48.0449V38.7739H53.6858V39.3451Z" fill="#D1D1CC"/>
<path d="M48.1641 39.2254V38.8936H53.5603V39.2254H48.1641Z" fill="#AEB0A6"/>
<path d="M46.9135 39.3451H41.2725V38.7739H46.9135V39.3451Z" fill="#D1D1CC"/>
<path d="M41.3926 39.2254V38.8936H46.7941V39.2254H41.3926Z" fill="#AEB0A6"/>
<path d="M40.1355 39.3451H34.5V38.7739H40.1355V39.3451Z" fill="#D1D1CC"/>
<path d="M34.6201 39.2254V38.8936H40.0162V39.2254H34.6201Z" fill="#AEB0A6"/>
<path d="M33.363 39.3451H27.7275V38.7739H33.363V39.3451Z" fill="#D1D1CC"/>
<path d="M27.8477 39.2254V38.8936H33.2438V39.2254H27.8477Z" fill="#AEB0A6"/>
<path d="M86.4486 44.9045C86.4486 45.851 85.6762 46.6234 84.7297 46.6234C83.7777 46.6234 83.0107 45.851 83.0107 44.9045C83.0107 43.9526 83.7777 43.1855 84.7297 43.1855C85.6762 43.1855 86.4486 43.9526 86.4486 44.9045Z" fill="#828575"/>
<path d="M84.7296 46.3785C83.9136 46.3785 83.25 45.7204 83.25 44.9044C83.25 44.0884 83.9136 43.4248 84.7296 43.4248C85.5455 43.4248 86.2091 44.0884 86.2091 44.9044C86.2091 45.7204 85.5455 46.3785 84.7296 46.3785Z" fill="#AEB0A6"/>
<path d="M84.7302 46.1611C84.0394 46.1611 83.4736 45.5953 83.4736 44.9045C83.4736 44.2137 84.0394 43.6479 84.7302 43.6479C85.421 43.6479 85.9868 44.2137 85.9868 44.9045C85.9868 45.5953 85.421 46.1611 84.7302 46.1611Z" fill="#D1D1CC"/>
<path d="M79.6761 44.9045C79.6761 45.851 78.9037 46.6234 77.9572 46.6234C77.0053 46.6234 76.2383 45.851 76.2383 44.9045C76.2383 43.9526 77.0053 43.1855 77.9572 43.1855C78.9037 43.1855 79.6761 43.9526 79.6761 44.9045Z" fill="#828575"/>
<path d="M77.9571 46.3785C77.1411 46.3785 76.4775 45.7204 76.4775 44.9044C76.4775 44.0884 77.1411 43.4248 77.9571 43.4248C78.7731 43.4248 79.4312 44.0884 79.4312 44.9044C79.4312 45.7204 78.7731 46.3785 77.9571 46.3785Z" fill="#AEB0A6"/>
<path d="M77.9576 46.1611C77.2668 46.1611 76.7012 45.5953 76.7012 44.9045C76.7012 44.2137 77.2668 43.6479 77.9576 43.6479C78.6485 43.6479 79.2088 44.2137 79.2088 44.9045C79.2088 45.5953 78.6485 46.1611 77.9576 46.1611Z" fill="#D1D1CC"/>
<path d="M72.9047 44.9045C72.9047 45.851 72.1322 46.6234 71.1857 46.6234C70.2338 46.6234 69.4668 45.851 69.4668 44.9045C69.4668 43.9526 70.2338 43.1855 71.1857 43.1855C72.1322 43.1855 72.9047 43.9526 72.9047 44.9045Z" fill="#828575"/>
<path d="M71.1846 46.3785C70.3687 46.3785 69.7051 45.7204 69.7051 44.9044C69.7051 44.0884 70.3687 43.4248 71.1846 43.4248C72.0006 43.4248 72.6589 44.0884 72.6589 44.9044C72.6589 45.7204 72.0006 46.3785 71.1846 46.3785Z" fill="#AEB0A6"/>
<path d="M71.1852 46.1611C70.4943 46.1611 69.9287 45.5953 69.9287 44.9045C69.9287 44.2137 70.4943 43.6479 71.1852 43.6479C71.876 43.6479 72.4363 44.2137 72.4363 44.9045C72.4363 45.5953 71.876 46.1611 71.1852 46.1611Z" fill="#D1D1CC"/>
<path d="M66.1312 44.9045C66.1312 45.851 65.3588 46.6234 64.4123 46.6234C63.4603 46.6234 62.6934 45.851 62.6934 44.9045C62.6934 43.9526 63.4603 43.1855 64.4123 43.1855C65.3588 43.1855 66.1312 43.9526 66.1312 44.9045Z" fill="#828575"/>
<path d="M64.4131 46.3785C63.5972 46.3785 62.9336 45.7204 62.9336 44.9044C62.9336 44.0884 63.5972 43.4248 64.4131 43.4248C65.2236 43.4248 65.8873 44.0884 65.8873 44.9044C65.8873 45.7204 65.2236 46.3785 64.4131 46.3785Z" fill="#AEB0A6"/>
<path d="M64.4128 46.1611C63.7165 46.1611 63.1562 45.5953 63.1562 44.9045C63.1562 44.2137 63.7165 43.6479 64.4128 43.6479C65.1037 43.6479 65.664 44.2137 65.664 44.9045C65.664 45.5953 65.1037 46.1611 64.4128 46.1611Z" fill="#D1D1CC"/>
<path d="M59.3543 44.9045C59.3543 45.851 58.5873 46.6234 57.6408 46.6234C56.6888 46.6234 55.9219 45.851 55.9219 44.9045C55.9219 43.9526 56.6888 43.1855 57.6408 43.1855C58.5873 43.1855 59.3543 43.9526 59.3543 44.9045Z" fill="#828575"/>
<path d="M57.6407 46.3785C56.8247 46.3785 56.1611 45.7204 56.1611 44.9044C56.1611 44.0884 56.8247 43.4248 57.6407 43.4248C58.4512 43.4248 59.1149 44.0884 59.1149 44.9044C59.1149 45.7204 58.4512 46.3785 57.6407 46.3785Z" fill="#AEB0A6"/>
<path d="M57.6404 46.1611C56.9495 46.1611 56.3838 45.5953 56.3838 44.9045C56.3838 44.2137 56.9495 43.6479 57.6404 43.6479C58.3312 43.6479 58.8915 44.2137 58.8915 44.9045C58.8915 45.5953 58.3312 46.1611 57.6404 46.1611Z" fill="#D1D1CC"/>
<path d="M52.5819 44.9045C52.5819 45.851 51.815 46.6234 50.8684 46.6234C49.9165 46.6234 49.1494 45.851 49.1494 44.9045C49.1494 43.9526 49.9165 43.1855 50.8684 43.1855C51.815 43.1855 52.5819 43.9526 52.5819 44.9045Z" fill="#828575"/>
<path d="M50.8683 46.3785C50.0524 46.3785 49.3887 45.7204 49.3887 44.9044C49.3887 44.0884 50.0524 43.4248 50.8683 43.4248C51.6789 43.4248 52.3425 44.0884 52.3425 44.9044C52.3425 45.7204 51.6789 46.3785 50.8683 46.3785Z" fill="#AEB0A6"/>
<path d="M50.8679 46.1611C50.1716 46.1611 49.6113 45.5953 49.6113 44.9045C49.6113 44.2137 50.1716 43.6479 50.8679 43.6479C51.5587 43.6479 52.1189 44.2137 52.1189 44.9045C52.1189 45.5953 51.5587 46.1611 50.8679 46.1611Z" fill="#D1D1CC"/>
<path d="M45.809 44.9045C45.809 45.851 45.042 46.6234 44.0901 46.6234C43.1436 46.6234 42.3711 45.851 42.3711 44.9045C42.3711 43.9526 43.1436 43.1855 44.0901 43.1855C45.042 43.1855 45.809 43.9526 45.809 44.9045Z" fill="#828575"/>
<path d="M44.0903 46.3785C43.2798 46.3785 42.6162 45.7204 42.6162 44.9044C42.6162 44.0884 43.2798 43.4248 44.0903 43.4248C44.9063 43.4248 45.5699 44.0884 45.5699 44.9044C45.5699 45.7204 44.9063 46.3785 44.0903 46.3785Z" fill="#AEB0A6"/>
<path d="M44.09 46.1611C43.3991 46.1611 42.8389 45.5953 42.8389 44.9045C42.8389 44.2137 43.3991 43.6479 44.09 43.6479C44.7863 43.6479 45.3466 44.2137 45.3466 44.9045C45.3466 45.5953 44.7863 46.1611 44.09 46.1611Z" fill="#D1D1CC"/>
<path d="M39.0369 44.9045C39.0369 45.851 38.2699 46.6234 37.318 46.6234C36.3715 46.6234 35.6045 45.851 35.6045 44.9045C35.6045 43.9526 36.3715 43.1855 37.318 43.1855C38.2699 43.1855 39.0369 43.9526 39.0369 44.9045Z" fill="#828575"/>
<path d="M37.3179 46.3785C36.5074 46.3785 35.8438 45.7204 35.8438 44.9044C35.8438 44.0884 36.5074 43.4248 37.3179 43.4248C38.1338 43.4248 38.7975 44.0884 38.7975 44.9044C38.7975 45.7204 38.1338 46.3785 37.3179 46.3785Z" fill="#AEB0A6"/>
<path d="M37.3176 46.1611C36.6267 46.1611 36.0664 45.5953 36.0664 44.9045C36.0664 44.2137 36.6267 43.6479 37.3176 43.6479C38.0084 43.6479 38.5741 44.2137 38.5741 44.9045C38.5741 45.5953 38.0084 46.1611 37.3176 46.1611Z" fill="#D1D1CC"/>
<path d="M32.2641 44.9045C32.2641 45.851 31.497 46.6234 30.5451 46.6234C29.5986 46.6234 28.8262 45.851 28.8262 44.9045C28.8262 43.9526 29.5986 43.1855 30.5451 43.1855C31.497 43.1855 32.2641 43.9526 32.2641 44.9045Z" fill="#828575"/>
<path d="M30.5454 46.3785C29.7349 46.3785 29.0713 45.7204 29.0713 44.9044C29.0713 44.0884 29.7349 43.4248 30.5454 43.4248C31.3614 43.4248 32.0251 44.0884 32.0251 44.9044C32.0251 45.7204 31.3614 46.3785 30.5454 46.3785Z" fill="#AEB0A6"/>
<path d="M30.545 46.1611C29.8541 46.1611 29.2939 45.5953 29.2939 44.9045C29.2939 44.2137 29.8541 43.6479 30.545 43.6479C31.2413 43.6479 31.8015 44.2137 31.8015 44.9045C31.8015 45.5953 31.2413 46.1611 30.545 46.1611Z" fill="#D1D1CC"/>
<path d="M86.6721 42.9516H82.7881V42.4565H86.6721V42.9516Z" fill="#AEB0A6"/>
<path d="M79.8995 42.9516H76.0156V42.4565H79.8995V42.9516Z" fill="#AEB0A6"/>
<path d="M73.1271 42.9516H69.2432V42.4565H73.1271V42.9516Z" fill="#AEB0A6"/>
<path d="M66.3546 42.9516H62.4707V42.4565H66.3546V42.9516Z" fill="#AEB0A6"/>
<path d="M59.5827 42.9516H55.6934V42.4565H59.5827V42.9516Z" fill="#AEB0A6"/>
<path d="M52.8048 42.9516H48.9209V42.4565H52.8048V42.9516Z" fill="#AEB0A6"/>
<path d="M46.0379 42.9516H42.1484V42.4565H46.0379V42.9516Z" fill="#AEB0A6"/>
<path d="M39.2599 42.9516H35.376V42.4565H39.2599V42.9516Z" fill="#AEB0A6"/>
<path d="M32.4874 42.9516H28.6035V42.4565H32.4874V42.9516Z" fill="#AEB0A6"/>
</svg>
