<svg width="119" height="103" viewBox="0 0 119 103" fill="none" xmlns="http://www.w3.org/2000/svg">
<path fill-rule="evenodd" clip-rule="evenodd" d="M31.1458 101.091C30.678 101.091 30.2428 100.715 29.9165 100.389C29.7479 100.22 29.552 100.084 29.3453 99.9431C28.7742 99.546 28.0725 99.0564 27.5667 97.664C27.3056 96.9514 27.1261 96.7012 26.9629 96.4782C26.7236 96.1464 26.5168 95.8581 26.3156 94.7049C26.1143 93.5409 25.8913 93.1493 25.7717 93.0242L25.6846 92.9263L25.5542 92.8883C25.3638 92.8338 25.0972 92.7033 25.0809 92.2519C24.9993 89.7443 23.9332 87.9602 22.8073 86.0673C22.247 85.1208 21.665 84.1526 21.2244 83.0865C20.6043 81.5852 20.3596 80.7748 20.4085 80.3668L20.4302 80.2036L20.3378 80.0622C19.7558 79.1484 19.4675 78.0823 19.1901 77.0488C18.8202 75.6726 18.4721 74.3672 17.4767 73.3228C16.2963 72.0826 15.7034 69.8199 15.2737 67.7692C15.1432 67.1219 15.0235 66.4801 14.9093 65.8654C14.6862 64.6688 14.4741 63.5428 14.2293 62.8194C14.0008 62.1503 13.9247 61.5248 13.9954 60.9482L14.028 60.7361L13.8811 60.5783C13.7451 60.426 13.6581 60.1541 13.6201 59.7896C13.5983 59.5557 13.582 59.4306 13.5439 59.3382C13.1849 58.7344 13.174 57.3474 13.6364 56.4227L13.7397 56.2105C13.7397 56.2105 13.4514 55.6666 13.3698 55.5252C13.1196 55.0628 12.8531 54.5896 12.8748 54.149L12.8804 53.9205L12.7009 53.7737L12.5813 53.6486L12.1842 53.1863L11.8415 53.6922C11.6076 54.0403 11.2541 54.3231 10.7972 54.5189C9.99756 54.8671 9.79088 55.101 9.66034 55.2913C9.45364 55.5905 9.25781 55.7319 8.68669 55.7319H8.56707C6.91895 55.6939 5.55909 53.8173 4.47121 52.3106C3.81306 51.4022 3.48126 50.9725 3.23104 50.8202C2.14317 50.1674 1.84944 49.5419 2.25739 48.726C2.34442 48.5519 2.48041 48.4268 2.6327 48.3779L3.12225 48.2201L2.91556 47.7524C2.77951 47.4369 2.7578 47.0289 2.74693 46.7841C2.71434 46.2239 2.67619 45.9247 2.54567 45.7235C2.35529 45.4298 2.23562 45.1632 2.19755 44.9239L2.14854 44.6302L1.8657 44.5486C1.50126 44.4452 1.33807 44.2005 1.19665 43.9883C1.06061 43.7762 0.886608 43.5151 0.364428 43.2268L0 43.0255L0.163171 42.6448C0.413386 42.0356 0.690792 41.4862 1.24017 41.4862L1.47951 41.5079L1.69709 41.323C1.88202 41.1054 2.13766 40.8497 2.45859 40.8497C2.59463 40.8497 2.71424 40.8878 2.83391 40.9694L3.06236 41.138L3.31257 41.0075C3.90003 40.7138 4.41677 40.7083 4.87911 40.7029C5.33603 40.6973 5.77118 40.6866 6.28247 40.4636C6.70132 40.2841 6.9896 40.2025 7.2126 40.2025L7.53898 40.2351L7.77287 39.9413C7.82189 39.8326 7.91429 39.7455 8.06116 39.6802L8.6214 39.4355L8.22977 38.9623C8.02851 38.7229 7.76197 38.4455 7.43562 38.1409C6.70131 37.4555 6.0649 36.9878 5.5536 36.6124C4.62347 35.9216 4.00881 35.4702 3.90003 34.5455C3.87288 34.2789 3.88374 34.007 3.93262 33.7296C3.97063 33.5174 3.98707 33.3379 3.98164 33.1965L3.97049 32.8865L3.51357 32.7178C3.21986 32.6199 2.8391 32.4894 2.51273 32.163C1.53908 31.1894 2.71943 29.7643 4.36755 28.0073C4.90605 27.4308 5.1726 27.2458 5.46088 27.2458C5.74374 27.2458 5.92867 27.3981 6.03202 27.7245L6.20064 28.2358L6.8316 27.9149C8.44166 27.0391 9.39355 25.3149 9.60025 24.6186L9.6274 24.5207L9.61626 24.4228C9.47482 23.3078 10.1439 22.9868 10.628 22.7475C11.4113 22.3722 12.0585 21.8772 12.0803 19.6307C12.1074 17.5964 12.9397 16.8403 13.2117 16.5847L13.5979 16.2311L13.005 15.7416C12.5209 15.3499 12.2707 14.9257 12.2652 14.4742C12.2597 14.0336 12.4719 13.6365 12.9451 13.1851L13.2443 12.9022L12.9995 12.5704L12.9342 12.4671C12.8309 12.2821 12.7982 12.0646 12.8363 11.8035L12.9342 11.1725L12.3033 11.2759L11.9823 11.3084C11.7321 11.3084 11.5309 11.2323 11.384 11.0854C11.1719 10.8733 11.161 10.6068 11.1664 10.2804L11.1609 10.0084L11.1174 9.25236L10.4647 9.63309C10.2036 9.79085 9.94252 9.93228 9.67056 9.93228C9.48018 9.93228 9.30067 9.8561 9.17012 9.72012C8.93623 9.46992 8.92535 9.10005 8.93623 8.80089L8.95795 8.42557L8.66967 8.3494L8.38681 8.11551C7.99517 7.78914 7.70689 7.51175 7.78849 7.10922L7.83194 6.96236L7.93526 6.74479L7.81564 6.53809C7.71775 6.36403 7.6035 6.0975 7.64701 5.82009C7.72318 5.30336 8.21271 5.0205 9.02862 5.0205C9.45833 5.0205 9.9914 5.08581 10.6713 5.2272C11.7701 5.46109 12.5805 5.57532 13.1353 5.57532C13.6847 5.57532 13.9295 5.472 14.2667 5.33055C14.7454 5.12929 15.2893 4.90084 16.6546 4.90084L17.5032 4.87912L17.3182 4.29711C17.2748 4.13937 17.1878 3.91089 17.0354 3.58997C16.6709 2.81759 16.3718 2.64354 15.991 2.48036C15.6592 2.33349 15.2458 2.15398 15.0663 1.42512L14.7128 0L15.817 0.96277C16.1651 1.26737 16.4207 1.28911 16.7743 1.28911H16.981C18.4768 1.28911 19.7605 2.12134 22.2517 6.52179L22.4149 6.80466L22.1973 7.05487C21.9743 7.30507 21.8601 7.46826 21.8003 7.56073L21.6214 7.84354L21.8281 8.10463L22.062 8.36572C22.5461 8.90966 23.2423 9.67663 23.8788 11.2051C24.1942 11.9557 24.4662 12.7988 24.1126 13.3264C24.0582 13.4135 23.9495 13.5386 23.77 13.6202L23.2967 13.8377L23.5741 14.2783C23.8516 14.7352 23.8951 15.0018 23.9277 15.3608C23.9549 15.6708 23.993 16.0516 24.4553 16.9763C24.9449 17.9553 25.6846 18.0859 26.4026 18.211C26.9194 18.298 27.4524 18.3905 27.7734 18.8311C28.0997 19.2717 28.4968 19.4077 28.9918 19.5817C29.6391 19.8047 30.4386 20.0821 31.1893 21.1211C31.3905 21.4039 31.5918 21.5997 31.7985 21.714L32.4349 22.0675L31.8475 22.4918C31.7496 22.5734 31.3416 22.9161 31.1077 23.4763L31.0315 23.6612L31.1131 23.8408C31.2981 24.2542 31.1839 24.6458 30.6508 25.4671C30.2972 26.0111 29.8838 26.3973 29.5248 26.7019L28.9428 27.2023L29.6554 27.4851C29.96 27.6047 30.1721 27.6212 30.3625 27.6374C30.8683 27.67 31.2709 27.7516 31.9453 28.4261C32.8156 29.291 33.9851 29.786 34.8391 30.1395C35.0349 30.2211 35.2035 30.2919 35.3558 30.3626C35.6332 30.4876 35.8127 30.6509 35.8889 30.8521L35.9868 31.086L36.2315 31.135C36.4981 31.1895 36.7537 31.2655 36.9713 31.3254L37.3956 31.445L37.5859 31.2383C37.7328 31.0751 37.9722 30.9881 38.2713 30.9881C38.8642 30.9881 39.9194 31.2982 41.5132 31.9346C42.0952 32.1685 42.4759 32.522 42.6446 32.9952L42.737 33.2618L43.0199 33.2943C43.3789 33.3434 43.5747 33.6098 43.7324 33.86L43.7759 33.9308V34.1756L44.2274 34.2517L44.3525 34.2573L44.5973 34.2356C44.7496 34.2193 44.891 34.2084 45.0107 34.2084C45.6797 34.2084 46.0224 34.4967 46.2291 34.7088L46.4521 34.9482L46.7513 34.8121C46.9362 34.736 47.1103 34.6925 47.2844 34.6925C47.4802 34.6925 47.6379 34.7415 47.7467 34.785C47.8663 34.8176 47.9534 34.8503 48.1003 34.8503C48.2906 34.8503 48.5409 34.8013 48.8563 34.698L49.0141 34.6545L49.1065 34.5131L49.2099 34.3173C49.3785 33.9093 49.4329 33.2403 49.0249 32.6855C48.5463 32.0219 48.8835 31.4399 49.6287 30.6566C50.2651 29.9821 50.635 29.5415 50.2923 28.9105L50.2434 28.8181L50.2378 28.7148C50.1617 27.3441 50.249 26.8491 51.5161 26.6859L51.7173 26.6587C51.8588 26.637 51.9621 26.6207 52.0492 26.6207C52.2559 26.6207 52.4245 26.686 52.555 26.8165C52.827 27.0885 52.8433 27.3768 52.8324 29.2316V29.5743L53.1588 29.6722C53.3329 29.7321 53.5559 29.7538 53.8659 29.7538L54.5078 29.7426C54.8069 29.7426 55.4433 29.7426 55.8241 30.1887C56.1069 30.5205 56.504 30.7217 56.8739 30.7217C57.0969 30.7217 57.3145 30.651 57.5048 30.5042C57.7551 30.3192 58.0923 30.2322 58.571 30.2322C58.9517 30.2322 59.3706 30.2866 59.7404 30.3355L60.5727 30.4388L60.5671 29.9112C60.5671 29.7426 60.5671 29.5576 60.5615 29.3999L60.5344 28.9376L60.072 28.9647L59.8381 28.9703C58.9243 28.9703 58.413 28.5406 58.3097 27.6975L58.2607 27.2841L58.6686 27.1916C58.9515 27.1263 59.3703 26.9305 60.0285 26.615C60.5398 26.3648 61.149 26.0711 61.8887 25.7611C63.0528 25.2715 63.2758 24.9887 63.4444 24.6677C63.6239 24.3359 63.8088 24.0585 64.4235 23.7485C64.7063 23.6071 64.9728 23.5418 65.2285 23.5418C65.5494 23.5418 65.8105 23.6451 66.039 23.7376C66.2837 23.8355 66.5176 23.928 66.8549 23.928C67.2302 23.928 67.6817 23.8138 68.2365 23.5799C68.9871 23.259 69.4386 23.123 69.7541 23.123C70.0641 23.123 70.2327 23.259 70.3252 23.3786C70.4068 23.4819 70.4504 23.6016 70.4557 23.7431L70.4774 24.2761L71.7774 24.0259L71.0703 25.0648L71.6414 25.2661L71.8481 25.364L72.2071 25.5543L72.4519 25.3694L72.7239 25.1736L73.0013 25.0104L73.246 25.2171C74.7473 26.4355 75.0302 26.9631 74.9921 27.4309C74.9703 27.6757 74.8562 27.877 74.6222 28.051L74.236 28.3502L74.5515 28.7201C75.0084 29.264 75.1389 29.6284 74.9975 29.9385C74.8779 30.1941 74.6331 30.3138 74.236 30.3138C74.1273 30.3138 73.9967 30.3082 73.8607 30.2975C73.6921 30.2864 73.5561 30.2812 73.4147 30.2812C73.0339 30.2812 72.7946 30.3411 72.6531 30.477L72.6097 30.5205L72.5825 30.5749C71.6959 32.0925 70.6788 33.1858 69.9336 33.9854C69.629 34.3172 69.4005 34.562 69.2156 34.7904C68.813 35.2746 68.7532 35.4976 68.7423 35.6172L68.7368 35.6717L68.7423 35.7316C68.8728 36.5692 68.5357 37.0479 68.2909 37.4015L68.1386 37.6408L67.9482 38.0107L68.1984 38.1793L68.3017 38.3479C69.4386 40.0939 69.2373 41.1872 69.0469 42.2534C68.9382 42.8571 68.8293 43.4283 68.9545 44.168C69.1557 45.3701 68.9925 45.7563 68.8076 45.9739C68.6607 46.1534 68.4486 46.2459 68.2038 46.2459L67.9155 46.2079L67.3172 46.0718L67.3552 46.6865C67.5184 48.8677 67.3608 50.0534 66.8439 50.6082C66.6209 50.8476 66.3435 50.9727 66.0117 50.9727C65.8376 50.9727 65.6473 50.9347 65.4514 50.8639C64.5975 50.5376 64.1242 49.0907 63.5096 46.9204C63.3192 46.2459 63.1016 45.4844 62.9112 45.0438L62.7481 44.6522L62.3455 44.7826L62.1389 44.8152L61.8669 44.8264L61.7418 45.0657C61.6277 45.2942 61.4753 45.3921 61.2577 45.3921C61.1218 45.3921 60.9096 45.3486 60.6594 44.9841L60.5507 44.8264L60.3603 44.7883C59.6967 44.6469 59.3975 44.2771 59.3975 43.608C59.3975 41.6335 60.7791 41.2908 62.1281 41.2147L62.5904 41.1875L62.5687 40.7306C62.547 40.2465 62.7971 39.8331 62.9875 39.5612L63.4825 38.8649L62.6122 38.8323C62.1444 38.8323 61.6821 38.8922 61.236 38.952C60.6595 39.0227 60.0285 39.0988 59.403 39.0988C58.5381 39.0988 57.8147 38.9519 57.2 38.6419C55.813 37.9511 55.2527 36.5206 54.8829 35.5741L54.6816 35.0628L54.2084 35.3511L53.9038 35.4381H53.7025L53.523 35.2749C53.4468 35.1933 53.3978 35.0846 53.3761 34.9323L53.3163 34.5406H52.9192C52.7234 34.5406 52.5874 34.4753 52.4405 34.3122L52.0326 33.8607L51.7062 34.372C51.5866 34.5569 51.4179 34.7256 51.1895 34.8779L50.5367 35.3239L51.2276 35.6883C52.6092 36.3737 53.833 37.0699 53.6426 38.0001C53.5665 38.3808 53.3163 38.5385 53.0606 38.6691C52.7397 38.8268 52.5548 39.0335 52.4188 39.7026C52.261 40.4858 52.7397 40.8231 53.5338 41.3018C54.377 41.8185 55.1221 42.3624 54.9263 43.4231C54.8882 43.6407 54.8719 43.8202 54.8773 43.9616L54.8885 44.1466L55.0245 44.277C55.2584 44.5 55.4433 44.8101 55.0082 45.4465L54.8124 45.7348L55.0354 46.0013C55.5739 46.6377 56.1015 47.6331 55.971 50.2059L55.9547 50.5051L55.6718 50.6139L55.3455 50.6792L55.1551 50.652L54.8777 50.565L54.6764 50.7717C54.4915 50.9675 54.2739 51.0763 54.0183 51.0981L53.9149 51.1036C53.7354 51.0981 53.5505 51.022 53.4254 50.8861L53.1208 50.4998L52.7183 50.7718C52.4354 51.022 52.0547 51.2124 51.5325 51.4354L51.0701 51.6367L51.3584 52.1643C51.7283 52.8714 52.0492 53.6166 51.5216 54.3237C51.4183 54.4706 51.3693 54.6501 51.2823 55.0091C51.1735 55.4497 51.0429 55.9773 50.7166 56.4614L50.499 56.7878L50.4174 56.8368L50.374 56.8748C50.0476 57.1957 49.6179 57.4405 49.1011 57.6037L49.0523 57.62L48.5464 57.9082C47.192 58.6806 47.0397 59.2844 46.8928 60.2037C46.7676 61.0196 46.61 62.0422 45.2012 63.1899C44.8585 63.4727 44.6736 63.8644 44.4614 64.3213C44.1459 65.0121 43.7434 65.8769 42.612 66.5133L42.2802 66.7037L42.4053 67.0627C42.476 67.351 42.4109 67.5795 42.2312 67.8079L42.1496 67.933C42.068 68.058 42.0082 68.1886 41.9484 68.3137C41.6383 68.9991 41.3119 69.5104 40.0609 69.6844L39.7291 69.7279L39.6312 70.0651C39.5986 70.2555 39.5007 70.5384 39.0274 70.7614L38.8588 70.8375L38.7935 71.0116C38.7772 71.0496 38.7336 71.2564 38.7065 71.3978C38.5379 72.2627 38.1408 72.2627 37.9722 72.2627C37.8199 72.2627 37.6567 72.2082 37.4772 72.1049L37.352 72.0342L37.2052 72.0453C36.9169 72.0725 36.634 72.2466 36.4545 72.5131C36.188 72.8939 35.8616 73.8403 36.6449 75.8746C37.2106 77.3378 37.2595 78.3876 36.8081 79.073L36.5579 79.4538L36.9332 79.7148C37.8035 80.3023 37.983 80.5199 37.7654 81.2814C37.6784 81.5805 37.5478 82.0375 37.5315 82.9186C37.4935 84.5015 37.1834 85.0617 36.7428 85.6873C36.5415 85.981 36.362 86.2367 36.2369 86.748C36.0792 87.4007 36.2206 87.7651 36.3947 88.2275C36.5742 88.6953 36.7972 89.2827 36.6123 90.1476C36.5089 90.6262 36.6285 91.1321 36.7264 91.5781C36.8515 92.1275 36.9168 92.5028 36.683 92.7965C36.5905 92.9162 36.4056 93.0576 36.0901 93.0576C35.9705 93.0576 35.8399 93.0413 35.6876 92.9978L35.1545 92.8673L35.1111 93.4112C35.0676 93.9334 34.8717 94.4066 34.5073 94.8526L34.1102 95.3422L34.6977 95.5761C35.0567 95.7175 35.4429 95.9188 35.5843 96.3485L35.7257 96.7782L35.3015 96.9305C33.9797 97.4037 33.7403 97.8334 33.7077 98.6113C33.686 99.1062 33.6587 99.8678 32.5002 100.189C32.3316 100.232 32.2228 100.357 32.0487 100.553C31.7985 100.847 31.5592 101.092 31.1458 101.092" fill="#979797"/>
<path fill-rule="evenodd" clip-rule="evenodd" d="M15.7305 67.6768C16.1656 69.7818 16.7585 71.8977 17.8137 73.0074C19.8372 75.1342 19.3966 78.2781 21.0828 80.3016C21.3004 80.5627 21.2514 80.4756 21.1427 80.3886C20.9197 80.2145 20.4682 80.0405 21.654 82.9125C22.9159 85.9748 25.4072 88.292 25.5431 92.2356C25.5703 92.8284 26.2883 91.8059 26.7724 94.6289C27.0934 96.4946 27.3599 95.7494 28.0017 97.5063C28.6381 99.2632 29.5465 99.372 30.2428 100.063C31.5754 101.395 31.4721 99.9921 32.375 99.7419C34.2897 99.2088 31.8963 97.6641 35.1436 96.4946C34.8771 95.695 32.8537 96.1193 34.1319 94.5745C35.4156 93.0351 33.7077 91.8058 35.4646 92.4477C37.2269 93.0841 35.8453 91.5393 36.1608 90.0489C36.4817 88.5585 35.4156 88.1832 35.7855 86.6384C36.1608 85.0991 37.0148 85.469 37.0692 82.9125C37.1182 80.356 38.0809 81.0468 36.4273 79.9262C34.7738 78.8112 37.7056 79.9262 36.2152 76.0425C34.6541 71.9847 37.0257 71.2831 37.6566 71.6747C38.5487 72.2295 37.9232 70.7663 38.8315 70.3421C39.7345 69.9178 38.4562 69.4391 40.001 69.2216C41.437 69.0257 41.3173 68.3676 41.7634 67.6768H15.7305" fill="#F06321"/>
<path fill-rule="evenodd" clip-rule="evenodd" d="M54.8721 34.4966C55.3562 35.046 55.6499 37.3468 57.4014 38.228C59.7512 39.3975 62.9224 37.5535 63.8035 38.8644C64.1245 39.3431 62.683 40.0393 63.1127 41.051C63.7002 42.4326 59.86 40.5724 59.86 43.6075C59.86 44.6029 60.6759 44.1243 60.9751 44.6193C61.5625 45.5766 61.1872 43.9774 61.8834 44.2983C62.5742 44.6193 62.4709 43.3954 63.1671 44.5159C63.8579 45.631 64.4834 49.9988 65.6148 50.4285C66.7462 50.8473 67.1161 49.6235 66.8985 46.8005C66.6755 43.8741 69.0688 47.6599 68.4977 44.2439C68.1333 42.0519 69.5747 41.1435 67.9103 38.5979C67.0128 37.2272 68.5086 37.2761 68.2856 35.7748C68.2257 35.3778 68.4596 34.9752 68.8567 34.4966H54.8721" fill="white"/>
<path fill-rule="evenodd" clip-rule="evenodd" d="M41.8673 67.5191C42.4547 66.7739 40.3769 67.1492 42.2426 66.1864C44.1083 65.2291 43.8526 63.6952 44.9079 62.8303C47.5786 60.6491 45.2288 59.2675 48.3238 57.5052C47.2523 57.4507 48.5359 56.3847 48.6937 57.2386C51.0435 56.6566 50.6029 54.7692 51.1469 54.0457C51.9464 52.9796 49.8686 51.647 50.9891 51.1683C52.1096 50.6896 52.6373 50.4775 52.8004 49.7595C53.2519 50.1892 53.3009 49.7812 53.3172 49.3679C53.3335 48.998 53.3227 48.6227 53.5511 48.8783C54.0297 49.4114 53.3335 50.6896 53.9753 50.6352C54.6172 50.5808 54.6172 49.5691 55.0415 49.5147C55.2373 49.493 55.2264 49.6779 55.2101 49.8628C55.1938 50.0859 55.1775 50.3034 55.5092 50.1783C55.754 45.4733 53.6707 46.5339 54.5791 45.2557C55.2862 44.2548 54.1548 45.098 54.4704 43.341C54.7913 41.5841 51.5277 41.7745 51.9682 39.6096C52.2837 38.0105 53.0833 38.4401 53.1921 37.9071C53.4042 36.841 49.5096 35.6171 49.6184 35.2418C49.6837 35.0025 50.418 34.8447 50.9348 34.4966H49.6348C49.5043 34.8067 49.3138 35.0351 49.1017 35.1058C48.226 35.3995 47.8942 35.3179 47.6439 35.2363C47.41 35.1601 47.236 35.084 46.7682 35.2962C46.246 35.5409 46.1318 35.285 45.8979 35.0351C45.6912 34.8121 45.3975 34.5945 44.6632 34.6978C44.141 34.774 43.8473 34.6598 43.6514 34.4966H4.36282C4.49329 35.6552 5.74986 35.938 7.75155 37.8037C11.0152 40.8389 6.94108 39.5987 8.60009 40.4636C9.93817 41.1544 9.24193 40.7301 8.339 41.1544C7.27832 41.6548 7.34359 41.3502 7.39255 41.0402C7.447 40.7465 7.48501 40.4473 6.46786 40.8879C5.23855 41.4209 4.38458 40.8879 3.42725 41.4753C2.98666 41.7473 2.8126 41.6058 2.68749 41.4698C2.53519 41.3066 2.44271 41.1489 2.0402 41.633C1.71928 42.0246 1.53434 41.992 1.36571 41.9648C1.15358 41.9267 0.979526 41.8886 0.587891 42.8187C2.20339 43.7162 1.072 44.4941 3.36197 43.9665C2.98121 44.4016 2.23601 44.4016 2.92682 45.4677C3.52516 46.3761 2.74189 48.3887 4.15612 47.5456C4.40634 47.3987 4.6783 47.4639 4.97746 47.5344C5.32015 47.616 5.70092 47.6976 6.13607 47.4365C5.76074 48.2416 6.23939 48.4482 5.43983 48.9813C5.00468 49.275 4.56407 49.1826 4.20508 49.0955C3.9059 49.0193 3.66659 48.9432 3.51428 49.0899C3.36741 49.2422 3.21511 49.1116 3.07369 48.9866C2.92138 48.8452 2.7854 48.7092 2.67116 48.9322C2.45903 49.3564 2.3992 49.7807 3.46532 50.4225C4.53143 51.059 6.39715 55.2146 8.58378 55.269C9.67708 55.2962 8.71982 54.9209 10.6127 54.0941C11.4666 53.7242 11.9997 52.9791 11.5754 51.7498C11.1457 50.5259 11.842 50.2104 12.1629 49.3564C12.3206 50.3682 11.7277 50.7489 13.9144 50.1288C12.6905 50.7435 12.103 50.7924 12.3206 51.7008C12.5327 52.6037 12.9951 52.4024 12.9951 52.4024C12.9951 52.4024 12.2879 53.8602 13.8762 53.4468C12.8482 54.2029 13.4356 54.5238 14.2896 56.2807C13.7076 56.8138 13.5988 58.5163 13.9198 59.0494C14.2352 59.5824 13.8653 60.7029 14.665 60.1155C15.4645 59.528 13.8654 60.3276 14.665 62.672C15.0511 63.7979 15.3231 65.7289 15.7311 67.6762H41.7639L41.8673 67.5185" fill="white"/>
<path fill-rule="evenodd" clip-rule="evenodd" d="M54.2581 34.6598L54.4158 34.4966H53.8229C53.8174 34.9481 53.8012 35.2255 54.2581 34.6598Z" fill="white"/>
<path fill-rule="evenodd" clip-rule="evenodd" d="M74.1008 28.9047C72.6268 27.1913 76.5703 28.5021 72.9586 25.5703C72.5778 25.7933 72.4092 26.2339 71.615 25.7607C70.8154 25.282 69.374 26.718 70.761 24.6946C68.52 25.1243 71.6477 22.6276 68.4167 24.0038C65.9146 25.0699 65.9146 23.5251 64.6309 24.167C63.3526 24.8034 64.4731 25.1732 62.0689 26.1904C60.4099 26.8866 59.3982 27.5013 58.7672 27.6427C58.876 28.5293 59.5178 28.5674 60.3827 28.4695C61.2476 28.3716 60.9593 29.8185 61.0572 30.5854C61.1496 31.3524 58.5551 30.2971 57.7827 30.8737C57.0103 31.4503 56.0475 31.162 55.4764 30.493C54.8944 29.8185 53.181 30.7051 52.3705 29.677C52.3816 26.7235 52.425 27.0389 51.5764 27.1477C50.7169 27.2565 50.6299 27.3653 50.7006 28.6925C51.6525 30.4331 48.6337 31.3524 49.4006 32.4131C49.901 33.093 49.8738 33.9306 49.6345 34.4963H50.9345C51.201 34.3114 51.4132 34.0829 51.4295 33.7511C51.4839 32.7938 51.5274 31.0206 51.8592 31.9453C53.4584 36.4164 52.8709 32.2608 53.6705 33.539C53.8283 33.7947 53.8283 34.1809 53.8228 34.4963H54.4157C54.6006 34.3332 54.7421 34.3495 54.8726 34.4963H68.8573C69.6242 33.5716 71.0058 32.3532 72.1807 30.3461C72.9259 29.0624 75.7 30.7704 74.1008 28.9047" fill="#00A64F"/>
<path fill-rule="evenodd" clip-rule="evenodd" d="M17.4549 3.39429C18.3089 5.2056 17.7215 5.36335 16.6554 5.36335C13.5114 5.36335 15.1051 6.6416 10.5742 5.68427C6.7557 4.8738 8.40383 6.74494 8.76283 6.85373C7.26701 7.3324 9.45364 7.8165 9.39924 8.82279C9.31765 10.422 10.7482 8.46922 11.216 8.98597C12.2277 10.101 10.7863 11.276 12.7608 10.6885C14.7353 10.101 12.3855 12.1789 13.7181 12.4998C15.1269 12.8371 11.3574 13.8161 13.2993 15.3772C15.4859 17.1342 12.5976 15.8015 12.5432 19.6417C12.4942 24.2706 9.72016 22.356 10.0955 24.4828C10.1389 24.733 9.22518 27.1372 7.05486 28.323C4.7105 29.5958 6.41302 26.5062 4.75945 28.2631C3.57911 29.525 2.09414 31.0916 2.83934 31.8368C3.58998 32.582 4.7105 31.9945 4.38413 33.8058C4.34068 34.0723 4.34068 34.2954 4.3624 34.4966H43.651C43.2485 34.1594 43.2539 33.5937 42.6991 33.7949C41.8669 34.0941 42.846 32.9627 41.3447 32.3644C39.838 31.7606 37.8744 31.0861 37.8744 31.6844C37.8744 32.2882 36.743 31.6137 35.7694 31.5376C34.7848 31.4614 35.9924 31.1568 35.1602 30.7815C34.3334 30.4062 32.7505 29.8786 31.6191 28.7526C30.4877 27.6212 30.4116 28.5242 28.9103 27.6212C27.7626 26.9413 29.2856 26.7183 30.2647 25.2116C31.2438 23.7049 30.3409 24.2325 30.64 23.4112C30.9446 22.5789 31.5756 22.122 31.5756 22.122C31.32 21.9752 31.0697 21.7521 30.8141 21.3931C29.5902 19.6906 28.3065 20.327 27.4036 19.1032C26.8379 18.3417 24.9994 19.1032 24.0421 17.1885C22.9759 15.0563 23.9876 15.4805 22.7584 13.9412C20.9634 11.6784 25.0048 15.1161 23.4546 11.3793C22.0132 7.9198 20.2563 8.55622 21.85 6.7449C17.7433 -0.494908 17.1721 2.7524 15.5131 1.31641C15.7905 2.43148 16.601 1.58294 17.455 3.39425" fill="#00A64F"/>
<path d="M44.8804 49.6397C44.8804 43.515 39.9197 38.5488 33.795 38.5488C27.6703 38.5488 22.7041 43.515 22.7041 49.6397C22.7041 55.759 27.6703 60.7252 33.795 60.7252C39.9197 60.7252 44.8804 55.759 44.8804 49.6397Z" fill="#28459C"/>
<path d="M41.1975 55.2315C41.3336 55.101 41.5184 55.0411 41.6979 55.0574C41.9046 55.0846 42.1113 54.9813 42.2256 54.8018L42.4159 54.47C42.5464 54.247 42.5411 53.9641 42.4048 53.7465C42.2906 53.567 42.2743 53.3223 42.3937 53.121C42.4807 52.9687 42.6221 52.8708 42.7798 52.8382C43.0355 52.7783 43.2368 52.5825 43.3075 52.3323L43.3999 51.9842C43.4489 51.7775 43.3728 51.5599 43.2041 51.4239C43.0627 51.3152 42.9757 51.1411 42.9757 50.9507C42.9757 50.7168 43.1061 50.5155 43.2966 50.4122C43.525 50.2926 43.6719 50.0532 43.6773 49.7921V49.531C43.6773 49.2754 43.5305 49.0306 43.2966 48.9109C43.1062 48.8076 42.9757 48.6063 42.9757 48.3724C42.9757 48.1875 43.0573 48.0189 43.1932 47.9101C43.3727 47.7523 43.4543 47.513 43.3945 47.2846L43.3183 46.98C43.2476 46.7298 43.0409 46.5339 42.7853 46.4741C42.5677 46.4306 42.3882 46.2674 42.3284 46.0389C42.2795 45.854 42.3172 45.6636 42.4262 45.5222C42.5567 45.3373 42.5785 45.0925 42.4697 44.8912L42.2956 44.5866C42.1652 44.3745 41.9258 44.2494 41.6701 44.2657C41.5015 44.2768 41.3274 44.2167 41.1969 44.0862C40.555 43.4444 41.7571 43.6075 40.7182 42.5849C40.5278 42.3946 40.2504 42.3347 39.9948 42.4163C39.7881 42.4816 39.5433 42.4326 39.3801 42.264C39.2448 42.1335 39.1849 41.9594 39.2013 41.7853C39.223 41.5351 39.0979 41.2904 38.8803 41.1598L38.6519 41.0294C38.418 40.8989 38.1297 40.9043 37.9067 41.0565C37.7217 41.1761 37.477 41.1925 37.2703 41.0728C37.1125 40.9858 37.0092 40.8334 36.9766 40.6648C36.9221 40.4037 36.7263 40.1916 36.4707 40.1209L36.264 40.0664C36.0029 39.9957 35.7255 40.0827 35.5514 40.284C35.4373 40.4091 35.274 40.4907 35.0945 40.4907C34.8552 40.4907 34.6485 40.3493 34.5452 40.1535C34.4255 39.9087 34.1862 39.7564 33.9142 39.751H33.6966C33.4246 39.7565 33.1799 39.9087 33.0656 40.1535C32.9623 40.3493 32.7556 40.4907 32.5163 40.4907C32.3313 40.4907 32.1681 40.4091 32.0594 40.284C31.8799 40.0773 31.6079 39.9957 31.3414 40.061L31.1238 40.1209C30.8627 40.1916 30.6669 40.4037 30.6125 40.6703C30.569 40.8878 30.4058 41.0782 30.1773 41.1435C29.9978 41.1925 29.8183 41.1546 29.6769 41.0619C29.4539 40.9096 29.1656 40.8987 28.9263 41.0347L28.7577 41.1326C28.5238 41.2687 28.3878 41.5243 28.4095 41.7962C28.4207 41.9649 28.3605 42.1389 28.23 42.264C28.056 42.4435 27.7949 42.487 27.5828 42.4001C27.3543 42.313 27.0932 42.3675 26.9192 42.5361L26.7179 42.7374C26.5329 42.9277 26.4677 43.2052 26.5547 43.4608C26.6255 43.6729 26.5819 43.9177 26.4078 44.0863C26.2718 44.2278 26.0869 44.2822 25.9074 44.2604C25.6735 44.2332 25.4396 44.3474 25.32 44.5487L25.1241 44.8914C25.0154 45.0926 25.0317 45.3428 25.1732 45.5278C25.3146 45.7127 25.3418 45.9792 25.2166 46.2022C25.1241 46.3546 24.9773 46.4579 24.8087 46.4905C24.5476 46.545 24.3354 46.7407 24.2647 47.0018L24.1994 47.2684C24.1395 47.5023 24.2211 47.747 24.4116 47.8993C24.5476 48.0135 24.6346 48.1822 24.6346 48.3726C24.6346 48.6119 24.4931 48.824 24.2919 48.9219C24.0634 49.0307 23.9166 49.2592 23.9111 49.5148V49.7814C23.9167 50.0479 24.0689 50.2872 24.3028 50.4069C24.4986 50.5102 24.6346 50.7115 24.6346 50.9508C24.6346 51.1303 24.5584 51.2881 24.4333 51.4023C24.2375 51.5764 24.1559 51.8483 24.2212 52.104L24.2865 52.3433C24.3572 52.599 24.5639 52.7893 24.825 52.8492C25.0371 52.8926 25.2221 53.0559 25.2819 53.2843C25.3253 53.4529 25.2982 53.627 25.2057 53.7684C25.0643 53.9914 25.0589 54.2743 25.1894 54.5027L25.3091 54.7094C25.4451 54.9379 25.6952 55.0684 25.9563 55.0576C26.1195 55.052 26.2827 55.1066 26.4078 55.2316C26.5764 55.4002 26.6254 55.6396 26.5601 55.8463C26.4839 56.091 26.549 56.3684 26.7342 56.5534L26.9572 56.7764C27.1258 56.9396 27.376 56.994 27.599 56.9124C27.8112 56.8363 28.0614 56.8853 28.23 57.0593C28.3552 57.1789 28.4149 57.3422 28.4095 57.5053C28.3984 57.7664 28.5345 58.0112 28.7576 58.1417L28.9915 58.2778C29.2145 58.4028 29.4919 58.3974 29.7149 58.2615C29.8999 58.1473 30.1392 58.131 30.3405 58.2504C30.4928 58.3374 30.5907 58.4788 30.6288 58.6366C30.6886 58.8868 30.879 59.088 31.1292 59.1587L31.3848 59.2241C31.6296 59.2894 31.8961 59.2078 32.0756 59.0228C32.1844 58.9032 32.3422 58.8324 32.5162 58.8324C32.7501 58.8324 32.9459 58.9629 33.0493 59.1479C33.1743 59.3763 33.4083 59.5178 33.6694 59.5178L33.7946 59.5233L34.0121 59.5178C34.2406 59.5122 34.4473 59.3817 34.5452 59.1751C34.6431 58.9738 34.8498 58.8324 35.0946 58.8324C35.2795 58.8324 35.4481 58.914 35.5569 59.05C35.6983 59.2186 35.9268 59.2893 36.1444 59.2404C36.3021 59.2024 36.4598 59.1588 36.6176 59.1099C36.8134 59.0554 36.9603 58.8814 36.9929 58.6802C37.0255 58.4408 37.1996 58.245 37.4335 58.1798C37.6239 58.1307 37.8143 58.1742 37.9611 58.2831C38.1189 58.4027 38.3364 58.4191 38.5159 58.3265L38.8749 58.1144C39.0871 57.9894 39.2122 57.7608 39.2013 57.516C39.1957 57.3474 39.2503 57.1843 39.3808 57.0591C39.5385 56.896 39.7724 56.8416 39.9791 56.9014C40.2239 56.9776 40.4959 56.907 40.6808 56.7273L40.8712 56.537C41.0507 56.352 41.1214 56.0855 41.0452 55.8353C40.9854 55.6286 41.0397 55.3947 41.1975 55.2315" fill="white"/>
<path d="M33.8005 39.7617C33.2294 40.1969 33.4143 45.435 33.4143 45.435C33.4143 45.435 33.8005 47.5128 33.8005 49.6288C33.8005 47.5128 34.1921 45.435 34.1921 45.435C34.1921 45.435 34.3771 40.1969 33.8005 39.7617Z" fill="#28459C"/>
<path d="M31.2487 40.0938C30.8081 40.6703 32.3366 45.68 32.3366 45.68C32.3366 45.68 33.2558 47.5838 33.7998 49.629C33.2558 47.5838 33.0927 45.4787 33.0927 45.4787C33.0927 45.4787 31.9123 40.3712 31.2487 40.0938Z" fill="#28459C"/>
<path d="M28.8671 41.0835C28.5897 41.7471 31.3692 46.1911 31.3692 46.1911C31.3692 46.1911 32.7454 47.7957 33.8006 49.6288C32.7454 47.7957 32.0437 45.7994 32.0437 45.7994C32.0437 45.7994 29.5851 41.176 28.8671 41.0835Z" fill="#28459C"/>
<path d="M26.822 42.6501C26.7295 43.3681 30.5588 46.9418 30.5588 46.9418C30.5588 46.9418 32.3103 48.133 33.8007 49.6288C32.3103 48.133 31.1136 46.3869 31.1136 46.3869C31.1136 46.3869 27.54 42.5576 26.822 42.6501" fill="#28459C"/>
<path d="M25.2549 44.6953C25.3473 45.4133 29.9763 47.8719 29.9763 47.8719C29.9763 47.8719 31.9725 48.5735 33.8001 49.6288C31.9725 48.5735 30.3625 47.192 30.3625 47.192C30.3625 47.192 25.9239 44.4179 25.2549 44.6953Z" fill="#28459C"/>
<path d="M24.2646 47.0778C24.5475 47.7414 29.6496 48.9218 29.6496 48.9218C29.6496 48.9218 31.7601 49.0849 33.7999 49.6289C31.7601 49.0849 29.8509 48.1657 29.8509 48.1657C29.8509 48.1657 24.8412 46.6372 24.2646 47.0778Z" fill="#28459C"/>
<path d="M23.9336 49.6288C24.3742 50.2054 29.6069 50.0205 29.6069 50.0205C29.6069 50.0205 31.6847 49.6288 33.8006 49.6288C31.6847 49.6288 29.6069 49.2372 29.6069 49.2372C29.6069 49.2372 24.3742 49.0577 23.9336 49.6288Z" fill="#28459C"/>
<path d="M24.2646 52.1854C24.8412 52.626 29.8509 51.0921 29.8509 51.0921C29.8509 51.0921 31.7601 50.1783 33.7999 49.6289C31.7601 50.1783 29.6496 50.3415 29.6496 50.3415C29.6496 50.3415 24.5475 51.5164 24.2646 52.1854Z" fill="#28459C"/>
<path d="M25.2549 54.5679C25.9239 54.8398 30.3625 52.0657 30.3625 52.0657C30.3625 52.0657 31.9725 50.6896 33.8001 49.6289C31.9725 50.6896 29.9763 51.3913 29.9763 51.3913C29.9763 51.3913 25.3474 53.8499 25.2549 54.5679Z" fill="#28459C"/>
<path d="M26.822 56.6076C27.54 56.7055 31.1136 52.8708 31.1136 52.8708C31.1136 52.8708 32.3103 51.1247 33.8007 49.6289C32.3103 51.1247 30.5588 52.3214 30.5588 52.3214C30.5588 52.3214 26.7295 55.8951 26.822 56.6076" fill="#28459C"/>
<path d="M28.8671 58.1796C29.5851 58.0817 32.0437 53.4582 32.0437 53.4582C32.0437 53.4582 32.7454 51.462 33.8006 49.6289C32.7454 51.462 31.3692 53.0666 31.3692 53.0666C31.3692 53.0666 28.5897 57.5106 28.8671 58.1796Z" fill="#28459C"/>
<path d="M31.2487 59.1641C31.9123 58.8867 33.0927 53.7846 33.0927 53.7846C33.0927 53.7846 33.2558 51.6741 33.7998 49.6289C33.2558 51.6741 32.3366 53.5833 32.3366 53.5833C32.3366 53.5833 30.8081 58.593 31.2487 59.1641Z" fill="#28459C"/>
<path d="M33.8005 59.5014C34.3771 59.0608 34.1921 53.8227 34.1921 53.8227C34.1921 53.8227 33.8005 51.7448 33.8005 49.6289C33.8005 51.7448 33.4143 53.8227 33.4143 53.8227C33.4143 53.8227 33.2294 59.0608 33.8005 59.5014Z" fill="#28459C"/>
<path d="M36.3563 59.1641C36.7969 58.593 35.263 53.5833 35.263 53.5833C35.263 53.5833 34.3492 51.6741 33.7998 49.6289C34.3492 51.6741 34.5124 53.7846 34.5124 53.7846C34.5124 53.7846 35.6873 58.8867 36.3563 59.1641" fill="#28459C"/>
<path d="M38.7388 58.1796C39.0107 57.5106 36.2366 53.0666 36.2366 53.0666C36.2366 53.0666 34.8605 51.462 33.7998 49.6289C34.8605 51.462 35.5622 53.4582 35.5622 53.4582C35.5622 53.4582 38.0208 58.0817 38.7388 58.1796Z" fill="#28459C"/>
<path d="M40.784 56.6076C40.8764 55.8951 37.0471 52.3214 37.0471 52.3214C37.0471 52.3214 35.2956 51.1247 33.7998 49.6289C35.2956 51.1247 36.4923 52.8708 36.4923 52.8708C36.4923 52.8708 40.066 56.7055 40.784 56.6076" fill="#28459C"/>
<path d="M42.3505 54.5679C42.2581 53.8499 37.6291 51.3913 37.6291 51.3913C37.6291 51.3913 35.6329 50.6896 33.7998 49.6289C35.6329 50.6896 37.2429 52.0657 37.2429 52.0657C37.2429 52.0657 41.6815 54.8398 42.3505 54.5679Z" fill="#28459C"/>
<path d="M43.335 52.1854C43.0576 51.5164 37.9555 50.3415 37.9555 50.3415C37.9555 50.3415 35.845 50.1783 33.7998 49.6289C35.845 50.1783 37.7542 51.0921 37.7542 51.0921C37.7542 51.0921 42.7639 52.626 43.335 52.1854Z" fill="#28459C"/>
<path d="M43.6723 49.6288C43.2317 49.0577 37.999 49.2372 37.999 49.2372C37.999 49.2372 35.9157 49.6288 33.7998 49.6288C35.9157 49.6288 37.999 50.0205 37.999 50.0205C37.999 50.0205 43.2317 50.2054 43.6723 49.6288Z" fill="#28459C"/>
<path d="M43.335 47.0778C42.7639 46.6372 37.7542 48.1657 37.7542 48.1657C37.7542 48.1657 35.845 49.0849 33.7998 49.6289C35.845 49.0849 37.9555 48.9218 37.9555 48.9218C37.9555 48.9218 43.0576 47.7414 43.335 47.0778Z" fill="#28459C"/>
<path d="M42.3505 44.6953C41.6815 44.4179 37.2429 47.192 37.2429 47.192C37.2429 47.192 35.6329 48.5735 33.7998 49.6288C35.6329 48.5735 37.6291 47.8719 37.6291 47.8719C37.6291 47.8719 42.258 45.4133 42.3505 44.6953Z" fill="#28459C"/>
<path d="M40.784 42.6501C40.066 42.5576 36.4923 46.3869 36.4923 46.3869C36.4923 46.3869 35.2956 48.133 33.7998 49.6288C35.2956 48.133 37.0471 46.9418 37.0471 46.9418C37.0471 46.9418 40.8764 43.3681 40.784 42.6501Z" fill="#28459C"/>
<path d="M38.7388 41.0835C38.0208 41.176 35.5622 45.7994 35.5622 45.7994C35.5622 45.7994 34.8605 47.7957 33.7998 49.6288C34.8605 47.7957 36.2366 46.1911 36.2366 46.1911C36.2366 46.1911 39.0107 41.7471 38.7388 41.0835Z" fill="#28459C"/>
<path d="M36.3563 40.0938C35.6873 40.3712 34.5124 45.4787 34.5124 45.4787C34.5124 45.4787 34.3492 47.5838 33.7998 49.629C34.3492 47.5838 35.263 45.68 35.263 45.68C35.263 45.68 36.7969 40.6703 36.3563 40.0938" fill="#28459C"/>
<path d="M109.625 103H8.9043V97.022H109.625V103Z" fill="#918A7F"/>
<path d="M2.98063 56.7272V54.8398C2.98063 54.6929 2.86102 54.5678 2.70867 54.5678C2.5618 54.5678 2.43671 54.6929 2.43671 54.8398V56.7272H2.98063V56.7272ZM4.73755 56.7272V54.8398C4.73755 54.6929 4.61795 54.5678 4.46559 54.5678C4.31873 54.5678 4.19362 54.6929 4.19362 54.8398V56.7272H4.73755ZM6.49991 56.7272V54.8398C6.49991 54.6929 6.37486 54.5678 6.22794 54.5678C6.07565 54.5678 5.95597 54.6929 5.95597 54.8398V56.7272H6.49991V56.7272ZM1.52832 57.2385V52.7837H7.40829V57.2385H1.52832Z" fill="#918A7F"/>
<path d="M9.16016 102.744V97.2778H109.37V102.744H9.16016Z" fill="#D4C7B5"/>
<path d="M0 103H8.90426V97.022H0V103Z" fill="#918A7F"/>
<path d="M0.255859 102.733V97.2886H8.64882V102.733H0.255859Z" fill="#D4C7B5"/>
<path d="M0.636719 97.022H8.26817L7.29452 57.8911H1.6158L0.636719 97.022Z" fill="#918A7F"/>
<path d="M1.52841 52.207V50.7275L1.55556 50.6731C1.59357 50.5969 2.55641 48.7476 4.46564 48.7476C6.3803 48.7476 7.34306 50.5969 7.38114 50.6731L7.40829 50.7275V52.207H1.52832" fill="#918A7F"/>
<path d="M0.897461 96.7666L1.86022 58.147H7.04395L8.00673 96.7666H0.897461" fill="#D4C7B5"/>
<path d="M4.37866 58.147H1.86022L0.897461 96.7666H3.41588L4.37866 58.147Z" fill="#C5B8A6"/>
<path d="M8.54021 84.381C8.54021 84.0601 8.28456 83.8045 7.96907 83.799V83.7935H0.968596V83.799C0.653115 83.8046 0.397461 84.0601 0.397461 84.381C0.397461 84.702 0.653115 84.9576 0.968596 84.9631V84.9686H7.96907V84.9631C8.28456 84.9575 8.54021 84.702 8.54021 84.381Z" fill="#C5B8A6"/>
<path d="M0.968596 84.9629V84.9685H7.96907V84.9629C8.28456 84.9573 8.54021 84.7018 8.54021 84.3809H0.397461C0.397461 84.7018 0.653115 84.9574 0.968596 84.9629Z" fill="#A89985"/>
<path d="M8.19761 71.5875C8.19761 71.2665 7.94196 71.0109 7.62104 71H1.31136C0.995878 71.0111 0.740234 71.2665 0.740234 71.5875C0.740234 71.9029 0.995878 72.164 1.31136 72.1695V72.175H7.62104V72.1695C7.94196 72.1639 8.19761 71.9029 8.19761 71.5875Z" fill="#C5B8A6"/>
<path d="M1.31136 72.1694V72.175H7.62104V72.1694C7.94196 72.1638 8.19761 71.9029 8.19761 71.5874H0.740234C0.740234 71.9029 0.995878 72.164 1.31136 72.1694" fill="#A89985"/>
<path d="M8.19761 57.5593C8.19761 57.2438 7.94196 56.9827 7.62104 56.9772V56.9717H1.31136V56.9772C0.995878 56.9828 0.740234 57.2438 0.740234 57.5593C0.740234 57.8802 0.995878 58.1358 1.31136 58.1467H7.62104C7.94196 58.1356 8.19761 57.8802 8.19761 57.5593Z" fill="#C5B8A6"/>
<path d="M1.31136 58.147H7.62104C7.94196 58.1359 8.19761 57.8805 8.19761 57.5596H0.740234C0.740234 57.8805 0.995878 58.1361 1.31136 58.147" fill="#A89985"/>
<path d="M7.92016 52.4952C7.92016 52.2015 7.68082 51.9622 7.38709 51.9567V51.9512H1.55065V51.9567C1.25147 51.9623 1.01758 52.2015 1.01758 52.4952C1.01758 52.789 1.25147 53.0283 1.55065 53.0337V53.0393H7.38709V53.0337C7.68082 53.0282 7.92016 52.789 7.92016 52.4952Z" fill="#C5B8A6"/>
<path d="M1.55065 53.0341V53.0397H7.38709V53.0341C7.68082 53.0285 7.92016 52.7893 7.92016 52.4956H1.01758C1.01758 52.7893 1.25147 53.0287 1.55065 53.0341" fill="#A89985"/>
<path d="M3.37262 102.744H0.255859V97.2886H3.37262V102.744Z" fill="#C5B8A6"/>
<path d="M4.46602 46.958L4.17773 49.0195L4.46602 49.0957L4.75974 49.0195L4.46602 46.958Z" fill="#918A7F"/>
<path d="M2.18083 54.84V56.9831H3.23607V54.84C3.23607 54.5517 3.00218 54.3124 2.70845 54.3124C2.42017 54.3124 2.18083 54.5517 2.18083 54.84ZM6.22773 54.3124C5.934 54.3124 5.70012 54.5517 5.70012 54.84V56.9831H6.74991V54.84C6.74991 54.5517 6.51602 54.3124 6.22773 54.3124ZM4.46538 54.3124C4.1771 54.3124 3.9432 54.5517 3.9432 54.84V56.9831H4.99299V54.84C4.99299 54.5517 4.7591 54.3124 4.46538 54.3124ZM7.15787 56.9831H1.77832V53.0396H7.15787V56.9831Z" fill="#D4C7B5"/>
<path d="M4.46538 49.0034C2.69214 49.0034 1.77832 50.7875 1.77832 50.7875V51.9516H7.15787V50.7875C7.15787 50.7875 6.24406 49.0034 4.46538 49.0034" fill="#D4C7B5"/>
<path d="M3.9432 53.0396H1.77832V56.9831H2.18083V54.84C2.18083 54.5517 2.42017 54.3124 2.70845 54.3124C3.00218 54.3124 3.23607 54.5517 3.23607 54.84V56.9831H3.9432V53.0396" fill="#C5B8A6"/>
<path d="M3.94336 53.2082H7.15802V53.0396H3.94336V53.2082Z" fill="#918575"/>
<path d="M1.77832 53.2082H3.9432V53.0396H1.77832V53.2082Z" fill="#877D68"/>
<path d="M7.07124 58.3156H7.04951L7.04395 58.147H7.0711V58.3156" fill="#635C51"/>
<path d="M7.04923 58.3156H4.37305L4.37861 58.147H7.04391L7.04948 58.3156" fill="#918575"/>
<path d="M4.37279 58.3156H1.86523V58.147H4.37824L4.37266 58.3156" fill="#877D68"/>
<path d="M7.40275 72.3434H7.39718L7.3916 72.1748H7.40275V72.3434" fill="#635C51"/>
<path d="M7.39782 72.3434H4.02539V72.1748H7.39237L7.39793 72.3434" fill="#918575"/>
<path d="M4.02541 72.3434H1.53418V72.1748H4.02541V72.3434Z" fill="#877D68"/>
<path d="M7.72403 85.1369H7.71847L7.71289 84.9683H7.72403V85.1369" fill="#635C51"/>
<path d="M7.71836 85.1369H3.7041L3.70967 84.9683H7.71305L7.71862 85.1369" fill="#918575"/>
<path d="M3.70413 85.1369H1.21289V84.9683H3.70956L3.704 85.1369" fill="#877D68"/>
<path d="M112.35 56.7272V54.8398C112.35 54.6929 112.231 54.5678 112.078 54.5678C111.926 54.5678 111.806 54.6929 111.806 54.8398V56.7272H112.35V56.7272ZM114.107 56.7272V54.8398C114.107 54.6929 113.988 54.5678 113.835 54.5678C113.688 54.5678 113.563 54.6929 113.563 54.8398V56.7272H114.107V56.7272ZM115.87 56.7272V54.8398C115.87 54.6929 115.745 54.5678 115.598 54.5678C115.445 54.5678 115.326 54.6929 115.326 54.8398V56.7272H115.87ZM110.893 57.2385V52.7837H116.778V57.2385H110.893Z" fill="#918A7F"/>
<path d="M109.369 103H118.273V97.022H109.369V103Z" fill="#918A7F"/>
<path d="M109.625 102.733V97.2886H118.018V102.733H109.625Z" fill="#D4C7B5"/>
<path d="M110.006 97.022H117.637L116.664 57.8911H110.985L110.006 97.022" fill="#918A7F"/>
<path d="M110.893 52.207V50.7275L110.925 50.6731C110.963 50.5969 111.926 48.7476 113.835 48.7476C115.75 48.7476 116.713 50.5969 116.751 50.6731L116.778 50.7275V52.207H110.893" fill="#918A7F"/>
<path d="M110.268 96.7666L111.23 58.147H116.414L117.377 96.7666H110.268" fill="#D4C7B5"/>
<path d="M113.749 58.147H111.23L110.268 96.7666H112.786L113.749 58.147Z" fill="#C5B8A6"/>
<path d="M117.909 84.381C117.909 84.0601 117.654 83.8045 117.338 83.799V83.7935H110.338V83.799C110.022 83.8046 109.767 84.0601 109.767 84.381C109.767 84.702 110.022 84.9576 110.338 84.9631V84.9686H117.338V84.9631C117.654 84.9575 117.909 84.702 117.909 84.381Z" fill="#C5B8A6"/>
<path d="M110.338 84.9629V84.9685H117.338V84.9629C117.654 84.9573 117.909 84.7018 117.909 84.3809H109.767C109.767 84.7018 110.022 84.9574 110.338 84.9629Z" fill="#A89985"/>
<path d="M117.561 71.5875C117.561 71.2665 117.311 71.0109 116.99 71H110.686C110.365 71.0111 110.109 71.2665 110.109 71.5875C110.109 71.9029 110.365 72.164 110.686 72.1695V72.175H116.99V72.1695C117.311 72.1639 117.561 71.9029 117.561 71.5875Z" fill="#C5B8A6"/>
<path d="M110.686 72.1694V72.175H116.99V72.1694C117.311 72.1638 117.561 71.9029 117.561 71.5874H110.109C110.109 71.9029 110.365 72.164 110.686 72.1694Z" fill="#A89985"/>
<path d="M117.561 57.5593C117.561 57.2438 117.311 56.9827 116.99 56.9772V56.9717H110.686V56.9772C110.365 56.9828 110.109 57.2438 110.109 57.5593C110.109 57.8802 110.365 58.1358 110.686 58.1467H116.99C117.311 58.1356 117.561 57.8802 117.561 57.5593Z" fill="#C5B8A6"/>
<path d="M110.686 58.147H116.99C117.311 58.1359 117.561 57.8805 117.561 57.5596H110.109C110.109 57.8805 110.365 58.1361 110.686 58.147Z" fill="#A89985"/>
<path d="M117.289 52.4952C117.289 52.2015 117.05 51.9622 116.756 51.9567V51.9512H110.92V51.9567C110.621 51.9623 110.387 52.2015 110.387 52.4952C110.387 52.789 110.621 53.0283 110.92 53.0337V53.0393H116.756V53.0337C117.05 53.0282 117.289 52.789 117.289 52.4952" fill="#C5B8A6"/>
<path d="M110.92 53.0341V53.0397H116.756V53.0341C117.05 53.0285 117.289 52.7893 117.289 52.4956H110.387C110.387 52.7893 110.621 53.0287 110.92 53.0341" fill="#A89985"/>
<path d="M112.742 102.744H109.625V97.2886H112.742V102.744Z" fill="#C5B8A6"/>
<path d="M113.835 46.958L113.547 49.0195L113.835 49.0957L114.129 49.0195L113.835 46.958Z" fill="#918A7F"/>
<path d="M111.551 54.84V56.9831H112.606V54.84C112.606 54.5517 112.367 54.3124 112.079 54.3124C111.79 54.3124 111.551 54.5517 111.551 54.84V54.84ZM115.598 54.3124C115.304 54.3124 115.07 54.5517 115.07 54.84V56.9831H116.12V54.84C116.12 54.5517 115.886 54.3124 115.598 54.3124ZM113.835 54.3124C113.547 54.3124 113.313 54.5517 113.313 54.84V56.9831H114.363V54.84C114.363 54.5517 114.129 54.3124 113.835 54.3124ZM116.528 56.9831H111.148V53.0396H116.528V56.9831Z" fill="#D4C7B5"/>
<path d="M113.835 49.0034C112.062 49.0034 111.148 50.7875 111.148 50.7875V51.9516H116.523V50.7875C116.523 50.7875 115.614 49.0034 113.835 49.0034Z" fill="#D4C7B5"/>
<path d="M113.313 53.0396H111.148V56.9831H111.551V54.84C111.551 54.5517 111.79 54.3124 112.079 54.3124C112.367 54.3124 112.606 54.5517 112.606 54.84V56.9831H113.313V53.0396Z" fill="#C5B8A6"/>
<path d="M113.313 53.2082H116.528V53.0396H113.313V53.2082Z" fill="#918575"/>
<path d="M111.148 53.2082H113.313V53.0396H111.148V53.2082Z" fill="#877D68"/>
<path d="M116.44 58.3156H116.419L116.413 58.147H116.44V58.3156" fill="#635C51"/>
<path d="M116.419 58.3156H113.743L113.749 58.147H116.414L116.42 58.3156" fill="#918575"/>
<path d="M113.743 58.3156H111.235V58.147H113.748L113.743 58.3156" fill="#877D68"/>
<path d="M116.773 72.3434H116.767L116.762 72.1748H116.773V72.3434" fill="#635C51"/>
<path d="M116.767 72.3434H113.395V72.1748H116.762L116.767 72.3434" fill="#918575"/>
<path d="M113.395 72.3434H110.903V72.1748H113.395V72.3434Z" fill="#877D68"/>
<path d="M117.093 85.1369H117.088L117.082 84.9683H117.093V85.1369" fill="#635C51"/>
<path d="M117.088 85.1369H113.074L113.08 84.9683H117.083L117.089 85.1369" fill="#918575"/>
<path d="M113.073 85.1369H110.582V84.9683H113.079L113.073 85.1369" fill="#877D68"/>
<path d="M26.1035 75.7434V74.748L25.9566 74.6012L25.8152 74.748V75.7434H26.1035ZM27.0281 75.7434V74.748L26.8867 74.6012L26.7453 74.748V75.7434H27.0281V75.7434ZM27.9583 75.7434V74.748L27.8169 74.6012L27.6754 74.748V75.7434H27.9583V75.7434ZM25.3311 76.01V73.6602H28.4424V76.01H25.3311Z" fill="#918A7F"/>
<path d="M24.8633 97.0221H28.8939L28.3771 76.3579H25.38L24.8633 97.0221" fill="#918A7F"/>
<path d="M25.3311 73.3554V72.5721L25.3474 72.545C25.3691 72.5016 25.8805 71.5278 26.8867 71.5278C27.8985 71.5278 28.4043 72.5015 28.4261 72.545L28.4424 72.5721V73.3554H25.3311" fill="#918A7F"/>
<path d="M25.0049 96.8864L25.5107 76.4941H28.2467L28.7581 96.8864H25.0049" fill="#D4C7B5"/>
<path d="M26.8379 76.4941H25.5107L25.0049 96.8864H26.3321L26.8379 76.4941Z" fill="#C5B8A6"/>
<path d="M29.0354 90.3427C29.0354 90.1795 28.9049 90.0435 28.7362 90.0381H25.0374C24.8743 90.0437 24.7383 90.1795 24.7383 90.3427C24.7383 90.5168 24.8743 90.6527 25.0374 90.6527V90.6583H28.7362V90.6527C28.9048 90.6527 29.0354 90.5167 29.0354 90.3427Z" fill="#C5B8A6"/>
<path d="M25.0374 90.6528V90.6584H28.7362V90.6528C28.9048 90.6528 29.0354 90.5168 29.0354 90.3428H24.7383C24.7383 90.5168 24.8743 90.6528 25.0374 90.6528Z" fill="#A89985"/>
<path d="M28.8561 83.587C28.8561 83.4184 28.7202 83.2824 28.5515 83.2824V83.2769H25.2226V83.2824C25.0539 83.2824 24.918 83.4185 24.918 83.587C24.918 83.7557 25.054 83.8916 25.2226 83.8971H28.5515C28.7201 83.8915 28.8561 83.7557 28.8561 83.587Z" fill="#C5B8A6"/>
<path d="M25.2226 83.8969H28.5515C28.7201 83.8914 28.8561 83.7555 28.8561 83.5869H24.918C24.918 83.7555 25.054 83.8915 25.2226 83.8969Z" fill="#A89985"/>
<path d="M28.8561 76.1841C28.8561 76.0155 28.7202 75.8795 28.5515 75.874H25.2226C25.0539 75.8796 24.918 76.0155 24.918 76.1841C24.918 76.3527 25.054 76.4887 25.2226 76.4887V76.4942H28.5515V76.4887C28.7201 76.4887 28.8561 76.3526 28.8561 76.1841Z" fill="#C5B8A6"/>
<path d="M25.2226 76.4887V76.4943H28.5515V76.4887C28.7201 76.4887 28.8561 76.3526 28.8561 76.1841H24.918C24.918 76.3527 25.054 76.4887 25.2226 76.4887Z" fill="#A89985"/>
<path d="M28.7088 73.5075C28.7088 73.3498 28.5838 73.2247 28.4314 73.2192H25.3473C25.1896 73.2248 25.0645 73.3497 25.0645 73.5075C25.0645 73.6653 25.1895 73.7904 25.3473 73.7904V73.7959H28.4314V73.7904C28.5837 73.7904 28.7088 73.6653 28.7088 73.5075Z" fill="#C5B8A6"/>
<path d="M25.3473 73.7907V73.7962H28.4314V73.7907C28.5837 73.7907 28.7088 73.6656 28.7088 73.5078H25.0645C25.0645 73.6656 25.1895 73.7907 25.3473 73.7907" fill="#A89985"/>
<path d="M26.8867 70.5815L26.7344 71.6694L26.8867 71.7129L27.039 71.6694L26.8867 70.5815Z" fill="#918A7F"/>
<path d="M25.6789 74.7478V75.8737H26.2337V74.7478C26.2337 74.59 26.1087 74.4704 25.9563 74.4704C25.804 74.4704 25.6789 74.59 25.6789 74.7478ZM27.8166 74.4704C27.6643 74.4704 27.5392 74.59 27.5392 74.7478V75.8737H28.094V74.7478C28.094 74.59 27.9688 74.4704 27.8166 74.4704ZM26.8865 74.4704C26.7342 74.4704 26.6091 74.59 26.6091 74.7478V75.8737H27.1639V74.7478C27.1639 74.59 27.0388 74.4704 26.8865 74.4704ZM28.3062 75.8737H25.4668V73.7959H28.3062V75.8737Z" fill="#D4C7B5"/>
<path d="M26.8865 71.6636C25.9509 71.6636 25.4668 72.6046 25.4668 72.6046V73.2192H28.3062V72.6046C28.3062 72.6046 27.822 71.6636 26.8865 71.6636Z" fill="#D4C7B5"/>
<path d="M26.6091 73.7959H25.4668V75.8737H25.6789V74.7478C25.6789 74.59 25.804 74.4704 25.9563 74.4704C26.1087 74.4704 26.2337 74.59 26.2337 74.7478V75.8737H26.6091V73.7959" fill="#C5B8A6"/>
<path d="M26.6094 73.8829H28.3065V73.7959H26.6094V73.8829Z" fill="#918575"/>
<path d="M25.4668 73.8829H26.6091V73.7959H25.4668V73.8829Z" fill="#877D68"/>
<path d="M41.0129 74.2149V71.9412C41.0129 71.7617 40.8334 71.6149 40.6104 71.6149C40.3874 71.6149 40.2079 71.7617 40.2079 71.9412V74.2149H41.0129V74.2149ZM43.6184 74.2149V71.9412C43.6184 71.7617 43.4389 71.6149 43.2159 71.6149C42.9929 71.6149 42.8134 71.7617 42.8134 71.9412V74.2149H43.6184V74.2149ZM46.2239 74.2149V71.9412C46.2239 71.7617 46.0444 71.6149 45.8268 71.6149C45.6038 71.6149 45.4188 71.7617 45.4188 71.9412V74.2149H46.2239ZM38.8535 74.8295V69.4663H47.5783V74.8295H38.8535Z" fill="#918A7F"/>
<path d="M38.8535 68.7701V66.9914L38.897 66.9261C38.9568 66.8282 40.3873 64.6035 43.2158 64.6035C46.0443 64.6035 47.4749 66.8282 47.5347 66.9261L47.5781 66.9914V68.7701H38.8535" fill="#918A7F"/>
<path d="M37.6889 70.0811H37.3789V74.4108H37.6889V70.0811Z" fill="#666359"/>
<path d="M37.5312 68.7974L37.3789 70.0811H37.6889L37.5312 68.7974Z" fill="#666359"/>
<path d="M37.8903 70.1627H37.1777V69.9995H37.8903V70.1627Z" fill="#666359"/>
<path d="M33.436 68.8354H32.9355V75.7761H33.436V68.8354Z" fill="#666359"/>
<path d="M33.1858 66.7793L32.9355 68.8354H33.436L33.1858 66.7793Z" fill="#666359"/>
<path d="M33.7565 68.9712H32.6143V68.6992H33.7565V68.9712Z" fill="#666359"/>
<path d="M32.0702 71.3535H31.6895V76.6569H32.0702V71.3535Z" fill="#666359"/>
<path d="M31.8798 69.7817L31.6895 71.3537H32.0702L31.8798 69.7817Z" fill="#666359"/>
<path d="M32.321 71.4572H31.4453V71.2505H32.321V71.4572Z" fill="#666359"/>
<path d="M48.3286 69.1183C48.3286 68.7593 47.9804 68.4764 47.5453 68.4655V68.46H38.8858V68.4655C38.4507 68.4767 38.1025 68.7593 38.1025 69.1183C38.1025 69.4718 38.4507 69.7601 38.8858 69.771H47.5453C47.9804 69.7598 48.3286 69.4718 48.3286 69.1183Z" fill="#C5B8A6"/>
<path d="M38.8858 69.7709H47.5453C47.9804 69.7597 48.3286 69.4717 48.3286 69.1182H38.1025C38.1025 69.4717 38.4507 69.76 38.8858 69.7709Z" fill="#918A7F"/>
<path d="M43.2154 62.4438L42.7803 64.9296L43.2154 65.0221L43.6451 64.9296L43.2154 62.4438Z" fill="#918A7F"/>
<path d="M39.8273 71.9413V74.5196H41.3884V71.9413C41.3884 71.5932 41.0402 71.3103 40.6105 71.3103C40.1754 71.3103 39.8273 71.5932 39.8273 71.9413ZM45.8215 71.3103C45.3917 71.3103 45.0436 71.5932 45.0436 71.9413V74.5196H46.6047V71.9413C46.6047 71.5932 46.2566 71.3103 45.8215 71.3103ZM43.216 71.3103C42.7863 71.3103 42.4382 71.5932 42.4382 71.9413V74.5196H43.9938V71.9413C43.9938 71.5932 43.6457 71.3103 43.216 71.3103ZM47.1976 74.5196H39.2344V69.771H47.1976V74.5196Z" fill="#B5A897"/>
<path d="M43.216 64.9082C40.5833 64.9082 39.2344 67.0622 39.2344 67.0622V68.4601H47.1976V67.0622C47.1976 67.0622 45.8487 64.9082 43.216 64.9082Z" fill="#B5A897"/>
<path d="M42.4382 69.771H39.2344V74.5196H39.8273V71.9413C39.8273 71.5932 40.1754 71.3103 40.6105 71.3103C41.0402 71.3103 41.3884 71.5932 41.3884 71.9413V74.5196H42.4382V69.771Z" fill="#A39C8A"/>
<path d="M42.4385 69.9777H47.1979V69.771H42.4385V69.9777Z" fill="#7D7361"/>
<path d="M39.2344 69.9777H42.4382V69.771H39.2344V69.9777Z" fill="#706859"/>
<path d="M28.2628 76.5812H28.2517L28.2461 76.4941H28.2624V76.5812" fill="#635C51"/>
<path d="M28.2521 76.5812H26.8379V76.4941H28.2467L28.2523 76.5812" fill="#918575"/>
<path d="M26.8379 76.5812H25.5107V76.4941H26.8379V76.5812Z" fill="#877D68"/>
<path d="M28.4372 83.9894L28.4316 83.897H28.4372V83.9894Z" fill="#635C51"/>
<path d="M28.4374 83.9894H26.6533V83.897H28.432L28.4376 83.9894" fill="#918575"/>
<path d="M26.6532 83.9894H25.3369V83.897H26.6532V83.9894Z" fill="#877D68"/>
<path d="M28.6052 90.7452L28.5996 90.6582H28.6052V90.7452Z" fill="#635C51"/>
<path d="M28.6057 90.7452H26.4844V90.6582H28.6003L28.6059 90.7452" fill="#918575"/>
<path d="M26.4843 90.7452H25.168V90.6582H26.4843V90.7452Z" fill="#877D68"/>
<path d="M37.6894 74.2148L31.668 76.0098V97.0222H37.6894V74.2148Z" fill="#B0A697"/>
<path d="M47.6054 97.0222H37.6895V74.2148H47.6054V97.0222Z" fill="#918A7F"/>
<path d="M37.9453 96.7667V74.4707H47.3554V96.7667H37.9453Z" fill="#C5B8A6"/>
<path d="M42.6502 89.2656C41.3774 89.2656 39.7891 90.9137 39.7891 91.8711C39.7891 92.823 39.7891 96.7665 39.7891 96.7665H45.5113C45.5113 96.7665 45.5113 92.823 45.5113 91.8711C45.5113 90.9137 43.9176 89.2656 42.6502 89.2656" fill="#AEA694"/>
<path d="M42.6502 79.1865C41.3774 79.1865 39.7891 80.8401 39.7891 81.792C39.7891 82.7439 39.7891 86.6874 39.7891 86.6874H45.5113C45.5113 86.6874 45.5113 82.7439 45.5113 81.792C45.5113 80.8401 43.9176 79.1865 42.6502 79.1865" fill="#AEA694"/>
<path d="M42.6499 84.354C42.2528 84.354 41.7578 84.8707 41.7578 85.1645C41.7578 85.4636 41.7578 86.6875 41.7578 86.6875H43.5365C43.5365 86.6875 43.5365 85.4636 43.5365 85.1645C43.5365 84.8707 43.0415 84.354 42.6499 84.354Z" fill="#918A7F"/>
<path d="M42.6499 94.4331C42.2528 94.4331 41.7578 94.9498 41.7578 95.2436C41.7578 95.5427 41.7578 96.7666 41.7578 96.7666H43.5365C43.5365 96.7666 43.5365 95.5427 43.5365 95.2436C43.5365 94.9498 43.0415 94.4331 42.6499 94.4331Z" fill="#918A7F"/>
<path d="M42.6502 79.8392C43.7381 79.8392 45.0381 80.9053 45.5113 81.8246V81.792C45.5113 80.8401 43.9176 79.1865 42.6502 79.1865C41.3774 79.1865 39.7891 80.8401 39.7891 81.792V81.8246C40.2569 80.9053 41.5623 79.8392 42.6502 79.8392Z" fill="#918A7F"/>
<path d="M42.6502 89.9129C43.7381 89.9129 45.0381 90.9844 45.5113 91.8983V91.8711C45.5113 90.9138 43.9176 89.2656 42.6502 89.2656C41.3774 89.2656 39.7891 90.9138 39.7891 91.8711V91.8983C40.2569 90.9844 41.5623 89.9129 42.6502 89.9129Z" fill="#918A7F"/>
<path d="M34.682 89.2656C33.8062 89.2656 32.7129 90.9137 32.7129 91.8711C32.7129 92.823 32.7129 96.7665 32.7129 96.7665H36.6456C36.6456 96.7665 36.6456 92.823 36.6456 91.8711C36.6456 90.9137 35.5523 89.2656 34.682 89.2656Z" fill="#736E63"/>
<path d="M47.3607 65.2723L47.3335 65.0493C47.3064 64.8263 46.6808 59.5609 48.3235 56.5203C50.7876 51.9621 54.47 49.6504 59.2676 49.6504C64.0596 49.6504 67.7421 51.9621 70.2061 56.5203C71.8488 59.5609 71.2233 64.8263 71.1961 65.0493L71.1689 65.2723H47.3608" fill="#918A7F"/>
<path d="M69.9827 56.6403C68.4216 53.752 65.3701 49.9009 59.2671 49.9009C53.1587 49.9009 50.1072 53.752 48.5461 56.6403C46.9252 59.6428 47.5834 65.0169 47.5834 65.0169H70.9455C70.9455 65.0169 71.6091 59.6428 69.9827 56.6403" fill="#D4C7B5"/>
<path d="M34.682 89.9129C35.4271 89.9129 36.3246 90.9844 36.6456 91.8983V91.8711C36.6456 90.9138 35.5523 89.2656 34.682 89.2656C33.8062 89.2656 32.7129 90.9138 32.7129 91.8711V91.8983C33.0338 90.9844 33.9313 89.9129 34.682 89.9129Z" fill="#666359"/>
<path d="M34.682 79.1865C33.8062 79.1865 32.7129 80.8401 32.7129 81.792C32.7129 82.7439 32.7129 86.6874 32.7129 86.6874H36.6456C36.6456 86.6874 36.6456 82.7439 36.6456 81.792C36.6456 80.8401 35.5523 79.1865 34.682 79.1865Z" fill="#736E63"/>
<path d="M34.682 79.8392C35.4271 79.8392 36.3246 80.9053 36.6456 81.8246V81.792C36.6456 80.8401 35.5523 79.1865 34.682 79.1865C33.8062 79.1865 32.7129 80.8401 32.7129 81.792V81.8246C33.0338 80.9053 33.9313 79.8392 34.682 79.8392Z" fill="#666359"/>
<path d="M47.3554 75.384H37.9453V75.0522H47.3554V75.384Z" fill="#918A7F"/>
<path d="M38.4509 96.7882H37.9287V75.3843H38.4509V96.7882Z" fill="#AEA694"/>
<path d="M92.7146 75.7434V74.748L92.5731 74.6012L92.4317 74.748V75.7434H92.7146ZM91.7899 75.7434V74.748L91.643 74.6012L91.5016 74.748V75.7434H91.7899ZM90.8597 75.7434V74.748L90.7129 74.6012L90.5714 74.748V75.7434H90.8597ZM90.0928 76.01V73.6602H93.1987V76.01H90.0928Z" fill="#918A7F"/>
<path d="M93.6663 97.0221H89.6357L90.1525 76.3579H93.1496L93.6663 97.0221Z" fill="#918A7F"/>
<path d="M93.1979 73.3554V72.5721L93.1816 72.545C93.1599 72.5016 92.654 71.5278 91.6423 71.5278C90.636 71.5278 90.1247 72.5015 90.1029 72.545L90.0918 72.5721V73.3554H93.1977" fill="#918A7F"/>
<path d="M93.5301 96.8864L93.0188 76.4941H90.2828L89.7715 96.8864H93.5301" fill="#D4C7B5"/>
<path d="M91.6914 76.4941H93.0186L93.5299 96.8864H92.1973L91.6914 76.4941" fill="#C5B8A6"/>
<path d="M89.4941 90.3427C89.4941 90.1795 89.63 90.0435 89.7933 90.0381H93.4921C93.6607 90.0437 93.7912 90.1795 93.7912 90.3427C93.7912 90.5168 93.6608 90.6527 93.4921 90.6527V90.6583H89.7933V90.6527C89.6301 90.6527 89.4941 90.5167 89.4941 90.3427Z" fill="#C5B8A6"/>
<path d="M93.4921 90.6528V90.6584H89.7933V90.6528C89.6301 90.6528 89.4941 90.5168 89.4941 90.3428H93.7912C93.7912 90.5168 93.6608 90.6528 93.4921 90.6528" fill="#A89985"/>
<path d="M89.6738 83.587C89.6738 83.4184 89.8099 83.2824 89.9784 83.2824V83.2769H93.3073V83.2824C93.476 83.2824 93.6119 83.4185 93.6119 83.587C93.6119 83.7557 93.4759 83.8916 93.3073 83.8971H89.9784C89.8098 83.8915 89.6738 83.7557 89.6738 83.587Z" fill="#C5B8A6"/>
<path d="M93.3073 83.8969H89.9784C89.8098 83.8914 89.6738 83.7555 89.6738 83.5869H93.6119C93.6119 83.7555 93.4759 83.8915 93.3073 83.8969Z" fill="#A89985"/>
<path d="M89.6738 76.1841C89.6738 76.0155 89.8099 75.8795 89.9784 75.874H93.3073C93.476 75.8796 93.6119 76.0155 93.6119 76.1841C93.6119 76.3527 93.4759 76.4887 93.3073 76.4887V76.4942H89.9784V76.4887C89.8098 76.4887 89.6738 76.3526 89.6738 76.1841Z" fill="#C5B8A6"/>
<path d="M93.3073 76.4887V76.4943H89.9784V76.4887C89.8098 76.4887 89.6738 76.3526 89.6738 76.1841H93.6119C93.6119 76.3527 93.4759 76.4887 93.3073 76.4887Z" fill="#A89985"/>
<path d="M89.8203 73.5075C89.8203 73.3498 89.9455 73.2247 90.1032 73.2192H93.1873C93.3396 73.2248 93.4647 73.3497 93.4647 73.5075C93.4647 73.6653 93.3397 73.7904 93.1873 73.7904V73.7959H90.1032V73.7904C89.9454 73.7904 89.8203 73.6653 89.8203 73.5075Z" fill="#C5B8A6"/>
<path d="M93.1873 73.7907V73.7962H90.1032V73.7907C89.9454 73.7907 89.8203 73.6656 89.8203 73.5078H93.4647C93.4647 73.6656 93.3397 73.7907 93.1873 73.7907Z" fill="#A89985"/>
<path d="M91.6425 70.5815L91.8003 71.6694L91.6425 71.7129L91.4902 71.6694L91.6425 70.5815Z" fill="#918A7F"/>
<path d="M92.5725 74.4704C92.4202 74.4704 92.2951 74.59 92.2951 74.7478V75.8737H92.8499V74.7478C92.8499 74.59 92.7248 74.4704 92.5725 74.4704ZM90.4348 74.7478V75.8737H90.9896V74.7478C90.9896 74.59 90.87 74.4704 90.7122 74.4704C90.5599 74.4704 90.4348 74.59 90.4348 74.7478V74.7478ZM91.3649 74.7478V75.8737H91.9197V74.7478C91.9197 74.59 91.7947 74.4704 91.6423 74.4704C91.49 74.4704 91.3649 74.59 91.3649 74.7478ZM90.2227 73.7959H93.062V75.8737H90.2227V73.7959Z" fill="#D4C7B5"/>
<path d="M91.6423 71.6636C92.5834 71.6636 93.062 72.6046 93.062 72.6046V73.2192H90.2227V72.6046C90.2227 72.6046 90.7068 71.6636 91.6423 71.6636Z" fill="#D4C7B5"/>
<path d="M91.9199 73.7959H93.0622V75.8737H92.8501V74.7478C92.8501 74.59 92.725 74.4704 92.5726 74.4704C92.4204 74.4704 92.2952 74.59 92.2952 74.7478V75.8737H91.9199V73.7959" fill="#C5B8A6"/>
<path d="M90.2227 73.8829H91.9197V73.7959H90.2227V73.8829Z" fill="#918575"/>
<path d="M91.9199 73.8829H93.0622V73.7959H91.9199V73.8829Z" fill="#877D68"/>
<path d="M78.3274 74.2149V71.9412C78.3274 71.7617 78.1424 71.6149 77.9249 71.6149C77.7019 71.6149 77.5224 71.7617 77.5224 71.9412V74.2149H78.3274ZM75.7165 74.2149V71.9412C75.7165 71.7617 75.537 71.6149 75.314 71.6149C75.091 71.6149 74.9115 71.7617 74.9115 71.9412V74.2149H75.7165ZM73.111 74.2149V71.9412C73.111 71.7617 72.9315 71.6149 72.7085 71.6149C72.4855 71.6149 72.306 71.7617 72.306 71.9412V74.2149H73.111ZM70.957 74.8295V69.4663H79.6764V74.8295H70.957" fill="#918A7F"/>
<path d="M79.6762 68.7701V66.9914L79.6328 66.9261C79.5729 66.8282 78.1478 64.6035 75.3139 64.6035C72.4854 64.6035 71.0549 66.8282 70.995 66.9261L70.957 66.9914V68.7701H79.6764" fill="#918A7F"/>
<path d="M80.8398 70.0811H81.1553V74.4108H80.8398V70.0811Z" fill="#918A7F"/>
<path d="M80.9976 68.7974L81.1553 70.0811H80.8398L80.9976 68.7974Z" fill="#918A7F"/>
<path d="M80.6387 70.1627H81.3512V69.9995H80.6387V70.1627Z" fill="#918A7F"/>
<path d="M85.0986 68.8354H85.5936V75.7761H85.0986V68.8354Z" fill="#918A7F"/>
<path d="M85.3434 66.7793L85.5936 68.8354H85.0986L85.3434 66.7793Z" fill="#918A7F"/>
<path d="M84.7725 68.9712H85.9147V68.6992H84.7725V68.9712Z" fill="#918A7F"/>
<path d="M86.459 71.3535H86.8397V76.6569H86.459V71.3535Z" fill="#918A7F"/>
<path d="M86.6494 69.7817L86.8397 71.3537H86.459L86.6494 69.7817Z" fill="#918A7F"/>
<path d="M86.2139 71.4572H87.0842V71.2505H86.2139V71.4572Z" fill="#918A7F"/>
<path d="M70.2002 69.1183C70.2002 68.7593 70.5483 68.4764 70.9835 68.4655V68.46H79.643V68.4655C80.0781 68.4767 80.4317 68.7593 80.4317 69.1183C80.4317 69.4718 80.0781 69.7601 79.643 69.771H70.9835C70.5483 69.7598 70.2002 69.4718 70.2002 69.1183Z" fill="#C5B8A6"/>
<path d="M79.643 69.7709H70.9835C70.5483 69.7597 70.2002 69.4717 70.2002 69.1182H80.4317C80.4317 69.4717 80.0781 69.76 79.643 69.7709Z" fill="#918A7F"/>
<path d="M75.3135 62.4438L75.7486 64.9296L75.3135 65.0221L74.8838 64.9296L75.3135 62.4438Z" fill="#918A7F"/>
<path d="M77.9245 71.3103C77.4894 71.3103 77.1413 71.5932 77.1413 71.9413V74.5196H78.7024V71.9413C78.7024 71.5932 78.3543 71.3103 77.9245 71.3103ZM71.9304 71.9413V74.5196H73.486V71.9413C73.486 71.5932 73.1379 71.3103 72.7082 71.3103C72.2785 71.3103 71.9304 71.5932 71.9304 71.9413V71.9413ZM74.5358 71.9413V74.5196H76.0915V71.9413C76.0915 71.5932 75.7434 71.3103 75.3136 71.3103C74.8839 71.3103 74.5358 71.5932 74.5358 71.9413ZM71.332 69.771H79.3007V74.5196H71.332V69.771Z" fill="#D4C7B5"/>
<path d="M75.3136 64.9082C77.9463 64.9082 79.3007 67.0622 79.3007 67.0622V68.4601H71.332V67.0622C71.332 67.0622 72.681 64.9082 75.3136 64.9082Z" fill="#D4C7B5"/>
<path d="M71.332 69.9777H79.2953V69.771H71.332V69.9777Z" fill="#918575"/>
<path d="M90.2826 76.5812H90.2715V76.4941H90.2826V76.5812Z" fill="#635C51"/>
<path d="M91.692 76.5812H90.2832V76.4941H91.692V76.5812Z" fill="#918575"/>
<path d="M93.0186 76.5812H91.6914V76.4941H93.0186V76.5812Z" fill="#877D68"/>
<path d="M90.0974 83.9894H90.0918V83.897H90.0974V83.9894Z" fill="#635C51"/>
<path d="M91.8763 83.9894H90.0977V83.897H91.8763V83.9894Z" fill="#918575"/>
<path d="M93.1933 83.9894H91.877V83.897H93.1933V83.9894Z" fill="#877D68"/>
<path d="M89.9294 90.7452H89.9238V90.6582H89.9294V90.7452Z" fill="#635C51"/>
<path d="M92.0446 90.7452H89.9287V90.6582H92.0446V90.7452Z" fill="#918575"/>
<path d="M93.3612 90.7452H92.0449V90.6582H93.3612V90.7452Z" fill="#877D68"/>
<path d="M80.8398 74.2148L86.8612 76.0098V97.0222H80.8398V74.2148Z" fill="#D4C7B5"/>
<path d="M70.9238 97.0222H80.8398V74.2148H70.9238V97.0222Z" fill="#918A7F"/>
<path d="M80.5898 96.7667V74.4707H71.1797V96.7667H80.5898Z" fill="#C5B8A6"/>
<path d="M75.8851 89.2656C77.1579 89.2656 78.7462 90.9137 78.7462 91.8711C78.7462 92.823 78.7462 96.7665 78.7462 96.7665H73.0186C73.0186 96.7665 73.0186 92.823 73.0186 91.8711C73.0186 90.9137 74.6123 89.2656 75.8851 89.2656Z" fill="#AEA694"/>
<path d="M75.8851 79.1865C77.1579 79.1865 78.7462 80.8401 78.7462 81.792C78.7462 82.7439 78.7462 86.6874 78.7462 86.6874H73.0186C73.0186 86.6874 73.0186 82.7439 73.0186 81.792C73.0186 80.8401 74.6123 79.1865 75.8851 79.1865Z" fill="#AEA694"/>
<path d="M75.8851 79.8392C74.7972 79.8392 73.4918 80.9053 73.0186 81.8246V81.792C73.0186 80.8401 74.6123 79.1865 75.8851 79.1865C77.1579 79.1865 78.7462 80.8401 78.7462 81.792V81.8246C78.273 80.9053 76.9675 79.8392 75.8851 79.8392Z" fill="#918A7F"/>
<path d="M75.8851 89.9129C74.7972 89.9129 73.4918 90.9844 73.0186 91.8983V91.8711C73.0186 90.9138 74.6123 89.2656 75.8851 89.2656C77.1579 89.2656 78.7462 90.9138 78.7462 91.8711V91.8983C78.273 90.9844 76.9675 89.9129 75.8851 89.9129Z" fill="#918A7F"/>
<path d="M83.8538 89.2656C84.7241 89.2656 85.8174 90.9137 85.8174 91.8711C85.8174 92.823 85.8174 96.7665 85.8174 96.7665H81.8848C81.8848 96.7665 81.8848 92.823 81.8848 91.8711C81.8848 90.9137 82.9781 89.2656 83.8538 89.2656" fill="#C5B8A6"/>
<path d="M83.8538 89.9129C83.1032 89.9129 82.2111 90.9844 81.8848 91.8983V91.8711C81.8848 90.9138 82.9781 89.2656 83.8538 89.2656C84.7241 89.2656 85.8174 90.9138 85.8174 91.8711V91.8983C85.4965 90.9844 84.599 89.9129 83.8538 89.9129Z" fill="#AEA694"/>
<path d="M83.8538 79.1865C84.7241 79.1865 85.8174 80.8401 85.8174 81.792C85.8174 82.7439 85.8174 86.6874 85.8174 86.6874H81.8848C81.8848 86.6874 81.8848 82.7439 81.8848 81.792C81.8848 80.8401 82.9781 79.1865 83.8538 79.1865" fill="#C5B8A6"/>
<path d="M83.8538 79.8392C83.1032 79.8392 82.2111 80.9053 81.8848 81.8246V81.792C81.8848 80.8401 82.9781 79.1865 83.8538 79.1865C84.7241 79.1865 85.8174 80.8401 85.8174 81.792V81.8246C85.4965 80.9053 84.599 79.8392 83.8538 79.8392Z" fill="#AEA694"/>
<path d="M71.1797 75.384H80.5898V75.0522H71.1797V75.384Z" fill="#918A7F"/>
<path d="M80.084 96.7882H80.6062V75.3843H80.084V96.7882Z" fill="#AEA694"/>
<path d="M47.334 70.1245V65.4194H71.1965V70.1245H47.334Z" fill="#918A7F"/>
<path d="M47.584 69.8686V65.6313H70.9461V69.8686H47.584Z" fill="#D4C7B5"/>
<path d="M47.334 97.0386V70.1245H71.1965V97.0386H47.334Z" fill="#918A7F"/>
<path d="M47.584 96.7826V70.3799H70.9461V96.7826H47.584" fill="#D4C7B5"/>
<path d="M75.8852 84.354C75.4881 84.354 74.9932 84.8707 74.9932 85.1645C74.9932 85.4636 74.9932 86.6875 74.9932 86.6875H76.7719C76.7719 86.6875 76.7719 85.4636 76.7719 85.1645C76.7719 84.8707 76.2769 84.354 75.8852 84.354Z" fill="#918A7F"/>
<path d="M75.8852 94.4331C75.4881 94.4331 74.9932 94.9498 74.9932 95.2436C74.9932 95.5427 74.9932 96.7666 74.9932 96.7666H76.7719C76.7719 96.7666 76.7719 95.5427 76.7719 95.2436C76.7719 94.9498 76.2769 94.4331 75.8852 94.4331Z" fill="#918A7F"/>
<path d="M68.6779 96.7829H49.6836V71.9902H68.6779V96.7829" fill="#C5B8A6"/>
<path d="M67.1493 96.7829H51.2119V73.3882H67.1493V96.7829Z" fill="#D4C7B5"/>
<path d="M59.2676 77.3916C56.5969 77.3916 53.1592 80.2473 53.1592 82.5644C53.1592 84.2615 53.1592 87.7155 53.1592 87.7155H65.3706C65.3706 87.7155 65.3706 84.2615 65.3706 82.5644C65.3706 80.2473 61.9383 77.3916 59.2676 77.3916Z" fill="#AEA694"/>
<path d="M59.2676 77.3916C56.5969 77.3916 53.1592 80.2473 53.1592 82.5644C53.1592 82.782 53.1592 83.0268 53.1592 83.2879C53.1592 80.9707 56.5969 78.1205 59.2676 78.1205C61.9383 78.1205 65.3706 80.9707 65.3706 83.2879C65.3706 83.0268 65.3706 82.782 65.3706 82.5644C65.3706 80.2473 61.9383 77.3916 59.2676 77.3916Z" fill="#918A7F"/>
<path d="M65.3706 96.7826H53.1592V88.2319H65.3706V96.7826Z" fill="#AEA694"/>
<path d="M65.3706 88.7269H53.1592V88.2319H65.3706V88.7269Z" fill="#918A7F"/>
<path d="M59.2674 82.0474C58.3046 82.0474 57.1025 83.2984 57.1025 84.0164C57.1025 84.7399 57.1025 87.7152 57.1025 87.7152H61.4268C61.4268 87.7152 61.4268 84.7399 61.4268 84.0164C61.4268 83.2984 60.2247 82.0474 59.2674 82.0474Z" fill="#918A7F"/>
<path d="M59.2674 91.1147C58.3046 91.1147 57.1025 92.3604 57.1025 93.0838C57.1025 93.8018 57.1025 96.7826 57.1025 96.7826H61.4268C61.4268 96.7826 61.4268 93.8018 61.4268 93.0838C61.4268 92.3604 60.2247 91.1147 59.2674 91.1147Z" fill="#918A7F"/>
<path d="M47.334 64.8158V67.5028C55.1776 65.6208 63.353 65.6208 71.1965 67.5028V64.8158C63.3421 63.0262 55.1885 63.0262 47.334 64.8158Z" fill="#918A7F"/>
<path d="M70.9461 67.1816C67.1222 66.2895 63.195 65.8326 59.2678 65.8326C55.3405 65.8326 51.4133 66.2895 47.584 67.1816V65.0167C51.4133 64.1627 55.346 63.7275 59.2678 63.7275C63.1895 63.7275 67.1168 64.1627 70.9461 65.0167V67.1816" fill="#D4C7B5"/>
<path d="M59.7079 48.3127H58.8213V44.8369H59.7079V48.3127Z" fill="#918A7F"/>
<path d="M59.4956 44.8366H59.0332V41.3608H59.4956V44.8366Z" fill="#918A7F"/>
<path d="M60.0074 44.8369C60.0074 45.2449 59.6756 45.5821 59.2677 45.5821C58.8543 45.5821 58.5225 45.2449 58.5225 44.8369C58.5225 44.429 58.8543 44.0972 59.2677 44.0972C59.6756 44.0972 60.0074 44.429 60.0074 44.8369Z" fill="#918A7F"/>
<path d="M59.2678 40.0771L58.6641 41.3608H59.8716L59.2678 40.0771Z" fill="#918A7F"/>
<path d="M61.9977 49.3625C60.9098 48.6282 59.8382 47.5186 59.2671 47.5186C58.6905 47.5186 57.6244 48.6282 56.5311 49.3625C55.3725 50.1403 53.8604 50.8475 53.8604 50.8475C53.8604 50.8475 56.0307 50.4449 59.2671 50.4449C62.4981 50.4449 64.6684 50.8475 64.6684 50.8475C64.6684 50.8475 63.1562 50.1403 61.9977 49.3625Z" fill="#918A7F"/>
<path d="M63.2324 50.3957C62.2696 50.2924 60.8989 50.189 59.2671 50.189C57.6352 50.189 56.2591 50.2923 55.3018 50.3957C55.7424 50.1564 56.2319 49.8681 56.6725 49.5744C57.075 49.3078 57.4557 48.9978 57.8311 48.6986C58.375 48.2635 58.9897 47.7739 59.2671 47.7739C59.5445 47.7739 60.1591 48.2635 60.6976 48.6986C61.0729 48.9978 61.4591 49.3078 61.8562 49.5744C62.3022 49.8681 62.7918 50.1564 63.2324 50.3957" fill="#D4C7B5"/>
</svg>
