<svg width="152" height="103" viewBox="0 0 152 103" fill="none" xmlns="http://www.w3.org/2000/svg">
<path fill-rule="evenodd" clip-rule="evenodd" d="M69.0078 63.4809C69.144 63.5517 69.2742 63.5951 69.3993 63.5951C69.2635 63.5624 69.1329 63.5244 69.0078 63.4809ZM45.552 103C44.921 103 44.4859 102.608 44.0997 102.255C43.7081 101.896 43.3707 101.591 42.8213 101.591C42.6855 101.591 42.5331 101.607 42.3752 101.651C42.0432 101.733 41.7116 101.771 41.3906 101.771C40.3571 101.771 39.5901 101.33 39.5357 100.699C39.4963 100.324 39.6881 99.6546 41.3145 99.3554C43.8712 98.8985 44.7959 98.5231 46.4278 96.7335C48.1847 94.7915 48.7342 94.4162 51.046 93.176C51.8184 92.7625 51.7858 92.2621 51.6335 91.4842C51.5573 91.0817 51.4756 90.6628 51.7369 90.3473C51.8999 90.1515 52.1395 90.0536 52.455 90.0536C52.6725 90.0536 52.95 90.1026 53.2981 90.195C53.5539 90.2603 53.7714 90.2984 53.9455 90.2984C54.2826 90.2984 54.3534 90.2385 54.4241 89.5313C54.473 89.02 54.5492 88.2422 55.3379 88.0246C57.1548 87.5296 58.4114 87.3011 59.2981 87.3011C60.1521 87.3011 60.56 87.5187 60.8918 87.6982C61.0987 87.8124 61.2673 87.8995 61.55 87.9375L61.6808 87.9537C62.3879 88.0407 63.5737 88.193 64.6182 88.193C66.0379 88.193 66.3859 87.9156 66.4022 87.8068C66.5925 86.4959 68.192 84.9401 69.356 84.9401C69.4867 84.9401 69.6169 84.9618 69.7314 85L69.8838 84.6628C69.9438 84.5213 70.0145 84.3581 70.1014 84.1786L69.7966 84.4071C69.1928 84.8695 68.7141 85.2339 67.3814 85.2339C66.5219 85.2339 66.2608 85.5059 65.9018 85.8812C65.4449 86.3599 64.8791 86.9583 63.22 86.9583C60.7287 86.9583 59.1621 84.864 58.6562 84.0698C58.2265 84.1569 57.3779 84.3418 56.4586 84.6845C56.1973 84.7824 55.9309 84.8314 55.6644 84.8314C54.9844 84.8314 54.3208 84.5104 54.0543 84.0481C53.9129 83.7978 53.9018 83.5258 54.0305 83.3083C54.1284 83.1396 54.3408 82.9384 54.7975 82.9112L54.4549 82.5739C54.1123 82.2367 53.9599 82.1823 53.9001 82.1823C53.8349 82.1823 53.7205 82.2367 53.5899 82.2965C53.2796 82.4379 52.85 82.6337 52.132 82.6337C51.4466 82.6337 50.3695 83.1124 49.6569 83.4279C49.064 83.689 48.792 83.8087 48.569 83.8087C48.357 83.8087 48.172 83.6999 48.085 83.5149C48.0199 83.3788 48.0249 83.2429 48.0691 83.1232C47.8678 83.1343 47.6394 83.1505 47.4 83.1777C47.0408 83.2104 46.6657 83.2484 46.3502 83.2484H46.3463C46.0905 83.2484 45.4922 83.2429 45.2909 82.7969C45.1603 82.514 45.2476 82.1986 45.5468 81.8613C45.9056 81.4479 45.7587 81.0399 45.465 80.4143C45.2637 79.9846 45.057 79.5331 45.2965 79.1143C45.525 78.7226 46.02 78.6301 46.3681 78.5975C47.2874 78.4996 48.136 78.1351 49.0335 77.7489C49.9528 77.3573 50.8994 76.9493 51.9274 76.8568C53.6627 76.6991 56.4314 75.3827 57.2148 72.9457L57.03 72.8315C56.7635 72.6738 56.361 72.4344 56.3446 71.9557C56.3407 71.5695 56.5948 71.1833 57.2095 70.6937C56.8234 70.6665 56.3446 70.5632 56.1814 70.128C56.0563 69.7962 56.1656 69.4317 56.5568 68.9639L56.3772 68.9584C54.7942 68.9584 54.2557 69.0889 53.962 69.8831C53.8747 70.1116 53.6411 70.7317 53.0808 70.7317C52.8088 70.7317 52.5966 70.5849 52.3899 70.4434C52.1669 70.2965 51.9385 70.1388 51.6393 70.1388L51.3834 70.1715C51.2311 70.2094 51.1059 70.226 50.9864 70.226C50.4913 70.226 50.2412 69.905 50.214 69.5895C50.1488 68.8062 51.4706 67.6204 53.1025 67.3484C53.9565 67.207 54.0652 66.9622 54.2719 66.4672C54.4405 66.0701 54.6581 65.5533 55.3001 65.0692C55.0609 65.0419 54.805 65.0202 54.5929 64.9985C52.9664 64.8407 51.9655 64.7047 51.8295 63.9976C51.7099 63.3883 52.3844 62.9423 53.1351 62.556C54.1034 62.0502 54.9682 61.7945 55.6972 61.7945C56.7198 61.7945 57.4813 62.3058 57.7316 63.1653C57.7916 63.3666 57.8132 63.5732 57.8077 63.7745C58.4278 63.5188 59.2057 63.2306 59.9891 63.0293C60.3862 62.9368 60.7233 62.8879 61.0225 62.8879C61.4903 62.8879 61.7896 62.9966 62.0561 63.0946C62.2736 63.1762 62.4477 63.2415 62.7198 63.2415C62.9973 63.2415 63.3453 63.1761 63.7805 63.0402C64.1231 62.9368 64.4549 62.8824 64.7759 62.8824C65.0751 62.8824 65.3579 62.9259 65.6354 63.0129L65.7005 62.7519C65.7822 62.556 65.9669 62.2949 66.3913 62.1752L66.7012 62.1318L67.0004 62.1697C66.8152 62.0228 66.6523 61.9032 66.5163 61.8487L66.0973 61.6801L66.2553 61.2558C66.5873 60.3311 67.1746 59.6402 67.7294 59.1615C67.3595 59.0636 67.0984 58.8732 66.9352 58.5958C66.6632 58.128 66.7501 57.5188 67.2016 56.7354C67.577 56.0773 67.9742 55.4734 68.3332 54.9458C68.5562 54.6085 68.8172 54.2223 68.975 53.9395C68.8716 53.9667 68.7409 54.0102 68.5724 54.0645C68.2843 54.1679 68.0122 54.2223 67.7619 54.2223C66.9406 54.2223 66.4837 53.7273 66.2062 53.2214C66.1628 53.6185 66.1786 53.9993 66.1905 54.2876C66.2023 54.7119 66.2141 54.9458 66.0274 55.1362L65.8912 55.283L65.6681 55.2941C65.271 55.2941 65.1406 55.071 63.9057 52.9931C61.5939 49.0874 62.0018 47.9832 63.5737 46.2207C63.9817 45.7583 64.4332 45.3939 64.8848 45.1001C64.0579 45.0567 63.4866 44.9207 63.1331 44.6759C62.9373 45.1491 62.6435 45.8399 61.9744 45.8399C61.7135 45.8399 61.4523 45.7257 61.1858 45.4972L61.0443 45.4265C60.843 45.4265 60.4733 45.8399 60.2067 46.1391C59.7715 46.6287 59.3255 47.1291 58.738 47.1291C58.3737 47.1291 58.0472 46.9387 57.7697 46.5634C57.1551 45.7474 56.8124 45.6604 56.6927 45.6604C56.3935 45.6604 56.0835 46.1935 55.8279 46.6232C55.5069 47.1672 55.2076 47.6839 54.6637 47.6839C54.2067 47.6839 53.924 47.2814 53.8315 47.1509C53.0808 46.0738 52.4769 45.5679 51.9384 45.5679C51.8133 45.5679 51.6882 45.5951 51.5524 45.6386C51.5959 46.0303 51.732 46.8136 51.8678 47.4773L51.0083 47.8036C50.7474 47.3521 50.2413 46.7211 49.7517 46.1119C48.6312 44.7085 48.0111 43.9361 48.5278 43.4302C48.6419 43.316 48.7998 43.2506 48.9685 43.2506C49.2894 43.2506 49.5342 43.4791 49.7844 43.7239L50.2795 44.0938L50.2143 43.7783C50.0402 43.2235 49.7465 42.2878 50.7311 41.0585C51.2207 40.4492 51.5253 39.9597 51.7972 39.5245C52.2759 38.7575 52.6567 38.1537 53.6359 37.6533C53.5107 37.5009 53.2333 37.267 53.0321 37.0984C52.2433 36.4293 51.0412 35.4176 51.5308 34.0903C51.7865 33.3886 52.3031 32.8664 53.0266 32.5509C52.7818 32.3823 52.5696 32.1647 52.4228 31.8927L52.3577 31.7566C51.4711 33.0458 50.6115 33.9379 49.6922 33.9379C49.2462 33.9379 48.8546 33.7312 48.5173 33.3178L48.5935 33.5571C48.8493 34.2153 48.3594 34.9062 47.7395 35.7874C47.1683 36.5925 46.5211 37.5118 46.3579 38.48C46.1566 39.6931 45.4875 40.237 44.9109 40.237C44.601 40.237 44.3179 40.0847 44.1384 39.8127C43.7848 39.2905 43.8282 38.4202 44.2581 37.3649C44.5845 36.5598 44.9108 35.9016 45.2046 35.325C45.9008 33.927 46.0912 33.432 45.705 32.9533C45.4713 32.665 45.2699 32.3767 45.319 32.0449C45.3735 31.7512 45.5964 31.6043 45.765 31.5009C46.0042 31.3486 46.3362 31.1419 46.5429 30.3314C46.7008 29.733 46.7007 29.0857 46.7007 28.4656C46.7047 27.6116 46.7047 26.6107 47.3209 26.083L47.1958 25.773C47.1086 25.3378 47.4078 24.9788 47.6582 24.7612C47.2883 24.8102 46.9129 24.8645 46.5974 24.8645C46.4016 24.8645 45.8359 24.859 45.64 24.4131C45.4498 23.9779 45.7707 23.5427 46.0752 23.2163L46.1186 23.1619C46.0369 23.1564 45.9284 23.1457 45.7866 23.1457C45.2264 23.1457 44.454 23.2491 43.774 23.3361C43.1865 23.4177 42.6806 23.483 42.3488 23.483H42.3448C42.187 23.483 41.7084 23.483 41.5997 23.0587C41.4745 22.5909 41.9806 22.308 42.3829 22.0796C43.6993 21.3398 44.439 20.6761 44.983 20.192C45.5161 19.7187 45.9242 19.3543 46.4953 19.2727C46.4409 19.0769 46.4246 18.8267 46.5876 18.5764C46.8217 18.2337 47.2894 18.0651 48.1761 18.027C47.2785 17.5592 46.4027 17.0696 46.4081 16.3788C46.4081 16.1286 46.5277 15.775 47.0826 15.4976C47.3763 15.3561 47.4907 15.2256 47.507 15.1603C47.5346 15.0135 47.2405 14.6707 47.0609 14.464C46.74 14.0887 46.4027 13.6971 46.5006 13.2293C46.5606 12.9464 46.7564 12.7233 47.0881 12.5656C46.9958 12.348 46.5495 11.9183 46.3048 11.6789C45.7282 11.1241 45.2278 10.6454 45.4181 10.1178C45.5867 9.63907 46.1851 9.5901 46.3809 9.5738C47.2132 9.49761 47.7898 9.14951 48.3011 8.83944C48.6765 8.61097 49.0083 8.40971 49.3673 8.37707C48.6058 7.57201 48.7036 7.26194 48.758 7.08787C48.8125 6.91924 48.9867 6.62551 49.536 6.62551H49.6066L49.487 6.26105C49.3346 5.86395 49.1443 5.3635 49.427 4.95553C49.7045 4.55842 50.232 4.55843 50.4061 4.55843C50.9881 4.55843 51.0807 4.35716 51.2656 3.96552C51.4235 3.63915 51.6516 3.16588 52.261 3.0299C52.0218 2.71983 51.8205 2.3173 51.9019 1.84404C52.0109 1.24569 52.5274 0.734368 53.4957 0.27743C53.8817 0.0979425 54.2953 0 54.7087 0C55.4594 0 56.1122 0.320921 56.4168 0.843132C56.5581 1.09336 56.6126 1.36535 56.5798 1.65366L56.6342 1.62642C57.1837 1.37075 57.5428 1.213 57.8365 1.213C58.1902 1.213 58.3369 1.43604 58.3858 1.52853L58.4348 1.6646C59.1148 1.37083 60.0068 1.0771 60.8391 1.0771L61.1979 1.09882C61.7636 1.1587 62.5415 1.19671 63.2704 1.19671C64.8316 1.19671 65.6367 1.03897 65.8108 0.924732C66.2023 0.407956 67.4807 0.293723 67.9485 0.293723C68.7427 0.293723 69.2377 0.500451 69.4227 0.908409C69.5261 1.14774 69.5639 1.53397 69.1123 2.03986C68.7697 2.43152 68.8515 2.63823 68.9873 3.01356C69.3193 3.88391 69.2214 4.53665 67.7634 5.26557C66.3491 5.97815 64.9293 6.98449 63.7924 7.795C62.9873 8.3716 62.3508 8.8231 61.8776 9.06245C61.5239 9.24194 61.2086 9.47586 60.904 9.70433L60.6972 9.86207L60.8167 9.88378C61.5401 10.0143 62.1657 10.1285 62.3725 10.6181C62.4921 10.8847 62.4431 11.1839 62.2256 11.5048L62.0405 11.7931C61.491 12.6417 61.2844 12.7396 60.2073 12.7505C60.2618 12.8592 60.2942 12.9898 60.289 13.1313C60.4469 13.0878 60.6099 13.0334 60.7676 12.9844C61.0558 12.8973 61.3769 12.7994 61.7033 12.6961C62.008 12.609 62.3235 12.4948 62.6499 12.3751C63.6943 12.0053 64.8801 11.5809 66.3488 11.5809C67.2028 11.5809 68.0406 11.7224 68.9109 12.0107C69.6072 12.2446 70.1457 12.3588 70.5645 12.3588C70.9455 12.3588 71.1846 12.2718 71.4892 12.163C71.8536 12.0269 72.2671 11.8801 72.9253 11.8801C73.2624 11.8801 73.627 11.918 74.0458 11.9943C74.4756 12.0759 74.8999 12.1139 75.3785 12.1139C75.6343 12.1139 75.8682 12.1029 76.0858 12.0977C76.2871 12.0867 76.4773 12.0815 76.6515 12.0815C78.044 12.0815 78.6805 12.7397 79.0993 14.6055C79.3224 15.6228 78.5935 16.2157 78.006 16.6889C77.3097 17.2601 76.8908 17.6572 77.0213 18.4405C77.2933 20.0615 76.5807 20.8394 75.7593 21.7369C75.3784 22.1558 74.9434 22.629 74.5137 23.2709C74.3069 23.5864 74.1166 23.8801 73.9425 24.163C72.9416 25.7623 72.142 27.0351 69.8248 27.1004C70.3143 27.3343 70.5917 27.677 70.744 27.9816C71.0488 28.6018 71.3641 28.8465 71.5545 28.9988C71.6907 29.1076 71.9138 29.2872 71.8593 29.5972C71.8048 29.9236 71.5494 30.0052 71.1304 30.1466C70.9725 30.201 70.7605 30.2662 70.4885 30.3642C70.0479 30.5274 69.6617 30.6035 69.3135 30.6035C69.0415 30.6035 68.8403 30.5601 68.6771 30.5219L68.443 30.4785C68.3779 30.4785 68.1821 30.4785 67.54 31.1203C67.1646 31.4957 66.7186 31.7514 66.2617 31.92C66.4468 31.9089 66.6315 31.9038 66.8219 31.8872C68.9543 31.7458 69.6777 31.3596 70.1075 31.1257C70.3416 31.0006 70.559 30.8809 70.8582 30.8809C71.3478 30.8809 71.8809 31.2073 73.3496 32.132C74.6877 32.9751 75.2425 33.1057 75.4547 33.1057L75.596 33.084L75.7973 33.0567C76.2161 33.0567 76.325 33.2308 77.1736 34.5853C77.859 35.6732 78.3485 35.9615 78.7837 36.2172C79.5996 36.6959 80.1218 37.1093 80.6495 39.5136C81.0629 41.4121 81.5633 42.2878 82.004 43.0603C82.4718 43.8762 82.9125 44.6486 83.0756 46.3186C83.217 47.6296 83.897 48.266 85.2297 48.3204C88.7219 48.44 90.2015 50.4473 91.2786 51.916C91.7246 52.5198 92.1109 53.0475 92.4862 53.1943C94.1073 53.8145 94.5695 54.0701 94.526 54.5597C94.4866 55.0057 94.0202 55.0982 93.6122 55.1744C93.4381 55.2071 93.0519 55.2831 92.9213 55.3702C92.945 55.4246 93.0031 55.5388 93.1823 55.7401C93.5032 56.0882 96.3482 59.2215 96.098 60.5651C96.0546 60.799 95.9294 60.9839 95.7388 61.0982C95.929 61.1744 96.1303 61.2613 96.348 61.3484C97.61 61.8488 98.4259 62.8389 98.5891 64.0573C98.7687 65.3846 98.1322 66.7663 96.9355 67.6638C96.5329 67.963 96.2011 68.1697 95.9455 68.3111C96.1306 68.4472 96.3535 68.6212 96.6091 68.8551L96.8756 69.0944C97.4087 69.5731 97.9146 70.0301 98.1376 70.0301C98.2789 70.0301 98.5672 69.7581 99.1656 68.4743C99.9272 66.8587 101.211 66.0428 102.979 66.0428C103.74 66.0428 104.605 66.1897 105.612 66.4997C106.939 66.9077 110.627 68.545 111.699 71.2214C112.166 72.3963 112.068 73.593 111.399 74.7789C110.714 75.9974 110.578 76.4978 110.556 76.6773C110.758 76.7698 110.823 76.9166 110.844 77.0309C110.91 77.3573 110.817 77.4389 109.898 78.2004C109 78.9457 108.244 79.3373 107.662 79.5331C107.831 79.729 107.961 79.9574 107.989 80.2294C108.032 80.7135 107.738 81.1542 107.107 81.5295C106.64 81.8124 106.177 81.9538 105.731 81.9538C105.1 81.9538 104.632 81.6709 104.317 81.3935C104.192 81.4859 104.029 81.573 103.833 81.6601C104.366 81.9103 104.942 82.2312 105.013 82.8133C105.062 83.2049 104.855 83.5857 104.409 83.9447C103.354 84.7824 102.391 85.1849 101.456 85.1849C101.102 85.1849 100.759 85.1305 100.417 85.0109C100.393 85.1686 100.357 85.31 100.297 85.4352C101.445 85.7724 102.701 86.1206 103.953 86.1967C104.099 86.2078 104.252 86.2129 104.399 86.2129C105.454 86.2129 106.553 86.0008 107.439 85.8267C108.098 85.7016 108.62 85.5982 109.017 85.5982C109.153 85.5982 109.583 85.5982 109.822 85.9191C109.92 86.0496 110.018 86.2781 109.914 86.6208C109.838 86.9037 109.871 87.2246 109.902 87.5619C109.99 88.4214 110.109 89.6018 108.042 90.1893C106.584 90.6081 106.04 91.1629 105.605 91.609C105.251 91.968 104.887 92.3379 104.202 92.3379C103.875 92.3379 103.495 92.2563 103.005 92.0768L102.717 92.0224C102.374 92.0224 102.031 92.3161 101.602 92.6915C100.873 93.317 99.8719 94.1819 98.0767 94.1819C97.4458 94.1819 96.7495 94.0732 96.0097 93.8664C95.2917 93.6597 94.5301 93.5564 93.7468 93.5564C91.7994 93.5564 90.0478 94.1928 88.8837 94.6171C88.1874 94.8673 87.7305 95.0359 87.377 95.0359C87.0833 95.0359 86.9146 94.9109 86.8221 94.8129C86.7404 94.7205 86.648 94.5627 86.648 94.3179L86.3382 94.3886C86.0228 94.4648 85.6311 94.5573 85.2122 94.5573C84.4942 94.5573 83.9066 94.269 83.4605 93.7033C83.3082 93.502 83.1558 93.317 83.0146 93.1538C83.054 93.5292 82.9601 93.8175 82.846 94.0242C82.5251 94.6008 81.8288 94.9163 80.8878 94.9163C80.5017 94.9163 79.9412 94.8835 79.3538 94.851C78.8805 94.8237 78.3909 94.7965 77.972 94.7856C78.1572 95.0359 78.2223 95.335 78.1516 95.656C77.9831 96.4447 76.993 97.0485 75.8452 97.0485C75.3992 97.0485 74.9368 96.9615 74.4853 96.7874C74.0447 96.6188 73.6585 96.5427 73.3104 96.5427C73.0274 96.5427 72.8099 96.5917 72.5977 96.6406C72.4075 96.684 72.2117 96.733 72.0048 96.733C71.5261 96.733 71.1237 96.5045 70.6559 95.966C69.829 95.0195 68.7085 94.8237 67.9197 94.8237C67.3921 94.8237 66.8481 94.9053 66.2986 95.0739C65.6133 95.2752 64.8952 95.3078 64.2697 95.335C63.0512 95.3841 62.6867 95.4655 62.6377 95.8899C62.4798 97.1628 62.1483 99.8173 60.5762 100.263C60.0431 100.416 59.4774 100.497 58.9715 100.497C57.7802 100.497 57.0131 100.029 56.8717 99.2135C56.7683 99.0394 55.8926 98.9687 55.5608 98.9415C54.8754 98.8871 54.3315 98.8436 54.1465 98.4139L53.8634 98.5281C52.8897 98.9034 51.6822 99.3767 50.9206 99.3767C50.5942 99.3767 50.3767 99.2896 50.2353 99.1754C49.8164 99.7411 49.0495 100.47 47.6079 100.47H47.5534C46.9767 100.47 46.8517 100.573 46.8517 100.573C46.8517 100.617 46.9117 100.834 46.9496 100.96C47.0747 101.416 47.3411 102.358 46.2696 102.836C46.0193 102.945 45.7801 102.999 45.5516 102.999" fill="#979797"/>
<path fill-rule="evenodd" clip-rule="evenodd" d="M53.6949 0.696489C55.0765 0.0491613 56.6486 0.859668 55.9468 2.07814C55.256 3.29662 59.2813 0.217796 57.5461 2.63844C57.5461 2.63844 59.586 1.38731 61.1472 1.56138C62.7029 1.73546 65.8198 1.73547 66.1734 1.21327C66.5216 0.696507 69.9812 0.353791 68.7627 1.73547C67.5551 3.11714 69.9811 3.6339 67.555 4.85239C65.1398 6.05999 62.7736 8.08899 61.664 8.64927C60.5488 9.20411 59.8144 10.292 59.0637 9.85686C60.2768 10.5586 62.5289 10.2104 61.838 11.2494C61.1472 12.283 61.3104 12.2829 59.9178 12.2829C58.5362 12.2829 60.4563 12.8106 59.5858 13.5014C58.7209 14.1923 60.1026 13.6646 61.8378 13.1479C63.573 12.6257 65.6456 11.4181 68.7625 12.457C71.8902 13.5014 71.1886 11.9348 73.9628 12.457C76.7316 12.9847 77.9229 11.4779 78.6409 14.7091C78.9891 16.2757 76.2148 16.4334 76.5575 18.5168C76.9056 20.5893 75.5132 20.932 74.1206 23.0154C72.7444 25.0824 72.233 26.6382 69.6274 26.6382C67.0381 26.6382 65.8795 27.7425 65.8795 27.7425C65.8795 27.7425 69.4642 26.4641 70.3237 28.1939C71.1886 29.9292 72.233 29.2384 70.3237 29.9292C68.4198 30.62 68.7734 29.2384 67.2068 30.7941C65.6565 32.3553 62.3546 31.6536 61.7454 31.1586C61.1362 30.6472 61.6637 32.698 66.8532 32.3553C72.0535 32.0126 69.3936 30.1794 73.098 32.5294C76.8133 34.8738 75.067 32.0996 76.8023 34.8738C78.5321 37.6372 79.3209 35.6354 80.1967 39.6118C81.0562 43.5936 82.3073 43.2618 82.6119 46.3678C82.7971 48.0922 83.8304 48.7341 85.212 48.783C90.0642 48.9571 90.7768 53.0368 92.3162 53.6243C96.8256 55.365 90.9346 53.9724 92.833 56.0558C94.7423 58.1229 96.1349 60.3804 95.4875 60.7013C94.8239 61.0168 93.0071 59.1619 90.9346 58.8137C93.3552 60.3804 93.6271 60.7611 96.1783 61.7784C98.7241 62.7956 98.7241 65.7384 96.6516 67.2942C94.5737 68.8445 94.5737 67.6369 96.2979 69.2035C98.0332 70.7538 98.3813 71.2705 99.5889 68.6758C100.807 66.0866 103.223 66.2552 105.475 66.946C107.743 67.6369 113.232 70.5743 110.99 74.5506C108.738 78.5434 111.67 76.1173 109.598 77.8416C107.52 79.566 106.35 79.2342 106.35 79.2342C106.35 79.2342 108.602 80.0828 106.867 81.1326C105.143 82.1662 104.267 80.6104 104.267 80.6104C104.267 80.6104 104.544 80.9477 103.174 81.4155C101.803 81.8724 105.844 82.1988 104.115 83.5805C102.379 84.9567 101.183 84.8588 100.296 84.4617C99.4257 84.0755 100.835 85.9957 98.5228 85.4082C99.9534 85.7727 101.955 86.5451 103.924 86.6648C106.693 86.8388 109.794 85.3756 109.467 86.4907C109.119 87.7091 110.338 89.0527 107.912 89.7436C104.512 90.7173 105.578 92.5124 103.163 91.642C101.264 90.9512 100.976 94.797 96.1347 93.4154C91.2825 92.0337 86.9906 95.5694 87.1212 94.2802C87.2518 92.9802 85.1303 95.0799 83.8302 93.4154C82.5301 91.7399 81.3335 90.9077 82.1929 92.2893C83.0579 93.671 82.2635 94.4543 80.8873 94.4543C79.4948 94.4543 75.5565 94.0083 77.1176 94.6991C78.6734 95.3954 76.9381 97.2177 74.6481 96.3528C72.358 95.4879 72.2219 97.049 71.0035 95.6619C69.7959 94.2802 67.8866 94.1062 66.1622 94.6229C64.427 95.1451 62.3436 94.4543 62.175 95.8305C62.0009 97.2231 61.6637 99.4697 60.4452 99.8124C59.2267 100.16 57.5133 100.188 57.3283 99.1324C57.1487 98.088 53.7979 98.8387 54.7281 97.903C55.6855 96.9783 50.5776 99.8124 50.4035 98.6048C50.235 97.3863 50.1426 100.019 47.5913 100.008C45.0346 99.9865 47.6347 101.711 46.0791 102.413C44.5179 103.092 44.3439 100.677 42.2605 101.194C40.1934 101.711 38.8335 100.28 41.401 99.8124C43.9685 99.3554 45.0346 98.9529 46.7698 97.049C48.4942 95.1451 49.0164 94.797 51.2685 93.5894C53.5205 92.3709 50.5777 89.9557 53.1778 90.6466C55.778 91.332 54.2548 88.808 55.4624 88.4707C60.8042 87.0183 60.1025 88.2259 61.4951 88.4C62.8713 88.574 66.6899 89.0908 66.8639 87.8723C67.038 86.6647 68.7624 85.109 69.6273 85.4571C70.4976 85.7998 69.981 83.7327 72.407 82.5143C68.9474 83.7327 69.6273 84.7663 67.3807 84.7663C65.1396 84.7663 65.9882 86.4907 63.2194 86.4907C60.4561 86.4907 58.8948 83.5587 58.8948 83.5587C58.8948 83.5587 57.6873 83.7328 56.2947 84.2495C54.9022 84.7663 53.6946 83.3737 54.9022 83.3737C56.1206 83.3737 55.9357 83.4065 54.7933 82.2477C53.6346 81.1 53.6944 82.1661 52.1333 82.1661C50.5775 82.1661 47.8088 84.0755 48.6682 83.0311C49.5331 81.9921 44.6809 83.5587 45.8993 82.1661C47.1069 80.7845 44.4361 79.2559 46.4161 79.0601C48.3962 78.8534 50.0607 77.4989 51.97 77.3249C53.8685 77.1508 56.8657 75.731 57.6871 73.0003C57.9263 72.1953 55.31 72.4781 58.1331 70.6014C59.6943 69.5679 54.4287 71.3412 57.6871 68.5017C55.2555 68.5017 54.0371 68.3277 53.5203 69.7202C53.0035 71.1019 52.6609 69.3721 51.2683 69.7202C49.8867 70.052 51.0942 68.1536 53.1776 67.8109C55.2555 67.4682 54.1024 66.2062 56.0118 65.1672C57.9211 64.1337 49.3699 65.0367 53.3518 62.9696C57.3281 60.8971 57.8993 63.9705 56.9256 64.5906C55.9465 65.2216 58.0189 64.0032 60.1023 63.4864C62.1856 62.9696 61.6635 64.1881 63.921 63.4864C66.173 62.7956 67.076 64.9442 67.076 64.9442C67.076 64.9442 65.3026 62.9696 66.5211 62.6215C67.7287 62.2788 69.0559 65.5861 70.6226 63.1709C68.5881 63.4864 67.5547 61.7566 66.6897 61.4139C67.3806 59.5046 69.279 58.7049 69.279 58.7049C69.279 58.7049 66.2328 59.3631 67.6036 56.9643C68.9744 54.5491 70.8456 52.7648 68.4195 53.6243C65.988 54.4892 66.4667 50.5999 65.8901 52.4602C65.3026 54.3151 66.5592 56.5508 64.3072 52.7539C62.0497 48.9462 62.5284 48.0922 63.9211 46.531C65.3028 44.9752 67.2992 44.5292 67.2992 44.5292C67.2992 44.5292 63.747 44.9753 63.2194 44.1104C62.7026 43.2454 62.7027 46.1937 61.4951 45.1493C60.2766 44.1103 59.292 47.8311 58.1442 46.2862C55.6039 42.9027 55.4298 48.6144 54.2113 46.8846C53.0037 45.1493 52.1334 44.8012 51.0944 45.3288C50.9637 45.3942 51.4098 47.5754 51.4098 47.5754C50.708 46.3569 48.4941 44.1103 48.8531 43.7676C49.1958 43.4195 49.8866 44.9752 50.5775 44.4585C51.2683 43.9363 49.7126 43.0768 51.0943 41.3525C52.4868 39.6118 52.4869 38.7523 53.8686 38.0615C55.2557 37.3706 51.2683 36.1521 51.97 34.2537C52.6609 32.3553 55.2992 32.7089 55.2992 32.7089C55.2992 32.7089 51.5023 32.7199 53.0581 29.7878C51.6111 32.1703 49.6038 35.3906 48.3364 32.0126C47.8087 30.62 47.8087 32.8612 48.1623 33.7369C48.4943 34.5964 46.2421 36.3317 45.8995 38.4042C45.5513 40.4767 43.6148 40.1938 44.6864 37.5447C45.7634 34.8847 46.933 33.737 46.0681 32.6599C45.2087 31.5937 46.487 32.4151 46.9928 30.446C47.5096 28.4768 46.476 26.1323 48.5757 26.1813C53.8685 26.3009 45.5621 26.8612 48.1623 24.9519C50.7624 23.0426 44.5177 25.6047 46.4161 23.5322C48.3363 21.4488 39.8342 24.0489 42.6084 22.4877C45.3772 20.932 45.6818 19.7026 46.7697 19.7244C47.8576 19.7355 45.5024 18.4842 48.6193 18.4842C51.7362 18.4842 45.2086 16.9502 47.2865 15.9166C49.3699 14.8831 45.8994 13.6646 47.2865 12.9847C48.6682 12.283 44.3436 10.2105 46.4161 10.0364C48.4941 9.85687 49.1959 8.12706 50.0608 9.16604C50.9257 10.2105 52.2747 10.1506 52.2747 10.1506C52.2747 10.1506 47.9774 7.09354 49.5332 7.09354C51.0943 7.09354 48.6682 5.02102 50.4034 5.02102C52.1332 5.02102 51.2684 3.29666 52.8296 3.47073C54.3853 3.63392 50.4035 2.25225 53.6945 0.696519" fill="white"/>
<path fill-rule="evenodd" clip-rule="evenodd" d="M46.7701 19.7243C45.878 19.7081 45.5081 20.5402 43.8545 21.7043V22.8575C45.4755 22.6454 47.4446 22.4115 46.4165 23.532C44.5181 25.6045 50.7628 23.0425 48.1627 24.9518C47.2325 25.6372 47.7002 26.0017 48.4401 26.1866L48.5763 26.1811C51.9707 26.2573 49.7676 26.5183 48.4401 26.1866C47.2652 26.2245 47.1835 27.1059 47.1727 28.2265L50.7846 32.9209C51.5733 32.2029 52.3785 30.9082 53.0585 29.7877C51.8182 32.1213 53.9723 32.5891 54.897 32.687C55.1417 32.687 55.2996 32.7087 55.2996 32.7087C55.2996 32.7087 55.1365 32.7087 54.897 32.687C54.1355 32.6708 52.4926 32.812 51.9704 34.2536L51.931 34.4168L58.4585 42.919H66.1502L47.4488 18.5874C46.2249 18.8866 47.6663 19.7352 46.7688 19.7243" fill="#CC2835"/>
<path fill-rule="evenodd" clip-rule="evenodd" d="M81.7303 43.5228C81.2462 42.6633 80.6642 41.7767 80.1964 39.6117C79.3206 35.6353 78.5319 37.6371 76.8021 34.8738C75.0669 32.0996 76.8139 34.8738 73.0977 32.5293C72.8964 32.3988 72.7167 32.2845 72.5483 32.1812V46.4004H64.0407L63.9211 46.5309C62.5285 48.0921 62.0497 48.9461 64.307 52.7539C66.559 56.5507 65.3026 54.315 65.8901 52.4601C66.4666 50.5998 65.9879 54.4891 68.4194 53.6242C70.3451 52.9388 69.5617 53.9343 68.4684 55.5825H72.5481V96.1732C73.005 96.0698 73.598 95.9556 74.6478 96.3527C76.9379 97.2176 78.6731 95.3953 77.1174 94.699C75.5562 94.0082 79.4945 94.4542 80.8871 94.4542C81.2025 94.4542 81.4854 94.4052 81.7302 94.3237V55.5825H92.5062C91.897 54.1954 96.4281 55.2126 92.3159 53.6243C90.7765 53.0368 90.0639 48.957 85.2117 48.783C83.8409 48.734 82.8128 48.0976 82.6171 46.4004H81.7303V43.5228" fill="#CC2835"/>
<path fill-rule="evenodd" clip-rule="evenodd" d="M108.439 78.6575L100.008 67.9578C99.8555 68.1699 99.7142 68.4038 99.589 68.6758C98.3814 71.2705 98.0333 70.7537 96.298 69.2034C94.5736 67.6368 94.5736 68.8444 96.6517 67.2941C97.3371 66.7828 97.7886 66.1137 98.0062 65.4174L94.5956 61.0929C93.9646 60.7883 93.4968 60.5054 92.9528 60.1519H86.8223L103.495 81.2958C104.349 80.9477 104.311 80.692 104.278 80.6267C104.37 80.779 105.241 82.1063 106.867 81.1326C108.603 80.0827 106.351 79.2341 106.351 79.2341C106.351 79.2341 107.09 79.4409 108.439 78.6575" fill="#CC2835"/>
<path fill-rule="evenodd" clip-rule="evenodd" d="M107.438 86.3059L109.37 88.7537C109.652 88.0792 109.25 87.2632 109.467 86.4908C109.647 85.8652 108.755 86.0502 107.438 86.3059" fill="#CC2835"/>
<path fill-rule="evenodd" clip-rule="evenodd" d="M63.9212 63.4865C61.6637 64.1882 62.1859 62.9697 60.1026 63.4865C59.3954 63.6606 58.6883 63.9217 58.1008 64.1556L54.527 68.6922C55.2233 68.4475 56.235 68.5019 57.6874 68.5019C54.429 71.3413 59.6946 69.568 58.1335 70.6016C55.3103 72.4782 57.9266 72.1954 57.6874 73.0004C56.866 75.7312 53.8688 77.1509 51.9704 77.325C50.0611 77.499 48.3965 78.8535 46.4165 79.0602L46.3458 79.0713L45.7311 79.8491C45.9597 80.4638 46.6178 81.3396 45.8997 82.1664C44.6812 83.559 49.5333 81.9923 48.6684 83.0313C48.0429 83.7874 49.332 82.9934 50.681 82.4982L65.6347 63.5193C65.1832 63.3343 64.6175 63.2745 63.9212 63.4865" fill="#CC2835"/>
<path fill-rule="evenodd" clip-rule="evenodd" d="M51.1927 46.4004H50.5781C50.9101 46.8301 51.22 47.2381 51.4104 47.5754C51.4104 47.5754 51.2908 46.977 51.1929 46.4004" fill="#CC2835"/>
<path fill-rule="evenodd" clip-rule="evenodd" d="M58.248 46.4004C58.6124 46.7866 58.9606 46.6887 59.3033 46.4004H58.248Z" fill="#CC2835"/>
<path fill-rule="evenodd" clip-rule="evenodd" d="M55.4192 46.4004H53.8525C53.9666 46.5473 54.0866 46.705 54.2118 46.8845C54.7122 47.5917 55.0387 47.0531 55.4194 46.4004" fill="#CC2835"/>
<path fill-rule="evenodd" clip-rule="evenodd" d="M72.5488 25.3654C73.0765 24.7398 73.5117 23.9293 74.1209 23.0154C75.5135 20.9321 76.9061 20.5894 76.5579 18.5168C76.2153 16.4335 78.9893 16.2757 78.6412 14.7091C77.9232 11.4779 76.732 12.9847 73.9632 12.4571C73.3431 12.3375 72.9024 12.332 72.5488 12.37V25.3654" fill="#CC2835"/>
<path fill-rule="evenodd" clip-rule="evenodd" d="M67.3214 60.2769C67.0712 60.6032 66.8482 60.9786 66.6904 61.4138C66.8211 61.4682 66.9568 61.5552 67.0983 61.6585L68.1918 60.2769H67.3214" fill="#CC2835"/>
<path fill-rule="evenodd" clip-rule="evenodd" d="M50.0607 9.1661C49.1958 8.12712 48.4941 9.85693 46.4162 10.0364L46.291 10.0582L62.8221 31.572C64.095 31.8657 66.0968 31.9092 67.2065 30.7887C67.9626 30.038 68.2726 29.9782 68.6044 30.0326V27.2964C67.3261 27.2311 65.8792 27.7425 65.8792 27.7425C65.8792 27.7425 66.7332 26.9374 68.6044 26.7035V12.4081C65.5746 11.467 63.5455 12.6366 61.8375 13.1479C60.1022 13.6647 58.7206 14.1923 59.5855 13.5014C60.4559 12.8106 58.5357 12.283 59.9175 12.283C61.3101 12.283 61.1469 12.283 61.8377 11.2494C62.5285 10.2105 60.2764 10.5586 59.0634 9.85688C59.8141 10.292 60.5485 9.20413 61.6636 8.64928C62.7733 8.089 65.1395 6.06 67.5547 4.8524C68.1749 4.53692 68.474 4.27036 68.6046 4.02557V3.32385C68.4633 2.92677 68.2347 2.50793 68.6046 1.94763V0.837944C67.8702 0.631219 66.3907 0.886976 66.1731 1.21327C65.8194 1.73547 62.7026 1.73547 61.1468 1.56138C59.5856 1.3873 57.5458 2.63844 57.5458 2.63844C59.281 0.217795 55.2556 3.29664 55.9465 2.07816C56.6482 0.859674 55.0762 0.0491601 53.6945 0.696488C50.4035 2.25222 54.3853 3.63389 52.8296 3.4707C51.2684 3.29662 52.1334 5.021 50.4036 5.021C48.6683 5.021 51.0944 7.09351 49.5332 7.09351C47.9775 7.09351 52.2747 10.1506 52.2747 10.1506C52.2747 10.1506 50.9257 10.2105 50.0608 9.16603" fill="#002E5C"/>
<path fill-rule="evenodd" clip-rule="evenodd" d="M69.0182 85.4624C68.1316 85.7235 67.0002 86.9093 66.8642 87.8722C66.6901 89.0906 62.8715 88.5739 61.4952 88.3998C60.1027 88.2257 60.8044 87.0181 55.4627 88.4705C54.2551 88.8078 55.778 91.3318 53.178 90.6464C50.5778 89.9555 53.5206 92.3708 51.2686 93.5892C49.0166 94.7968 48.4945 95.145 46.7701 97.0489C45.7148 98.2075 44.9043 98.8059 43.8545 99.203V101.455L43.9413 101.515H46.6013C46.4924 100.786 45.856 99.9918 47.5913 100.008C50.1425 100.019 50.2349 97.3862 50.4036 98.6046C50.5776 99.8123 55.6855 96.9782 54.7281 97.9029C53.798 98.8385 57.1488 98.0879 57.3283 99.1323C57.5135 100.188 59.2268 100.16 60.4452 99.8122C61.6637 99.4695 62.0009 97.223 62.175 95.8304C62.3436 94.4542 64.427 95.145 66.1623 94.6228C67.1088 94.3399 68.1097 94.2747 69.0181 94.4923V85.4625" fill="#002E5C"/>
<path fill-rule="evenodd" clip-rule="evenodd" d="M105.475 66.9459L105.404 66.9297L111.159 74.2243C112.933 70.4111 107.678 67.6205 105.475 66.946" fill="#002E5C"/>
<path fill-rule="evenodd" clip-rule="evenodd" d="M104.648 86.6701C104.409 86.6812 104.164 86.6812 103.925 86.6646C101.956 86.545 99.954 85.7725 98.5233 85.4081C100.835 85.9955 99.4264 84.0754 100.297 84.4616C100.949 84.7553 101.765 84.8804 102.842 84.38L86.4092 63.5571V93.8886C86.8715 93.7853 87.1708 93.769 87.1218 94.2803C86.9912 95.5695 91.2832 92.0337 96.1354 93.4154C100.977 94.797 101.265 90.9512 103.163 91.642C105.405 92.4525 104.654 90.9621 107.248 89.9666L104.648 86.6702" fill="#002E5C"/>
<path fill-rule="evenodd" clip-rule="evenodd" d="M52.1993 39.7642C51.9273 40.1993 51.6064 40.7161 51.095 41.3525C50.5946 41.9781 50.4804 42.4949 50.5076 42.9192H54.6199L52.1993 39.7642Z" fill="#002E5C"/>
<path fill-rule="evenodd" clip-rule="evenodd" d="M53.352 62.9696C52.1445 63.5951 52.0901 63.9487 52.547 64.1663L53.5696 62.8662L53.3522 62.9696" fill="#002E5C"/>
<path fill-rule="evenodd" clip-rule="evenodd" d="M46.0687 32.6598C46.9335 33.7368 45.7639 34.8846 44.6869 37.5446C43.6153 40.1937 45.5519 40.4765 45.9 38.404C46.172 36.7721 47.6298 35.3415 48.0704 34.3896L46.1013 31.8384C45.7693 32.056 45.5954 32.0777 46.0698 32.6598" fill="#002E5C"/>
<path fill-rule="evenodd" clip-rule="evenodd" d="M56.2945 84.2495C57.687 83.7327 58.8947 83.5587 58.8947 83.5587C58.8947 83.5587 60.4558 86.4907 63.2191 86.4907C65.9879 86.4907 65.1394 84.7663 67.3805 84.7663C68.2019 84.7663 68.6316 84.6248 69.0178 84.391V63.9868L68.8382 63.9106L54.5538 82.0301L54.793 82.2477C55.9353 83.4063 56.1202 83.3737 54.9019 83.3737C53.6943 83.3737 54.9019 84.7662 56.2945 84.2495" fill="#002E5C"/>
<path fill-rule="evenodd" clip-rule="evenodd" d="M63.2471 32.127L68.6051 39.0951V32.1378C68.1481 32.2303 67.577 32.3065 66.8535 32.3554C65.2325 32.4642 64.0684 32.3337 63.2471 32.127" fill="#002E5C"/>
<path d="M7.86045 90.7339L9.82968 91.305V89.0856L7.86045 90.7339ZM5.83688 90.4619V92.0231L7.22403 90.8644L5.83688 90.4619ZM5.68461 92.5018L5.61944 92.4907L5.53223 92.3546V90.2549L5.59222 90.1353L5.72798 90.1081L7.50676 90.6303L9.88389 88.6394L10.0469 88.6177L10.1393 88.7591V91.5116L10.0741 91.6312L9.94352 91.6584L7.57724 90.9676L5.78219 92.4689L5.68425 92.5017" fill="#D4C7B8"/>
<path d="M12.1847 89.363L14.0451 90.0103V87.3612L12.1847 89.363ZM9.98166 91.6639L9.87818 91.6205L9.87432 91.4084L11.6476 89.499L9.93407 88.9007L9.8418 88.7103L10.0376 88.6124L11.8762 89.2543L14.0901 86.8663L14.2586 86.8335L14.3566 86.9749V90.2278L14.2914 90.3529L14.1501 90.3746L11.9633 89.6076L10.0975 91.6148L9.98346 91.6639" fill="#D4C7B8"/>
<path d="M1.49618 91.6094V92.4634L2.5841 91.8433L1.49618 91.6094ZM1.34379 92.8768L1.26766 92.8551L1.19141 92.7246V91.4191L1.25152 91.2995L1.37656 91.2723L2.98669 91.615L5.60873 90.1245L5.82062 90.1789L5.76063 90.3911L3.43795 91.7129L5.71714 92.2025L5.83677 92.382L5.65197 92.5016L3.03548 91.9413L1.41993 92.8552L1.34379 92.8769" fill="#D4C7B8"/>
<path d="M16.4494 87.6327L18.2118 88.28V85.4187L16.4494 87.6327ZM14.2029 90.3797L14.1049 90.3469L14.0773 90.1293L15.9485 87.774L14.1479 87.1158L14.0557 86.92L14.2514 86.8275L16.1498 87.5238L18.2441 84.8801L18.4126 84.8311L18.5161 84.9779V88.4974L18.4509 88.6225L18.3096 88.6442L16.248 87.888L14.3224 90.325L14.2028 90.3794" fill="#D4C7B8"/>
<path d="M20.66 85.5169L22.4171 86.0445V83.031L20.66 85.5169ZM18.3645 88.6501L18.2721 88.6229L18.2406 88.4107L20.1662 85.6855L18.3221 85.1252L18.2188 84.9348L18.409 84.8315L20.3509 85.419L22.4451 82.4598L22.6192 82.3999L22.7227 82.5468V86.2512L22.6627 86.3762L22.5264 86.398L20.4758 85.7778L18.4903 88.5847L18.3651 88.65" fill="#D4C7B8"/>
<path d="M25.022 82.8679L26.7246 83.1997V80.3221L25.022 82.8679ZM22.5687 86.4037L22.4869 86.3819L22.4436 86.1698L24.5106 83.08L22.5415 82.6993L22.4219 82.5198L22.6015 82.4002L24.6958 82.8027L26.7519 79.7348L26.9205 79.6694L27.0294 79.8218V83.3847L26.975 83.5043L26.8498 83.5371L24.8372 83.1454L22.6993 86.3385L22.5687 86.4038" fill="#D4C7B8"/>
<path d="M29.2985 79.8326L30.7781 79.936V77.4881L29.2985 79.8326ZM26.8779 83.537L26.7962 83.5153L26.7471 83.3032L28.7653 80.1047L26.8669 79.9686L26.7256 79.8109L26.8886 79.664L28.9502 79.8109L30.7997 76.8734L30.9738 76.8081L31.0827 76.955V80.0991L31.0338 80.2078L30.9197 80.2513L29.1137 80.1262L27.0086 83.4662L26.8779 83.5369" fill="#D4C7B8"/>
<path d="M34.8465 74.2844L33.6226 76.1828L34.8465 75.9054V74.2844ZM30.93 80.2516L30.8483 80.2244L30.7993 80.0123L32.9643 76.6506L30.9625 77.1021L30.7773 76.9879L30.897 76.8084L33.198 76.2807L34.868 73.6806L35.042 73.6152L35.1509 73.7621V76.0304L35.0369 76.1773L33.3887 76.5526L31.0604 80.1809L30.9299 80.2516" fill="#D4C7B8"/>
<path d="M10.0577 93.4151H9.90527V91.5112H10.0577V93.4151Z" fill="#D4C7B8"/>
<path d="M14.2793 93.4153H14.127V90.3364H14.2793V93.4153Z" fill="#D4C7B8"/>
<path d="M18.4405 93.4155H18.2881V88.6123H18.4405V93.4155Z" fill="#D4C7B8"/>
<path d="M22.6456 93.4154H22.4932V86.333H22.6456V93.4154Z" fill="#D4C7B8"/>
<path d="M26.9532 93.4154H26.8008V83.5098H26.9532V93.4154Z" fill="#D4C7B8"/>
<path d="M31.0059 93.4153H30.8535V80.3003H31.0059V93.4153Z" fill="#D4C7B8"/>
<path d="M35.0751 93.4154H34.9229V76.0303H35.0751V93.4154Z" fill="#D4C7B8"/>
<path d="M98.3277 93.4156H53.1895V92.3276H98.3277V93.4156Z" fill="#1C384F"/>
<path d="M37.1148 93.4156L0 94.6558V93.5733L37.1148 92.3276V93.4156Z" fill="#1C384F"/>
<path d="M37.1148 94.6721L0 95.9178V94.6558L37.1148 93.4155V94.6721Z" fill="#4A4C4C"/>
<path d="M101.237 69.3178H50.2734V68.2354H101.237V69.3178Z" fill="#1C384F"/>
<path d="M73.7994 67.4084H50.2783V65.8418H73.7994V67.4084Z" fill="#85A1AE"/>
<path d="M73.7999 68.2404H50.2734V67.4082H73.7999V68.2404Z" fill="#B0D1E1"/>
<path d="M73.7999 65.842H50.2734V65.2871H73.7999V65.842Z" fill="#0FA8C7"/>
<path d="M97.9246 96.8805C97.348 96.7391 96.6898 96.5976 95.9663 96.4453L97.9246 94.2695V96.8805ZM95.7977 93.7962H97.9192L95.7977 96.157V93.7962ZM95.4768 96.3474C94.8022 96.2114 94.0787 96.0754 93.3172 95.934L95.4768 94.1063V96.3474ZM93.1159 93.7962H95.3516L93.1159 95.6838V93.7962ZM92.8005 95.8415C92.1532 95.7273 91.4788 95.6076 90.7879 95.4934L92.8005 93.9757V95.8415ZM90.4398 93.7962H92.5068L90.4398 95.3574V93.7962ZM90.1187 95.3846C89.4497 95.2704 88.7698 95.1616 88.0735 95.0528L90.1187 93.9757V95.3846ZM87.758 93.7962H89.7816L87.758 94.8624V93.7962ZM87.4426 94.9603C86.8279 94.8624 86.2132 94.7699 85.5986 94.6829L87.4426 93.8561V94.9603ZM85.0818 93.7962H86.7952L85.0818 94.5686V93.7962ZM84.7608 94.5632C84.1842 94.4816 83.6023 94.4054 83.0257 94.3293L84.7608 93.8832V94.5632ZM78.7011 93.7962H83.8143L82.177 94.2151C80.9857 94.0573 79.8162 93.9213 78.7011 93.7962ZM69.3394 94.2151L67.7021 93.7962H72.8154C71.7003 93.9213 70.5307 94.0573 69.3394 94.2151V94.2151ZM66.7557 94.5632V93.8832L68.4909 94.3293C67.9143 94.4055 67.3323 94.4816 66.7557 94.5632V94.5632ZM66.4347 94.5687L64.7213 93.7963H66.4347V94.5687ZM64.0739 94.9604V93.8561L65.918 94.683C65.3033 94.77 64.6886 94.8625 64.0739 94.9604ZM63.7585 94.8625L61.735 93.7963H63.7585V94.8625ZM61.3977 95.3847V93.9758L63.4375 95.0529C62.7467 95.1616 62.0668 95.2705 61.3977 95.3847V95.3847ZM61.0768 95.3575L59.0097 93.7963H61.0768V95.3575ZM58.716 95.8416V93.9759L60.7286 95.4936C60.0378 95.6078 59.3633 95.7275 58.716 95.8417V95.8416ZM58.4006 95.6838L56.1649 93.7963H58.4006V95.6838ZM56.0398 96.3475V94.1063L58.1993 95.9341C57.4378 96.0755 56.7143 96.2115 56.0398 96.3475V96.3475ZM55.7189 96.1571L53.5973 93.7963H55.7189V96.1571ZM53.5919 96.8806V94.2695L55.5502 96.4454C54.8267 96.5977 54.1686 96.7391 53.5919 96.8806V96.8806ZM75.7585 93.4155H53.1895V97.4517C53.1895 97.4517 56.377 96.5977 61.1095 95.7818L61.1213 95.7928L61.1333 95.7767C61.7207 95.6788 62.3354 95.5754 62.9718 95.4775C68.7106 94.5854 75.7604 93.8619 75.7604 93.8619C75.7604 93.8619 82.8103 94.5854 88.5491 95.4775C89.1855 95.5754 89.8001 95.6788 90.393 95.7767L90.397 95.7928L90.4088 95.7818C95.1413 96.5977 98.329 97.4517 98.329 97.4517V93.4155H75.76" fill="#0FA8C7"/>
<path d="M52.166 67.5771H50.8496V68.0722H52.166V67.5771ZM54.2876 67.5771H52.9767V68.0722H54.2876V67.5771ZM56.4145 67.5771H55.098V68.0722H56.4145V67.5771ZM58.5359 67.5771H57.225V68.0722H58.5359V67.5771ZM60.6628 67.5771H59.3465V68.0722H60.6628V67.5771ZM62.7843 67.5771H61.4733V68.0722H62.7843V67.5771ZM64.9112 67.5771H63.5948V68.0722H64.9112V67.5771ZM67.038 67.5771H65.7217V68.0722H67.038V67.5771ZM69.1595 67.5771H67.8486V68.0722H69.1595V67.5771ZM71.2864 67.5771H69.97V68.0722H71.2864V67.5771ZM73.4079 68.0722H72.0969V67.5771H73.4079V68.0722Z" fill="white"/>
<path d="M74.2187 65.2544H73.7998V68.2408H74.2187V65.2544Z" fill="#0FA8C7"/>
<path d="M77.2922 65.1997H74.2188V68.2405H77.2922V65.1997Z" fill="#E89C28"/>
<path d="M74.4199 68.0337V65.4009H77.0907V68.0337H74.4199Z" fill="#B0D1E1"/>
<path d="M76.5189 64.8682V64.754C76.5189 64.5255 76.3287 64.3406 76.1056 64.3406H75.8769V64.1121H76.0945V63.8728H75.8769V63.5083H75.6323V63.8728H75.4147V64.1121H75.6323V64.3406H75.4037C75.1752 64.3406 74.9903 64.5255 74.9903 64.754V64.8682H74.2178V65.2H77.2913V64.8682H76.5188" fill="#E89C28"/>
<path d="M72.1131 67.1962L71.493 66.625L72.1131 66.0484L72.7331 66.625L72.1131 67.1962ZM70.5627 67.1962L69.9427 66.625L70.5627 66.0484L71.1829 66.625L70.5627 67.1962ZM69.0125 67.1962L68.3923 66.625L69.0125 66.0484L69.6326 66.625L69.0125 67.1962ZM67.4676 67.1962L66.8475 66.625L67.4676 66.0484L68.0878 66.625L67.4676 67.1962ZM65.9174 67.1962L65.2972 66.625L65.9174 66.0484L66.5374 66.625L65.9174 67.1962ZM64.367 67.1962L63.7468 66.625L64.367 66.0484L64.9871 66.625L64.367 67.1962ZM62.8167 67.1962L62.1966 66.625L62.8167 66.0484L63.4368 66.625L62.8167 67.1962ZM61.2665 67.1962L60.6517 66.625L61.2665 66.0484L61.8865 66.625L61.2665 67.1962ZM59.7215 67.1962L59.1015 66.625L59.7215 66.0484L60.3417 66.625L59.7215 67.1962ZM58.1713 67.1962L57.5511 66.625L58.1713 66.0484L58.7914 66.625L58.1713 67.1962ZM56.621 67.1962L56.0008 66.625L56.621 66.0484L57.241 66.625L56.621 67.1962ZM55.0706 67.1962L54.4505 66.625L55.0706 66.0484L55.6908 66.625L55.0706 67.1962ZM53.5204 67.1962L52.9056 66.625L53.5204 66.0484L54.1459 66.625L53.5204 67.1962ZM51.9755 67.1962L51.3554 66.625L51.9755 66.0484L52.5955 66.625L51.9755 67.1962ZM73.7994 65.9233H73.4946L72.8854 66.4836L72.2815 65.9233H71.9445L71.3407 66.4836L70.7314 65.9233H70.3943L69.7906 66.4836L69.1868 65.9233H68.8441L68.2403 66.4836L67.6365 65.9233H67.2939L66.6902 66.4836L66.0863 65.9233H65.7492L65.1454 66.4836L64.5361 65.9233H64.1991L63.5953 66.4836L62.9914 65.9233H62.6488L62.0449 66.4836L61.4411 65.9233H61.0985L60.4947 66.4836L59.8909 65.9233H59.5483L58.9444 66.4836L58.3406 65.9233H58.0036L57.3998 66.4836L56.796 65.9233H56.4533L55.8495 66.4836L55.2458 65.9233H54.9032L54.2993 66.4836L53.6955 65.9233H53.3529L52.7491 66.4836L52.1454 65.9233H51.8026L51.1989 66.4836L50.5951 65.9233H50.2852L51.0467 66.625L50.2852 67.3268H50.5951L51.1989 66.7665L51.8026 67.3268H52.1454L52.7491 66.7665L53.3529 67.3268H53.6955L54.2993 66.7665L54.9032 67.3268H55.2458L55.8495 66.7665L56.4533 67.3268H56.796L57.3998 66.7665L58.0036 67.3268H58.3406L58.9444 66.7665L59.5483 67.3268H59.8909L60.4947 66.7665L61.0985 67.3268H61.4411L62.0449 66.7665L62.6488 67.3268H62.9914L63.5953 66.7665L64.1991 67.3268H64.5361L65.1454 66.7665L65.7492 67.3268H66.0863L66.6902 66.7665L67.2939 67.3268H67.6365L68.2403 66.7665L68.8441 67.3268H69.1868L69.7906 66.7665L70.3943 67.3268H70.7314L71.3407 66.7665L71.9445 67.3268H72.2815L72.8854 66.7665L73.4946 67.3268H73.7994L73.0432 66.625L73.7994 65.9233Z" fill="white"/>
<path d="M63.5954 67.4084H62.0342V65.8418H63.5954V67.4084Z" fill="#B0D1E1"/>
<path d="M77.7051 67.4084H101.231V65.8418H77.7051V67.4084Z" fill="#85A1AE"/>
<path d="M77.7051 68.2404H101.237V67.4082H77.7051V68.2404Z" fill="#B0D1E1"/>
<path d="M77.7051 65.842H101.237V65.2871H77.7051V65.842Z" fill="#0FA8C7"/>
<path d="M99.3443 68.0722H100.661V67.5771H99.3443V68.0722ZM97.2229 68.0722H98.5338V67.5771H97.2229V68.0722ZM95.096 68.0722H96.4123V67.5771H95.096V68.0722ZM92.9745 68.0722H94.2855V67.5771H92.9745V68.0722ZM90.8476 68.0722H92.164V67.5771H90.8476V68.0722ZM88.7262 68.0722H90.0371V67.5771H88.7262V68.0722ZM86.5993 68.0722H87.9156V67.5771H86.5993V68.0722ZM84.4724 68.0722H85.7888V67.5771H84.4724V68.0722ZM82.3508 68.0722H83.6619V67.5771H82.3508V68.0722ZM80.224 68.0722H81.5404V67.5771H80.224V68.0722ZM78.1025 67.5771H79.4134V68.0722H78.1025V67.5771Z" fill="white"/>
<path d="M77.292 65.2544H77.7054V68.2408H77.292V65.2544Z" fill="#0FA8C7"/>
<path d="M78.7766 66.625L79.3968 66.0484L80.0169 66.625L79.3968 67.1962L78.7766 66.625ZM80.3269 66.625L80.947 66.0484L81.5672 66.625L80.947 67.1962L80.3269 66.625ZM81.8718 66.625L82.4919 66.0484L83.112 66.625L82.4919 67.1962L81.8718 66.625ZM83.4221 66.625L84.0422 66.0484L84.6624 66.625L84.0422 67.1962L83.4221 66.625ZM84.9724 66.625L85.5925 66.0484L86.2127 66.625L85.5925 67.1962L84.9724 66.625ZM86.5227 66.625L87.1428 66.0484L87.7629 66.625L87.1428 67.1962L86.5227 66.625ZM88.073 66.625L88.6931 66.0484L89.3132 66.625L88.6931 67.1962L88.073 66.625ZM89.6178 66.625L90.238 66.0484L90.8581 66.625L90.238 67.1962L89.6178 66.625ZM91.1681 66.625L91.7882 66.0484L92.4084 66.625L91.7882 67.1962L91.1681 66.625ZM92.7185 66.625L93.3386 66.0484L93.9587 66.625L93.3386 67.1962L92.7185 66.625ZM94.2687 66.625L94.8889 66.0484L95.509 66.625L94.8889 67.1962L94.2687 66.625ZM95.819 66.625L96.4391 66.0484L97.0593 66.625L96.4391 67.1962L95.819 66.625ZM97.364 66.625L97.984 66.0484L98.6041 66.625L97.984 67.1962L97.364 66.625ZM98.9142 66.625L99.5344 66.0484L100.154 66.625L99.5344 67.1962L98.9142 66.625ZM78.4665 66.625L77.7051 67.3268H78.0149L78.6242 66.7665L79.228 67.3268H79.5651L80.1688 66.7665L80.7727 67.3268H81.1153L81.7191 66.7665L82.3229 67.3268H82.6656L83.2693 66.7665L83.8731 67.3268H84.2157L84.8195 66.7665L85.4234 67.3268H85.7604L86.3642 66.7665L86.9735 67.3268H87.3106L87.9143 66.7665L88.5182 67.3268H88.8608L89.4646 66.7665L90.0685 67.3268H90.4111L91.0149 66.7665L91.6187 67.3268H91.9558L92.565 66.7665L93.1689 67.3268H93.5059L94.1097 66.7665L94.719 67.3268H95.0561L95.6599 66.7665L96.2636 67.3268H96.6063L97.2101 66.7665L97.8139 67.3268H98.1565L98.7603 66.7665L99.3641 67.3268H99.7012L100.31 66.7665L100.914 67.3268H101.224L100.463 66.625L101.224 65.9233H100.914L100.31 66.4836L99.7012 65.9233H99.3641L98.7603 66.4836L98.1565 65.9233H97.8139L97.2101 66.4836L96.6063 65.9233H96.2636L95.6599 66.4836L95.0561 65.9233H94.719L94.1097 66.4836L93.5059 65.9233H93.1689L92.565 66.4836L91.9558 65.9233H91.6187L91.0149 66.4836L90.4111 65.9233H90.0685L89.4646 66.4836L88.8608 65.9233H88.5182L87.9143 66.4836L87.3106 65.9233H86.9735L86.3642 66.4836L85.7604 65.9233H85.4234L84.8195 66.4836L84.2157 65.9233H83.8731L83.2693 66.4836L82.6656 65.9233H82.3229L81.7191 66.4836L81.1153 65.9233H80.7727L80.1688 66.4836L79.5651 65.9233H79.228L78.6242 66.4836L78.0149 65.9233H77.7051L78.4665 66.625Z" fill="white"/>
<path d="M87.916 67.4084H89.4718V65.8418H87.916V67.4084Z" fill="#B0D1E1"/>
<path d="M0.380948 91.7836V92.5886C14.7797 92.5288 29.1622 84.3367 39.8729 70.0794V69.6496C30.6962 78.364 15.6011 88.6666 0.380948 91.7836ZM0.22856 92.8933H0.0761719V91.5333L0.195793 91.5116C15.5411 88.4056 30.7775 77.9397 39.9216 69.1819L40.1825 68.9316V70.1828L40.1509 70.2262C29.3423 84.6304 14.7859 92.8932 0.229403 92.8932" fill="#0FA8C7"/>
<path d="M141.687 89.0855V91.3048L143.656 90.7337L141.687 89.0855ZM144.292 90.8642L145.679 92.0229V90.4617L144.292 90.8642ZM145.734 92.4689L143.939 90.9676L141.573 91.6584L141.442 91.6312L141.382 91.5116V88.7591L141.469 88.6177L141.632 88.6394L144.009 90.6303L145.788 90.1081L145.924 90.1353L145.984 90.2549V92.3546L145.897 92.4907L145.832 92.5018L145.734 92.469" fill="#D4C7B8"/>
<path d="M137.471 87.361V90.0101L139.326 89.3628L137.471 87.361ZM141.42 91.6148L139.554 89.6076L137.368 90.3746L137.226 90.3529L137.161 90.2278V86.9749L137.259 86.8335L137.428 86.8663L139.647 89.2543L141.48 88.6124L141.676 88.7103L141.584 88.9007L139.875 89.499L141.643 91.4084L141.639 91.6205L141.536 91.6639L141.422 91.6149" fill="#D4C7B8"/>
<path d="M148.932 91.8434L150.02 92.4635V91.6095L148.932 91.8434ZM150.096 92.8552L148.48 91.9413L145.864 92.5016L145.679 92.382L145.798 92.2025L148.083 91.7129L145.755 90.3911L145.695 90.1789L145.907 90.1245L148.529 91.615L150.139 91.2723L150.27 91.2995L150.324 91.4191V92.7246L150.248 92.8551L150.172 92.8768L150.096 92.8551" fill="#D4C7B8"/>
<path d="M133.304 85.4189V88.2802L135.067 87.6329L133.304 85.4189ZM137.194 90.3255L135.268 87.8885L133.206 88.6447L133.065 88.6229L133 88.4979V84.9784L133.103 84.8315L133.272 84.8806L135.366 87.5242L137.265 86.828L137.46 86.9204L137.368 87.1162L135.568 87.7745L137.439 90.1298L137.411 90.3474L137.313 90.3802L137.194 90.3257" fill="#D4C7B8"/>
<path d="M129.099 83.0308V86.0444L130.856 85.5167L129.099 83.0308ZM133.026 88.5847L131.041 85.7778L128.99 86.3979L128.854 86.3762L128.794 86.2512V82.5468L128.897 82.3999L129.071 82.4598L131.16 85.4189L133.108 84.8315L133.298 84.9348L133.2 85.1252L131.35 85.6855L133.276 88.4107L133.237 88.6229L133.15 88.6501L133.025 88.5848" fill="#D4C7B8"/>
<path d="M124.791 80.3222V83.1998L126.494 82.868L124.791 80.3222ZM128.816 86.3385L126.679 83.1454L124.666 83.5371L124.541 83.5043L124.486 83.3847V79.8218L124.595 79.6694L124.764 79.7348L126.82 82.8027L128.914 82.4002L129.094 82.5198L128.974 82.6993L127.005 83.08L129.072 86.1698L129.032 86.3819L128.945 86.4036L128.815 86.3383" fill="#D4C7B8"/>
<path d="M120.739 77.488V79.9359L122.219 79.8325L120.739 77.488ZM124.509 83.4662L122.404 80.1262L120.598 80.2513L120.483 80.2078L120.435 80.0991V76.955L120.543 76.8081L120.718 76.8734L122.567 79.8109L124.629 79.664L124.792 79.8109L124.651 79.9686L122.752 80.1047L124.77 83.3032L124.722 83.5153L124.64 83.537L124.509 83.4663" fill="#D4C7B8"/>
<path d="M116.67 75.9054L117.894 76.1828L116.67 74.2843V75.9054ZM120.456 80.1809L118.128 76.5527L116.485 76.1773L116.365 76.0304V73.7621L116.474 73.6152L116.648 73.6806L118.318 76.2807L120.619 76.8084L120.739 76.9879L120.554 77.1021L118.552 76.6506L120.717 80.0123L120.668 80.2244L120.586 80.2516L120.455 80.1809" fill="#D4C7B8"/>
<path d="M141.458 93.4151H141.61V91.5112H141.458V93.4151Z" fill="#D4C7B8"/>
<path d="M137.237 93.4153H137.395V90.3364H137.237V93.4153Z" fill="#D4C7B8"/>
<path d="M133.075 93.4155H133.228V88.6123H133.075V93.4155Z" fill="#D4C7B8"/>
<path d="M128.871 93.4154H129.023V86.333H128.871V93.4154Z" fill="#D4C7B8"/>
<path d="M124.562 93.4154H124.715V83.5098H124.562V93.4154Z" fill="#D4C7B8"/>
<path d="M120.51 93.4153H120.662V80.3003H120.51V93.4153Z" fill="#D4C7B8"/>
<path d="M116.441 93.4154H116.594V76.0303H116.441V93.4154Z" fill="#D4C7B8"/>
<path d="M114.401 93.4156L151.516 94.6558V93.5733L114.401 92.3276V93.4156Z" fill="#1C384F"/>
<path d="M114.401 94.6721L151.516 95.9178V94.6558L114.401 93.4155V94.6721Z" fill="#4A4C4C"/>
<path d="M111.643 69.6496V70.0793C122.354 84.3367 136.736 92.5288 151.135 92.5886V91.7835C135.915 88.6666 120.82 78.3639 111.643 69.6496ZM111.366 70.2262L111.338 70.1827V68.9316L111.594 69.1819C120.738 77.9397 135.974 88.4056 151.319 91.5116L151.439 91.5333V92.8933H151.287C136.725 92.8933 122.179 84.6304 111.365 70.2262" fill="#0FA8C7"/>
<path d="M48.0591 62.5835H42.2441V57.7368H48.0591V62.5835Z" fill="#787866"/>
<path d="M47.6572 70.672H50.2737V59.896H47.6572V70.672Z" fill="#BDB3A6"/>
<path d="M48.2393 70.672H49.6916V59.896H48.2393V70.672Z" fill="#D4C7B8"/>
<path d="M42.6413 70.672H40.0303V59.896H42.6413V70.672Z" fill="#BDB3A6"/>
<path d="M42.9138 59.8964H39.7588V59.4014H42.9138V59.8964Z" fill="#4A4C4C"/>
<path d="M42.8918 59.7005H39.7803V59.5972H42.8918V59.7005Z" fill="#BDB3A6"/>
<path d="M42.0652 70.672H40.6074V59.896H42.0652V70.672Z" fill="#D4C7B8"/>
<path d="M42.0652 59.401H40.6074L41.2711 54.6304H41.4016L42.0653 59.401" fill="#9EA18A"/>
<path d="M47.6623 70.6723H42.6416V62.5835H47.6623V70.6723Z" fill="#D4C7B8"/>
<path d="M47.8958 92.3276H42.4072V71.1782H47.8958V92.3276Z" fill="#A38F7A"/>
<path d="M53.1883 103H37.1143V92.3276H53.1883V103Z" fill="#8C8F7A"/>
<path d="M53.1403 95.1832H37.1641V94.7534H53.1403V95.1832Z" fill="#787866"/>
<path d="M42.4078 92.3275H40.2646V72.4619H42.4078V92.3275Z" fill="#8F7A66"/>
<path d="M42.0652 92.3275H40.6074V72.4619H42.0652V92.3275Z" fill="#A38F7A"/>
<path d="M50.5123 69.7475H39.7963L39.6221 69.519H50.6864L50.5123 69.7475Z" fill="#BDB3A6"/>
<path d="M50.681 69.2905H39.6221V69.519H50.6864L50.6824 69.2905" fill="#D4C7B8"/>
<path d="M50.5129 69.932H39.7969V69.7471H50.5129V69.932Z" fill="#6B6663"/>
<path d="M50.5123 71.1294H39.7963L39.6221 70.9009H50.6864L50.5123 71.1294Z" fill="#BDB3A6"/>
<path d="M50.681 70.6724H39.6221V70.9008H50.6864L50.6824 70.6724" fill="#D4C7B8"/>
<path d="M50.5129 71.3138H39.7969V71.1289H50.5129V71.3138Z" fill="#6B6663"/>
<path d="M50.5123 63.9267H39.7963L39.6221 63.6982H50.6864L50.5123 63.9267Z" fill="#BDB3A6"/>
<path d="M50.681 63.4648H39.6221V63.6988H50.6864L50.6824 63.4648" fill="#D4C7B8"/>
<path d="M45.677 52.0088H44.6325L42.6416 62.5835H47.6623L45.677 52.0088Z" fill="#8C8F7A"/>
<path d="M40.0303 71.314V72.4617L40.2643 73.9141L40.6069 72.4617H42.0648L42.4074 73.9141L42.6415 72.4617V71.314H40.0305" fill="#BDB3A6"/>
<path d="M41.3362 71.314H40.6074V72.4617L40.9828 73.9141L41.3365 72.4617L41.6902 73.9141L42.0655 72.4617V71.314H41.3366" fill="#D4C7B8"/>
<path d="M47.8906 92.3275H50.0338V72.4619H47.8906V92.3275Z" fill="#8F7A66"/>
<path d="M48.2393 92.3275H49.6916V72.4619H48.2393V92.3275Z" fill="#A38F7A"/>
<path d="M50.2737 71.314V72.4617L50.0345 73.9141L49.6919 72.4617H48.2394L47.8913 73.9141L47.6572 72.4617V71.314H50.2737" fill="#BDB3A6"/>
<path d="M48.9619 71.314H49.6908V72.4617L49.3155 73.9141L48.9618 72.4617L48.6136 73.9141L48.2383 72.4617V71.314H48.9618" fill="#D4C7B8"/>
<path d="M41.4014 54.6304H41.4721L42.9136 59.401H42.065L41.4014 54.6304" fill="#8C8F7A"/>
<path d="M41.271 54.6304H41.2003L39.7588 59.401H40.6073L41.271 54.6304" fill="#8C8F7A"/>
<path d="M45.155 56.959C45.0461 56.959 43.8984 58.6344 43.8984 59.2545V62.5836H46.4062V59.2545C46.4062 58.6344 45.2583 56.959 45.155 56.959Z" fill="#BDB3A6"/>
<path d="M45.1543 59.0205C44.7083 59.0205 44.3221 59.1783 44.1045 59.4611V62.3822H46.2042V59.4611C45.9812 59.1783 45.5949 59.0205 45.1543 59.0205Z" fill="#D4C7B8"/>
<path d="M44.7573 60.4947V60.4348L44.6595 60.3369H44.5995L44.5016 60.4348V60.4947L44.5292 60.5219H44.4369V61.2617H44.8284V60.5219H44.7306L44.7573 60.4947ZM45.2795 60.4947V60.4348L45.1817 60.3369H45.1217L45.0238 60.4348V60.4947L45.0514 60.5219H44.959V61.2617H45.3506V60.5219H45.2527L45.2795 60.4947ZM45.7745 60.5219L45.8022 60.4947V60.4348L45.7043 60.3369H45.6443L45.5464 60.4348V60.4947L45.5741 60.5219H45.4817V61.2617H45.8733V60.5219H45.7745ZM45.4808 62.143H45.8725V61.3976H45.4808V62.143ZM44.4365 62.143H44.828V61.3976H44.4365V62.143ZM44.9587 61.3977H45.3502V62.143H44.9587V61.3976" fill="#4A4C4C"/>
<path d="M44.7573 64.9385V64.8787L44.6595 64.7808H44.5995L44.5015 64.8787V64.9385L44.5291 64.9658H44.4368V65.7056H44.8283V64.9658H44.7305L44.7573 64.9385ZM45.2795 64.9385V64.8787L45.1817 64.7808H45.1217L45.0237 64.8787V64.9385L45.0513 64.9658H44.9589V65.7056H45.3506V64.9658H45.2526L45.2795 64.9385ZM43.1689 64.9658V65.7056H43.5605V64.9658H43.4682L43.4958 64.9386V64.8787L43.3978 64.7808H43.3328L43.2404 64.8787V64.9386L43.2641 64.9658L43.1689 64.9658ZM43.5605 65.8416H43.1689V66.5868H43.5605V65.8416ZM47.0365 64.9658L47.0641 64.9385V64.8787L46.9662 64.7808H46.9062L46.8083 64.8787V64.9385L46.8359 64.9658H46.7381V65.7056H47.1296V64.9658L47.0365 64.9658ZM46.7372 66.5868H47.1289V65.8416H46.7372V66.5868ZM45.7744 64.9658L45.8021 64.9385V64.8787L45.7041 64.7808H45.6441L45.5462 64.8787V64.9385L45.5739 64.9658H45.4815V65.7056H45.8731V64.9658L45.7744 64.9658ZM45.4807 66.5868H45.8723V65.8416H45.4807V66.5868ZM44.4364 66.5868H44.8279V65.8416H44.4364V66.5868ZM44.9586 65.8416H45.3501V66.5868H44.9586V65.8416Z" fill="#4A4C4C"/>
<path d="M44.9424 74.4199H45.3667V75.225H44.9424V74.4199Z" fill="#4A4C4C"/>
<path d="M46.6611 75.225H47.0854V74.4199H46.6611V75.225" fill="#4A4C4C"/>
<path d="M46.9819 73.4625L47.0095 73.4353V73.3699L46.9061 73.2666H46.841L46.7321 73.3699V73.4353L46.7636 73.4625H46.6602V74.2676H47.0846V73.4625H46.9811" fill="#4A4C4C"/>
<path d="M45.2583 73.4625L45.2898 73.4353V73.3699L45.1808 73.2666H45.1158L45.0123 73.3699V73.4353L45.04 73.4625H44.9365V74.2676H45.3608V73.4625H45.2574" fill="#4A4C4C"/>
<path d="M43.2129 75.225H43.6426V74.4199H43.2129V75.225" fill="#4A4C4C"/>
<path d="M43.5386 73.4625L43.5662 73.4353V73.3699L43.4627 73.2666H43.3921L43.2887 73.3699V73.4353L43.3164 73.4625H43.2129V74.2676H43.6426V73.4625H43.5392" fill="#4A4C4C"/>
<path d="M44.627 80.9531H45.0567V81.7636H44.627V80.9531Z" fill="#4A4C4C"/>
<path d="M50.1159 76.0302H40.1885L40.0254 75.8018H50.2792L50.1161 76.0302" fill="#6B6663"/>
<path d="M50.2737 75.5732H40.0254V75.8017H50.2791L50.2752 75.5732" fill="#BDB3A6"/>
<path d="M50.1159 76.2152H40.1885V76.0303H50.1159V76.2152Z" fill="#4A4C4C"/>
<path d="M50.1159 77.4121H40.1885L40.0254 77.1836H50.2792L50.1161 77.4121" fill="#6B6663"/>
<path d="M50.2737 76.9551H40.0254V77.1836H50.2791L50.2752 76.9551" fill="#BDB3A6"/>
<path d="M50.1159 77.5971H40.1885V77.4121H50.1159V77.5971Z" fill="#4A4C4C"/>
<path d="M50.1159 82.6611H40.1885L40.0254 82.4326H50.2792L50.1161 82.6611" fill="#6B6663"/>
<path d="M50.2737 82.2041H40.0254V82.4326H50.2791L50.2752 82.2041" fill="#BDB3A6"/>
<path d="M50.1159 82.8461H40.1885V82.6611H50.1159V82.8461Z" fill="#4A4C4C"/>
<path d="M50.1159 84.0483H40.1885L40.0254 83.8145H50.2792L50.1161 84.0483" fill="#6B6663"/>
<path d="M50.2737 83.5859H40.0254V83.8144H50.2791L50.2752 83.5859" fill="#BDB3A6"/>
<path d="M50.1159 84.2279H40.1885V84.0483H50.1159V84.2279Z" fill="#4A4C4C"/>
<path d="M46.6611 81.7636H47.0854V80.9531H46.6611V81.7636Z" fill="#4A4C4C"/>
<path d="M46.9819 80.0011L47.0095 79.9739V79.9086L46.9061 79.7998H46.841L46.7321 79.9086V79.9739L46.7636 80.0011H46.6602V80.8062H47.0846V80.0011H46.9811" fill="#4A4C4C"/>
<path d="M44.9481 80.0011L44.9757 79.9739V79.9086L44.8724 79.7998H44.8072L44.7037 79.9086V79.9739L44.7314 80.0011H44.6279V80.8062H45.0522V80.0011H44.9488" fill="#4A4C4C"/>
<path d="M45.6713 81.7636H45.2471V80.9531H45.6713V81.7636Z" fill="#4A4C4C"/>
<path d="M45.2527 80.0011V80.8062H45.6771V80.0011H45.5736L45.6013 79.9739V79.9086L45.4978 79.7998H45.4327L45.3238 79.9086V79.9739L45.3553 80.0011H45.252" fill="#4A4C4C"/>
<path d="M44.627 86.855H45.0567V87.6655H44.627V86.855Z" fill="#4A4C4C"/>
<path d="M44.9481 85.903L44.9757 85.8757V85.8104L44.8724 85.7017H44.8072L44.7037 85.8104V85.8757L44.7314 85.903H44.6279V86.708H45.0522V85.903H44.9488" fill="#4A4C4C"/>
<path d="M45.6713 87.6655H45.2471V86.855H45.6713V87.6655Z" fill="#4A4C4C"/>
<path d="M45.2527 85.903V86.708H45.6771V85.903H45.5736L45.6013 85.8757V85.8104L45.4978 85.7017H45.4327L45.3238 85.8104V85.8757L45.3553 85.903H45.252" fill="#4A4C4C"/>
<path d="M43.2129 81.7636H43.6426V80.9531H43.2129V81.7636Z" fill="#4A4C4C"/>
<path d="M43.5386 80.0011L43.5662 79.9739V79.9086L43.4627 79.7998H43.3921L43.2887 79.9086V79.9739L43.3164 80.0011H43.2129V80.8062H43.6426V80.0011H43.5392" fill="#4A4C4C"/>
<path d="M43.2129 89.3681H43.6426V88.563H43.2129V89.3681" fill="#4A4C4C"/>
<path d="M44.627 89.3681H45.0512V88.563H44.627V89.3681" fill="#4A4C4C"/>
<path d="M43.5386 86.8878L43.5662 86.8606V86.7952L43.4627 86.6919H43.3921L43.2887 86.7952V86.8606L43.3164 86.8878H43.2129V87.6983H43.6426V86.8878H43.5392" fill="#4A4C4C"/>
<path d="M43.5386 91.5221L43.5662 91.4949V91.4296L43.4627 91.3208H43.3921L43.2887 91.4296V91.4949L43.3164 91.5221H43.2129V92.3272H43.6426V91.5221H43.5392" fill="#4A4C4C"/>
<path d="M43.5386 85.1686L43.5662 85.1414V85.0706L43.4627 84.9673H43.3921L43.2887 85.0706V85.1414L43.3164 85.1686H43.2129V85.9737H43.6426V85.1686H43.5392" fill="#4A4C4C"/>
<path d="M47.0908 88.563H46.6611V89.3681H47.0908V88.563Z" fill="#4A4C4C"/>
<path d="M45.6764 88.563H45.252V89.3681H45.6764V88.563Z" fill="#4A4C4C"/>
<path d="M46.6611 86.8878V87.6983H47.0908V86.8878H46.9875L47.0151 86.8606V86.7952L46.9062 86.6919H46.841L46.7375 86.7952V86.8606L46.7652 86.8878H46.6617" fill="#4A4C4C"/>
<path d="M46.6611 85.1686V85.9737H47.0908V85.1686H46.9875L47.0151 85.1414V85.0706L46.9062 84.9673H46.841L46.7375 85.0706V85.1414L46.7652 85.1686H46.6617" fill="#4A4C4C"/>
<path d="M46.6611 91.5221V92.3272H47.0908V91.5221H46.9875L47.0151 91.4949V91.4296L46.9062 91.3208H46.841L46.7375 91.4296V91.4949L46.7652 91.5221H46.6617" fill="#4A4C4C"/>
<path d="M46.1937 59.2108C46.1502 58.743 45.454 57.6278 45.1548 57.2471C44.85 57.6278 44.1539 58.743 44.1104 59.2108C44.3713 58.9878 44.7414 58.8518 45.1548 58.8518C45.5627 58.8518 45.9326 58.9878 46.1937 59.2108Z" fill="#D4C7B8"/>
<path d="M41.8312 53.5102H41.4721V52.6616H41.2V53.5102H40.8408V53.7822H41.2V54.6308H41.4721V53.7822H41.8312V53.5102Z" fill="#D4C7B8"/>
<path d="M47.3906 59.8964H50.5456V59.4014H47.3906V59.8964Z" fill="#4A4C4C"/>
<path d="M47.4121 59.7005H50.5236V59.5972H47.4121V59.7005Z" fill="#BDB3A6"/>
<path d="M48.2441 59.401H49.6966L49.0329 54.6304H48.9078L48.2441 59.401Z" fill="#9EA18A"/>
<path d="M48.9084 54.6304H48.8322L47.3906 59.401H48.2447L48.9084 54.6304" fill="#8C8F7A"/>
<path d="M49.0333 54.6304H49.1039L50.5454 59.401H49.6968L49.0332 54.6304" fill="#8C8F7A"/>
<path d="M48.4727 53.5102H48.8314V52.6616H49.1034V53.5102H49.4623V53.7822H49.1034V54.6308H48.8314V53.7822H48.4727V53.5102Z" fill="#D4C7B8"/>
<path d="M45.6772 52.0088H44.6328V51.6226H45.6772V52.0088Z" fill="#787866"/>
<path d="M45.753 51.6223H44.5508V51.334H45.753V51.6223Z" fill="#8C8F7A"/>
<path d="M45.4103 51.3341H44.8936V50.1211H45.4103V51.3341Z" fill="#E89C28"/>
<path d="M45.2579 50.121H45.0459V47.6079H45.2579V50.121Z" fill="#E89C28"/>
<path d="M45.367 47.6351L45.1549 47.8472L44.9375 47.6351L45.1549 47.4175L45.367 47.6351Z" fill="#E89C28"/>
<path d="M50.2791 63.4648H40.0254V63.394H50.2791V63.4648Z" fill="#6B6663"/>
<path d="M50.2791 69.2905H40.0254V69.2144H50.2791V69.2905Z" fill="#6B6663"/>
<path d="M46.547 68.4201H43.751V66.9731H46.547V68.4201Z" fill="#BDB3A6"/>
<path d="M46.2484 68.2353H44.0508V67.1582H46.2484V68.2353Z" fill="#D4C7B8"/>
<path d="M45.3612 78.8859H44.9424V78.0972H45.3612V78.8859Z" fill="#4A4C4C"/>
<path d="M46.1823 91.5387C46.1586 90.4236 45.2359 90.1299 45.1488 90.1299C45.062 90.1299 44.1424 90.4236 44.1152 91.5387V92.3275H46.1877V91.5387H46.1837" fill="#4A4C4C"/>
<path d="M103.457 62.5835H109.272V57.7368H103.457V62.5835Z" fill="#787866"/>
<path d="M103.86 70.672H101.243V59.896H103.86V70.672Z" fill="#BDB3A6"/>
<path d="M103.278 70.672H101.825V59.896H103.278V70.672Z" fill="#D4C7B8"/>
<path d="M108.875 70.672H111.486V59.896H108.875V70.672Z" fill="#BDB3A6"/>
<path d="M108.603 59.8964H111.758V59.4014H108.603V59.8964Z" fill="#4A4C4C"/>
<path d="M108.624 59.7005H111.736V59.5972H108.624V59.7005Z" fill="#BDB3A6"/>
<path d="M109.451 70.672H110.909V59.896H109.451V70.672Z" fill="#D4C7B8"/>
<path d="M109.451 59.401H110.909L110.246 54.6304H110.115L109.451 59.401" fill="#9EA18A"/>
<path d="M103.854 70.6723H108.874V62.5835H103.854V70.6723Z" fill="#D4C7B8"/>
<path d="M103.62 92.3276H109.109V71.1782H103.62V92.3276Z" fill="#A38F7A"/>
<path d="M98.3271 103H114.401V92.3276H98.3271V103Z" fill="#8C8F7A"/>
<path d="M98.376 95.1832H114.352V94.7534H98.376V95.1832Z" fill="#787866"/>
<path d="M109.108 92.3275H111.252V72.4619H109.108V92.3275Z" fill="#8F7A66"/>
<path d="M109.451 92.3275H110.909V72.4619H109.451V92.3275Z" fill="#A38F7A"/>
<path d="M101.009 69.7475H111.719L111.893 69.519H100.829L101.009 69.7475" fill="#BDB3A6"/>
<path d="M100.835 69.2905H111.893V69.519H100.829L100.833 69.2905" fill="#D4C7B8"/>
<path d="M101.009 69.932H111.719V69.7471H101.009V69.932Z" fill="#6B6663"/>
<path d="M101.009 71.1294H111.719L111.893 70.9009H100.829L101.009 71.1294" fill="#BDB3A6"/>
<path d="M100.835 70.6724H111.893V70.9008H100.829L100.833 70.6724" fill="#D4C7B8"/>
<path d="M101.009 71.3138H111.719V71.1289H101.009V71.3138Z" fill="#6B6663"/>
<path d="M101.009 63.9267H111.719L111.893 63.6982H100.829L101.009 63.9267" fill="#BDB3A6"/>
<path d="M100.835 63.4648H111.893V63.6988H100.829L100.833 63.4648" fill="#D4C7B8"/>
<path d="M105.839 52.0088H106.883L108.874 62.5835H103.854L105.839 52.0088Z" fill="#8C8F7A"/>
<path d="M111.486 71.314V72.4617L111.252 73.9141L110.909 72.4617H109.451L109.109 73.9141L108.875 72.4617V71.314H111.486" fill="#BDB3A6"/>
<path d="M110.18 71.314H110.909V72.4617L110.534 73.9141L110.18 72.4617L109.827 73.9141L109.451 72.4617V71.314H110.18" fill="#D4C7B8"/>
<path d="M103.625 92.3275H101.477V72.4619H103.625V92.3275Z" fill="#8F7A66"/>
<path d="M103.278 92.3275H101.825V72.4619H103.278V92.3275Z" fill="#A38F7A"/>
<path d="M101.243 71.314V72.4617L101.477 73.9141L101.825 72.4617H103.278L103.626 73.9141L103.86 72.4617V71.314H101.244" fill="#BDB3A6"/>
<path d="M102.554 71.314H101.825V72.4617L102.201 73.9141L102.554 72.4617L102.908 73.9141L103.278 72.4617V71.314H102.554" fill="#D4C7B8"/>
<path d="M110.115 54.6304H110.044L108.603 59.401H109.451L110.115 54.6304" fill="#8C8F7A"/>
<path d="M110.245 54.6304H110.316L111.757 59.401H110.909L110.245 54.6304" fill="#8C8F7A"/>
<path d="M106.361 56.959C106.47 56.959 107.618 58.6344 107.618 59.2545V62.5836H105.11V59.2545C105.11 58.6344 106.258 56.959 106.361 56.959Z" fill="#BDB3A6"/>
<path d="M106.361 59.0205C106.807 59.0205 107.194 59.1783 107.417 59.4611V62.3822H105.312V59.4611C105.535 59.1783 105.921 59.0205 106.361 59.0205Z" fill="#D4C7B8"/>
<path d="M106.786 60.5219H106.688V61.2617H107.085V60.5219H106.987L107.015 60.4947V60.4348L106.917 60.3369H106.857L106.759 60.4348V60.4947L106.786 60.5219ZM106.264 60.5219H106.166V61.2617H106.563V60.5219H106.465L106.493 60.4947V60.4348L106.395 60.3369H106.335L106.237 60.4348V60.4947L106.264 60.5219ZM105.644 60.5219V61.2617H106.041V60.5219H105.943L105.97 60.4947V60.4348L105.873 60.3369H105.813L105.715 60.4348V60.4947L105.742 60.5219H105.644ZM106.041 61.3977H105.644V62.143H106.041V61.3977ZM107.085 61.3977H106.688V62.143H107.085V61.3977ZM106.563 62.143H106.166V61.3977H106.563V62.143Z" fill="#4A4C4C"/>
<path d="M106.786 64.9658H106.688V65.7056H107.085V64.9658H106.987L107.015 64.9385V64.8787L106.917 64.7808H106.857L106.759 64.8787V64.9385L106.786 64.9658ZM106.263 64.9658H106.166V65.7056H106.563V64.9658H106.465L106.492 64.9385V64.8787L106.395 64.7808H106.335L106.237 64.8787V64.9385L106.263 64.9658ZM108.254 64.9658L108.278 64.9385V64.8787L108.18 64.7808H108.12L108.028 64.8787V64.9385L108.051 64.9658H107.959V65.7056H108.351V64.9658H108.254ZM107.955 66.5868H108.347V65.8416H107.955V66.5868ZM104.387 64.9658V65.7056H104.778V64.9658H104.686L104.71 64.9385V64.8787L104.612 64.7808H104.552L104.454 64.8787V64.9385L104.482 64.9658H104.387ZM104.778 65.8416H104.387V66.5868H104.778V65.8416ZM105.643 64.9658V65.7056H106.04V64.9658H105.942L105.97 64.9385V64.8787L105.872 64.7808H105.812L105.714 64.8787V64.9385L105.742 64.9658H105.643ZM106.04 65.8416H105.643V66.5868H106.04V65.8416ZM107.085 65.8416H106.688V66.5868H107.085V65.8416ZM106.563 66.5868H106.165V65.8416H106.563V66.5868Z" fill="#4A4C4C"/>
<path d="M106.579 75.225H106.149V74.4199H106.579V75.225" fill="#4A4C4C"/>
<path d="M104.855 74.4199H104.431V75.225H104.855V74.4199Z" fill="#4A4C4C"/>
<path d="M104.431 73.4625V74.2676H104.855V73.4625H104.751L104.783 73.4353V73.3699L104.674 73.2666H104.609L104.505 73.3699V73.4353L104.533 73.4625H104.43" fill="#4A4C4C"/>
<path d="M106.155 73.4625V74.2676H106.58V73.4625H106.476L106.504 73.4353V73.3699L106.4 73.2666H106.335L106.226 73.3699V73.4353L106.254 73.4625H106.156" fill="#4A4C4C"/>
<path d="M108.304 74.4199H107.874V75.225H108.304V74.4199Z" fill="#4A4C4C"/>
<path d="M107.874 73.4625V74.2676H108.304V73.4625H108.2L108.228 73.4353V73.3699L108.125 73.2666H108.059L107.951 73.3699V73.4353L107.978 73.4625H107.875" fill="#4A4C4C"/>
<path d="M106.889 81.7636H106.459V80.9531H106.889V81.7636Z" fill="#4A4C4C"/>
<path d="M101.401 76.0302H111.328L111.491 75.8018H101.237L101.4 76.0302" fill="#6B6663"/>
<path d="M101.243 75.5732H111.491V75.8017H101.237L101.241 75.5732" fill="#BDB3A6"/>
<path d="M101.4 76.2152H111.328V76.0303H101.4V76.2152Z" fill="#4A4C4C"/>
<path d="M101.401 77.4121H111.328L111.491 77.1836H101.237L101.4 77.4121" fill="#6B6663"/>
<path d="M101.243 76.9551H111.491V77.1836H101.237L101.241 76.9551" fill="#BDB3A6"/>
<path d="M101.4 77.5971H111.328V77.4121H101.4V77.5971Z" fill="#4A4C4C"/>
<path d="M101.401 82.6611H111.328L111.491 82.4326H101.237L101.4 82.6611" fill="#6B6663"/>
<path d="M101.243 82.2041H111.491V82.4326H101.237L101.241 82.2041" fill="#BDB3A6"/>
<path d="M101.4 82.8461H111.328V82.6611H101.4V82.8461Z" fill="#4A4C4C"/>
<path d="M101.401 84.0483H111.328L111.491 83.8145H101.237L101.4 84.0483" fill="#6B6663"/>
<path d="M101.243 83.5859H111.491V83.8144H101.237L101.241 83.5859" fill="#BDB3A6"/>
<path d="M101.4 84.2279H111.328V84.0483H101.4V84.2279Z" fill="#4A4C4C"/>
<path d="M104.855 80.9531H104.431V81.7636H104.855V80.9531Z" fill="#4A4C4C"/>
<path d="M104.431 80.0011V80.8062H104.855V80.0011H104.751L104.783 79.9739V79.9086L104.674 79.7998H104.609L104.505 79.9086V79.9739L104.533 80.0011H104.43" fill="#4A4C4C"/>
<path d="M106.465 80.0011V80.8062H106.889V80.0011H106.786L106.817 79.9739V79.9086L106.708 79.7998H106.643L106.54 79.9086V79.9739L106.567 80.0011H106.464" fill="#4A4C4C"/>
<path d="M105.845 80.9531H106.269V81.7636H105.845V80.9531Z" fill="#4A4C4C"/>
<path d="M106.161 80.0011L106.192 79.9739V79.9086L106.083 79.7998H106.018L105.915 79.9086V79.9739L105.942 80.0011H105.839V80.8062H106.263V80.0011H106.16" fill="#4A4C4C"/>
<path d="M106.889 87.6655H106.459V86.855H106.889V87.6655Z" fill="#4A4C4C"/>
<path d="M106.465 85.903V86.708H106.889V85.903H106.786L106.817 85.8757V85.8104L106.708 85.7017H106.643L106.54 85.8104V85.8757L106.567 85.903H106.464" fill="#4A4C4C"/>
<path d="M105.845 86.855H106.269V87.6655H105.845V86.855Z" fill="#4A4C4C"/>
<path d="M106.161 85.903L106.192 85.8757V85.8104L106.083 85.7017H106.018L105.915 85.8104V85.8757L105.942 85.903H105.839V86.708H106.263V85.903H106.16" fill="#4A4C4C"/>
<path d="M108.304 80.9531H107.874V81.7636H108.304V80.9531Z" fill="#4A4C4C"/>
<path d="M107.874 80.0011V80.8062H108.304V80.0011H108.2L108.228 79.9739V79.9086L108.125 79.7998H108.059L107.951 79.9086V79.9739L107.978 80.0011H107.875" fill="#4A4C4C"/>
<path d="M108.304 88.563H107.874V89.3681H108.304V88.563Z" fill="#4A4C4C"/>
<path d="M106.889 88.563H106.465V89.3681H106.889V88.563Z" fill="#4A4C4C"/>
<path d="M107.874 86.8878V87.6983H108.304V86.8878H108.2L108.228 86.8606V86.7952L108.125 86.6919H108.059L107.951 86.7952V86.8606L107.978 86.8878H107.875" fill="#4A4C4C"/>
<path d="M107.874 91.5221V92.3272H108.304V91.5221H108.2L108.228 91.4949V91.4296L108.125 91.3208H108.059L107.951 91.4296V91.4949L107.978 91.5221H107.875" fill="#4A4C4C"/>
<path d="M107.874 85.1686V85.9737H108.304V85.1686H108.2L108.228 85.1414V85.0706L108.125 84.9673H108.059L107.951 85.0706V85.1414L107.978 85.1686H107.875" fill="#4A4C4C"/>
<path d="M104.425 89.3681H104.855V88.563H104.425V89.3681" fill="#4A4C4C"/>
<path d="M105.839 89.3681H106.263V88.563H105.839V89.3681" fill="#4A4C4C"/>
<path d="M104.751 86.8878L104.779 86.8606V86.7952L104.676 86.6919H104.61L104.502 86.7952V86.8606L104.529 86.8878H104.426V87.6983H104.855V86.8878H104.752" fill="#4A4C4C"/>
<path d="M104.751 85.1686L104.779 85.1414V85.0706L104.676 84.9673H104.61L104.502 85.0706V85.1414L104.529 85.1686H104.426V85.9737H104.855V85.1686H104.752" fill="#4A4C4C"/>
<path d="M104.751 91.5221L104.779 91.4949V91.4296L104.676 91.3208H104.61L104.502 91.4296V91.4949L104.529 91.5221H104.426V92.3272H104.855V91.5221H104.752" fill="#4A4C4C"/>
<path d="M105.322 59.2108C105.366 58.743 106.062 57.6278 106.361 57.2471C106.666 57.6278 107.362 58.743 107.406 59.2108C107.145 58.9878 106.775 58.8518 106.361 58.8518C105.953 58.8518 105.583 58.9878 105.322 59.2108Z" fill="#D4C7B8"/>
<path d="M109.685 53.5102H110.044V52.6616H110.316V53.5102H110.675V53.7822H110.316V54.6308H110.044V53.7822H109.685V53.5102Z" fill="#D4C7B8"/>
<path d="M104.126 59.8964H100.971V59.4014H104.126V59.8964Z" fill="#4A4C4C"/>
<path d="M104.105 59.7005H100.993V59.5972H104.105V59.7005Z" fill="#BDB3A6"/>
<path d="M103.272 59.401H101.819L102.483 54.6304H102.608L103.272 59.401Z" fill="#9EA18A"/>
<path d="M102.608 54.6304H102.685L104.126 59.401H103.272L102.608 54.6304" fill="#8C8F7A"/>
<path d="M102.483 54.6304H102.412L100.971 59.401H101.819L102.483 54.6304" fill="#8C8F7A"/>
<path d="M103.043 53.5102H102.684V52.6616H102.412V53.5102H102.053V53.7822H102.412V54.6308H102.684V53.7822H103.043V53.5102Z" fill="#D4C7B8"/>
<path d="M105.839 52.0088H106.883V51.6226H105.839V52.0088Z" fill="#787866"/>
<path d="M105.764 51.6223H106.966V51.334H105.764V51.6223Z" fill="#8C8F7A"/>
<path d="M106.105 51.3341H106.622V50.1211H106.105V51.3341Z" fill="#E89C28"/>
<path d="M106.258 50.121H106.47V47.6079H106.258V50.121Z" fill="#E89C28"/>
<path d="M106.149 47.6351L106.361 47.8472L106.579 47.6351L106.361 47.4175L106.149 47.6351Z" fill="#E89C28"/>
<path d="M101.237 63.4648H111.491V63.394H101.237V63.4648Z" fill="#6B6663"/>
<path d="M101.237 69.2905H111.491V69.2144H101.237V69.2905Z" fill="#6B6663"/>
<path d="M104.969 68.4201H107.765V66.9731H104.969V68.4201Z" fill="#BDB3A6"/>
<path d="M105.269 68.2353H107.466V67.1582H105.269V68.2353Z" fill="#D4C7B8"/>
<path d="M106.155 78.8859H106.58V78.0972H106.155V78.8859Z" fill="#4A4C4C"/>
<path d="M105.334 91.5387C105.357 90.4236 106.28 90.1299 106.367 90.1299C106.454 90.1299 107.374 90.4236 107.401 91.5387V92.3275H105.328V91.5387H105.332" fill="#4A4C4C"/>
</svg>
