<svg width="116" height="103" viewBox="0 0 116 103" fill="none" xmlns="http://www.w3.org/2000/svg">
<path fill-rule="evenodd" clip-rule="evenodd" d="M77.8238 44.2657C77.7748 44.4942 77.5682 44.8749 76.8882 45.5113C76.1594 46.2076 75.5284 47.1105 75.115 47.7088C74.7723 48.2038 74.6254 48.4051 74.4623 48.5193C74.2556 48.6607 74.1631 48.8456 73.9564 49.2917C73.7116 49.8139 73.3744 50.5319 72.5857 51.5817C72.5204 51.7394 72.4062 52.4465 72.4715 52.7348C73.1134 52.5934 74.2556 52.2072 75.3217 51.1846C76.2464 50.298 76.2029 49.3298 76.1105 49.1611C75.7515 48.6879 75.9255 48.3833 76.1376 47.9971C76.2301 47.8285 76.3606 47.5946 76.5292 47.2302C77.0841 46.0444 77.3016 45.7887 77.6062 45.5113C77.7096 45.4134 77.8075 45.3209 77.9652 45.0925C78.1991 44.7498 78.4602 44.5757 78.7485 44.5757L78.9824 44.6193C79.0803 44.3092 79.3523 44.195 79.6678 44.0699C79.7982 44.0155 79.8255 43.9665 79.9016 43.8088L80.0757 43.5205L79.7602 43.5423H79.4665C79.1184 43.5423 78.8518 43.5803 78.6125 43.7925C78.3405 44.0318 78.074 44.195 77.8238 44.2657V44.2657ZM90.4595 61.6554L90.4975 61.8022C90.4975 61.6717 90.5355 61.5248 90.628 61.3725L90.5789 61.3073L90.4865 61.6119L90.4595 61.6554ZM90.5193 62.0144C90.5305 62.0959 90.5574 62.1775 90.6662 62.3298L90.9219 62.6888L90.9436 62.6508L90.824 62.5257C90.7369 62.4223 90.5846 62.2428 90.5194 62.0144L90.5193 62.0144ZM73.2765 97.2724C72.6238 97.2724 72.1669 96.7339 72.1669 96.2498V96.0811L72.303 95.8527L72.4498 95.6678L72.7327 95.6351C72.526 95.4828 72.3139 95.2652 72.2268 94.9552C71.6774 94.8029 71.3293 94.4656 71.362 93.3669C71.3675 93.1276 71.3294 92.9807 71.2967 92.8393L71.2476 92.5891L71.0137 92.0342C70.4372 90.5003 70.5405 89.9183 70.6928 89.456L70.7254 89.3581C70.4426 88.7869 70.7417 88.1288 71.0898 87.3673C71.2639 86.9865 71.6175 86.2032 71.5359 86.0074C70.9375 85.6267 70.8233 85.0991 70.7526 84.789L70.6982 84.5823C70.2467 84.5225 70.0291 84.1635 69.8986 83.9513L69.8061 83.8045C69.7898 83.8263 69.6592 83.8698 69.3873 84.0601C68.8379 84.4518 68.4626 84.615 68.1308 84.615C67.9241 84.615 67.7772 84.5497 67.6902 84.5116C67.4944 84.6421 67.255 84.7074 67.0429 84.7074C66.6186 84.7074 66.4011 84.4518 66.3467 84.2342C66.3304 84.1689 66.3032 84.0166 66.3847 83.8426C66.0692 83.7392 65.6177 83.6032 65.1228 83.4564L64.6876 83.3313C64.47 83.2606 64.2144 83.1844 64.0131 83.0647C63.8173 83.1572 63.5453 83.2062 63.1918 83.2062C62.9579 83.2062 62.4955 83.179 62.093 82.994C61.919 83.0974 61.6688 83.1898 61.3152 83.3204C61.1411 83.3802 60.9834 83.4129 60.8365 83.4129L60.7441 83.4074L60.7278 83.4292C60.5701 83.6033 60.3416 83.6903 60.0424 83.6903C59.8684 83.6903 59.6617 83.6576 59.4604 83.625C59.3299 83.6032 59.2048 83.5815 59.1069 83.5815C58.9546 83.6413 58.7859 83.6848 58.6227 83.7066C58.6989 83.8807 58.7043 84.071 58.6339 84.2886C58.7971 84.3974 59.0418 84.566 59.069 84.8761L59.0635 85.0556C59.2539 85.197 59.5476 85.42 59.4823 85.7899C59.4116 86.187 58.9927 86.2957 58.8568 86.3338C58.5576 86.41 58.389 86.4426 58.2475 86.4426C57.9647 86.4426 57.7961 86.3121 57.6982 86.1924C57.5894 86.2794 57.448 86.3447 57.2685 86.3447C56.8877 86.3447 56.6212 86.0238 56.5341 85.9204C56.4688 85.8769 56.1588 85.8552 55.9739 85.8388C55.5496 85.8008 55.0383 85.7627 54.7392 85.42C54.489 85.3928 54.304 85.2079 54.1408 85.0066C54.0375 85.0828 53.907 85.1535 53.7438 85.2188C53.5643 85.284 53.3902 85.3167 53.2162 85.3167C52.7212 85.3167 52.3567 85.0501 52.0304 84.8217C51.7421 84.6095 51.4864 84.4246 51.1546 84.4246C50.8446 84.4246 50.4584 84.5878 50.0015 84.9087C49.6207 85.1752 49.2617 85.4744 48.9898 85.6974C48.5818 86.0292 48.4458 86.1434 48.2554 86.1652C48.0814 86.3828 47.755 86.5079 47.3036 86.6276C47.0207 86.7037 46.8031 86.9539 46.6073 87.1715C46.4061 87.3999 46.1939 87.6447 45.8621 87.6447L45.5466 87.5522C45.3835 87.6665 45.2148 87.7589 45.0081 87.7589L44.894 87.7481L44.8722 87.7861C44.8778 88.0581 44.8667 88.4117 44.6329 88.6456C44.5079 88.7707 44.3392 88.8414 44.1651 88.8414L44.1161 88.9447C43.9148 89.4125 43.5178 89.7878 43.0717 89.9401L42.8922 90.2175C42.691 90.5548 42.4625 90.9355 42.0437 90.9355H42.0381C41.9457 91.028 41.826 91.0933 41.6791 91.1368C41.6735 91.3 41.6574 91.5067 41.6084 91.7786C41.4779 92.5075 41.2004 92.8448 41.0318 93.046L41.0262 93.0514C41.2438 93.4703 41.1785 93.7205 41.0697 94.0088C41.0044 94.1883 40.9065 94.4385 40.8847 94.977L40.8576 95.5862C40.8576 95.5862 39.3727 95.1891 39.0245 95.0967C36.9249 94.5527 36.604 94.4711 36.4463 93.0351L36.4084 92.6815C36.3376 92.1322 36.2833 92.0288 36.1854 91.8602C35.9841 91.4958 35.7013 90.9899 35.2226 88.1777C34.782 85.5614 34.2979 85.3438 33.4276 84.9468C33.0686 84.7836 32.851 84.6693 32.6878 84.5823L32.5247 84.4953C32.3289 84.7183 32.1113 84.8108 31.8448 84.8108L31.7033 84.8053C31.5837 84.8053 31.4749 84.8325 31.2736 85.2024C31.0288 85.6593 30.7514 86.1761 30.2075 86.1761C29.8322 86.1761 29.5167 85.9367 28.951 85.507L28.4778 85.1535C27.5857 84.5007 27.6891 83.6957 27.7598 83.1083C27.8305 82.5752 27.8468 82.3304 27.4987 82.0639C26.8949 81.607 26.7426 81.3785 26.6502 81.063C26.6284 80.9869 26.6067 80.9108 26.3564 80.6769C25.9213 80.2689 25.6765 79.9534 25.5351 79.7358H22.7827L22.2442 80.8074H17.0497L10.0002 77.4513L10.0818 77.2718C9.78811 77.2718 9.46718 77.2772 9.12451 77.2881C8.67304 77.299 8.1835 77.3044 7.69396 77.3044C7.15001 77.3044 6.60064 77.2936 6.0839 77.2555L5.21904 77.1902L5.67595 76.5429C5.5399 76.445 5.40397 76.3036 5.38222 76.0806C5.34421 75.7325 5.60524 75.4877 5.70315 75.3952L5.77388 75.3191C5.7413 75.2919 5.50192 75.0417 5.30609 74.8458C5.11028 74.6446 4.88728 74.4107 4.64795 74.1278C4.29439 73.709 4.04417 73.6709 3.80485 73.6329C3.54376 73.6002 3.01612 73.5186 2.96716 72.7843C2.95602 72.6157 2.85297 72.5395 2.20565 72.4144C1.73786 72.322 1.19938 72.2132 0.94918 71.7508C0.78055 71.4462 0.791432 71.0764 0.970895 70.6303L0.965328 70.4182C0.90002 70.2931 0.774938 70.0701 0.845704 69.7546C0.704284 69.6676 0.568301 69.5425 0.519342 69.3303C0.432312 68.9985 0.633523 68.7048 0.79675 68.5144C0.867488 68.4274 0.698853 68.0738 0.584614 67.8399C0.345275 67.3395 -0.10075 66.4148 0.845704 65.8654C0.845704 65.7893 0.633563 65.4738 0.508463 65.278C0.214734 64.8374 -0.117063 64.337 0.0406774 63.8202C0.0951233 63.6407 0.198407 63.4884 0.356161 63.3633L0.296285 63.2437C0.0841411 62.8303 -0.144305 61.9545 0.133104 61.3508C0.171119 61.2637 0.165702 61.0734 0.15484 60.8558C0.127687 60.2738 0.0841025 59.3871 0.67702 57.9729C0.747758 57.8097 0.715035 57.7445 0.58999 57.516C0.18748 56.7817 0.192913 56.1562 1.40046 55.1009L1.53094 54.9758L1.48192 54.693C1.5145 54.3612 1.76477 54.1871 2.50452 53.8118L2.49337 53.4528C2.46078 52.4248 2.40634 50.5101 4.1143 49.5854C4.4189 49.2917 7.68252 44.8749 8.65617 43.1017L8.8085 42.8243L8.93896 42.8351C8.88994 42.5904 8.95525 42.3238 9.13477 42.0301L9.25981 41.8234C9.7711 40.9857 10.2172 40.2569 10.2498 39.5987C10.3259 37.9941 10.8155 37.1129 11.6151 37.1129C11.849 37.1129 12.0829 37.1945 12.3222 37.3522C12.6975 37.6025 13.2632 37.6079 13.7092 37.6133C14.2096 37.6188 14.6339 37.6242 14.8787 37.956L14.9058 37.9887C15.0853 37.7548 15.2811 37.6025 15.4607 37.51C15.341 37.3305 15.2431 37.1075 15.3192 36.8627C15.3737 36.6941 15.4824 36.5907 15.5966 36.5255L14.9113 35.6715H64.5618C64.6979 35.6715 64.7849 35.5736 65.0024 35.2418C65.2744 34.8393 65.6769 34.2246 66.569 34.2246C66.9171 34.2246 67.0857 34.4095 67.151 34.5238C67.3523 34.8501 67.1836 35.1874 67.0149 35.5192L66.8463 35.8945C66.9007 35.9054 66.9877 35.9163 67.1183 35.9163C67.5806 35.9163 67.8961 36.0958 68.2551 36.297C68.4672 36.4167 68.7229 36.5635 69.0873 36.7213C69.256 36.792 69.3974 36.8301 69.517 36.8301L69.7074 36.8083L69.9848 36.7811C70.3112 36.7811 70.5886 36.9171 70.9258 37.2326C70.9639 37.2652 71.0129 37.3033 71.1706 37.3033C71.3229 37.3033 71.4915 37.2761 71.6656 37.2435C71.9321 37.2054 72.2095 37.1619 72.5087 37.1619C73.2702 37.1619 73.9229 37.4502 74.5049 38.0376L75.4514 38.9949L74.1079 38.8699C73.8196 38.8427 73.5966 38.8318 73.4116 38.8318C72.9547 38.8318 72.9112 38.8753 72.5685 39.2289C72.4435 39.3594 72.2911 39.5117 72.1008 39.6858C71.497 40.2351 70.8279 40.5941 70.1698 40.9314C70.5614 40.8661 70.7899 40.8335 70.9585 40.8335C71.0509 40.8335 71.3229 40.8335 71.5079 41.0565C71.6275 41.2034 71.6493 41.3611 71.6383 41.4916L71.8124 41.3992C72.1877 41.1707 72.3998 41.1272 72.699 41.0891C72.922 41.0565 73.1994 41.0184 73.8032 40.8063C74.3254 40.6213 74.4668 40.4581 74.6463 40.2515C74.9237 39.9251 75.1957 39.664 75.9463 39.441C76.3488 39.3268 76.648 39.2724 76.8547 39.2724C77.2789 39.2724 77.4585 39.5335 77.4911 39.751C77.5128 39.9686 77.4204 40.1318 77.2789 40.2623C77.502 40.382 77.7631 40.5778 77.7739 40.9205C77.8392 40.9531 77.9426 41.0075 78.1112 41.0728C78.4756 40.9259 78.8074 40.8607 79.1392 40.8607C79.3622 40.8607 79.5689 40.8879 79.7974 40.9259C80.015 40.964 80.2434 41.0021 80.5317 41.0021L80.7873 40.9912L81.1137 40.9749C81.4183 40.9749 81.7936 41.013 82.0058 41.2958C82.1199 41.4481 82.1472 41.6113 82.1362 41.7473C82.43 41.731 82.5224 41.682 82.5877 41.6439C82.6584 41.6004 82.7781 41.5351 82.9413 41.5351C83.2567 41.5351 83.3982 41.7201 83.7517 42.1661L83.8333 42.2749C84.1379 42.6665 84.0999 42.9603 84.0074 43.1452C83.7953 43.5749 83.2296 43.5749 82.9848 43.5749L82.6367 43.5641C82.925 43.8034 83.1589 44.0754 83.2676 44.331C83.3167 44.4507 83.4363 44.7281 83.2621 44.9892L83.2565 45L83.311 45.136C83.485 45.544 83.1097 46.4415 82.7453 46.8821L82.903 46.8603H83.1206L83.3436 47.0616C83.5448 47.2791 83.6101 47.6436 83.5557 48.2038L83.5231 48.59C83.3981 50.0151 83.3273 50.7984 82.6746 50.7984H82.642L82.5224 51.0486C82.3755 51.3695 82.1906 51.7612 81.9295 52.093C81.7282 52.3541 81.5542 52.5553 81.4182 52.7131L81.4019 52.7294L81.5161 52.7729C81.7282 52.8599 81.9186 52.9415 82.0872 53.0122C82.3809 53.1428 82.6094 53.2407 82.7508 53.2407L82.9575 53.1645C83.2676 52.9524 83.5123 52.9306 83.7299 52.9143C84.0291 52.8926 84.437 52.8599 85.5575 52.1419C86.6237 51.4511 87.086 51.326 87.494 51.2118C87.8203 51.1193 88.1032 51.0432 88.7722 50.6189C88.9191 50.5264 89.1747 50.3633 89.327 50.249C89.2726 50.113 89.2183 49.9607 89.1856 49.754L89.1094 49.2591L89.6044 49.1938C90.2299 49.1068 90.6705 49.0687 90.9969 49.0687C91.3124 49.0687 91.4864 49.1068 91.6224 49.1394C91.7311 49.1612 91.8074 49.1775 91.976 49.1775C92.1609 49.1775 92.422 49.1611 92.8245 49.1068C93.1019 49.0687 93.2379 48.9871 93.4392 48.862C93.7438 48.6716 94.1028 48.4432 94.9078 48.367C94.8533 48.2147 94.8371 48.0515 94.9134 47.872L94.9841 47.7524L94.973 47.562C95.011 47.1812 95.3755 46.9528 95.729 46.7841C95.9684 46.6699 96.1859 46.3381 96.4144 45.99C96.8659 45.3101 97.4805 44.3691 98.8186 44.3691H105.014C105.373 44.0209 105.58 43.9339 105.792 43.8686C105.852 43.8523 105.895 43.8414 106.096 43.5858C106.45 43.1343 106.88 42.9983 107.168 42.9059L107.413 42.8134L107.429 42.6665C107.429 42.2096 107.619 41.9921 107.804 41.7799C107.913 41.6603 108.049 41.5025 108.223 41.2251C108.506 40.7573 108.756 40.5941 108.979 40.4418C109.17 40.3167 109.349 40.1971 109.643 39.7946C110.062 39.218 110.361 38.9079 110.753 38.9079C111.03 38.9079 111.209 39.082 111.302 39.1745L111.378 39.2017C111.438 39.2017 111.536 39.169 111.688 39.0766C112.597 38.5217 112.961 38.4075 113.233 38.4075C113.516 38.4075 113.869 38.5326 113.951 39.1473L113.956 39.1799C114.131 39.2397 114.332 39.3322 114.424 39.5552C114.522 39.8109 114.408 40.0176 114.348 40.1209L114.266 40.2841C113.924 41.323 113.51 42.6067 113.369 43.1778C113.592 43.2812 113.875 43.4879 114.076 43.972L114.163 43.9666C114.544 43.9666 114.821 44.282 115.023 44.5649C115.175 44.7444 115.213 44.9837 115.126 45.2122C114.887 45.8268 113.222 46.6373 112.537 46.8657C112.39 46.9963 112.205 47.067 112.009 47.067C111.764 47.067 111.552 46.9637 111.384 46.8766L111.297 46.8277L111.264 46.9365C111.177 47.2465 111.036 47.7687 110.562 47.7687C110.399 47.7687 110.279 47.7143 110.187 47.6273C109.964 47.9971 109.725 48.193 109.393 48.193C109.208 48.193 109.061 48.1168 108.963 48.0679C108.517 48.3888 108.115 48.4649 107.788 48.5248C107.364 48.6009 107.087 48.6499 106.766 49.1721C106.336 49.8846 106.173 50.026 105.955 50.1783C105.879 50.2327 105.808 50.2817 105.602 50.5645L105.536 50.6461C105.047 51.3097 105.041 51.3152 105.243 51.8754L105.308 51.8591L105.525 51.8319H105.814L106.004 52.1093C106.178 52.4357 105.982 52.7403 105.656 53.2407L105.177 53.9859L104.884 53.3604L104.715 53.4692C104.459 53.6269 104.176 53.8118 103.861 53.8118L103.573 53.7575C103.263 54.0403 102.784 54.2905 102.294 54.2905C102.115 54.2905 101.941 54.2524 101.783 54.1872L101.729 54.16C101.5 54.334 101.13 54.4374 100.423 54.4374C99.6183 54.4374 99.3844 54.7093 99.1178 55.0194C98.9166 55.2478 98.6664 55.5361 98.2203 55.6123L98.1442 55.7918L98.1767 55.8951C98.2583 56.2596 98.0027 56.5642 97.709 56.8416C97.5023 57.0374 97.3391 57.1679 97.2031 57.2767C97.0018 57.4345 96.8931 57.5215 96.7244 57.7717L96.5232 58.0165L96.6156 58.0981L96.1642 58.4679C95.9031 58.6855 95.6746 58.7834 95.4516 58.7834L95.3156 58.7726C95.0817 59.1751 94.8858 59.2947 94.6193 59.3709C94.554 59.3872 94.4561 59.4144 94.1787 59.8115L93.972 60.1759L93.8089 60.4642L93.8251 60.5784C93.9339 61.4705 93.0038 62.6672 92.7155 63.0098L92.5687 63.1893L92.313 63.2056C92.09 63.6462 91.8289 64.0379 91.4699 64.2283C91.2306 64.3588 91.0565 64.4132 90.8988 64.4132H90.7519V64.5165C90.7519 64.8211 90.7519 65.1693 90.8172 65.3814C90.9967 65.958 91.2034 67.0894 90.7955 67.6387L90.616 67.8182C90.703 68.1881 90.5507 68.6341 90.2135 68.9333L90.0774 69.1074C90.0121 69.227 89.849 69.5044 89.4465 69.5044L89.2615 69.4881L89.3485 69.7547L88.9787 70.0321L88.8699 70.2388C88.7231 70.576 88.4837 71.1363 87.4666 71.2178C87.0368 71.2505 86.7975 71.5442 86.5636 71.8271C86.3624 72.0664 86.1394 72.3438 85.7804 72.3438H85.6553C85.5357 72.4471 85.3562 72.6484 85.2256 72.7953C84.7578 73.3174 84.2737 73.8559 83.7189 73.8559L83.4633 73.8124L83.3545 73.7961C82.9139 73.7961 82.3101 74.3999 82.2177 74.5903C81.8097 75.4334 81.5976 75.6781 81.1788 75.7652L81.0156 75.8848C80.3574 76.5702 79.9059 76.8639 79.5034 76.8639L79.2587 76.8258C79.0574 76.9945 78.8453 77.0489 78.693 77.0652C78.6658 77.2392 78.5788 77.3807 78.4373 77.5112C78.4645 77.6744 78.459 77.8484 78.3448 78.0116C78.1925 78.2346 77.9532 78.251 77.8499 78.2618C77.7465 78.2673 77.616 78.2782 77.3766 78.6154C75.7938 80.8673 75.7829 81.4928 75.7775 81.8246C75.7719 82.0259 75.7663 82.2706 75.5599 82.5807C75.2498 83.0485 75.6089 85.2732 75.7666 86.2196L75.7883 86.3665C75.9569 86.5188 75.9732 86.8125 75.9841 87.0627C76.0004 87.4217 76.0657 87.9113 76.1202 88.3736C76.2562 89.4234 76.316 89.9347 76.0876 90.1686L76.2126 90.495C76.3322 90.8213 76.4356 91.0933 76.4574 91.3598C76.7457 91.8059 76.8653 92.7469 75.8155 95.1402C75.7285 95.3469 75.6795 95.4829 75.6524 95.5699L75.7177 95.8256C75.7502 96.0812 75.5981 96.2661 75.4457 96.4456C75.3043 96.6143 75.0758 96.8373 74.7658 96.8373L74.7016 96.8317C74.5874 96.9786 74.4296 97.0982 74.1957 97.0982H74.1358L74.0108 97.0765L73.8966 97.1145C73.6899 97.2179 73.4778 97.2723 73.2765 97.2723" fill="#979797"/>
<path fill-rule="evenodd" clip-rule="evenodd" d="M40.3959 94.9553C40.4504 93.677 40.8746 93.7586 40.5754 93.2528C40.2817 92.7469 40.9126 92.872 41.1248 91.6917C41.3369 90.5059 40.8746 90.7615 41.4675 90.6745C42.0604 90.5929 41.3804 90.0871 41.9733 90.4243C42.2725 90.5929 42.5662 89.5758 42.8654 89.4942C43.48 89.3147 43.9206 88.5205 43.7085 88.0963C44.6821 88.9448 44.2579 87.3783 44.4319 87.5088C44.6005 87.6339 44.3666 86.8452 44.8508 87.2096C45.1934 87.4653 45.4436 86.7473 45.7374 87.0845C46.0365 87.4218 46.3357 86.3774 47.1788 86.1544C48.6202 85.7736 47.3909 85.605 47.7717 85.2678C48.1524 84.9251 47.3311 84.8762 48.6746 84.1364C48.0273 84.9251 48.6583 84.887 48.2776 85.4799C47.9022 86.0674 48.729 85.2025 49.719 84.5063C52.0035 82.8962 52.2755 85.246 53.5701 84.7565C54.25 84.5063 53.9943 84.0385 54.5002 84.6749C55.0115 85.3113 54.7994 84.5063 55.0496 85.0121C55.3052 85.518 56.5726 85.1862 56.9153 85.605C57.5082 86.323 57.5082 85.2243 57.8454 85.5615C58.1827 85.8988 57.9324 86.0674 58.732 85.8552C59.5371 85.6485 58.2262 85.3494 58.5253 85.0557C58.8191 84.7565 57.9161 84.6368 58.101 84.2941C58.6504 83.2389 56.5345 84.169 56.9588 83.0268C57.3178 82.0531 57.6224 83.6577 58.9441 83.1138C59.2923 82.9669 60.4889 83.5326 60.4237 82.8581C60.3421 81.928 60.5433 82.113 60.5433 82.113C60.5433 82.113 60.2169 83.1954 61.147 82.8581C62.0772 82.5209 61.9086 82.5807 61.9521 82.2761C62.4144 82.9397 64.2801 82.733 63.8123 82.4339C63.3445 82.1402 65.2103 82.0966 65.678 82.2653C66.1404 82.4339 62.8387 82.2653 64.8295 82.8581C66.8203 83.451 67.4948 83.6142 67.027 83.8699C66.5647 84.1255 66.9454 84.3812 67.4948 84.082C68.0442 83.7883 67.7885 84.5879 69.1048 83.6577C70.4157 82.733 70.1166 84.0004 70.7965 84.1255C71.471 84.2506 70.9651 85.0557 71.8137 85.605C72.6568 86.1544 70.7965 88.3954 71.1337 89.0699C71.471 89.7444 70.5844 89.4942 71.471 91.8603C71.7701 91.5611 72.1509 91.6047 71.8517 92.0724C71.558 92.5348 71.8735 92.6436 71.8517 93.3833C71.8137 94.9009 72.5317 94.2264 72.7003 94.8193C72.8689 95.4068 73.8861 95.5373 73.3802 95.7059C72.8689 95.8746 73.4618 96.4675 72.9124 96.1683C72.363 95.8746 72.7438 97.1419 73.6739 96.6796C74.2396 96.3967 74.1363 96.8754 74.4354 96.3423C74.6476 95.9616 74.6041 96.6796 75.0718 96.1248C75.5342 95.5808 74.7727 96.2988 75.3656 94.9444C75.9585 93.59 76.4643 92.0289 75.9585 91.5231C76.0455 91.0118 75.3275 90.1251 75.284 88.6021C75.2405 87.0845 75.5342 89.8749 75.7082 89.8314C75.8769 89.7879 75.5342 88.0147 75.4961 87.0845C75.4527 86.1544 75.4961 87.6339 75.284 86.323C75.0718 85.0121 74.7346 82.9397 75.1535 82.3088C75.5778 81.6724 74.6041 81.7159 76.9757 78.3326C77.6828 77.3263 78.1179 78.1477 77.9058 77.4025C77.8188 77.1087 78.5477 77.2828 78.0363 76.4397C77.525 75.5857 78.5585 77.3426 79.1731 76.1405C79.3036 75.8849 79.1351 77.1522 80.6581 75.5422C81.1966 74.9765 81.1204 75.738 81.7731 74.3782C81.9418 74.03 82.8773 73.0999 83.6225 73.3447C84.2535 73.5568 85.3142 71.615 85.6949 71.8271C86.0757 72.0392 86.3313 70.8099 87.4301 70.7283C88.5288 70.6413 88.2732 69.9233 88.6975 69.6296C89.1217 69.3304 87.5117 70.0539 88.3602 69.3739C88.9096 68.9334 87.2179 68.3459 88.5724 68.7811C89.8832 69.2053 89.4155 68.9932 89.8832 68.5689C90.351 68.1501 90.1389 67.4702 89.7582 67.938C89.3774 68.4003 90.0519 67.7693 89.1653 67.8129C88.2732 67.8509 88.5724 67.6007 88.741 67.1764C88.9967 67.6442 89.5025 67.3886 90.0954 67.4702C90.6883 67.5572 90.6013 66.3333 90.3511 65.5283C90.0954 64.7287 90.5632 63.1622 89.7147 63.7116C90.5632 63.0371 89.5896 62.912 89.3774 62.4442C89.9812 62.7923 89.8398 62.4442 90.2641 62.6128C89.7582 61.8948 90.3945 61.8948 89.4155 61.2584C89.8398 61.4706 90.3946 61.6392 89.8833 60.709C90.264 61.1768 89.8833 59.991 90.5632 59.5233C91.2377 59.0609 92.1298 58.8107 91.3247 59.4852C90.5197 60.1597 91.3247 59.7408 90.944 60.4153C90.5632 61.0898 91.4498 61.0463 91.069 61.5957C90.6883 62.145 91.8305 62.3137 91.2811 63.0371C90.7318 63.7551 90.6012 64.1358 91.2377 63.7986C91.8741 63.4559 92.2114 61.9383 92.7607 61.3454C93.3101 60.7526 92.1406 62.9337 92.3365 62.6944C92.7607 62.1885 93.7779 60.7526 93.1415 60.2902C92.5051 59.8224 93.3536 59.8224 92.6791 59.3982C92.0046 58.9793 92.3528 58.9848 92.3854 58.4299C92.6791 59.3982 93.1034 59.1044 93.2285 59.8659C93.3536 60.6274 93.4461 59.9965 93.7779 59.5233C94.4959 58.5115 94.4959 59.2295 94.9202 58.4735C95.3444 57.7119 95.1323 58.6802 95.8503 58.0927C95.3009 57.6249 95.4151 57.527 95.2302 57.2387C95.7687 57.7119 95.9754 58.0057 96.3181 57.4998C96.6553 56.9885 96.8566 56.9776 97.3733 56.4826C98.2654 55.6395 96.9925 56.0638 97.6289 55.6395C97.8465 55.4981 97.7268 55.2044 98.1348 55.1337C98.8583 55.0031 98.7712 53.9479 100.425 53.9479C102.073 53.9479 101.143 53.355 101.991 53.7358C102.617 54.0186 103.591 53.2843 103.514 52.8927C103.765 54.1165 104.907 52.2454 105.25 52.9743C106.093 51.6688 105.081 52.8927 104.782 52.0441C104.488 51.201 104.613 51.0759 105.206 50.2709C105.799 49.4659 105.63 50.1023 106.348 48.9165C107.066 47.7361 107.871 48.2855 108.595 47.6926C109.313 47.0997 109.313 48.6228 110.112 46.6374C110.368 46.001 110.411 48.1985 110.792 46.806C111.124 45.593 111.847 47.0181 112.272 46.4253C112.185 46.5504 115.068 45.2721 114.638 44.875C113.953 43.8742 114.018 45.1144 113.637 44.1842C113.256 43.2541 112.707 43.847 112.876 43.129C113.044 42.411 113.675 40.5072 113.806 40.1265C113.936 39.7457 114.143 39.7457 113.724 39.6206C113.104 39.4357 114.11 38.1737 111.945 39.4955C110.607 40.3114 111.211 38.4783 110.042 40.0884C109.362 41.0185 109.106 40.7194 108.644 41.4809C108.176 42.2424 107.92 42.1989 107.92 42.6667C107.92 43.5968 107.077 43.129 106.484 43.8905C105.891 44.652 106.016 44.0156 105.228 44.8642C105.228 44.8642 99.6252 44.8642 98.8202 44.8642C97.085 44.8642 96.8946 46.7679 95.9427 47.2303C94.8005 47.7797 96.1494 47.8177 95.4695 47.9864C95.0507 48.0951 95.9373 48.8349 95.513 48.8349C93.6962 48.8349 93.8648 49.4659 92.8912 49.5964C90.9004 49.8521 92.1678 49.3408 89.6711 49.678C89.8016 50.483 90.3075 50.2274 89.0401 51.0324C87.479 52.0169 87.7238 51.3261 85.82 52.55C83.9162 53.7793 83.7911 53.1864 83.2417 53.5671C82.6869 53.9479 82.3062 53.6107 81.3379 53.2299C80.3589 52.8491 80.658 52.9307 81.5447 51.7939C82.0886 51.0977 82.3062 49.9772 82.6053 50.2709C82.8991 50.5646 82.9861 49.047 83.0731 48.1604C83.1547 47.2684 82.8556 47.1432 82.6489 47.6491C82.4367 48.1604 82.2246 47.611 82.056 47.7361C81.8874 47.8612 81.289 47.6926 81.8873 47.3935C82.4802 47.0997 81.7569 47.0181 82.2681 46.6809C82.551 46.4851 82.9371 45.5169 82.8556 45.3265C82.4367 44.3093 83.0296 45.0273 82.8175 44.5215C82.6217 44.0537 81.7025 43.4173 81.251 43.4662C80.1087 43.5913 80.5765 44.2277 79.8531 44.5215C79.1351 44.8206 79.6845 44.6901 79.2167 45.4081C78.7543 46.1315 78.4987 45.8324 78.8359 45.37C78.9991 45.147 78.7489 44.8152 78.3736 45.37C77.8188 46.1696 77.8188 45.6202 76.9757 47.4424C76.4372 48.5901 76.2577 48.5412 76.5133 48.8784C76.7635 49.2156 76.7635 50.483 75.6648 51.5383C74.5606 52.5935 73.3367 53.0613 72.4882 53.2299C71.6124 53.404 72.0693 51.4458 72.1945 51.2826C73.6468 49.3516 73.5053 48.5792 74.1853 48.1169C74.4464 47.932 75.3384 46.311 76.5514 45.1579C77.3999 44.3529 77.6937 43.6784 76.7635 44.5215C75.8334 45.37 76.2577 44.652 74.9468 45.7943C75.5342 44.9022 76.3828 44.1842 76.9757 43.6349C77.5685 43.0855 77.8188 43.2106 77.4815 43.5098C77.1443 43.8035 77.5685 44.0591 78.2865 43.4227C79.01 42.7918 79.8966 43.2106 80.1903 42.9604C80.7397 42.4926 81.6318 43.5913 81.5447 43.1725C81.4631 42.7482 84.21 43.5533 83.4485 42.5796C82.687 41.606 83.2037 42.2098 82.1376 42.2424C80.7832 42.2859 82.5619 41.3558 80.8267 41.4809C79.5974 41.5733 79.3037 41.0566 78.1179 41.606C76.5949 41.0131 77.7372 41.0566 77.0192 40.6758C76.2957 40.2951 75.8334 40.7194 75.6648 40.6758C75.4961 40.6378 75.7464 40.2951 76.4263 40.1265C77.1008 39.9578 77.3999 39.539 76.0836 39.9143C74.7727 40.2951 75.284 40.8064 73.9731 41.2687C72.6568 41.7365 72.7003 41.4374 72.0639 41.8181C71.4329 42.1989 71.0903 42.1989 71.0903 41.9051C71.0903 41.2959 71.5581 41.1871 69.8664 41.4809C69.1484 41.606 67.5819 41.8181 68.6371 41.1871C69.6978 40.5507 70.84 40.17 71.7702 39.3214C72.7003 38.4783 72.4936 38.2281 74.1526 38.3859C72.684 36.89 71.3133 38.2716 70.5898 37.5917C69.8718 36.9172 69.8718 37.5917 68.8928 37.1729C67.9191 36.7541 67.6689 36.4114 67.1195 36.4114C65.3028 36.4114 67.3371 34.7197 66.5701 34.7197C65.3843 34.7197 65.4714 36.1666 64.563 36.1666C62.7027 36.1666 15.935 36.1666 15.935 36.1666C16.8978 37.3578 15.1844 36.493 16.0275 37.4231C16.876 38.3532 15.7338 37.1239 15.0158 38.7775C14.2923 40.4202 14.2923 39.1963 14.5045 38.4783C14.7166 37.7603 13.0685 38.4348 12.0513 37.7603C11.0341 37.0859 10.7785 38.7775 10.7404 39.6206C10.697 40.4637 10.1475 41.3068 9.55464 42.2859C8.96175 43.2541 10.4413 42.9984 10.9689 43.7817C10.9689 43.7817 10.104 43.4227 9.08687 43.3411C8.08603 45.1688 4.60482 49.8793 4.34916 50.0152C2.32028 51.114 3.25042 53.9914 2.90775 54.16C0.933256 55.1446 2.88059 54.4592 1.72195 55.4709C-0.116558 57.0755 1.5642 57.1299 1.12905 58.1634C0.28595 60.1923 0.835337 61.0082 0.579678 61.5576C0.329463 62.107 0.710166 63.2057 0.922379 63.2438C1.42279 63.3471 1.38471 62.6128 2.05919 62.7597C1.54788 62.8249 2.18967 63.0752 0.878864 63.6245C-0.432029 64.1739 2.1027 65.6969 1.09098 66.2898C0.0738146 66.8827 1.76547 68.1066 1.17259 68.8246C0.579701 69.5426 1.64037 69.2489 1.38473 69.7112C1.12907 70.179 1.68389 70.179 1.42818 70.8099C0.775453 72.4418 3.37547 71.4464 3.4625 72.7573C3.50595 73.4753 4.13698 72.7572 5.0236 73.8125C5.91565 74.8677 6.63365 75.2104 6.04076 75.7543C5.44786 76.3037 6.63364 76.0535 6.12235 76.7661C7.77592 76.8912 9.79937 76.7334 10.8165 76.7933L10.6371 77.2121L17.1588 80.318H21.9455L22.4785 79.241H25.8292C25.8292 79.241 25.9325 79.6 26.6941 80.3234C27.4556 81.0414 26.7375 80.8674 27.7928 81.6724C28.9949 82.5862 27.4719 83.8046 28.7719 84.7565C30.2079 85.8172 30.2514 86.0674 30.8443 84.9686C31.4372 83.8699 31.8615 84.5879 32.1552 84.169C32.4489 83.7448 32.536 84.0004 33.5531 84.4628C34.5648 84.9251 35.2067 85.1481 35.7071 88.0963C36.474 92.5783 36.6862 90.9737 36.8929 92.6218C37.105 94.308 36.7678 93.9708 40.3958 94.9553" fill="white"/>
<path fill-rule="evenodd" clip-rule="evenodd" d="M14.3895 38.2279C14.2917 38.1681 14.1393 38.13 13.9326 38.1191L13.9707 38.2279H14.3895" fill="#004FA1"/>
<path fill-rule="evenodd" clip-rule="evenodd" d="M42.1034 67.5408L40.7382 66.5454L39.449 67.5408L39.9658 65.996L38.6005 65.0332H40.2595L40.7382 63.4885L41.2549 65.0332H42.9139L41.5867 65.996L42.1034 67.5408ZM37.6813 64.4839L36.3867 63.5211L35.0595 64.4839L35.5762 62.9336L34.2164 61.9763H35.8699L36.3867 60.388L36.8653 61.9763H38.5298L37.2026 62.9336L37.6813 64.4839ZM33.4385 67.2851L32.1113 66.3604L30.7841 67.2851L31.3009 65.773L29.9737 64.8102H31.5946L32.1113 63.2274L32.59 64.8102H34.249L32.9218 65.773L33.4385 67.2851ZM31.4858 58.1742L32.0026 56.6294L32.4812 58.1742H34.1402L32.7749 59.137L33.2917 60.6817L32.0026 59.7244L30.6753 60.6817L31.154 59.137L29.8268 58.1742H31.4858ZM31.377 44.8641L31.8557 43.3193L32.3725 44.8641H33.9934L32.6662 45.8268L33.1829 47.3716L31.8557 46.4143L30.5285 47.3716L31.0452 45.8268L29.7126 44.8641H31.377ZM31.2247 38.228L31.7415 36.6832L32.2582 38.228H33.8846L32.552 39.1908L33.0687 40.7356L31.7415 39.7782L30.4143 40.7356L30.931 39.1908L29.6038 38.228H31.2247ZM28.059 49.2917L28.5703 50.8419L27.2431 49.8792L25.9159 50.8419L26.4327 49.2917L25.1055 48.2963H26.7318L27.2431 46.7461L27.7272 48.2963H29.3808L28.059 49.2917ZM28.059 56.1508L28.5703 57.6955L27.2431 56.7382L25.9159 57.6955L26.4327 56.1508L25.1055 55.1934H26.7318L27.2431 53.6432L27.7272 55.1934H29.3808L28.059 56.1508ZM28.4235 64.5927L27.1343 63.6353L25.8071 64.5927L26.2858 63.0424L24.9967 62.0851H26.6176L27.1343 60.5349L27.613 62.0851H29.272L27.9448 63.0424L28.4235 64.5927ZM24.1862 67.3939L22.859 66.4366L21.5318 67.3939L22.0485 65.8818L20.7213 64.9245H22.3423L22.859 63.3742L23.3377 64.9245H24.9967L23.6695 65.8818L24.1862 67.3939ZM22.228 58.2884L22.7448 56.7382L23.2234 58.2884H24.8879L23.5552 59.2458L24.0393 60.796L22.7448 59.8386L21.3849 60.796L21.8962 59.2458L20.6071 58.2884H22.228ZM22.0812 45.0164L22.5979 43.4281L23.1146 45.0164H24.7356L23.4464 45.9737L23.9251 47.5185L22.5979 46.5611L21.3088 47.5185L21.7874 45.9737L20.4602 45.0164H22.0812ZM21.9724 38.3423L22.4892 36.792L23.0059 38.3423H24.6268L23.2996 39.2996L23.8164 40.8498L22.4892 39.887L21.162 40.8498L21.6787 39.2996L20.3515 38.3423H21.9724ZM19.0243 49.1829L19.541 50.7277L18.2138 49.7323L16.8866 50.7277L17.3979 49.1829L16.0707 48.1875H17.6971L18.2138 46.6373L18.6925 48.1875H20.3515L19.0243 49.1829ZM19.0243 56.0365L19.541 57.5867L18.2138 56.6294L16.8866 57.5867L17.3979 56.0365L16.0707 55.0792H17.6971L18.2138 53.529L18.6925 55.0792H20.3515L19.0243 56.0365ZM19.3887 64.4839L18.0996 63.5211L16.7724 64.4839L17.2891 62.9336L15.9238 61.9763H17.5828L18.0996 60.388L18.5783 61.9763H20.2373L18.9101 62.9336L19.3887 64.4839ZM15.1514 67.2851L13.8242 66.3604L12.497 67.2851L13.0138 65.773L11.6866 64.8102H13.3075L13.8242 63.2274L14.3029 64.8102H15.9619L14.6347 65.773L15.1514 67.2851ZM13.1987 58.1742L13.7155 56.6294L14.1941 58.1742H15.8531L14.4878 59.137L15.0046 60.6817L13.7155 59.7244L12.3828 60.6817L12.8669 59.137L11.5397 58.1742H13.1987ZM13.0845 44.8641L13.5686 43.3193L14.0799 44.8641H15.7063L14.3791 45.8268L14.8958 47.3716L13.5686 46.4143L12.2414 47.3716L12.7527 45.8268L11.4255 44.8641H13.0845ZM15.0046 54.0457L13.7155 53.0884L12.3828 54.0457L12.867 52.5009L11.5397 51.5382H13.1988L13.7155 49.9553L14.1942 51.5382H15.8532L14.4879 52.5009L15.0046 54.0457ZM17.5829 41.6603L18.0996 40.11L18.5783 41.6603H20.2373L18.91 42.6557L19.3886 44.2005L18.0995 43.205L16.7723 44.2005L17.2891 42.6557L15.9238 41.6603H17.5829ZM24.0394 54.1599L22.7449 53.1972L21.385 54.1599L21.8963 52.6097L20.6072 51.6524H22.2281L22.7449 50.1022L23.2235 51.6524H24.888L23.5553 52.6097L24.0394 54.1599ZM26.6177 41.7691L27.1344 40.2188L27.6131 41.7691H29.2721L27.9449 42.7645L28.4236 44.3147L27.1344 43.3574L25.8072 44.3147L26.2859 42.7645L24.9968 41.7691H26.6177ZM33.2918 54.0457L32.0027 53.0884L30.6755 54.0457L31.1541 52.5009L29.8269 51.5382H31.4859L32.0027 49.9553L32.4813 51.5382H34.1403L32.7751 52.5009L33.2918 54.0457ZM35.8701 41.6603L36.3868 40.11L36.8655 41.6603H38.5299L37.2026 42.6557L37.6813 44.2005L36.3867 43.205L35.0595 44.2005L35.5762 42.6557L34.2164 41.6603H35.8701ZM39.8952 38.4891L40.4065 36.9008L40.9232 38.4891H42.5442L41.217 39.4464L41.7337 40.9967L40.4065 40.0339L39.0793 40.9967L39.596 39.4464L38.2688 38.4891H39.8952ZM41.8479 47.6327L40.5207 46.6754L39.1881 47.6327L39.7048 46.0825L38.3776 45.1251H40.004L40.5207 43.5749L41.032 45.1251H42.6584L41.3312 46.0825L41.8479 47.6327ZM41.9567 54.2687L40.6675 53.3114L39.3023 54.2687L39.819 52.7185L38.4918 51.7612H40.1508L40.6675 50.211L41.1462 51.7612H42.8052L41.4399 52.7185L41.9567 54.2687ZM37.8282 50.7277L36.501 49.7323L35.1738 50.7277L35.6905 49.1829L34.3633 48.1875H35.9842L36.501 46.6373L36.9797 48.1875H38.6387L37.3115 49.1829L37.8282 50.7277ZM37.8282 57.5867L36.501 56.6294L35.1738 57.5867L35.6905 56.0365L34.3633 55.0792H35.9842L36.501 53.529L36.9797 55.0792H38.6387L37.3115 56.0365L37.8282 57.5867ZM41.9567 60.9048L40.6675 59.9474L39.3023 60.9048L39.819 59.3545L38.4918 58.3972H40.1508L40.6675 56.847L41.1462 58.3972H42.8052L41.4399 59.3545L41.9567 60.9048ZM9.76649 49.2917L10.2832 50.8419L8.95602 49.8792L7.62882 50.8419L8.14554 49.2917L6.81835 48.2963H8.43926L8.95602 46.7461L9.43469 48.2963H11.0937L9.76649 49.2917ZM9.76649 56.1508L10.2832 57.6955L8.95602 56.7382L7.62882 57.6955L8.14554 56.1508L6.81835 55.1934H8.43926L8.95602 53.6432L9.43469 55.1934H11.0937L9.76649 56.1508ZM10.1363 64.5927L8.84724 63.6353L7.52003 64.5927L7.9987 63.0424L6.70954 62.0851H8.3305L8.84724 60.5349L9.3259 62.0851H10.9849L9.65768 63.0424L10.1363 64.5927ZM6.00789 67.2851L4.68066 66.3604L3.35347 67.2851L3.87019 65.773L2.54301 64.8102H4.16394L4.68066 63.2274L5.15932 64.8102H6.81827L5.49104 65.773L6.00789 67.2851ZM4.05513 58.1742L4.57189 56.6294L5.05056 58.1742H6.70954L5.34428 59.137L5.86102 60.6817L4.57189 59.7244L3.24466 60.6817L3.72333 59.137L2.39614 58.1742H4.05513ZM15.9347 36.1665C16.8975 37.3577 15.1841 36.4929 16.0272 37.423C16.7506 38.2171 16.0272 37.4556 15.3527 38.228H15.592L15.1406 38.5598L15.0155 38.7774C14.4879 39.9795 14.3465 39.6423 14.3954 39.0983L14.265 39.1908L14.7817 40.7356L13.4545 39.7783L12.1273 40.7356L12.644 39.1908L11.3168 38.228H12.9378L12.9976 38.0649C12.6658 38.0268 12.334 37.9506 12.0512 37.7603C11.034 37.0858 10.7784 38.7774 10.7403 39.6205C10.7077 40.3059 10.3106 41.013 9.85367 41.7691H10.9851L9.65785 42.7645L9.74488 43.0528C10.1093 43.2323 10.6805 43.3519 10.9687 43.7816C10.9687 43.7816 10.5064 43.5967 9.86999 43.4607L10.1365 44.3147L9.00513 43.4716C7.92813 45.3808 4.59924 49.8846 4.34903 50.0152C3.67455 50.385 3.34274 50.9453 3.16868 51.5382H4.0553L4.57204 49.9553L5.05071 51.5382H6.70971L5.34443 52.5009L5.86117 54.0457L4.57204 53.0884L3.24483 54.0457L3.7235 52.5009L3.05446 52.0168C2.89129 53.0558 3.10889 54.062 2.90759 54.16C0.9331 55.1445 2.88045 54.4591 1.72181 55.4708C-0.116694 57.0755 1.56407 57.1298 1.12892 58.1633C0.769924 59.0227 0.688328 59.632 0.661133 60.1269V62.8194C0.748163 63.0479 0.840623 63.2328 0.922223 63.2437C1.42264 63.3471 1.38458 62.6127 2.05905 62.7596C1.54775 62.8249 2.18952 63.0751 0.878708 63.6245L0.661133 63.7876V64.5981C1.00381 65.2182 1.71093 65.9253 1.09084 66.2897C0.0845543 66.8718 1.71638 68.0739 1.18331 68.7973H43.8715V36.1665C30.632 36.1665 15.9349 36.1665 15.9349 36.1665" fill="#004FA1"/>
<path fill-rule="evenodd" clip-rule="evenodd" d="M28.7712 84.7562C30.2072 85.8169 30.2507 86.0671 30.8437 84.9684C31.4365 83.8696 31.8608 84.5876 32.1545 84.1688C32.4483 83.7445 32.5353 84.0002 33.5525 84.4625C34.4935 84.8922 35.1136 85.1424 35.5977 87.5249H44.3931L44.4311 87.5085C44.5998 87.6336 44.3658 86.8449 44.8499 87.2094C45.1926 87.465 45.4429 86.747 45.7366 87.0843C46.0357 87.4215 46.3349 86.3772 47.178 86.1541C48.6194 85.7734 47.3902 85.6048 47.7709 85.2675C48.1517 84.9249 47.3303 84.8759 48.6738 84.1361C48.0265 84.9249 48.6575 84.8868 48.2768 85.4797C47.9015 86.0671 48.7282 85.2023 49.7182 84.506C52.0027 82.896 52.2747 85.2458 53.5693 84.7562C54.2492 84.506 53.9936 84.0382 54.4994 84.6746C55.0107 85.3111 54.7986 84.506 55.0488 85.0119C55.3044 85.5177 56.5718 85.1859 56.9145 85.6048C57.5074 86.3228 57.5074 85.224 57.8446 85.5613C58.1818 85.8985 57.9316 86.0671 58.7312 85.855C59.5362 85.6483 58.2254 85.3491 58.5245 85.0554C58.8183 84.7562 57.9153 84.6366 58.1003 84.2939C58.6496 83.2387 56.5337 84.1688 56.958 83.0265C57.317 82.0529 57.6216 83.6575 58.9434 83.1135C59.2915 82.9667 60.4881 83.5324 60.4229 82.8579C60.4117 82.7165 60.4173 82.6403 60.4173 82.5479H28.2761C28.3305 83.2822 27.8518 84.0872 28.771 84.7562" fill="#CC2835"/>
<path fill-rule="evenodd" clip-rule="evenodd" d="M61.1463 82.8579C61.6195 82.6838 61.8045 82.6131 61.886 82.5479H60.499C60.5153 82.8035 60.6404 83.0428 61.1463 82.8579Z" fill="#CC2835"/>
<path fill-rule="evenodd" clip-rule="evenodd" d="M40.3959 94.9551C40.4504 93.6768 40.8746 93.7584 40.5754 93.2525C40.2926 92.7684 40.8528 92.8337 41.0922 91.8057H36.708C36.7787 91.958 36.8385 92.1647 36.893 92.6216C37.1051 94.3078 36.7679 93.9705 40.3959 94.9551" fill="#CC2835"/>
<path fill-rule="evenodd" clip-rule="evenodd" d="M63.8768 82.5479H62.332C62.9086 82.8035 63.8061 82.7219 63.8768 82.5479Z" fill="#CC2835"/>
<path fill-rule="evenodd" clip-rule="evenodd" d="M4.38678 73.2954C4.57715 73.3824 4.78929 73.5347 5.02319 73.8122C5.91524 74.8674 6.63324 75.2046 6.04035 75.754C5.44745 76.3034 6.63323 76.0532 6.12194 76.7657C7.77551 76.8908 9.79895 76.7331 10.8161 76.7929L10.6366 77.2118L12.8613 78.2724H77.0405C77.7041 77.4185 78.112 78.1256 77.9053 77.4021C77.8183 77.1084 78.5472 77.2825 78.0358 76.4394C77.5245 75.5854 78.558 77.3423 79.1726 76.1402C79.3031 75.8846 79.1346 77.1519 80.6576 75.5419C81.1961 74.9762 81.1199 75.7377 81.7726 74.3778C81.9413 74.0297 82.8768 73.0996 83.622 73.3444L83.943 73.2954H4.38672" fill="#CC2835"/>
<path fill-rule="evenodd" clip-rule="evenodd" d="M43.8712 54.6006V59.5776H90.5192L90.5627 59.5232C91.2372 59.0609 92.1292 58.8107 91.3242 59.4852L91.2263 59.5776H92.869L92.6786 59.3981C91.9987 58.9793 92.3522 58.9847 92.3849 58.4299C92.6242 59.2295 92.9451 59.1969 93.1246 59.5776H93.7502L93.7773 59.5232C94.4953 58.5115 94.4953 59.2295 94.9196 58.4734C95.3439 57.7119 95.1317 58.6801 95.8497 58.0927C95.3003 57.6249 95.4146 57.527 95.2296 57.2387C95.7681 57.7119 95.9748 58.0057 96.3175 57.4998C96.6547 56.9885 96.856 56.9776 97.3727 56.4826C98.2648 55.6395 96.992 56.0638 97.6284 55.6395C97.846 55.4981 97.7263 55.2044 98.1342 55.1337C98.4497 55.0793 98.6184 54.8454 98.8305 54.6006H43.8711" fill="#CC2835"/>
<path fill-rule="evenodd" clip-rule="evenodd" d="M64.1978 82.5479C64.1867 82.6186 64.3501 82.7165 64.8288 82.8579C66.8196 83.4508 67.4941 83.614 67.0263 83.8696C66.5639 84.1253 66.9447 84.3755 67.4941 84.0818C68.0434 83.788 67.7878 84.5876 69.1041 83.6575C70.415 82.7328 70.1158 84.0002 70.7957 84.1253C71.4702 84.2504 70.9644 85.0554 71.8129 85.6048C72.2807 85.9094 71.9162 86.7362 71.5573 87.5249H75.5334C75.5223 87.378 75.5009 87.2094 75.4954 87.0843C75.452 86.1542 75.4954 87.6337 75.2833 86.3228C75.0875 85.1207 74.8155 83.3366 75.0929 82.5479H64.1979" fill="#CC2835"/>
<path fill-rule="evenodd" clip-rule="evenodd" d="M71.4541 91.8057L71.4704 91.8601L71.552 91.8057H71.4541Z" fill="#CC2835"/>
<path fill-rule="evenodd" clip-rule="evenodd" d="M71.8514 92.0722C71.5577 92.5345 71.8732 92.6433 71.8514 93.3831C71.8134 94.9007 72.5314 94.2262 72.7 94.8191C72.8686 95.4065 73.8858 95.5371 73.3799 95.7057C72.8686 95.8743 73.4615 96.4672 72.9121 96.168C72.3627 95.8743 72.7435 97.1417 73.6736 96.6793C74.2393 96.3965 74.136 96.8752 74.4351 96.3421C74.6473 95.9613 74.6038 96.6793 75.0715 96.1245C75.5339 95.5806 74.7724 96.2986 75.3653 94.9442C75.8875 93.7638 76.2954 92.4638 76.0615 91.8057H71.9602L71.8515 92.0722" fill="#CC2835"/>
<path fill-rule="evenodd" clip-rule="evenodd" d="M97.6016 45.3481C96.9162 45.941 96.5953 46.9147 95.9426 47.2302C94.8003 47.7795 96.1493 47.8176 95.4694 47.9862C95.0505 48.095 95.9371 48.8348 95.5128 48.8348C93.696 48.8348 93.8647 49.4657 92.891 49.5963C90.9002 49.8519 92.1676 49.3406 89.6709 49.6779C89.7308 50.0532 89.8613 50.1946 89.8722 50.3252H105.168L105.206 50.2708C105.799 49.4657 105.63 50.1022 106.348 48.9164C107.066 47.736 107.871 48.2854 108.594 47.6925C109.312 47.0996 109.312 48.6226 110.112 46.6373C110.368 46.0009 110.411 48.1984 110.792 46.8059C111.124 45.5929 111.847 47.018 112.271 46.4251C112.206 46.5176 113.718 45.8594 114.376 45.3481H97.6015" fill="#CC2835"/>
<path fill-rule="evenodd" clip-rule="evenodd" d="M90.8516 63.8525C90.8733 63.9069 90.9495 63.9015 91.08 63.8525H90.8516Z" fill="#CC2835"/>
<path fill-rule="evenodd" clip-rule="evenodd" d="M43.8711 41.0674H68.8596C69.855 40.5071 70.8993 40.1155 71.7696 39.3213C72.6998 38.4782 72.4931 38.228 74.1521 38.3857C72.6835 36.8899 71.3127 38.2715 70.5893 37.5916C69.8713 36.9171 69.8713 37.5916 68.8922 37.1728C67.9186 36.7539 67.6738 36.4113 67.119 36.4113C66.6186 36.4113 66.4282 36.2753 66.3683 36.0903H64.7311L64.5625 36.1665C63.7466 36.1665 54.2549 36.1665 43.8711 36.1665V41.0674" fill="#CC2835"/>
<path fill-rule="evenodd" clip-rule="evenodd" d="M113.723 39.6206C113.103 39.4357 114.109 38.1738 111.945 39.4956C110.607 40.3115 111.21 38.4784 110.041 40.0884C109.535 40.7792 109.263 40.7901 108.964 41.0675H113.495C113.636 40.6487 113.756 40.2679 113.805 40.1265C113.935 39.7458 114.142 39.7458 113.723 39.6207" fill="#CC2835"/>
<path fill-rule="evenodd" clip-rule="evenodd" d="M89.7576 67.9375C89.3768 68.3998 90.0513 67.7689 89.1647 67.8124C88.2726 67.8505 88.5718 67.6003 88.7404 67.176C88.9961 67.6438 89.5019 67.3881 90.0948 67.4697C90.6877 67.5567 90.6007 66.3329 90.3505 65.5279C90.1927 65.0329 90.307 64.2551 90.2254 63.8525H43.8711V68.7969H88.2128C88.0007 68.6174 87.8375 68.5467 88.5718 68.7806L88.6153 68.7969H89.7032L89.8827 68.5685C90.3505 68.1496 90.1383 67.4697 89.7576 67.9375" fill="#CC2835"/>
<path fill-rule="evenodd" clip-rule="evenodd" d="M82.8551 45.3481H79.2488L79.2162 45.408C78.7538 46.1314 78.4982 45.8323 78.8354 45.3699L78.8466 45.3481H78.3951L78.3734 45.3699C77.8186 46.1695 77.8185 45.6201 76.9754 47.4423C76.4369 48.59 76.2574 48.5411 76.5131 48.8783C76.6654 49.085 76.6926 49.667 76.4478 50.3252H82.3658L82.6051 50.2708C82.8989 50.5645 82.9859 49.0469 83.0729 48.1603C83.1545 47.2683 82.8554 47.1431 82.6487 47.649C82.4365 48.1603 82.2244 47.6109 82.0558 47.736C81.8872 47.8611 81.2888 47.6925 81.8872 47.3934C82.4801 47.0996 81.7567 47.018 82.2679 46.6754C82.5508 46.4904 82.9206 45.5603 82.8554 45.3482" fill="#CC2835"/>
<path fill-rule="evenodd" clip-rule="evenodd" d="M43.8711 50.3252H72.8303C73.581 49.1013 73.6353 48.4867 74.1847 48.1168C74.4349 47.9427 75.2563 46.4795 76.3768 45.3481H75.5065C75.3596 45.4515 75.2019 45.5657 74.9408 45.7942C75.055 45.6256 75.1964 45.495 75.3161 45.3481H43.8711V50.3252Z" fill="#CC2835"/>
<path fill-rule="evenodd" clip-rule="evenodd" d="M77.0187 40.6758C76.2952 40.2951 75.8329 40.7194 75.6643 40.6758C75.4956 40.6378 75.7459 40.2951 76.4258 40.1265C77.1003 39.9579 77.3994 39.539 76.0831 39.9143C74.9571 40.2461 75.1149 40.6595 74.3643 41.0675H77.2689C77.2689 40.9533 77.3831 40.8717 77.0187 40.6758" fill="#CC2835"/>
<path d="M60.4883 48.9106L63.6486 51.5052L61.7665 54.3881L60.4883 48.9106Z" fill="#2B5761"/>
<path d="M54.0369 40.3439L53.9282 36.4058L48.5922 34.377L48.4072 36.9226L50.3708 41.013L53.9608 41.1762L54.037 40.3439" fill="#2B5761"/>
<path d="M46.5752 34.7249C46.5752 34.7249 47.043 32.7831 48.3538 31.7768C49.6647 30.7705 55.0497 33.1638 55.0497 33.1638C55.0497 33.1638 55.9581 35.8672 55.9907 36.286C56.0288 36.6994 55.5066 37.1346 55.5066 37.1346L56.6489 41.3991L54.6907 41.176L54.4296 39.0438L47.2279 36.9986L46.5752 34.7249" fill="#2B5761"/>
<path d="M57.2031 61.1275L71.661 50.4282L71.7698 51.2224L64.5354 63.6296L57.2031 61.1275" fill="#356873"/>
<path d="M56.9316 60.3826L65.3191 47.7578L71.8138 50.3741L64.476 62.9609L56.9316 60.3826Z" fill="#2B5761"/>
<path d="M57.0947 60.328L65.3571 47.8882L71.6614 50.4284L64.427 62.8356L57.0947 60.328Z" fill="#B5E6F5"/>
<path d="M65.2154 103H39.6885V99.9482H65.2154V103Z" fill="#70A3AB"/>
<path d="M67.6307 55.3621C67.8265 55.2098 68.9797 56.8525 69.0341 56.8416C69.0831 56.8253 68.811 56.0311 68.4738 55.6558C68.1366 55.2805 67.6525 55.1228 67.5219 55.0303C67.3969 54.9378 67.3424 54.6822 67.5219 54.5516C67.7069 54.4211 68.4357 54.5353 68.7621 54.6931C69.083 54.8508 69.9044 55.7755 69.9044 55.7755V55.5525C69.9044 55.5525 69.2136 54.7583 68.9688 54.6169C68.7186 54.47 67.9679 54.2525 67.9679 54.2525C67.9679 54.2525 67.9679 53.8445 68.3161 53.7847C68.6696 53.7194 69.1483 53.8336 69.6977 54.2144C70.2416 54.5897 70.5571 55.0466 70.5571 55.0466L70.4918 54.6387C70.4918 54.6387 69.3985 53.7575 69.3169 53.442C69.2407 53.132 69.2407 52.6751 69.7629 52.8056C70.2796 52.9361 71.3458 54.2253 71.4274 54.7475C71.5035 55.2642 70.2416 56.9667 69.4148 57.9295C68.588 58.8923 66.9072 59.5722 66.9072 59.5722L68.1093 57.5052C68.1093 57.5052 67.0051 55.8353 67.6307 55.3621" fill="#2B5761"/>
<path d="M66.5692 103H65.2148V99.9482H66.5692V103Z" fill="#638F97"/>
<path d="M38.3398 103H39.6888V99.9482H38.3398V103Z" fill="#638F97"/>
<path d="M40.091 99.981L40.8634 95.2107C40.7709 95.042 40.3467 94.2533 40.2814 93.8943C40.2107 93.5081 40.7274 92.8608 40.8688 92.6977C40.8417 92.1646 40.6186 87.378 41.1517 85.2512C41.6032 83.4344 42.2287 82.1127 42.4408 81.6938C42.2885 81.6557 42.0709 81.5415 41.9513 81.1771C41.7772 80.6495 42.8651 78.1854 43.05 77.772C43.012 77.6089 42.8705 76.8691 42.7781 75.395C42.691 73.9699 42.7019 73.1703 42.7073 72.9745C42.5877 72.8548 42.2395 72.4306 42.1199 71.4515C42.0002 70.4506 42.1579 69.292 42.2069 68.9711C41.9512 68.8623 41.1897 68.4489 41.2496 67.4427C41.3203 66.3276 42.8868 63.4012 43.0554 63.0857V60.8991C42.7672 60.997 42.1035 61.1928 41.5542 61.1983C41.3257 61.1983 41.1353 61.1602 40.9993 61.0895C40.7056 60.9426 40.4336 60.5619 40.2759 60.0669C40.0855 59.4577 39.9006 58.174 40.847 56.4007C41.9349 54.3719 42.7508 53.2024 42.9956 52.8543C42.778 52.7455 42.3483 52.4409 42.158 51.712C41.9513 50.9179 41.8914 50.4229 41.8805 50.276C41.7391 50.1509 41.1625 49.607 40.7437 48.9107C40.2596 48.0948 39.8517 47.3333 40.2596 46.9254C40.5316 46.6588 40.76 46.3977 40.8416 46.2998C40.809 46.1584 40.7329 45.745 40.7329 45.2228C40.7329 44.532 40.9885 43.6073 41.0755 43.3245C40.7274 43.1287 39.4601 42.4052 39.2479 41.9483C39.0303 41.4751 39.4981 40.2241 39.6232 39.9086C39.373 39.5931 38.0132 37.7709 38.0784 35.4864C38.1492 32.9788 40.4881 30.0959 40.5914 29.9763L40.6026 29.96L40.6243 29.9491C40.7276 29.9001 43.1373 28.7144 44.0457 28.7144L44.3176 28.7687C44.9268 29.1006 46.2704 31.1566 46.2976 31.9562C46.3193 32.6089 46.3031 34.1157 46.2976 34.4964C46.5478 34.5508 47.2331 34.7521 47.788 35.4592C48.3482 36.1826 48.903 37.4989 49.0608 37.8797L49.2403 37.847C49.3817 37.847 49.5231 37.9014 49.6591 38.0048C49.757 38.0864 49.8767 38.2332 50.0399 38.4399C50.4478 38.9512 51.0625 39.7291 51.9926 40.1425C52.4495 40.3492 52.8792 40.4471 53.2708 40.4471C53.6951 40.4471 53.9236 40.322 53.929 40.322L53.9562 40.3057H53.9887C54.0267 40.3111 54.9787 40.4036 56.5072 41.1542C57.7691 41.7688 58.6448 42.4488 59.0963 43.1668C59.4335 43.6998 61.6202 50.5262 61.6202 50.7656C61.6202 50.9668 61.408 51.7882 61.3645 51.9622C61.4678 52.4626 62.7352 58.4677 62.7624 58.9518C62.7896 59.4142 62.447 60.9481 62.3817 61.2472L63.3064 62.4276L65.4658 79.0394L64.1821 80.2143L64.4922 82.624L64.008 83.4943L64.7696 89.7713L64.1821 90.7123L64.9491 99.981H40.0911" fill="#2B5761"/>
<path d="M40.2108 99.8777L40.9723 95.1944C40.9723 95.1944 40.4555 94.2588 40.3848 93.8781C40.3141 93.4973 40.9723 92.7304 40.9723 92.7304C40.9723 92.7304 40.6949 87.4923 41.2497 85.273C41.8045 83.0537 42.6041 81.596 42.6041 81.596C42.6041 81.596 42.2233 81.6667 42.0493 81.15C41.8752 80.6278 43.1589 77.783 43.1589 77.783C43.1589 77.783 42.9848 77.0541 42.8815 75.3897C42.7782 73.7252 42.8108 72.9256 42.8108 72.9256C42.8108 72.9256 42.3593 72.5829 42.2233 71.4352C42.0819 70.293 42.3266 68.9059 42.3266 68.9059C42.3266 68.9059 41.2877 68.5904 41.3584 67.4482C41.4237 66.3005 43.1588 63.113 43.1588 63.113V60.7523C43.1588 60.7523 41.6685 61.3071 41.0429 60.9971C40.4174 60.6816 39.6232 58.9138 40.9396 56.4552C42.2559 53.9912 43.1589 52.8108 43.1589 52.8108C43.1589 52.8108 42.5007 52.6205 42.2559 51.6849C42.0166 50.7493 41.9786 50.2271 41.9786 50.2271C41.9786 50.2271 41.3041 49.6397 40.8363 48.8564C40.3685 48.0786 39.9877 47.3497 40.3304 47.0016C40.6785 46.6535 40.9559 46.3271 40.9559 46.3271C40.9559 46.3271 40.8363 45.8539 40.8363 45.2229C40.8363 44.4288 41.2008 43.2756 41.2008 43.2756C41.2008 43.2756 39.5689 42.389 39.3459 41.9049C39.1175 41.4154 39.743 39.8923 39.743 39.8923C39.743 39.8923 38.1112 37.9831 38.1819 35.4864C38.2527 32.9898 40.6677 30.0416 40.6677 30.0416C40.6677 30.0416 43.6974 28.5512 44.2686 28.8613C44.8397 29.1768 46.1669 31.2057 46.1941 31.9563C46.2212 32.7124 46.1941 34.5835 46.1941 34.5835C46.1941 34.5835 47.0535 34.6869 47.7008 35.5245C48.3535 36.3567 49.0062 38.0212 49.0062 38.0212C49.0062 38.0212 49.2619 37.8254 49.5937 38.0865C49.9201 38.3475 50.6326 39.6476 51.949 40.2405C53.2707 40.8279 53.9779 40.4145 53.9779 40.4145C53.9779 40.4145 54.9352 40.4961 56.4582 41.2467C57.9867 41.9919 58.6775 42.699 59.0093 43.2212C59.3411 43.7434 61.5168 50.5589 61.5168 50.7656C61.5168 50.9723 61.2557 51.9623 61.2557 51.9623C61.2557 51.9623 62.6319 58.4623 62.6591 58.9573C62.6862 59.4523 62.2675 61.2745 62.2675 61.2745L63.203 62.4712L65.357 78.996L64.0733 80.1763L64.3833 82.6023L63.8993 83.4726L64.6608 89.7496L64.0733 90.6852L64.8348 99.8777H40.2108" fill="#8ABACA"/>
<path d="M40.8419 99.8777L43.2787 98.6811L44.9976 94.8844C44.9976 94.8844 45.9876 90.8266 47.3909 87.389C48.7943 83.9567 50.8993 79.7249 52.0742 77.065C53.8692 72.9801 54.2554 71.2123 55.0387 69.9612C55.8165 68.7156 56.5454 68.9712 56.5454 68.9712L56.8609 66.3223C56.8609 66.3223 53.7876 71.9411 51.4487 74.2311C49.1043 76.5156 45.1009 79.5889 44.4264 78.9634C43.7465 78.3378 45.3076 75.3734 45.3076 75.3734C44.6114 76.5809 43.839 77.5111 42.9959 78.1475C42.6587 78.9362 41.9135 80.742 42.0494 81.15C42.2235 81.6667 42.6043 81.596 42.6043 81.596C42.6043 81.596 41.8047 83.0538 41.2499 85.273C40.695 87.4923 40.9724 92.7304 40.9724 92.7304C40.9724 92.7304 40.3143 93.4974 40.385 93.8781C40.4557 94.2589 40.9724 95.1945 40.9724 95.1945L40.2109 99.8777H40.8419" fill="#2B5761"/>
<path d="M42.3261 68.9059C42.3261 68.9059 42.0813 70.2929 42.2228 71.4352C42.3588 72.5829 42.8102 72.9256 42.8102 72.9256C42.8102 72.9256 42.7776 73.7252 42.881 75.3896C42.9463 76.3959 43.0333 77.0595 43.0931 77.4294C43.7513 76.6461 44.9697 75.1775 45.1709 74.8022C45.4484 74.28 44.1973 74.1059 43.9199 73.3771C43.6425 72.6482 44.0722 70.467 45.209 68.2097C46.3513 65.9578 46.9387 65.4791 47.4609 64.3477C47.9777 63.2163 49.4735 57.9075 49.9576 56.4878C50.4417 55.0627 53.6346 47.8882 53.6346 47.8882C53.6346 47.8882 50.6158 53.8497 49.9903 55.5142C49.3647 57.1841 47.5643 59.746 46.558 61.6226C45.5517 63.4937 43.8002 69.254 43.8002 69.254C43.8002 69.254 44.0939 66.5833 44.9262 63.8745C45.7584 61.1711 47.945 58.0816 47.945 58.0816L47.5697 57.815L46.558 59.8058C46.558 59.8058 46.8952 58.4514 47.2597 57.5811C47.6241 56.7108 48.0266 55.6828 48.0266 55.6828C48.0266 55.6828 47.5099 56.2811 46.6722 57.5431C45.8944 58.718 43.1584 63.113 43.1584 63.113C43.1584 63.113 41.4232 66.3005 41.3579 67.4482C41.2872 68.5904 42.3262 68.9059 42.3262 68.9059" fill="#2B5761"/>
<path d="M43.6814 54.8399C43.2789 54.7202 43.1593 52.811 43.1593 52.811C43.1593 52.811 42.2563 53.9913 40.94 56.4554C39.6237 58.914 40.4178 60.6818 41.0433 60.9973C41.6689 61.3073 43.1592 60.7525 43.1592 60.7525C43.1592 60.7525 44.6877 57.0755 46.1074 55.1717C47.5271 53.2625 48.9848 53.0558 48.9848 53.0558C48.9848 53.0558 49.8388 52.0332 51.0137 50.7495C52.194 49.4658 52.6129 49.2047 52.7869 48.911C52.9555 48.6118 54.5874 45.5277 54.5874 45.5277C54.5874 45.5277 52.9392 48.144 52.5911 48.5302C52.2484 48.911 50.1162 50.6461 48.9848 51.5817C47.8589 52.5173 47.3204 52.811 46.6785 53.4202C46.4446 53.6432 46.1944 53.9478 45.9768 54.247C46.9233 52.8273 48.6476 50.2382 49.6811 48.7696C51.1551 46.6754 53.9782 41.9214 53.9782 41.9214C53.9782 41.9214 50.1162 47.4695 49.42 48.4921C48.7237 49.5147 44.8563 55.4491 44.8563 55.4491C44.8563 55.4491 45.1555 53.8336 46.9559 50.9562C48.7618 48.0788 51.6066 44.6628 51.6066 44.6628C51.6066 44.6628 47.4237 49.6399 46.6622 50.7984C45.9007 51.9625 44.5626 54.9106 44.5626 54.9106C44.5626 54.9106 45.6233 51.8428 45.4329 51.8047C45.2425 51.7721 44.0785 54.9596 43.6814 54.8399" fill="#2B5761"/>
<path d="M46.8682 76.8802C46.8682 76.8802 50.8607 71.4027 54.1515 60.8558C56.7406 52.5716 56.1804 44.1025 56.1804 44.1025C56.1804 44.1025 56.1967 53.0177 53.8414 60.4968C52.1552 65.8491 50.6485 67.7964 50.6485 67.7964C50.9314 66.2952 51.0129 65.1311 50.877 63.4613C50.8335 65.996 49.9196 69.8906 46.8682 76.8802" fill="#70A3AB"/>
<path d="M44.2686 72.8769C44.2686 72.8769 45.3347 72.4091 45.5413 71.8598C45.7535 71.3158 45.5413 69.6514 45.5413 69.6514C45.5413 69.6514 46.1941 71.4736 47.0535 71.6803C47.9129 71.8869 48.5385 71.8598 48.5385 71.8598C48.5385 71.8598 47.3908 71.9903 46.4008 72.2786C45.4163 72.5614 44.2686 72.8769 44.2686 72.8769Z" fill="#70A3AB"/>
<path d="M56.1806 83.0972L56.5451 68.9712H56.1806L54.9404 87.8621L56.0773 87.2475L56.1806 83.0972" fill="#70A3AB"/>
<path d="M58.3672 66.3221C58.3672 65.6966 59.7216 64.3477 59.7216 64.3477L60.4885 80.6821L58.3672 81.8896V66.3221Z" fill="#70A3AB"/>
<path d="M52.5908 70.2221C52.5908 70.2221 53.6842 68.5032 54.1519 66.322C54.6197 64.1354 54.8318 60.7032 55.1419 60.1103C55.4574 59.5228 56.6323 59.9362 56.6323 59.9362C56.6323 59.9362 55.6097 59.6806 55.4574 60.2299C55.2996 60.7902 54.7938 65.158 54.8645 66.4091C54.9352 67.6547 55.3486 68.2639 55.3486 68.2639C55.3486 68.2639 54.7775 68.2258 54.1519 68.5413C53.5318 68.8513 52.5908 70.2221 52.5908 70.2221" fill="#70A3AB"/>
<path d="M56.9965 61.1712C56.9965 61.1712 56.8931 60.6001 57.3609 59.6428C57.8287 58.6909 58.8187 57.4072 58.8187 57.4072L59.3408 57.3365C59.3408 57.3365 59.912 56.662 59.9283 55.2749C59.9446 53.8879 58.0571 52.082 58.0571 52.082C58.0571 52.082 58.4705 52.8109 58.6772 53.6268C58.8894 54.4427 58.9764 55.4653 58.9764 55.4653C58.9764 55.4653 59.1287 54.6331 59.0797 54.3013C59.0253 53.9749 58.9547 53.7302 58.9547 53.7302C58.9547 53.7302 59.2212 53.7628 59.4279 54.6494C59.6346 55.5306 58.9384 56.7327 58.2802 57.6302C57.622 58.5331 57.0509 58.6202 56.7354 59.349C56.3655 60.2193 56.9965 61.1712 56.9965 61.1712" fill="#2B5761"/>
<path d="M60.8144 52.7943C60.586 52.0328 60.0964 51.3474 59.4165 51.293C58.1165 51.1897 58.0566 52.0817 58.0566 52.0817C58.0566 52.0817 58.878 51.2549 59.6939 52.3102C60.5098 53.3654 60.3412 54.475 60.6023 56.0525C60.9014 57.8257 61.2441 58.2554 61.2441 58.2554C61.2441 58.2554 61.4345 57.6843 61.6249 58.0324C61.8152 58.3751 62.4952 59.7947 62.4952 59.7947H62.5659C62.6258 59.4466 62.6692 59.1257 62.6584 58.9571C62.6584 58.9571 62.0329 58.0541 61.6086 56.7976C61.168 55.4813 61.0374 53.5558 60.8144 52.7943" fill="#2B5761"/>
<path d="M62.2676 61.2744L64.6011 77.5599L63.807 78.3486L63.8287 78.6532L64.8458 77.7938L62.545 61.628L62.2676 61.2744" fill="#2B5761"/>
<path d="M57.8449 56.3086C57.8449 56.3086 57.4859 45.7998 57.6382 45.3537C57.796 44.9131 58.2746 44.8315 58.2746 44.8315V47.2249C58.2746 47.2249 57.9211 47.4805 57.9374 47.8885C57.9537 48.2964 58.057 55.5525 58.057 55.5525L57.8449 56.3086" fill="#8ABACA"/>
<path d="M59.1454 49.9823C59.1237 49.83 59.3031 47.7739 59.3031 47.7739L59.4881 48.579L59.6948 48.3995L59.1454 49.9823Z" fill="#70A3AB"/>
<path d="M61.2551 51.9622L59.0195 45.4077L61.4455 51.1843L61.2551 51.9622Z" fill="#70A3AB"/>
<path d="M53.8691 49.8302C53.9182 49.7486 55.0386 47.4369 55.5336 45.6147C56.0286 43.7925 56.2353 42.0791 56.2353 42.0791C56.2353 42.0791 56.2624 43.6892 55.7675 45.718C55.2725 47.7469 54.152 49.8302 54.152 49.8302H53.8691" fill="#70A3AB"/>
<path d="M58.5898 98.9585C58.5898 98.9585 59.8409 98.9421 60.2923 97.5877C60.7438 96.2333 61.5162 89.5864 61.5162 89.5864C61.5162 89.5864 61.0593 96.2932 61.3313 97.1689C61.6957 98.3329 62.6531 99.3555 62.6531 99.3555C62.6531 99.3555 62.2016 99.1216 61.6305 98.4744C61.2823 98.0718 61.1246 97.5714 61.1246 97.5714L61.0213 97.8216C61.0213 97.8216 61.13 98.2187 61.3204 98.5505C61.5652 98.9802 61.9296 99.3555 61.9296 99.3555C61.9296 99.3555 61.5108 99.176 61.2932 98.9367C61.092 98.7137 60.8254 98.3166 60.8254 98.3166C60.8254 98.3166 60.8255 98.7735 60.1618 99.0183C59.4221 99.2957 58.8183 99.2903 58.8183 99.2903L58.5899 98.9585" fill="#70A3AB"/>
<path d="M62.5824 89.7335C62.5824 89.7335 62.4409 91.1641 62.3104 93.0624C62.1799 94.9608 63.2841 98.839 63.2841 98.839C63.2841 98.839 62.0602 96.375 61.9731 93.6499C61.9187 91.8821 62.5334 89.1787 62.5334 89.1787L62.5824 89.7335" fill="#70A3AB"/>
<path d="M63.8281 89.1787C63.8281 89.1787 63.2842 92.9808 63.2842 95.249C63.2842 97.18 64.3503 98.9913 64.3503 98.9913C64.3503 98.9913 63.616 96.9461 63.6377 94.9172C63.6649 92.5838 64.1055 91.0662 64.1055 91.0662L63.8281 89.1787Z" fill="#70A3AB"/>
<path d="M43.1589 52.8107C43.1589 52.8107 43.9911 51.0429 46.3518 48.3722C48.7071 45.7014 51.5519 44.1023 51.5519 44.1023L49.8385 45.0161C49.8385 45.0161 49.784 43.9771 49.3924 44.1023C49.0062 44.2382 48.3263 46.2236 48.3263 46.2236C48.3263 46.2236 47.9129 46.4738 47.5865 46.7077C47.2602 46.9416 46.8686 47.4475 46.8686 47.4475L47.0644 46.0822L46.4171 47.7575L46.2594 45.2119L45.9874 48.3178L45.661 48.7203L45.5414 46.8002L45.3238 48.9977C45.3238 48.9977 44.7636 49.4709 43.9314 50.8144C43.3493 51.75 42.9414 52.7073 42.9414 52.7073L43.159 52.8107" fill="#2B5761"/>
<path d="M52.6941 91.4686C52.6941 91.4686 52.3677 93.7205 51.7585 95.9235C51.1547 98.1264 49.6807 99.7528 49.6807 99.7528C49.6807 99.7528 51.3777 97.0657 51.6388 95.608C51.8999 94.1557 52.52 91.0498 52.52 91.0498L52.6941 91.4686Z" fill="#2B5761"/>
<path d="M48.5381 97.6586C48.5381 97.6586 49.0548 97.3268 49.7837 96.1465C50.5126 94.9661 50.8063 93.3887 50.8063 93.3887L50.9858 93.0352C50.9858 93.0352 50.8389 94.6887 50.4255 95.6624C50.0067 96.636 48.5381 97.6586 48.5381 97.6586Z" fill="#2B5761"/>
<path d="M47.3359 98.9911C47.3359 98.9911 47.733 98.5614 48.3313 98.1262C49.1255 97.5551 49.5062 97.6204 49.5552 97.6585L48.4456 98.5777C48.4456 98.5777 48.9079 98.73 49.441 98.3112C49.9468 97.9032 50.2188 96.5488 50.2188 96.5488C50.2188 96.5488 50.4309 97.9467 49.6803 98.6484C49.082 99.1978 47.3359 98.9911 47.3359 98.9911" fill="#2B5761"/>
<path d="M41.9783 50.2273C41.9783 50.2273 42.0163 50.7494 42.2557 51.685C42.408 52.2725 42.7289 52.5662 42.941 52.7076C42.941 52.7022 43.2511 49.1013 44.1105 46.9147C44.9699 44.728 46.8683 39.1636 46.8683 39.1636C46.8683 39.1636 45.726 42.1008 44.2682 43.5314C42.8105 44.9619 40.8795 46.4143 40.8795 46.4143C40.7762 46.5339 40.5695 46.7624 40.3301 47.0017C39.9875 47.3498 40.3682 48.0787 40.836 48.8565C41.3038 49.6398 41.9783 50.2273 41.9783 50.2273Z" fill="#2B5761"/>
<path d="M40.8359 45.2394C41.1786 44.9022 41.679 44.4289 42.31 43.8959C43.5393 42.857 44.1213 42.5578 45.2418 40.8607C47.0586 38.1029 46.6941 36.5255 46.6941 36.5255C46.6941 36.5255 46.6288 37.2055 46.4711 37.5862C46.3134 37.967 46.036 38.277 46.036 38.277L46.161 37.6732C46.161 37.6732 45.9325 37.9506 45.6551 37.8255C45.3777 37.7059 45.4648 36.754 45.6388 36.6343C45.8129 36.5092 45.7749 37.2381 45.7749 37.2381C45.7749 37.2381 46.0632 36.8954 46.1774 36.0577C46.2916 35.2201 46.0958 34.7251 46.0958 34.7251L43.5339 38.3858C43.5339 38.3858 42.8485 39.2833 42.2937 40.4147C41.7389 41.5406 41.2004 43.2758 41.2004 43.2758C41.2004 43.2758 40.8359 44.4289 40.8359 45.2231V45.2394" fill="#2B5761"/>
<path d="M39.0303 9.11103C39.0303 9.11103 39.6069 8.80098 40.8525 8.72482C42.0655 8.64866 42.5496 9.01311 42.5496 9.01311L42.6747 14.0608L41.4617 15.5458L40.2704 15.1052L39.0303 9.11103" fill="#70A3AB"/>
<path d="M40.9887 36.4057L40.9998 29.9382C40.9998 29.9382 40.8856 28.7144 40.8366 28.5512C40.6299 27.8767 40.3417 28.2357 40.2002 25.6901C40.0534 23.139 40.1891 16.9001 40.2274 16.3779C40.2654 15.8557 38.8839 14.9202 38.9655 14.0879C39.0416 13.2557 39.5094 12.9674 39.5094 12.9674C39.5094 12.9674 39.0688 12.6574 39.0906 12.3963C39.1177 12.1352 39.3517 11.9285 39.3517 11.9285C39.3517 11.9285 38.9546 11.8523 38.96 11.4335C38.9656 11.0201 39.319 10.8624 40.1567 10.7754C40.9889 10.6883 41.4404 10.7916 41.4784 10.9331C41.511 11.0691 41.4947 11.5205 41.337 11.5042C41.1847 11.4879 39.814 11.662 39.814 11.662L39.8466 11.798C39.8466 11.798 41.0052 11.749 41.4947 11.8143C41.9788 11.885 42.1529 12.0047 42.2236 12.1298C42.2943 12.2494 42.2943 12.8043 42.1203 12.8587C41.9462 12.9077 41.5981 12.8207 40.8529 12.8369C40.1077 12.8587 39.901 12.9077 39.901 12.9077C39.901 12.9077 41.0378 12.9947 41.2717 13.0654C41.7014 13.1959 41.6797 13.7236 41.4621 13.7236C41.1847 13.7236 40.1784 13.6637 40.0751 13.9575C39.9717 14.2512 40.2219 15.0562 40.9998 14.9474C41.783 14.8441 42.4847 14.2458 42.5337 13.7073C42.5881 13.1688 42.8491 12.5106 42.5337 12.1462C42.2236 11.7817 41.8048 11.2432 41.8265 11.0529C41.8428 10.8625 42.0659 10.4273 42.2943 10.4817C42.5173 10.5307 42.6207 10.9821 42.8274 11.1725C43.0395 11.3629 43.6814 12.1462 43.6814 12.9621C43.6814 13.778 43.1755 15.7253 43.1537 17.0035C43.1266 18.2763 43.9588 21.8391 44.0621 23.0902C44.1654 24.3358 44.5789 29.4597 44.5789 29.4597C44.5789 29.4597 44.7093 31.3852 43.5127 33.338C42.3161 35.2907 40.9889 36.4058 40.9889 36.4058" fill="#2B5761"/>
<path d="M41.5599 6.40211L39.4603 6.53815L39.3242 4.41681L41.4238 4.28076L41.5599 6.40211Z" fill="#2B5761"/>
<path d="M40.1397 13.8704C40.1397 13.8704 40.428 17.0034 40.6619 17.2645C40.8958 17.5256 42.6582 17.3896 42.6582 16.8729C42.6582 16.3507 42.6744 12.4888 42.6744 12.4888H42.261C42.261 12.4888 42.2882 12.7227 42.1469 12.8423C42.0054 12.9619 39.9004 12.9076 39.9004 12.9076C39.9004 12.9076 41.1895 12.9402 41.4778 13.1198C41.6464 13.2231 41.7498 13.4896 41.5594 13.6746C41.369 13.8595 40.1397 13.8704 40.1397 13.8704" fill="#70A3AB"/>
<path d="M44.3228 8.12649C44.0672 8.83905 42.7509 9.08382 40.7274 9.16542C38.704 9.24702 37.2843 9.1274 36.996 8.42566C36.3922 6.97335 38.6224 6.22272 40.6459 6.14112C42.6693 6.05952 44.8124 6.76665 44.3228 8.12649" fill="#70A3AB"/>
<path d="M44.3223 8.12654C44.344 8.714 42.7231 9.2525 40.6997 9.33408C38.6762 9.41568 37.0172 9.00773 36.9955 8.42572C36.9683 7.8437 38.5892 7.3052 40.6181 7.22362C42.6415 7.13659 44.3005 7.54454 44.3223 8.12654Z" fill="#2B5761"/>
<path d="M38.5348 3.26908C38.4695 2.55652 38.9428 2.06698 38.9591 1.97995C39.0679 1.43058 38.4424 1.0063 38.4424 1.0063C38.4424 1.0063 38.883 0.886685 39.2202 1.02259C39.5303 1.15307 39.6118 1.25106 39.6118 1.25106C39.6118 1.25106 39.5955 0.881173 39.911 0.484093C40.2265 0.0924587 40.6562 0.0489437 40.6562 0.0489437C40.4658 0.380758 40.3462 0.734306 40.3407 1.16403C40.5964 0.571122 40.8574 0.29916 41.434 0C41.4396 0.130475 41.1566 0.968201 41.3524 1.29457C41.5972 1.69708 41.9834 2.06152 42.0215 2.84479C42.0649 3.67701 41.8311 4.00881 41.2545 4.37869C40.8248 4.66153 39.8185 4.84648 39.1549 4.50374C38.7306 4.28072 38.5675 3.67151 38.5348 3.269" fill="#FDD48F"/>
<path d="M45.6719 34.0014C45.6719 34.0014 45.3184 34.6704 44.8125 35.1437C44.2305 35.6985 43.4255 36.1826 43.4255 36.1826C43.4255 36.1826 44.1761 35.1545 44.4916 34.5345C44.8016 33.9089 45.0301 33.0441 45.0301 33.0441C45.0301 33.0441 43.8878 35.5244 41.4999 37.0583L41.3531 36.0412L40.9941 29.8838C40.7928 29.9817 40.6677 30.0415 40.6677 30.0415C40.6677 30.0415 38.2526 32.9897 38.1819 35.4863C38.1112 37.983 39.743 39.8922 39.743 39.8922C43.7464 39.1634 45.6719 34.0014 45.6719 34.0014" fill="#2B5761"/>
<path d="M42.2119 35.8073C42.2119 35.8073 42.9789 35.1056 44.2408 33.1148C45.5027 31.124 45.4266 30.2319 45.4266 30.2319L45.6713 30.6399C45.6713 30.6399 45.5409 31.6842 44.4747 33.2181C43.4086 34.7521 42.2119 35.8073 42.2119 35.8073Z" fill="#2B5761"/>
<path d="M46.7269 41.0127C46.7269 41.0127 45.3562 44.1458 44.5131 46.8491C44.0562 48.3395 43.9202 49.3186 44.0072 49.3458C44.0997 49.373 44.611 47.3931 45.3562 45.2391C46.0687 43.1667 46.7269 41.0127 46.7269 41.0127" fill="#2B5761"/>
<path d="M46.7266 43.4278C46.7266 43.3897 47.363 41.4805 47.6513 39.9847C47.9341 38.4888 47.5696 36.9658 47.5316 36.6667C47.4936 36.3675 47.7003 36.3131 47.7601 36.5742C47.82 36.8353 48.2659 37.9558 47.9341 39.6692C47.5099 41.9211 46.7266 43.4278 46.7266 43.4278" fill="#70A3AB"/>
<path d="M48.3423 36.5635C48.3423 36.5635 48.5762 37.5262 48.5109 38.7719C48.4456 40.0229 48.1846 42.079 48.1846 42.079C48.1846 42.079 48.6524 40.333 48.8101 39.4137C48.9624 38.489 49.0059 38.0212 49.0059 38.0212C49.0059 38.0212 48.7176 37.2924 48.3423 36.5635" fill="#70A3AB"/>
<path d="M50.1758 39.1636C50.1758 39.1636 50.8503 40.1644 51.6716 40.5941C52.4875 41.0238 53.8691 41.1653 53.8691 41.1653C53.8691 41.1653 53.6787 41.372 53.1892 41.5841C52.7051 41.7908 52.0197 41.7636 52.0197 41.7636C52.0197 41.7636 52.2917 41.905 52.4712 41.9812C52.6507 42.0573 53.1457 42.0247 53.1457 42.0247C53.1457 42.0247 52.8954 42.2858 52.7649 42.2912C52.6344 42.3021 52.1013 42.2966 51.4921 41.7582C50.9862 41.3067 50.562 40.5941 50.562 40.5941C50.562 40.5941 51.2365 41.3339 51.6227 41.5025C51.7477 41.5623 52.1068 41.6439 52.2645 41.4155C52.4168 41.1925 51.9708 41.372 51.2745 40.7301C50.6381 40.1318 50.1758 39.1636 50.1758 39.1636Z" fill="#70A3AB"/>
<path d="M50.7735 49.1337L55.7342 41.3989C55.7342 41.3989 53.5475 44.26 52.7316 45.4077C51.9157 46.55 50.458 48.9107 50.7735 49.1337Z" fill="#2B5761"/>
<path d="M51.2744 26.3155L52.6941 21.2515V26.3155H51.2744Z" fill="#2B5761"/>
<path d="M53.8691 26.865L58.5579 23.5361L54.5871 27.3872L53.8691 26.865Z" fill="#2B5761"/>
<path d="M55.1963 28.2197L60.5704 27.2134L55.7348 29.1226L55.1963 28.2197Z" fill="#2B5761"/>
<path d="M55.7344 29.8838L60.88 30.7541L55.7344 31.0315V29.8838Z" fill="#2B5761"/>
<path d="M49.8543 26.6965L46.248 23.2588L48.5924 27.3873L49.8543 26.6965Z" fill="#2B5761"/>
<path d="M47.7385 28.0129L44.4531 27.877L44.4966 28.3991L47.2326 29.1389L47.7385 28.0129" fill="#2B5761"/>
<path d="M46.819 31.4993C46.8078 31.4123 46.634 29.3997 47.6893 27.8168C48.5269 26.5658 49.9357 25.875 51.66 25.875C51.8395 25.875 52.019 25.8806 52.1985 25.8967C53.8249 26.0272 55.0433 26.7344 55.5328 27.8386C56.0713 29.0298 55.8701 30.5855 55.8374 30.7976C56.0496 31.6081 56.3923 32.9733 56.3052 33.1583C56.2672 33.2507 56.2291 33.3323 51.6383 33.3867C49.4027 33.4139 47.1508 33.4139 47.129 33.4139L47.0366 33.4194L46.819 31.4993" fill="#2B5761"/>
<path d="M47.1294 33.311L46.9227 31.4888C46.9227 31.4888 46.7268 29.4436 47.7766 27.877C48.821 26.3159 50.5779 25.8699 52.188 26.0004C53.798 26.1309 54.9729 26.8381 55.4407 27.877C56.001 29.1226 55.7344 30.8034 55.7344 30.8034C55.7344 30.8034 56.2947 32.9356 56.2131 33.1151C56.1315 33.3001 47.1294 33.311 47.1294 33.311Z" fill="#8ABACA"/>
<path d="M46.9231 29.748L45.1553 29.8296L45.672 30.6401L46.7327 30.8033L46.9231 29.748" fill="#2B5761"/>
<path d="M46.9229 31.4886C46.9229 31.4886 47.3906 26.6802 51.6061 26.653C55.8162 26.6258 55.7346 30.8032 55.7346 30.8032L55.4028 31.0969C55.4028 31.0969 55.2505 28.3174 51.7693 28.3664C48.2881 28.4153 47.0262 32.5057 47.0262 32.5057L46.9229 31.4886" fill="#70A3AB"/>
<path d="M51.5028 28.3772C51.5354 27.7898 51.2852 26.8324 51.1111 26.8651C50.7848 26.9358 50.9643 27.8061 50.9643 28.4044L51.5028 28.3772" fill="#2B5761"/>
<path d="M50.6592 28.4044C50.6266 27.7843 50.3437 27.0337 50.1207 27.1207C49.8052 27.2458 50.1698 27.9692 50.1698 28.573L50.6593 28.4044" fill="#2B5761"/>
<path d="M49.8819 28.6654C49.7405 27.9529 49.4576 27.4851 49.2346 27.5775C48.9191 27.6972 49.3651 28.2847 49.4413 28.9156L49.8819 28.6654" fill="#2B5761"/>
<path d="M49.2941 29.0301C49.0276 28.3121 48.6686 28.0238 48.5652 28.1434C48.4129 28.3121 48.7447 28.6439 48.9297 29.2857L49.2941 29.0301Z" fill="#2B5761"/>
<path d="M48.7449 29.4325C48.4729 28.9048 48.1574 28.5839 48.0921 28.6873C47.9943 28.8396 48.2989 29.2094 48.4947 29.6827L48.7449 29.4325Z" fill="#2B5761"/>
<path d="M48.3531 29.9273C48.092 29.4487 47.782 29.1604 47.7167 29.2583C47.6188 29.3997 47.9126 29.7261 48.1029 30.1558L48.3531 29.9273Z" fill="#2B5761"/>
<path d="M48.0327 30.3843C47.788 30.0579 47.4834 29.8077 47.4453 29.8839C47.3854 30.0035 47.6846 30.2809 47.8696 30.5801L48.0327 30.3843Z" fill="#2B5761"/>
<path d="M51.9271 28.3499C51.8781 27.7353 52.0305 26.8106 52.2644 26.8704C52.5907 26.9466 52.3949 27.7135 52.4765 28.3064L51.9271 28.3499Z" fill="#2B5761"/>
<path d="M52.7208 28.3008C52.7588 27.5774 52.9819 27.1041 53.2158 27.1585C53.5422 27.2347 53.1941 27.8058 53.2102 28.4422L52.7207 28.3008" fill="#2B5761"/>
<path d="M53.4014 28.4589C53.5646 27.7083 53.8855 27.3765 54.0052 27.4799C54.1792 27.6267 53.8964 27.9966 53.7985 28.6602L53.4014 28.4589" fill="#2B5761"/>
<path d="M54.0371 28.7201C54.2275 28.1598 54.4994 27.7954 54.5756 27.8879C54.6952 28.0293 54.4451 28.4318 54.32 28.9322L54.0371 28.7201" fill="#2B5761"/>
<path d="M54.5322 29.1385C54.7063 28.6762 54.9511 28.3716 55.0218 28.4532C55.1305 28.5674 54.9022 28.8992 54.7879 29.3126L54.5322 29.1385Z" fill="#2B5761"/>
<path d="M54.9463 29.5959C55.0823 29.3674 55.2618 29.177 55.2944 29.226C55.3434 29.2913 55.1693 29.498 55.0714 29.7047L54.9463 29.5959" fill="#2B5761"/>
<path d="M47.7765 30.8139C47.5589 30.5582 47.276 30.3624 47.238 30.4277C47.1781 30.5256 47.4501 30.7432 47.6133 30.9825L47.7765 30.8139Z" fill="#2B5761"/>
<path d="M47.875 31.5321C47.875 31.5321 48.1361 33.7949 49.0064 35.3124C49.7951 36.7049 50.9809 37.151 52.1395 37.1673C53.2981 37.189 54.25 35.9652 54.609 34.9698C55.0496 33.7296 55.3052 31.5321 55.3052 31.5321C55.3052 31.5321 54.0596 29.5902 52.1884 29.4597C50.3227 29.3291 47.875 31.5321 47.875 31.5321Z" fill="#8ABACA"/>
<path d="M51.2256 37.0586L51.416 39.3866L51.6118 37.1293L51.2256 37.0586Z" fill="#214A51"/>
<path d="M51.8564 37.1729H52.1828V39.4411L51.8564 37.1729Z" fill="#214A51"/>
<path d="M54.3803 31.9181C54.3803 31.9181 54.1301 31.3633 53.4883 31.3633C52.8954 31.3633 52.3786 31.9671 52.4657 32.0214C52.5527 32.0704 52.7159 32.3097 53.3468 32.3369C53.9778 32.3587 54.3803 31.9181 54.3803 31.9181Z" fill="#2B5761"/>
<path d="M49.3271 31.9181C49.3271 31.9181 49.5828 31.3633 50.2246 31.3633C50.8175 31.3633 51.3343 31.9671 51.2473 32.0214C51.1602 32.0704 50.997 32.3097 50.3661 32.3369C49.7351 32.3587 49.3271 31.9181 49.3271 31.9181" fill="#2B5761"/>
<path d="M52.7375 33.6913C52.6941 33.4194 52.4057 33.2507 52.4057 33.2507C52.4057 33.2507 52.2534 32.5763 52.2643 32.0922C52.2754 31.6135 52.286 31.3633 52.286 31.3633C52.286 31.3633 52.15 31.4993 52.1228 31.706C52.0902 31.9127 52.0902 33.0984 52.1228 33.2507C52.15 33.403 52.2153 33.5553 52.2316 33.7022C52.2533 33.8545 52.0086 33.9959 51.8563 33.9959C51.7039 33.9959 51.4592 33.8545 51.4755 33.7022C51.4972 33.5553 51.5625 33.403 51.5897 33.2507C51.6168 33.0984 51.6168 31.9127 51.5897 31.706C51.5625 31.4993 51.4211 31.3633 51.4211 31.3633C51.4211 31.3633 51.4374 31.6135 51.4482 32.0922C51.4594 32.5763 51.3068 33.2507 51.3068 33.2507C51.3068 33.2507 51.0131 33.4194 50.975 33.6913C50.926 33.9959 51.1382 34.1319 51.2578 34.1754L51.4863 34.1211L51.8562 34.2625L52.2261 34.1211L52.4545 34.1754C52.5741 34.1319 52.7863 33.9959 52.7374 33.6913" fill="#2B5761"/>
<path d="M52.3349 34.5021C52.1391 34.5293 51.927 34.7034 51.8563 34.7034C51.7855 34.7034 51.5734 34.5293 51.3776 34.5021C51.1818 34.4804 50.627 35.008 50.627 35.008L50.763 35.0515C50.8663 35.0406 51.0785 34.8448 51.3722 34.7958C51.6605 34.7415 51.8563 34.921 51.8563 34.921C51.8563 34.921 52.0521 34.7414 52.3404 34.7958C52.6341 34.8448 52.8463 35.0406 52.9496 35.0515L53.0857 35.008C53.0857 35.008 52.5309 34.4804 52.335 34.5021" fill="#2B5761"/>
<path d="M52.536 35.2526C52.4327 35.3124 52.1008 35.3233 51.8561 35.3233C51.6113 35.3233 51.2795 35.3125 51.1761 35.2526L50.9531 35.084L51.1217 35.3505L51.8561 35.4865L52.5849 35.3505L52.759 35.084L52.536 35.2526" fill="#2B5761"/>
<path d="M47.1787 32.0977C47.1787 32.0977 47.8042 32.0433 48.3536 31.8475C48.903 31.6625 51.2093 30.9173 51.59 30.1232C51.9218 29.427 51.7696 28.3663 51.7696 28.3663C51.7696 28.3663 50.9265 27.9311 49.2946 28.9755C47.5704 30.0797 47.1787 32.0977 47.1787 32.0977" fill="#2B5761"/>
<path d="M55.365 31.5264C54.8645 31.5373 52.667 30.7703 52.085 29.9109C51.8022 29.4975 51.7695 28.3607 51.7695 28.3607C51.7695 28.3607 52.7377 27.9419 54.1357 28.7904C55.9252 29.8837 55.365 31.5264 55.365 31.5264Z" fill="#2B5761"/>
<path d="M51.7314 93.4595C51.7532 93.6335 51.7695 93.7369 51.7695 93.7369C51.7695 93.7369 51.7532 93.6227 51.7314 93.4595Z" fill="#2B5761"/>
<path d="M63.8067 78.3486C63.8067 78.3486 56.7192 82.0855 56.6322 82.6022C56.5451 83.1244 59.0037 84.6855 58.9222 84.8596C58.8351 85.0336 57.1 87.1115 53.8418 88.3244C50.5836 89.5429 50.1321 90.1629 49.6807 90.5818C49.2292 90.9952 49.5338 91.3814 48.794 91.9688C48.0488 92.5563 45.4814 94.2588 45.4814 94.2588C45.4814 94.2588 45.6718 94.4981 45.8459 95.0747C46.0199 95.6458 45.9166 96.9295 45.9166 96.9295C45.9166 96.9295 46.2648 95.2107 46.7489 94.3241C47.233 93.4429 47.5811 93.4266 47.5811 93.4266L47.7007 94.4709L47.9292 93.1492L48.4459 92.6814L48.5384 93.8944C48.5384 93.8944 48.7614 93.4755 48.881 92.937C49.0061 92.404 49.0061 92.404 49.0061 92.404C49.0061 92.404 49.4902 91.7948 49.9199 91.2073C50.355 90.6144 50.5618 91.2563 50.5618 91.2563C50.5618 91.2563 50.7141 91.2399 50.986 91.3596C51.258 91.4847 50.986 92.4203 50.986 92.4203C50.986 92.4203 51.2906 92.0559 51.4647 92.3333C51.5843 92.5236 51.6823 93.1057 51.7312 93.4592C51.6496 92.7521 51.481 90.8918 51.9706 90.2337C52.5743 89.4178 54.0484 88.9337 54.0484 88.9337C54.0484 88.9337 54.0864 92.6759 53.858 94.4709C53.635 96.2714 52.1446 99.8777 52.1446 99.8777H58.4869C58.4869 99.8777 58.6773 94.6396 59.1995 91.3107C59.7217 87.9818 60.0861 85.4633 60.7606 84.4571C61.4351 83.4562 61.6635 89.1784 61.6635 89.1784C61.6635 89.1784 61.9246 88.6726 62.202 88.4278C62.4794 88.1885 62.7895 88.6019 62.7895 88.6019C62.7895 88.6019 62.7732 87.7696 63.1539 87.5956C63.5347 87.4269 63.8066 87.7696 63.8066 87.7696L63.4313 84.147L63.8991 83.4725L64.3832 82.6022L64.0732 80.1763L65.3568 78.9959L63.8066 78.3486" fill="#2B5761"/>
<path d="M53.2158 99.878C53.2158 99.878 54.4179 96.56 55.4187 97.4139C56.6317 98.4583 59.1284 99.2198 59.1665 99.4591C59.1991 99.7039 59.1665 99.878 59.1665 99.878H53.2158Z" fill="#70A3AB"/>
<path d="M39.0681 9.37224C39.2802 9.26892 39.5902 9.49185 39.5358 9.70947C39.4814 9.92704 39.2584 10.199 39.2584 10.199L39.3999 10.9007C39.3999 10.9007 38.807 10.6614 38.7417 10.0141C38.6927 9.51366 39.0681 9.37224 39.0681 9.37224Z" fill="#2B5761"/>
</svg>
